<!-- Generated by readme-aura https://github.com/collectioneur/readme-aura -->
<svg width="860" height="260" viewBox="0 0 860 260" xmlns="http://www.w3.org/2000/svg"><defs><clipPath id="satori_bc-id"><path x="0" y="0" width="860" height="260" d="M20,0 h820 a20,20 0 0 1 20,20 v220 a20,20 0 0 1 -20,20 h-820 a20,20 0 0 1 -20,-20 v-220 a20,20 0 0 1 20,-20"/></clipPath></defs><clipPath id="satori_cp-id"><path x="0" y="0" width="860" height="260" d="M20,0 h820 a20,20 0 0 1 20,20 v220 a20,20 0 0 1 -20,20 h-820 a20,20 0 0 1 -20,-20 v-220 a20,20 0 0 1 20,-20"/></clipPath><mask id="satori_om-id"><rect x="1" y="1" width="858" height="258" fill="#fff"/><path width="860" height="260" fill="none" stroke="#000" stroke-width="2" d="M5.8580000000000005,5.8580000000000005 A20,20 0 0 1 20,0 h820 a20,20 0 0 1 20,20 v220 a20,20 0 0 1 -20,20 h-820 a20,20 0 0 1 -20,-20 v-220 A20,20 0 0 1 5.8580000000000005,5.8580000000000005"/></mask><path x="0" y="0" width="860" height="260" fill="#06060a" d="M20,0 h820 a20,20 0 0 1 20,20 v220 a20,20 0 0 1 -20,20 h-820 a20,20 0 0 1 -20,-20 v-220 a20,20 0 0 1 20,-20"/><path width="860" height="260" clip-path="url(#satori_bc-id)" fill="none" stroke="rgba(139,92,246,0.08)" stroke-width="2" d="M5.8580000000000005,5.8580000000000005 A20,20 0 0 1 20,0 h820 a20,20 0 0 1 20,20 v220 a20,20 0 0 1 -20,20 h-820 a20,20 0 0 1 -20,-20 v-220 A20,20 0 0 1 5.8580000000000005,5.8580000000000005"/><clipPath id="satori_cp-id-0" clip-path="url(#satori_cp-id)"><rect x="1" y="1" width="860" height="260"/></clipPath><mask id="satori_om-id-0"><rect x="1" y="1" width="860" height="260" fill="#fff" mask="url(#satori_om-id)"/></mask><svg x="1" y="1" width="860" height="260" preserveAspectRatio="none" clip-path="url(#satori_cp-id-0)" mask="url(#satori_om-id-0)"><defs><radialGradient id="tsg1" cx="50%" cy="50%" r="50%"><stop offset="0%" stop-color="rgba(139,92,246,0.35)"></stop><stop offset="100%" stop-color="rgba(139,92,246,0)"></stop></radialGradient><radialGradient id="tsg2" cx="50%" cy="50%" r="50%"><stop offset="0%" stop-color="rgba(0,229,255,0.30)"></stop><stop offset="100%" stop-color="rgba(0,229,255,0)"></stop></radialGradient><radialGradient id="tsg3" cx="50%" cy="50%" r="50%"><stop offset="0%" stop-color="rgba(51,102,255,0.30)"></stop><stop offset="100%" stop-color="rgba(51,102,255,0)"></stop></radialGradient></defs><ellipse id="tso1" cx="150" cy="220" rx="200" ry="160" fill="url(#tsg1)"></ellipse><ellipse id="tso2" cx="700" cy="50" rx="180" ry="140" fill="url(#tsg2)"></ellipse><ellipse id="tso3" cx="430" cy="240" rx="160" ry="120" fill="url(#tsg3)"></ellipse><style>

    @keyframes ts-orb1 { 0%, 100% { transform: translate(0,0); opacity: 0.4; } 50% { transform: translate(30px,-20px); opacity: 0.7; } }
    @keyframes ts-orb2 { 0%, 100% { transform: translate(0,0); opacity: 0.35; } 50% { transform: translate(-25px,15px); opacity: 0.6; } }
    @keyframes ts-pulse { 0%, 100% { opacity: 0.7; } 50% { opacity: 1; } }
    #tso1 { animation: ts-orb1 10s ease-in-out infinite; }
    #tso2 { animation: ts-orb2 13s ease-in-out infinite 1s; }
    #tso3 { animation: ts-orb1 9s ease-in-out infinite 2s; }
    #tsp1 { animation: ts-pulse 3s ease-in-out infinite; }
    #tsp2 { animation: ts-pulse 3s ease-in-out infinite 0.5s; }
    #tsp3 { animation: ts-pulse 3s ease-in-out infinite 1s; }
    #tsp4 { animation: ts-pulse 3s ease-in-out infinite 1.5s; }
    #tsp5 { animation: ts-pulse 3s ease-in-out infinite 2s; }
    #tsp6 { animation: ts-pulse 3s ease-in-out infinite 0.3s; }
    #tsp7 { animation: ts-pulse 3s ease-in-out infinite 0.8s; }
    #tsp8 { animation: ts-pulse 3s ease-in-out infinite 1.3s; }
    #tsp9 { animation: ts-pulse 3s ease-in-out infinite 1.8s; }
  
</style>
</svg><mask id="satori_om-id-0-0"><rect x="1" y="1" width="0" height="260" fill="#fff" mask="url(#satori_om-id)"/></mask><mask id="satori_om-id-0-0-0"><rect x="1" y="1" width="0" height="260" fill="#fff" mask="url(#satori_om-id)"/></mask><mask id="satori_om-id-0-0-0-0"><rect x="1" y="1" width="0" height="260" fill="#fff" mask="url(#satori_om-id)"/></mask><mask id="satori_om-id-0-0-0-1"><rect x="1" y="1" width="0" height="260" fill="#fff" mask="url(#satori_om-id)"/></mask><mask id="satori_om-id-0-0-1"><rect x="1" y="1" width="0" height="260" fill="#fff" mask="url(#satori_om-id)"/></mask><mask id="satori_om-id-0-0-1-0"><rect x="1" y="1" width="0" height="260" fill="#fff" mask="url(#satori_om-id)"/></mask><mask id="satori_om-id-0-0-1-1"><rect x="1" y="1" width="0" height="260" fill="#fff" mask="url(#satori_om-id)"/></mask><mask id="satori_om-id-0-0-2"><rect x="1" y="1" width="0" height="260" fill="#fff" mask="url(#satori_om-id)"/></mask><mask id="satori_om-id-0-0-2-0"><rect x="1" y="1" width="0" height="260" fill="#fff" mask="url(#satori_om-id)"/></mask><mask id="satori_om-id-0-0-2-1"><rect x="1" y="1" width="0" height="260" fill="#fff" mask="url(#satori_om-id)"/></mask><mask id="satori_om-id-0-1"><rect x="1" y="1" width="0" height="260" fill="#fff" mask="url(#satori_om-id)"/></mask><mask id="satori_om-id-0-2"><rect x="1" y="1" width="0" height="260" fill="#fff" mask="url(#satori_om-id)"/></mask><mask id="satori_om-id-0-3"><rect x="1" y="1" width="0" height="260" fill="#fff" mask="url(#satori_om-id)"/></mask><mask id="satori_om-id-1"><rect x="370" y="70" width="121" height="13" fill="#fff" mask="url(#satori_om-id)"/></mask><g mask="url(#satori_om-id)" clip-path="url(#satori_cp-id)"><path fill="rgba(139,92,246,0.50)" d="M373.0 73.9L370.5 73.9L370.5 73.0L376.6 73.0L376.6 73.9L374.1 73.9L374.1 81L373.0 81L373.0 73.9ZM388.0 81L383.1 81L383.1 73.0L387.9 73.0L387.9 73.9L384.1 73.9L384.1 76.5L387.7 76.5L387.7 77.4L384.1 77.4L384.1 80.1L388.0 80.1L388.0 81ZM397.9 81.1L397.9 81.1Q396.9 81.1 396.1 80.6Q395.3 80.1 394.8 79.2Q394.4 78.3 394.4 77.0L394.4 77.0Q394.4 75.7 394.8 74.8Q395.3 73.9 396.1 73.4Q396.9 72.9 397.9 72.9L397.9 72.9Q398.5 72.9 399.1 73.1Q399.6 73.2 400.0 73.6Q400.5 73.9 400.8 74.4Q401.0 74.9 401.1 75.5L401.1 75.5L400.1 75.5Q400.0 75.1 399.8 74.8Q399.6 74.5 399.3 74.3Q399.0 74.0 398.7 73.9Q398.3 73.8 397.9 73.8L397.9 73.8Q397.2 73.8 396.6 74.2Q396.0 74.6 395.7 75.3Q395.4 76.0 395.4 77.0L395.4 77.0Q395.4 78.0 395.7 78.7Q396.0 79.4 396.6 79.8Q397.2 80.2 397.9 80.2L397.9 80.2Q398.3 80.2 398.7 80.1Q399.0 79.9 399.3 79.7Q399.6 79.5 399.8 79.2Q400.0 78.9 400.1 78.5L400.1 78.5L401.1 78.5Q401.0 79.1 400.8 79.6Q400.5 80.1 400.0 80.4Q399.6 80.7 399.1 80.9Q398.5 81.1 397.9 81.1ZM408.7 81L407.7 81L407.7 73.0L408.7 73.0L408.7 76.5L412.9 76.5L412.9 73.0L414.0 73.0L414.0 81L412.9 81L412.9 77.4L408.7 77.4L408.7 81Z M431.5 81.1L431.5 81.1Q430.7 81.1 430.0 80.9Q429.4 80.6 429.0 80.1Q428.7 79.6 428.6 78.9L428.6 78.9L429.7 78.9Q429.7 79.4 430.0 79.6Q430.3 79.9 430.7 80.1Q431.1 80.2 431.5 80.2L431.5 80.2Q432.1 80.2 432.5 80.0Q433.0 79.9 433.2 79.5Q433.5 79.2 433.5 78.8L433.5 78.8Q433.5 78.4 433.2 78.2Q433.0 77.9 432.7 77.8Q432.3 77.6 431.9 77.5L431.9 77.5L430.9 77.2Q429.9 77.0 429.4 76.4Q428.9 75.9 428.9 75.1L428.9 75.1Q428.9 74.5 429.2 74.0Q429.6 73.4 430.2 73.2Q430.8 72.9 431.6 72.9L431.6 72.9Q432.4 72.9 433.0 73.2Q433.6 73.4 434.0 73.9Q434.3 74.4 434.3 75.0L434.3 75.0L433.3 75.0Q433.3 74.4 432.8 74.1Q432.3 73.8 431.6 73.8L431.6 73.8Q431.1 73.8 430.7 74.0Q430.3 74.1 430.1 74.4Q429.9 74.7 429.9 75.1L429.9 75.1Q429.9 75.5 430.1 75.8Q430.4 76.0 430.7 76.2Q431.1 76.3 431.4 76.4L431.4 76.4L432.2 76.6Q432.5 76.7 432.9 76.8Q433.3 77.0 433.6 77.2Q434.0 77.5 434.2 77.9Q434.5 78.3 434.5 78.8L434.5 78.8Q434.5 79.5 434.1 80.0Q433.8 80.5 433.1 80.8Q432.5 81.1 431.5 81.1ZM443.1 73.9L440.6 73.9L440.6 73.0L446.6 73.0L446.6 73.9L444.1 73.9L444.1 81L443.1 81L443.1 73.9ZM453.5 81L452.5 81L455.4 73.0L456.5 73.0L459.5 81L458.4 81L457.6 78.8L454.3 78.8L453.5 81ZM454.6 77.9L457.3 77.9L456.7 76.3Q456.6 75.8 456.4 75.2L456.4 75.2Q456.2 74.6 455.9 73.8L455.9 73.8Q455.7 74.6 455.5 75.2L455.5 75.2Q455.3 75.8 455.2 76.3L455.2 76.3L454.6 77.9ZM469.0 81.1L469.0 81.1Q467.9 81.1 467.1 80.6Q466.3 80.1 465.9 79.2Q465.4 78.3 465.4 77.0L465.4 77.0Q465.4 75.7 465.9 74.8Q466.3 73.9 467.1 73.4Q467.9 72.9 469.0 72.9L469.0 72.9Q469.6 72.9 470.1 73.1Q470.7 73.2 471.1 73.6Q471.5 73.9 471.8 74.4Q472.1 74.9 472.2 75.5L472.2 75.5L471.2 75.5Q471.1 75.1 470.9 74.8Q470.7 74.5 470.4 74.3Q470.1 74.0 469.7 73.9Q469.4 73.8 469.0 73.8L469.0 73.8Q468.2 73.8 467.7 74.2Q467.1 74.6 466.8 75.3Q466.4 76.0 466.4 77.0L466.4 77.0Q466.4 78.0 466.8 78.7Q467.1 79.4 467.7 79.8Q468.3 80.2 469.0 80.2L469.0 80.2Q469.4 80.2 469.7 80.1Q470.1 79.9 470.4 79.7Q470.7 79.5 470.9 79.2Q471.1 78.9 471.2 78.5L471.2 78.5L472.2 78.5Q472.1 79.1 471.8 79.6Q471.5 80.1 471.1 80.4Q470.7 80.7 470.1 80.9Q469.6 81.1 469.0 81.1ZM479.8 81L478.8 81L478.8 73.0L479.8 73.0L479.8 75.7L479.8 77.2Q479.9 77.1 480.0 76.9L480.0 76.9Q480.3 76.6 480.6 76.2Q480.8 75.9 481.2 75.6L481.2 75.6L483.5 73.0L484.9 73.0L481.6 76.5L484.9 81L483.7 81L480.9 77.2L479.8 78.4L479.8 81Z "/></g><mask id="satori_om-id-2"><rect x="50" y="103" width="760" height="88" fill="#fff" mask="url(#satori_om-id)"/></mask><defs><clipPath id="satori_bc-id-2-0" clip-path="url(#satori_cp-id)"><path x="79" y="103" width="95" height="38" d="M91,103 h71 a12,12 0 0 1 12,12 v14 a12,12 0 0 1 -12,12 h-71 a12,12 0 0 1 -12,-12 v-14 a12,12 0 0 1 12,-12"/></clipPath></defs><mask id="satori_om-id-2-0"><rect x="80" y="104" width="93" height="36" fill="#fff" mask="url(#satori_om-id)"/><path width="95" height="38" fill="none" stroke="#000" stroke-width="2" d="M82.515,106.515 A12,12 0 0 1 91,103 h71 a12,12 0 0 1 12,12 v14 a12,12 0 0 1 -12,12 h-71 a12,12 0 0 1 -12,-12 v-14 A12,12 0 0 1 82.515,106.515"/></mask><path x="79" y="103" width="95" height="38" fill="rgba(97,218,251,0.06)" d="M91,103 h71 a12,12 0 0 1 12,12 v14 a12,12 0 0 1 -12,12 h-71 a12,12 0 0 1 -12,-12 v-14 a12,12 0 0 1 12,-12" clip-path="url(#satori_cp-id)" mask="url(#satori_om-id)"/><path width="95" height="38" clip-path="url(#satori_bc-id-2-0)" fill="none" stroke="rgba(97,218,251,0.18)" stroke-width="2" d="M82.515,106.515 A12,12 0 0 1 91,103 h71 a12,12 0 0 1 12,12 v14 a12,12 0 0 1 -12,12 h-71 a12,12 0 0 1 -12,-12 v-14 A12,12 0 0 1 82.515,106.515"/><mask id="satori_ms-id-2-0-0-0" maskUnits="userSpaceOnUse"><rect x="0" y="0" width="860" height="260" fill="#fff"/><path x="100" y="118" width="8" height="8" fill="#000"  stroke-width="0" d="M104,118 h0 a4,4 0 0 1 4,4 v0 a4,4 0 0 1 -4,4 h0 a4,4 0 0 1 -4,-4 v0 a4,4 0 0 1 4,-4" clip-path="url(#satori_cp-id)" mask="url(#satori_om-id)"/></mask><defs><filter id="satori_s-id-2-0-0-0" x="-200%" y="-200%" width="500%" height="500%"><feGaussianBlur stdDeviation="4" result="b"/><feFlood flood-color="rgba(97,218,251,0.5)" in="SourceGraphic" result="f"/><feComposite in="f" in2="b" operator="in"/></filter></defs><g mask="url(#satori_ms-id-2-0-0-0)" filter="url(#satori_s-id-2-0-0-0)" opacity="1"><path x="100" y="118" width="8" height="8" fill="#fff" stroke="#fff" stroke-width="0" d="M104,118 h0 a4,4 0 0 1 4,4 v0 a4,4 0 0 1 -4,4 h0 a4,4 0 0 1 -4,-4 v0 a4,4 0 0 1 4,-4" clip-path="url(#satori_cp-id)" mask="url(#satori_om-id)"/></g><mask id="satori_om-id-2-0-0"><rect x="100" y="118" width="8" height="8" fill="#fff" mask="url(#satori_om-id)"/></mask><path x="100" y="118" width="8" height="8" fill="rgba(97,218,251,0.8)" d="M104,118 h0 a4,4 0 0 1 4,4 v0 a4,4 0 0 1 -4,4 h0 a4,4 0 0 1 -4,-4 v0 a4,4 0 0 1 4,-4" clip-path="url(#satori_cp-id)" mask="url(#satori_om-id)"/><mask id="satori_om-id-2-0-1"><rect x="116" y="114" width="37" height="16" fill="#fff" mask="url(#satori_om-id)"/></mask><g mask="url(#satori_om-id)" clip-path="url(#satori_cp-id)"><path fill="rgba(255,255,255,0.75)" d="M118.3 127L117.1 127L117.1 117.5L120.4 117.5Q121.5 117.5 122.2 117.9Q122.9 118.3 123.3 119.0Q123.6 119.6 123.6 120.5Q123.6 121.3 123.3 122.0Q122.9 122.6 122.2 123.0L122.2 123.0Q122.0 123.1 121.9 123.1L121.9 123.1L124.0 127L122.6 127L120.6 123.3Q120.5 123.3 120.4 123.3L120.4 123.3L118.3 123.3L118.3 127ZM118.3 118.6L118.3 122.3L120.3 122.3Q121.1 122.3 121.5 122.0Q122.0 121.8 122.2 121.4Q122.4 121.0 122.4 120.5L122.4 120.5Q122.4 119.9 122.2 119.5Q122.0 119.1 121.5 118.8Q121.1 118.6 120.3 118.6L120.3 118.6L118.3 118.6ZM128.7 127.2L128.7 127.2Q127.6 127.2 126.9 126.7Q126.1 126.2 125.7 125.4Q125.3 124.6 125.3 123.5Q125.3 122.4 125.7 121.6Q126.1 120.8 126.8 120.3Q127.6 119.8 128.5 119.8L128.5 119.8Q129.1 119.8 129.6 120.0Q130.2 120.2 130.6 120.6Q131.1 121.0 131.3 121.7Q131.6 122.4 131.6 123.4L131.6 123.4L131.6 123.8L126.5 123.8Q126.5 124.5 126.8 125.0L126.8 125.0Q127.0 125.6 127.5 125.9Q128.0 126.1 128.7 126.1L128.7 126.1Q129.1 126.1 129.4 126.0Q129.8 125.9 130.0 125.7Q130.3 125.4 130.4 125.0L130.4 125.0L131.5 125.3Q131.3 125.9 130.9 126.3Q130.5 126.7 130.0 126.9Q129.4 127.2 128.7 127.2ZM126.5 122.9L126.5 122.9L130.4 122.9Q130.4 122.4 130.2 122.0L130.2 122.0Q130.0 121.4 129.6 121.1Q129.2 120.8 128.5 120.8Q127.9 120.8 127.4 121.1Q127.0 121.5 126.7 122.0L126.7 122.0Q126.5 122.4 126.5 122.9ZM135.5 127.2L135.5 127.2Q134.9 127.2 134.3 126.9Q133.8 126.7 133.4 126.2Q133.1 125.7 133.1 125.0L133.1 125.0Q133.1 124.4 133.4 124.0Q133.6 123.6 134.0 123.4Q134.4 123.2 134.9 123.1Q135.4 123.0 135.9 122.9L135.9 122.9Q136.5 122.8 136.9 122.8Q137.3 122.7 137.5 122.6Q137.7 122.5 137.7 122.2L137.7 122.2L137.7 122.2Q137.7 121.8 137.5 121.5Q137.4 121.1 137.0 121.0Q136.7 120.8 136.2 120.8L136.2 120.8Q135.7 120.8 135.3 121.0Q135.0 121.1 134.8 121.4Q134.5 121.6 134.4 121.9L134.4 121.9L133.3 121.5Q133.6 120.8 134.1 120.5Q134.5 120.1 135.1 120.0Q135.6 119.8 136.2 119.8L136.2 119.8Q136.5 119.8 137.0 119.9Q137.4 120.0 137.9 120.2Q138.3 120.5 138.6 121.0Q138.8 121.5 138.8 122.3L138.8 122.3L138.8 127L137.7 127L137.7 126.0L137.6 126.0Q137.5 126.3 137.3 126.5Q137.0 126.8 136.6 127.0Q136.1 127.2 135.5 127.2ZM135.7 126.2L135.7 126.2Q136.4 126.2 136.8 125.9Q137.2 125.7 137.5 125.3Q137.7 124.9 137.7 124.4L137.7 124.4L137.7 123.5Q137.6 123.5 137.4 123.6Q137.2 123.7 136.9 123.7Q136.6 123.8 136.3 123.8Q136.0 123.8 135.8 123.9L135.8 123.9Q135.4 123.9 135.1 124.0Q134.7 124.2 134.5 124.4Q134.3 124.6 134.3 125.0L134.3 125.0Q134.3 125.4 134.5 125.7Q134.6 125.9 135.0 126.0Q135.3 126.2 135.7 126.2ZM144.0 127.2L144.0 127.2Q143.1 127.2 142.3 126.7Q141.6 126.2 141.2 125.4Q140.8 124.6 140.8 123.5L140.8 123.5Q140.8 122.4 141.2 121.6Q141.6 120.7 142.3 120.3Q143.1 119.8 144.0 119.8L144.0 119.8Q144.6 119.8 145.0 119.9Q145.5 120.1 145.8 120.3Q146.2 120.6 146.5 120.9Q146.8 121.3 146.9 121.8L146.9 121.8L145.8 122.1Q145.7 121.8 145.6 121.6Q145.4 121.4 145.2 121.2Q145.0 121.0 144.7 120.9Q144.4 120.8 144.0 120.8L144.0 120.8Q143.3 120.8 142.9 121.2Q142.4 121.6 142.2 122.2Q142.0 122.8 142.0 123.5L142.0 123.5Q142.0 124.2 142.2 124.8Q142.4 125.4 142.9 125.8Q143.3 126.1 144.0 126.1L144.0 126.1Q144.4 126.1 144.7 126.0Q145.0 125.9 145.2 125.8Q145.5 125.6 145.6 125.3Q145.8 125.1 145.8 124.8L145.8 124.8L146.9 125.1Q146.8 125.6 146.5 126.0Q146.2 126.4 145.9 126.6Q145.5 126.9 145.0 127.0Q144.6 127.2 144.0 127.2ZM150.2 119.9L151.7 119.9L151.7 120.9L150.2 120.9L150.2 125.2Q150.2 125.6 150.4 125.9Q150.6 126.1 151.0 126.1L151.0 126.1Q151.2 126.1 151.3 126.0Q151.5 126.0 151.6 126.0L151.6 126.0L151.9 127.0Q151.7 127.0 151.5 127.1Q151.2 127.1 151.0 127.1L151.0 127.1Q150.1 127.1 149.6 126.6Q149.1 126.1 149.1 125.2L149.1 125.2L149.1 120.9L148.0 120.9L148.0 119.9L149.1 119.9L149.1 118.2L150.2 118.2L150.2 119.9Z "/></g><defs><clipPath id="satori_bc-id-2-1" clip-path="url(#satori_cp-id)"><path x="186" y="103" width="129" height="38" d="M198,103 h105 a12,12 0 0 1 12,12 v14 a12,12 0 0 1 -12,12 h-105 a12,12 0 0 1 -12,-12 v-14 a12,12 0 0 1 12,-12"/></clipPath></defs><mask id="satori_om-id-2-1"><rect x="187" y="104" width="127" height="36" fill="#fff" mask="url(#satori_om-id)"/><path width="129" height="38" fill="none" stroke="#000" stroke-width="2" d="M189.515,106.515 A12,12 0 0 1 198,103 h105 a12,12 0 0 1 12,12 v14 a12,12 0 0 1 -12,12 h-105 a12,12 0 0 1 -12,-12 v-14 A12,12 0 0 1 189.515,106.515"/></mask><path x="186" y="103" width="129" height="38" fill="rgba(0,122,204,0.06)" d="M198,103 h105 a12,12 0 0 1 12,12 v14 a12,12 0 0 1 -12,12 h-105 a12,12 0 0 1 -12,-12 v-14 a12,12 0 0 1 12,-12" clip-path="url(#satori_cp-id)" mask="url(#satori_om-id)"/><path width="129" height="38" clip-path="url(#satori_bc-id-2-1)" fill="none" stroke="rgba(0,122,204,0.18)" stroke-width="2" d="M189.515,106.515 A12,12 0 0 1 198,103 h105 a12,12 0 0 1 12,12 v14 a12,12 0 0 1 -12,12 h-105 a12,12 0 0 1 -12,-12 v-14 A12,12 0 0 1 189.515,106.515"/><mask id="satori_ms-id-2-1-0-0" maskUnits="userSpaceOnUse"><rect x="0" y="0" width="860" height="260" fill="#fff"/><path x="207" y="118" width="8" height="8" fill="#000"  stroke-width="0" d="M211,118 h0 a4,4 0 0 1 4,4 v0 a4,4 0 0 1 -4,4 h0 a4,4 0 0 1 -4,-4 v0 a4,4 0 0 1 4,-4" clip-path="url(#satori_cp-id)" mask="url(#satori_om-id)"/></mask><defs><filter id="satori_s-id-2-1-0-0" x="-200%" y="-200%" width="500%" height="500%"><feGaussianBlur stdDeviation="4" result="b"/><feFlood flood-color="rgba(0,122,204,0.5)" in="SourceGraphic" result="f"/><feComposite in="f" in2="b" operator="in"/></filter></defs><g mask="url(#satori_ms-id-2-1-0-0)" filter="url(#satori_s-id-2-1-0-0)" opacity="1"><path x="207" y="118" width="8" height="8" fill="#fff" stroke="#fff" stroke-width="0" d="M211,118 h0 a4,4 0 0 1 4,4 v0 a4,4 0 0 1 -4,4 h0 a4,4 0 0 1 -4,-4 v0 a4,4 0 0 1 4,-4" clip-path="url(#satori_cp-id)" mask="url(#satori_om-id)"/></g><mask id="satori_om-id-2-1-0"><rect x="207" y="118" width="8" height="8" fill="#fff" mask="url(#satori_om-id)"/></mask><path x="207" y="118" width="8" height="8" fill="rgba(0,122,204,0.8)" d="M211,118 h0 a4,4 0 0 1 4,4 v0 a4,4 0 0 1 -4,4 h0 a4,4 0 0 1 -4,-4 v0 a4,4 0 0 1 4,-4" clip-path="url(#satori_cp-id)" mask="url(#satori_om-id)"/><mask id="satori_om-id-2-1-1"><rect x="223" y="114" width="71" height="16" fill="#fff" mask="url(#satori_om-id)"/></mask><g mask="url(#satori_om-id)" clip-path="url(#satori_cp-id)"><path fill="rgba(255,255,255,0.75)" d="M226.6 118.6L223.6 118.6L223.6 117.5L230.8 117.5L230.8 118.6L227.8 118.6L227.8 127L226.6 127L226.6 118.6ZM232.6 129.6L232.6 129.6L232.9 128.6L233.0 128.6Q233.3 128.7 233.6 128.7Q233.9 128.6 234.1 128.4Q234.4 128.1 234.5 127.6L234.5 127.6L234.7 127.0L232.0 119.9L233.3 119.9L234.8 124.1Q235.0 124.8 235.2 125.4L235.2 125.4Q235.3 125.7 235.3 126.0L235.3 126.0Q235.4 125.7 235.5 125.4L235.5 125.4Q235.7 124.8 235.9 124.1L235.9 124.1L237.4 119.9L238.7 119.9L235.5 128.1Q235.3 128.6 235.0 129.0Q234.7 129.4 234.3 129.5Q233.9 129.7 233.4 129.7L233.4 129.7Q233.1 129.7 232.9 129.7Q232.7 129.6 232.6 129.6ZM241.4 129.7L240.3 129.7L240.3 119.9L241.4 119.9L241.4 121.0L241.5 121.0Q241.7 120.8 241.9 120.6Q242.1 120.3 242.5 120.0Q242.9 119.8 243.6 119.8L243.6 119.8Q244.5 119.8 245.2 120.3Q245.8 120.7 246.2 121.5Q246.6 122.3 246.6 123.5L246.6 123.5Q246.6 124.6 246.2 125.4Q245.8 126.3 245.2 126.7Q244.5 127.2 243.6 127.2L243.6 127.2Q242.9 127.2 242.5 126.9Q242.1 126.7 241.9 126.4Q241.7 126.1 241.5 125.9L241.5 125.9L241.4 125.9L241.4 129.7ZM243.4 126.1L243.4 126.1Q244.1 126.1 244.5 125.8Q245.0 125.4 245.2 124.8Q245.4 124.2 245.4 123.5L245.4 123.5Q245.4 122.7 245.2 122.1Q245.0 121.5 244.5 121.2Q244.1 120.8 243.4 120.8L243.4 120.8Q242.8 120.8 242.3 121.2Q241.9 121.5 241.7 122.1Q241.4 122.7 241.4 123.5L241.4 123.5Q241.4 124.2 241.7 124.8Q241.9 125.5 242.3 125.8Q242.8 126.1 243.4 126.1ZM251.5 127.2L251.5 127.2Q250.5 127.2 249.8 126.7Q249.0 126.2 248.6 125.4Q248.2 124.6 248.2 123.5Q248.2 122.4 248.6 121.6Q249.0 120.8 249.7 120.3Q250.4 119.8 251.4 119.8L251.4 119.8Q252.0 119.8 252.5 120.0Q253.1 120.2 253.5 120.6Q254.0 121.0 254.2 121.7Q254.5 122.4 254.5 123.4L254.5 123.4L254.5 123.8L249.4 123.8Q249.4 124.5 249.6 125.0L249.6 125.0Q249.9 125.6 250.4 125.9Q250.9 126.1 251.6 126.1L251.6 126.1Q252.0 126.1 252.3 126.0Q252.7 125.9 252.9 125.7Q253.2 125.4 253.3 125.0L253.3 125.0L254.4 125.3Q254.2 125.9 253.8 126.3Q253.4 126.7 252.9 126.9Q252.3 127.2 251.5 127.2ZM249.4 122.9L249.4 122.9L253.3 122.9Q253.3 122.4 253.1 122.0L253.1 122.0Q252.9 121.4 252.5 121.1Q252.1 120.8 251.4 120.8Q250.8 120.8 250.3 121.1Q249.9 121.5 249.6 122.0L249.6 122.0Q249.4 122.4 249.4 122.9ZM259.6 127.2L259.6 127.2Q258.6 127.2 257.8 126.8Q257.1 126.5 256.7 125.9Q256.2 125.3 256.2 124.5L256.2 124.5L257.4 124.5Q257.5 125.1 257.8 125.4Q258.1 125.7 258.6 125.9Q259.1 126.1 259.6 126.1L259.6 126.1Q260.2 126.1 260.8 125.9Q261.3 125.7 261.6 125.3Q261.9 124.9 261.9 124.4L261.9 124.4Q261.9 123.9 261.6 123.7Q261.4 123.4 260.9 123.2Q260.5 123.0 260.0 122.9L260.0 122.9L258.9 122.5Q257.7 122.2 257.1 121.6Q256.4 121.0 256.4 120.1L256.4 120.1Q256.4 119.3 256.9 118.7Q257.3 118.1 258.0 117.7Q258.8 117.4 259.7 117.4L259.7 117.4Q260.6 117.4 261.3 117.7Q262.1 118.1 262.5 118.6Q262.9 119.2 262.9 119.9L262.9 119.9L261.7 119.9Q261.7 119.2 261.1 118.9Q260.5 118.5 259.7 118.5L259.7 118.5Q259.0 118.5 258.6 118.7Q258.1 118.9 257.9 119.2Q257.6 119.6 257.6 120.0L257.6 120.0Q257.6 120.5 257.9 120.8Q258.2 121.1 258.7 121.3Q259.1 121.5 259.4 121.5L259.4 121.5L260.4 121.8Q260.7 121.9 261.2 122.1Q261.7 122.3 262.1 122.6Q262.5 122.9 262.8 123.3Q263.0 123.8 263.0 124.4L263.0 124.4Q263.0 125.2 262.6 125.8Q262.2 126.4 261.5 126.8Q260.7 127.2 259.6 127.2ZM268.0 127.2L268.0 127.2Q267.0 127.2 266.3 126.7Q265.6 126.2 265.1 125.4Q264.7 124.6 264.7 123.5L264.7 123.5Q264.7 122.4 265.1 121.6Q265.6 120.7 266.3 120.3Q267.0 119.8 268.0 119.8L268.0 119.8Q268.5 119.8 268.9 119.9Q269.4 120.1 269.8 120.3Q270.2 120.6 270.4 120.9Q270.7 121.3 270.8 121.8L270.8 121.8L269.7 122.1Q269.7 121.8 269.5 121.6Q269.4 121.4 269.1 121.2Q268.9 121.0 268.6 120.9Q268.3 120.8 268.0 120.8L268.0 120.8Q267.3 120.8 266.8 121.2Q266.3 121.6 266.1 122.2Q265.9 122.8 265.9 123.5L265.9 123.5Q265.9 124.2 266.1 124.8Q266.3 125.4 266.8 125.8Q267.3 126.1 268.0 126.1L268.0 126.1Q268.3 126.1 268.6 126.0Q268.9 125.9 269.2 125.8Q269.4 125.6 269.5 125.3Q269.7 125.1 269.8 124.8L269.8 124.8L270.9 125.1Q270.7 125.6 270.5 126.0Q270.2 126.4 269.8 126.6Q269.4 126.9 269.0 127.0Q268.5 127.2 268.0 127.2ZM273.9 127L272.8 127L272.8 119.9L273.9 119.9L273.9 121.0L274.0 121.0Q274.2 120.5 274.7 120.1Q275.2 119.8 275.8 119.8L275.8 119.8Q276.0 119.8 276.1 119.8Q276.3 119.8 276.4 119.8L276.4 119.8L276.4 121.0Q276.4 121.0 276.2 120.9Q275.9 120.9 275.7 120.9L275.7 120.9Q275.2 120.9 274.8 121.1Q274.4 121.3 274.2 121.7Q273.9 122.1 273.9 122.6L273.9 122.6L273.9 127ZM279.1 127L278.0 127L278.0 119.9L279.1 119.9L279.1 127ZM278.6 118.7L278.6 118.7Q278.3 118.7 278.0 118.5Q277.8 118.3 277.8 118.0L277.8 118.0Q277.8 117.7 278.0 117.4Q278.3 117.2 278.6 117.2L278.6 117.2Q278.9 117.2 279.1 117.4Q279.4 117.7 279.4 118.0L279.4 118.0Q279.4 118.3 279.1 118.5Q278.9 118.7 278.6 118.7ZM282.6 129.7L281.4 129.7L281.4 119.9L282.6 119.9L282.6 121.0L282.7 121.0Q282.8 120.8 283.0 120.6Q283.2 120.3 283.6 120.0Q284.0 119.8 284.7 119.8L284.7 119.8Q285.6 119.8 286.3 120.3Q287.0 120.7 287.4 121.5Q287.7 122.3 287.7 123.5L287.7 123.5Q287.7 124.6 287.4 125.4Q287.0 126.3 286.3 126.7Q285.6 127.2 284.7 127.2L284.7 127.2Q284.1 127.2 283.7 126.9Q283.2 126.7 283.0 126.4Q282.8 126.1 282.7 125.9L282.7 125.9L282.6 125.9L282.6 129.7ZM284.6 126.1L284.6 126.1Q285.2 126.1 285.7 125.8Q286.1 125.4 286.4 124.8Q286.6 124.2 286.6 123.5L286.6 123.5Q286.6 122.7 286.4 122.1Q286.1 121.5 285.7 121.2Q285.2 120.8 284.6 120.8L284.6 120.8Q283.9 120.8 283.5 121.2Q283.0 121.5 282.8 122.1Q282.6 122.7 282.6 123.5L282.6 123.5Q282.6 124.2 282.8 124.8Q283.0 125.5 283.5 125.8Q283.9 126.1 284.6 126.1ZM291.0 119.9L292.5 119.9L292.5 120.9L291.0 120.9L291.0 125.2Q291.0 125.6 291.2 125.9Q291.4 126.1 291.9 126.1L291.9 126.1Q292.0 126.1 292.2 126.0Q292.3 126.0 292.5 126.0L292.5 126.0L292.7 127.0Q292.5 127.0 292.3 127.1Q292.1 127.1 291.8 127.1L291.8 127.1Q290.9 127.1 290.4 126.6Q289.9 126.1 289.9 125.2L289.9 125.2L289.9 120.9L288.8 120.9L288.8 119.9L289.9 119.9L289.9 118.2L291.0 118.2L291.0 119.9Z "/></g><defs><clipPath id="satori_bc-id-2-2" clip-path="url(#satori_cp-id)"><path x="327" y="103" width="103" height="38" d="M339,103 h79 a12,12 0 0 1 12,12 v14 a12,12 0 0 1 -12,12 h-79 a12,12 0 0 1 -12,-12 v-14 a12,12 0 0 1 12,-12"/></clipPath></defs><mask id="satori_om-id-2-2"><rect x="328" y="104" width="101" height="36" fill="#fff" mask="url(#satori_om-id)"/><path width="103" height="38" fill="none" stroke="#000" stroke-width="2" d="M330.515,106.515 A12,12 0 0 1 339,103 h79 a12,12 0 0 1 12,12 v14 a12,12 0 0 1 -12,12 h-79 a12,12 0 0 1 -12,-12 v-14 A12,12 0 0 1 330.515,106.515"/></mask><path x="327" y="103" width="103" height="38" fill="rgba(255,255,255,0.06)" d="M339,103 h79 a12,12 0 0 1 12,12 v14 a12,12 0 0 1 -12,12 h-79 a12,12 0 0 1 -12,-12 v-14 a12,12 0 0 1 12,-12" clip-path="url(#satori_cp-id)" mask="url(#satori_om-id)"/><path width="103" height="38" clip-path="url(#satori_bc-id-2-2)" fill="none" stroke="rgba(255,255,255,0.18)" stroke-width="2" d="M330.515,106.515 A12,12 0 0 1 339,103 h79 a12,12 0 0 1 12,12 v14 a12,12 0 0 1 -12,12 h-79 a12,12 0 0 1 -12,-12 v-14 A12,12 0 0 1 330.515,106.515"/><mask id="satori_ms-id-2-2-0-0" maskUnits="userSpaceOnUse"><rect x="0" y="0" width="860" height="260" fill="#fff"/><path x="348" y="118" width="8" height="8" fill="#000"  stroke-width="0" d="M352,118 h0 a4,4 0 0 1 4,4 v0 a4,4 0 0 1 -4,4 h0 a4,4 0 0 1 -4,-4 v0 a4,4 0 0 1 4,-4" clip-path="url(#satori_cp-id)" mask="url(#satori_om-id)"/></mask><defs><filter id="satori_s-id-2-2-0-0" x="-200%" y="-200%" width="500%" height="500%"><feGaussianBlur stdDeviation="4" result="b"/><feFlood flood-color="rgba(255,255,255,0.5)" in="SourceGraphic" result="f"/><feComposite in="f" in2="b" operator="in"/></filter></defs><g mask="url(#satori_ms-id-2-2-0-0)" filter="url(#satori_s-id-2-2-0-0)" opacity="1"><path x="348" y="118" width="8" height="8" fill="#fff" stroke="#fff" stroke-width="0" d="M352,118 h0 a4,4 0 0 1 4,4 v0 a4,4 0 0 1 -4,4 h0 a4,4 0 0 1 -4,-4 v0 a4,4 0 0 1 4,-4" clip-path="url(#satori_cp-id)" mask="url(#satori_om-id)"/></g><mask id="satori_om-id-2-2-0"><rect x="348" y="118" width="8" height="8" fill="#fff" mask="url(#satori_om-id)"/></mask><path x="348" y="118" width="8" height="8" fill="rgba(255,255,255,0.8)" d="M352,118 h0 a4,4 0 0 1 4,4 v0 a4,4 0 0 1 -4,4 h0 a4,4 0 0 1 -4,-4 v0 a4,4 0 0 1 4,-4" clip-path="url(#satori_cp-id)" mask="url(#satori_om-id)"/><mask id="satori_om-id-2-2-1"><rect x="364" y="114" width="45" height="16" fill="#fff" mask="url(#satori_om-id)"/></mask><g mask="url(#satori_om-id)" clip-path="url(#satori_cp-id)"><path fill="rgba(255,255,255,0.75)" d="M366.4 127L365.1 127L365.1 117.5L366.6 117.5L370.4 123.6Q370.6 123.8 370.8 124.2Q371.0 124.6 371.2 125.0L371.2 125.0Q371.4 125.3 371.5 125.6L371.5 125.6Q371.5 125.3 371.5 125.0L371.5 125.0Q371.5 124.5 371.5 124.1Q371.4 123.6 371.4 123.3L371.4 123.3L371.4 117.5L372.7 117.5L372.7 127L371.2 127L367.8 121.6Q367.6 121.2 367.3 120.8Q367.1 120.4 366.8 119.9L366.8 119.9Q366.6 119.5 366.3 119.0L366.3 119.0Q366.3 119.5 366.3 119.9L366.3 119.9Q366.3 120.5 366.3 120.9Q366.4 121.4 366.4 121.6L366.4 121.6L366.4 127ZM378.1 127.2L378.1 127.2Q377.1 127.2 376.3 126.7Q375.6 126.2 375.2 125.4Q374.8 124.6 374.8 123.5Q374.8 122.4 375.1 121.6Q375.5 120.8 376.3 120.3Q377.0 119.8 377.9 119.8L377.9 119.8Q378.5 119.8 379.1 120.0Q379.6 120.2 380.1 120.6Q380.5 121.0 380.8 121.7Q381.0 122.4 381.0 123.4L381.0 123.4L381.0 123.8L375.9 123.8Q375.9 124.5 376.2 125.0L376.2 125.0Q376.5 125.6 376.9 125.9Q377.4 126.1 378.1 126.1L378.1 126.1Q378.5 126.1 378.8 126.0Q379.2 125.9 379.4 125.7Q379.7 125.4 379.8 125.0L379.8 125.0L380.9 125.3Q380.8 125.9 380.4 126.3Q380.0 126.7 379.4 126.9Q378.8 127.2 378.1 127.2ZM375.9 122.9L375.9 122.9L379.9 122.9Q379.8 122.4 379.7 122.0L379.7 122.0Q379.5 121.4 379.0 121.1Q378.6 120.8 377.9 120.8Q377.3 120.8 376.8 121.1Q376.4 121.5 376.2 122.0L376.2 122.0Q375.9 122.4 375.9 122.9ZM383.7 127L382.4 127L384.9 123.4L382.5 119.9L383.9 119.9L384.7 121.3Q385.1 121.8 385.3 122.3L385.3 122.3Q385.4 122.5 385.6 122.7L385.6 122.7Q385.7 122.5 385.8 122.3L385.8 122.3Q386.0 121.8 386.3 121.3L386.3 121.3L387.2 119.9L388.5 119.9L386.2 123.4L388.7 127L387.3 127L386.3 125.4Q386.0 124.9 385.7 124.4L385.7 124.4Q385.6 124.3 385.5 124.1L385.5 124.1Q385.4 124.3 385.3 124.4L385.3 124.4Q385.1 124.9 384.8 125.4L384.8 125.4L383.7 127ZM391.7 119.9L393.2 119.9L393.2 120.9L391.7 120.9L391.7 125.2Q391.7 125.6 391.9 125.9Q392.1 126.1 392.5 126.1L392.5 126.1Q392.7 126.1 392.8 126.0Q393.0 126.0 393.1 126.0L393.1 126.0L393.4 127.0Q393.2 127.0 393.0 127.1Q392.7 127.1 392.5 127.1L392.5 127.1Q391.6 127.1 391.1 126.6Q390.6 126.1 390.6 125.2L390.6 125.2L390.6 120.9L389.5 120.9L389.5 119.9L390.6 119.9L390.6 118.2L391.7 118.2L391.7 119.9ZM395.8 127.1L395.8 127.1Q395.4 127.1 395.2 126.8Q394.9 126.6 394.9 126.2L394.9 126.2Q394.9 125.9 395.2 125.6Q395.4 125.4 395.8 125.4L395.8 125.4Q396.2 125.4 396.4 125.6Q396.7 125.9 396.7 126.2L396.7 126.2Q396.7 126.6 396.4 126.8Q396.2 127.1 395.8 127.1ZM399.0 127.5L399.0 119.9L400.1 119.9L400.1 127.5Q400.1 128.2 399.9 128.7Q399.7 129.1 399.2 129.4Q398.7 129.7 398.0 129.7L398.0 129.7L397.8 129.7L397.8 128.6L398.0 128.6Q398.5 128.6 398.7 128.3Q399.0 128.0 399.0 127.5L399.0 127.5ZM399.5 118.7L399.5 118.7Q399.2 118.7 399.0 118.5Q398.7 118.3 398.7 118.0L398.7 118.0Q398.7 117.7 399.0 117.4Q399.2 117.2 399.5 117.2L399.5 117.2Q399.9 117.2 400.1 117.4Q400.3 117.7 400.3 118.0L400.3 118.0Q400.3 118.3 400.1 118.5Q399.9 118.7 399.5 118.7ZM404.8 127.2L404.8 127.2Q404.1 127.2 403.5 126.9Q403.0 126.7 402.6 126.3Q402.2 125.9 402.1 125.3L402.1 125.3L403.2 125.0Q403.3 125.6 403.8 125.9Q404.2 126.1 404.8 126.1L404.8 126.1Q405.6 126.1 406.0 125.8Q406.4 125.5 406.4 125.1L406.4 125.1Q406.4 124.7 406.2 124.5Q405.9 124.2 405.4 124.1L405.4 124.1L404.2 123.8Q403.3 123.6 402.8 123.1Q402.3 122.6 402.3 121.9L402.3 121.9Q402.3 121.3 402.7 120.8Q403.0 120.3 403.6 120.1Q404.2 119.8 404.9 119.8L404.9 119.8Q405.7 119.8 406.2 120.0Q406.7 120.3 407.0 120.6Q407.3 121.0 407.5 121.5L407.5 121.5L406.5 121.8Q406.3 121.4 406.0 121.1Q405.6 120.8 405.0 120.8L405.0 120.8Q404.3 120.8 403.9 121.1Q403.5 121.4 403.5 121.8L403.5 121.8Q403.5 122.2 403.8 122.4Q404.0 122.7 404.7 122.8L404.7 122.8L405.7 123.1Q406.7 123.3 407.2 123.8Q407.6 124.3 407.6 125.0L407.6 125.0Q407.6 125.6 407.3 126.1Q406.9 126.6 406.3 126.9Q405.7 127.2 404.8 127.2Z "/></g><defs><clipPath id="satori_bc-id-2-3" clip-path="url(#satori_cp-id)"><path x="442" y="103" width="107" height="38" d="M454,103 h83 a12,12 0 0 1 12,12 v14 a12,12 0 0 1 -12,12 h-83 a12,12 0 0 1 -12,-12 v-14 a12,12 0 0 1 12,-12"/></clipPath></defs><mask id="satori_om-id-2-3"><rect x="443" y="104" width="105" height="36" fill="#fff" mask="url(#satori_om-id)"/><path width="107" height="38" fill="none" stroke="#000" stroke-width="2" d="M445.515,106.515 A12,12 0 0 1 454,103 h83 a12,12 0 0 1 12,12 v14 a12,12 0 0 1 -12,12 h-83 a12,12 0 0 1 -12,-12 v-14 A12,12 0 0 1 445.515,106.515"/></mask><path x="442" y="103" width="107" height="38" fill="rgba(104,159,56,0.06)" d="M454,103 h83 a12,12 0 0 1 12,12 v14 a12,12 0 0 1 -12,12 h-83 a12,12 0 0 1 -12,-12 v-14 a12,12 0 0 1 12,-12" clip-path="url(#satori_cp-id)" mask="url(#satori_om-id)"/><path width="107" height="38" clip-path="url(#satori_bc-id-2-3)" fill="none" stroke="rgba(104,159,56,0.18)" stroke-width="2" d="M445.515,106.515 A12,12 0 0 1 454,103 h83 a12,12 0 0 1 12,12 v14 a12,12 0 0 1 -12,12 h-83 a12,12 0 0 1 -12,-12 v-14 A12,12 0 0 1 445.515,106.515"/><mask id="satori_ms-id-2-3-0-0" maskUnits="userSpaceOnUse"><rect x="0" y="0" width="860" height="260" fill="#fff"/><path x="463" y="118" width="8" height="8" fill="#000"  stroke-width="0" d="M467,118 h0 a4,4 0 0 1 4,4 v0 a4,4 0 0 1 -4,4 h0 a4,4 0 0 1 -4,-4 v0 a4,4 0 0 1 4,-4" clip-path="url(#satori_cp-id)" mask="url(#satori_om-id)"/></mask><defs><filter id="satori_s-id-2-3-0-0" x="-200%" y="-200%" width="500%" height="500%"><feGaussianBlur stdDeviation="4" result="b"/><feFlood flood-color="rgba(104,159,56,0.5)" in="SourceGraphic" result="f"/><feComposite in="f" in2="b" operator="in"/></filter></defs><g mask="url(#satori_ms-id-2-3-0-0)" filter="url(#satori_s-id-2-3-0-0)" opacity="1"><path x="463" y="118" width="8" height="8" fill="#fff" stroke="#fff" stroke-width="0" d="M467,118 h0 a4,4 0 0 1 4,4 v0 a4,4 0 0 1 -4,4 h0 a4,4 0 0 1 -4,-4 v0 a4,4 0 0 1 4,-4" clip-path="url(#satori_cp-id)" mask="url(#satori_om-id)"/></g><mask id="satori_om-id-2-3-0"><rect x="463" y="118" width="8" height="8" fill="#fff" mask="url(#satori_om-id)"/></mask><path x="463" y="118" width="8" height="8" fill="rgba(104,159,56,0.8)" d="M467,118 h0 a4,4 0 0 1 4,4 v0 a4,4 0 0 1 -4,4 h0 a4,4 0 0 1 -4,-4 v0 a4,4 0 0 1 4,-4" clip-path="url(#satori_cp-id)" mask="url(#satori_om-id)"/><mask id="satori_om-id-2-3-1"><rect x="479" y="114" width="49" height="16" fill="#fff" mask="url(#satori_om-id)"/></mask><g mask="url(#satori_om-id)" clip-path="url(#satori_cp-id)"><path fill="rgba(255,255,255,0.75)" d="M481.4 127L480.1 127L480.1 117.5L481.6 117.5L485.4 123.6Q485.6 123.8 485.8 124.2Q486.0 124.6 486.2 125.0L486.2 125.0Q486.4 125.3 486.5 125.6L486.5 125.6Q486.5 125.3 486.5 125.0L486.5 125.0Q486.5 124.5 486.5 124.1Q486.4 123.6 486.4 123.3L486.4 123.3L486.4 117.5L487.7 117.5L487.7 127L486.2 127L482.8 121.6Q482.6 121.2 482.3 120.8Q482.1 120.4 481.8 119.9L481.8 119.9Q481.6 119.5 481.3 119.0L481.3 119.0Q481.3 119.5 481.3 119.9L481.3 119.9Q481.3 120.5 481.3 120.9Q481.4 121.4 481.4 121.6L481.4 121.6L481.4 127ZM493.0 127.2L493.0 127.2Q492.0 127.2 491.3 126.7Q490.6 126.2 490.2 125.4Q489.8 124.6 489.8 123.5L489.8 123.5Q489.8 122.4 490.2 121.6Q490.6 120.7 491.3 120.3Q492.0 119.8 493.0 119.8L493.0 119.8Q494.0 119.8 494.7 120.3Q495.4 120.7 495.8 121.6Q496.2 122.4 496.2 123.5L496.2 123.5Q496.2 124.6 495.8 125.4Q495.4 126.2 494.7 126.7Q494.0 127.2 493.0 127.2ZM493.0 126.1L493.0 126.1Q493.7 126.1 494.2 125.8Q494.6 125.4 494.9 124.8Q495.1 124.2 495.1 123.5L495.1 123.5Q495.1 122.8 494.9 122.2Q494.6 121.6 494.2 121.2Q493.7 120.8 493.0 120.8L493.0 120.8Q492.3 120.8 491.8 121.2Q491.4 121.6 491.1 122.2Q490.9 122.8 490.9 123.5L490.9 123.5Q490.9 124.2 491.1 124.8Q491.4 125.4 491.8 125.8Q492.3 126.1 493.0 126.1ZM500.9 127.2L500.9 127.2Q500.0 127.2 499.3 126.7Q498.6 126.3 498.2 125.4Q497.8 124.6 497.8 123.5L497.8 123.5Q497.8 122.3 498.2 121.5Q498.6 120.7 499.3 120.3Q500.0 119.8 500.9 119.8L500.9 119.8Q501.6 119.8 502.0 120.0Q502.4 120.3 502.6 120.6Q502.8 120.8 502.9 121.0L502.9 121.0L503.0 121.0L503.0 117.5L504.1 117.5L504.1 127L503.0 127L503.0 125.9L502.9 125.9Q502.8 126.1 502.6 126.4Q502.4 126.7 501.9 126.9Q501.5 127.2 500.9 127.2ZM501.0 126.1L501.0 126.1Q501.7 126.1 502.1 125.8Q502.6 125.5 502.8 124.8Q503.0 124.2 503.0 123.5L503.0 123.5Q503.0 122.7 502.8 122.1Q502.6 121.5 502.1 121.2Q501.7 120.8 501.0 120.8L501.0 120.8Q500.4 120.8 499.9 121.2Q499.5 121.5 499.2 122.1Q499.0 122.7 499.0 123.5L499.0 123.5Q499.0 124.2 499.2 124.8Q499.5 125.4 499.9 125.8Q500.4 126.1 501.0 126.1ZM509.4 127.2L509.4 127.2Q508.4 127.2 507.7 126.7Q506.9 126.2 506.5 125.4Q506.1 124.6 506.1 123.5Q506.1 122.4 506.5 121.6Q506.9 120.8 507.6 120.3Q508.3 119.8 509.3 119.8L509.3 119.8Q509.9 119.8 510.4 120.0Q511.0 120.2 511.4 120.6Q511.9 121.0 512.1 121.7Q512.4 122.4 512.4 123.4L512.4 123.4L512.4 123.8L507.3 123.8Q507.3 124.5 507.5 125.0L507.5 125.0Q507.8 125.6 508.3 125.9Q508.8 126.1 509.4 126.1L509.4 126.1Q509.9 126.1 510.2 126.0Q510.5 125.9 510.8 125.7Q511.0 125.4 511.2 125.0L511.2 125.0L512.3 125.3Q512.1 125.9 511.7 126.3Q511.3 126.7 510.7 126.9Q510.2 127.2 509.4 127.2ZM507.3 122.9L507.3 122.9L511.2 122.9Q511.2 122.4 511.0 122.0L511.0 122.0Q510.8 121.4 510.4 121.1Q509.9 120.8 509.3 120.8Q508.7 120.8 508.2 121.1Q507.7 121.5 507.5 122.0L507.5 122.0Q507.3 122.4 507.3 122.9ZM515.2 127.1L515.2 127.1Q514.8 127.1 514.6 126.8Q514.3 126.6 514.3 126.2L514.3 126.2Q514.3 125.9 514.6 125.6Q514.8 125.4 515.2 125.4L515.2 125.4Q515.6 125.4 515.8 125.6Q516.1 125.9 516.1 126.2L516.1 126.2Q516.1 126.6 515.8 126.8Q515.6 127.1 515.2 127.1ZM518.4 127.5L518.4 119.9L519.5 119.9L519.5 127.5Q519.5 128.2 519.3 128.7Q519.1 129.1 518.6 129.4Q518.1 129.7 517.4 129.7L517.4 129.7L517.2 129.7L517.2 128.6L517.4 128.6Q517.9 128.6 518.1 128.3Q518.4 128.0 518.4 127.5L518.4 127.5ZM518.9 118.7L518.9 118.7Q518.6 118.7 518.4 118.5Q518.2 118.3 518.2 118.0L518.2 118.0Q518.2 117.7 518.4 117.4Q518.6 117.2 518.9 117.2L518.9 117.2Q519.3 117.2 519.5 117.4Q519.7 117.7 519.7 118.0L519.7 118.0Q519.7 118.3 519.5 118.5Q519.3 118.7 518.9 118.7ZM524.2 127.2L524.2 127.2Q523.5 127.2 522.9 126.9Q522.4 126.7 522.0 126.3Q521.6 125.9 521.5 125.3L521.5 125.3L522.6 125.0Q522.7 125.6 523.2 125.9Q523.6 126.1 524.2 126.1L524.2 126.1Q525.0 126.1 525.4 125.8Q525.8 125.5 525.8 125.1L525.8 125.1Q525.8 124.7 525.6 124.5Q525.3 124.2 524.8 124.1L524.8 124.1L523.6 123.8Q522.7 123.6 522.2 123.1Q521.7 122.6 521.7 121.9L521.7 121.9Q521.7 121.3 522.1 120.8Q522.4 120.3 523.0 120.1Q523.6 119.8 524.4 119.8L524.4 119.8Q525.1 119.8 525.6 120.0Q526.1 120.3 526.4 120.6Q526.7 121.0 526.9 121.5L526.9 121.5L525.9 121.8Q525.7 121.4 525.4 121.1Q525.0 120.8 524.4 120.8L524.4 120.8Q523.7 120.8 523.3 121.1Q522.9 121.4 522.9 121.8L522.9 121.8Q522.9 122.2 523.2 122.4Q523.4 122.7 524.1 122.8L524.1 122.8L525.1 123.1Q526.1 123.3 526.6 123.8Q527.0 124.3 527.0 125.0L527.0 125.0Q527.0 125.6 526.7 126.1Q526.3 126.6 525.7 126.9Q525.1 127.2 524.2 127.2Z "/></g><defs><clipPath id="satori_bc-id-2-4" clip-path="url(#satori_cp-id)"><path x="561" y="103" width="105" height="38" d="M573,103 h81 a12,12 0 0 1 12,12 v14 a12,12 0 0 1 -12,12 h-81 a12,12 0 0 1 -12,-12 v-14 a12,12 0 0 1 12,-12"/></clipPath></defs><mask id="satori_om-id-2-4"><rect x="562" y="104" width="103" height="36" fill="#fff" mask="url(#satori_om-id)"/><path width="105" height="38" fill="none" stroke="#000" stroke-width="2" d="M564.515,106.515 A12,12 0 0 1 573,103 h81 a12,12 0 0 1 12,12 v14 a12,12 0 0 1 -12,12 h-81 a12,12 0 0 1 -12,-12 v-14 A12,12 0 0 1 564.515,106.515"/></mask><path x="561" y="103" width="105" height="38" fill="rgba(234,63,80,0.06)" d="M573,103 h81 a12,12 0 0 1 12,12 v14 a12,12 0 0 1 -12,12 h-81 a12,12 0 0 1 -12,-12 v-14 a12,12 0 0 1 12,-12" clip-path="url(#satori_cp-id)" mask="url(#satori_om-id)"/><path width="105" height="38" clip-path="url(#satori_bc-id-2-4)" fill="none" stroke="rgba(234,63,80,0.18)" stroke-width="2" d="M564.515,106.515 A12,12 0 0 1 573,103 h81 a12,12 0 0 1 12,12 v14 a12,12 0 0 1 -12,12 h-81 a12,12 0 0 1 -12,-12 v-14 A12,12 0 0 1 564.515,106.515"/><mask id="satori_ms-id-2-4-0-0" maskUnits="userSpaceOnUse"><rect x="0" y="0" width="860" height="260" fill="#fff"/><path x="582" y="118" width="8" height="8" fill="#000"  stroke-width="0" d="M586,118 h0 a4,4 0 0 1 4,4 v0 a4,4 0 0 1 -4,4 h0 a4,4 0 0 1 -4,-4 v0 a4,4 0 0 1 4,-4" clip-path="url(#satori_cp-id)" mask="url(#satori_om-id)"/></mask><defs><filter id="satori_s-id-2-4-0-0" x="-200%" y="-200%" width="500%" height="500%"><feGaussianBlur stdDeviation="4" result="b"/><feFlood flood-color="rgba(234,63,80,0.5)" in="SourceGraphic" result="f"/><feComposite in="f" in2="b" operator="in"/></filter></defs><g mask="url(#satori_ms-id-2-4-0-0)" filter="url(#satori_s-id-2-4-0-0)" opacity="1"><path x="582" y="118" width="8" height="8" fill="#fff" stroke="#fff" stroke-width="0" d="M586,118 h0 a4,4 0 0 1 4,4 v0 a4,4 0 0 1 -4,4 h0 a4,4 0 0 1 -4,-4 v0 a4,4 0 0 1 4,-4" clip-path="url(#satori_cp-id)" mask="url(#satori_om-id)"/></g><mask id="satori_om-id-2-4-0"><rect x="582" y="118" width="8" height="8" fill="#fff" mask="url(#satori_om-id)"/></mask><path x="582" y="118" width="8" height="8" fill="rgba(234,63,80,0.8)" d="M586,118 h0 a4,4 0 0 1 4,4 v0 a4,4 0 0 1 -4,4 h0 a4,4 0 0 1 -4,-4 v0 a4,4 0 0 1 4,-4" clip-path="url(#satori_cp-id)" mask="url(#satori_om-id)"/><mask id="satori_om-id-2-4-1"><rect x="598" y="114" width="47" height="16" fill="#fff" mask="url(#satori_om-id)"/></mask><g mask="url(#satori_om-id)" clip-path="url(#satori_cp-id)"><path fill="rgba(255,255,255,0.75)" d="M600.4 127L599.1 127L599.1 117.5L600.6 117.5L604.4 123.6Q604.6 123.8 604.8 124.2Q605.0 124.6 605.2 125.0L605.2 125.0Q605.4 125.3 605.5 125.6L605.5 125.6Q605.5 125.3 605.5 125.0L605.5 125.0Q605.5 124.5 605.5 124.1Q605.4 123.6 605.4 123.3L605.4 123.3L605.4 117.5L606.7 117.5L606.7 127L605.2 127L601.8 121.6Q601.6 121.2 601.3 120.8Q601.1 120.4 600.8 119.9L600.8 119.9Q600.6 119.5 600.3 119.0L600.3 119.0Q600.3 119.5 600.3 119.9L600.3 119.9Q600.3 120.5 600.3 120.9Q600.4 121.4 600.4 121.6L600.4 121.6L600.4 127ZM612.1 127.2L612.1 127.2Q611.1 127.2 610.3 126.7Q609.6 126.2 609.2 125.4Q608.8 124.6 608.8 123.5Q608.8 122.4 609.1 121.6Q609.5 120.8 610.3 120.3Q611.0 119.8 611.9 119.8L611.9 119.8Q612.5 119.8 613.1 120.0Q613.6 120.2 614.1 120.6Q614.5 121.0 614.8 121.7Q615.0 122.4 615.0 123.4L615.0 123.4L615.0 123.8L609.9 123.8Q609.9 124.5 610.2 125.0L610.2 125.0Q610.5 125.6 610.9 125.9Q611.4 126.1 612.1 126.1L612.1 126.1Q612.5 126.1 612.8 126.0Q613.2 125.9 613.4 125.7Q613.7 125.4 613.8 125.0L613.8 125.0L614.9 125.3Q614.8 125.9 614.4 126.3Q614.0 126.7 613.4 126.9Q612.8 127.2 612.1 127.2ZM609.9 122.9L609.9 122.9L613.9 122.9Q613.8 122.4 613.7 122.0L613.7 122.0Q613.5 121.4 613.0 121.1Q612.6 120.8 611.9 120.8Q611.3 120.8 610.8 121.1Q610.4 121.5 610.2 122.0L610.2 122.0Q609.9 122.4 609.9 122.9ZM619.4 127.2L619.4 127.2Q618.7 127.2 618.1 126.9Q617.5 126.7 617.2 126.3Q616.8 125.9 616.7 125.3L616.7 125.3L617.7 125.0Q617.9 125.6 618.3 125.9Q618.7 126.1 619.4 126.1L619.4 126.1Q620.1 126.1 620.6 125.8Q621.0 125.5 621.0 125.1L621.0 125.1Q621.0 124.7 620.7 124.5Q620.5 124.2 620.0 124.1L620.0 124.1L618.8 123.8Q617.8 123.6 617.3 123.1Q616.9 122.6 616.9 121.9L616.9 121.9Q616.9 121.3 617.2 120.8Q617.6 120.3 618.2 120.1Q618.7 119.8 619.5 119.8L619.5 119.8Q620.2 119.8 620.7 120.0Q621.3 120.3 621.6 120.6Q621.9 121.0 622.1 121.5L622.1 121.5L621.0 121.8Q620.9 121.4 620.5 121.1Q620.2 120.8 619.5 120.8L619.5 120.8Q618.9 120.8 618.5 121.1Q618.0 121.4 618.0 121.8L618.0 121.8Q618.0 122.2 618.3 122.4Q618.6 122.7 619.2 122.8L619.2 122.8L620.3 123.1Q621.3 123.3 621.7 123.8Q622.2 124.3 622.2 125.0L622.2 125.0Q622.2 125.6 621.8 126.1Q621.5 126.6 620.9 126.9Q620.2 127.2 619.4 127.2ZM625.5 119.9L626.9 119.9L626.9 120.9L625.5 120.9L625.5 125.2Q625.5 125.6 625.7 125.9Q625.9 126.1 626.3 126.1L626.3 126.1Q626.4 126.1 626.6 126.0Q626.8 126.0 626.9 126.0L626.9 126.0L627.1 127.0Q627.0 127.0 626.7 127.1Q626.5 127.1 626.3 127.1L626.3 127.1Q625.4 127.1 624.8 126.6Q624.3 126.1 624.3 125.2L624.3 125.2L624.3 120.9L623.3 120.9L623.3 119.9L624.3 119.9L624.3 118.2L625.5 118.2L625.5 119.9ZM631.1 127.1L631.1 127.1Q629.9 127.1 629.1 126.4Q628.3 125.7 628.3 124.3L628.3 124.3L628.3 123.8L629.5 123.8L629.5 124.3Q629.5 125.2 630.0 125.6Q630.4 126.1 631.1 126.1L631.1 126.1Q631.9 126.1 632.3 125.6Q632.8 125.2 632.8 124.3L632.8 124.3L632.8 117.5L634.0 117.5L634.0 124.3Q634.0 125.7 633.2 126.4Q632.4 127.1 631.1 127.1ZM639.6 127.2L639.6 127.2Q638.6 127.2 637.8 126.8Q637.1 126.5 636.6 125.9Q636.2 125.3 636.1 124.5L636.1 124.5L637.4 124.5Q637.4 125.1 637.7 125.4Q638.1 125.7 638.5 125.9Q639.0 126.1 639.6 126.1L639.6 126.1Q640.2 126.1 640.7 125.9Q641.2 125.7 641.5 125.3Q641.8 124.9 641.8 124.4L641.8 124.4Q641.8 123.9 641.6 123.7Q641.3 123.4 640.9 123.2Q640.5 123.0 640.0 122.9L640.0 122.9L638.8 122.5Q637.7 122.2 637.0 121.6Q636.4 121.0 636.4 120.1L636.4 120.1Q636.4 119.3 636.8 118.7Q637.3 118.1 638.0 117.7Q638.7 117.4 639.7 117.4L639.7 117.4Q640.6 117.4 641.3 117.7Q642.0 118.1 642.4 118.6Q642.9 119.2 642.9 119.9L642.9 119.9L641.7 119.9Q641.6 119.2 641.0 118.9Q640.5 118.5 639.6 118.5L639.6 118.5Q639.0 118.5 638.6 118.7Q638.1 118.9 637.8 119.2Q637.6 119.6 637.6 120.0L637.6 120.0Q637.6 120.5 637.9 120.8Q638.2 121.1 638.6 121.3Q639.0 121.5 639.4 121.5L639.4 121.5L640.3 121.8Q640.7 121.9 641.2 122.1Q641.6 122.3 642.1 122.6Q642.5 122.9 642.7 123.3Q643.0 123.8 643.0 124.4L643.0 124.4Q643.0 125.2 642.6 125.8Q642.2 126.4 641.4 126.8Q640.7 127.2 639.6 127.2Z "/></g><defs><clipPath id="satori_bc-id-2-5" clip-path="url(#satori_cp-id)"><path x="678" y="103" width="103" height="38" d="M690,103 h79 a12,12 0 0 1 12,12 v14 a12,12 0 0 1 -12,12 h-79 a12,12 0 0 1 -12,-12 v-14 a12,12 0 0 1 12,-12"/></clipPath></defs><mask id="satori_om-id-2-5"><rect x="679" y="104" width="101" height="36" fill="#fff" mask="url(#satori_om-id)"/><path width="103" height="38" fill="none" stroke="#000" stroke-width="2" d="M681.515,106.515 A12,12 0 0 1 690,103 h79 a12,12 0 0 1 12,12 v14 a12,12 0 0 1 -12,12 h-79 a12,12 0 0 1 -12,-12 v-14 A12,12 0 0 1 681.515,106.515"/></mask><path x="678" y="103" width="103" height="38" fill="rgba(55,118,171,0.06)" d="M690,103 h79 a12,12 0 0 1 12,12 v14 a12,12 0 0 1 -12,12 h-79 a12,12 0 0 1 -12,-12 v-14 a12,12 0 0 1 12,-12" clip-path="url(#satori_cp-id)" mask="url(#satori_om-id)"/><path width="103" height="38" clip-path="url(#satori_bc-id-2-5)" fill="none" stroke="rgba(55,118,171,0.18)" stroke-width="2" d="M681.515,106.515 A12,12 0 0 1 690,103 h79 a12,12 0 0 1 12,12 v14 a12,12 0 0 1 -12,12 h-79 a12,12 0 0 1 -12,-12 v-14 A12,12 0 0 1 681.515,106.515"/><mask id="satori_ms-id-2-5-0-0" maskUnits="userSpaceOnUse"><rect x="0" y="0" width="860" height="260" fill="#fff"/><path x="699" y="118" width="8" height="8" fill="#000"  stroke-width="0" d="M703,118 h0 a4,4 0 0 1 4,4 v0 a4,4 0 0 1 -4,4 h0 a4,4 0 0 1 -4,-4 v0 a4,4 0 0 1 4,-4" clip-path="url(#satori_cp-id)" mask="url(#satori_om-id)"/></mask><defs><filter id="satori_s-id-2-5-0-0" x="-200%" y="-200%" width="500%" height="500%"><feGaussianBlur stdDeviation="4" result="b"/><feFlood flood-color="rgba(55,118,171,0.5)" in="SourceGraphic" result="f"/><feComposite in="f" in2="b" operator="in"/></filter></defs><g mask="url(#satori_ms-id-2-5-0-0)" filter="url(#satori_s-id-2-5-0-0)" opacity="1"><path x="699" y="118" width="8" height="8" fill="#fff" stroke="#fff" stroke-width="0" d="M703,118 h0 a4,4 0 0 1 4,4 v0 a4,4 0 0 1 -4,4 h0 a4,4 0 0 1 -4,-4 v0 a4,4 0 0 1 4,-4" clip-path="url(#satori_cp-id)" mask="url(#satori_om-id)"/></g><mask id="satori_om-id-2-5-0"><rect x="699" y="118" width="8" height="8" fill="#fff" mask="url(#satori_om-id)"/></mask><path x="699" y="118" width="8" height="8" fill="rgba(55,118,171,0.8)" d="M703,118 h0 a4,4 0 0 1 4,4 v0 a4,4 0 0 1 -4,4 h0 a4,4 0 0 1 -4,-4 v0 a4,4 0 0 1 4,-4" clip-path="url(#satori_cp-id)" mask="url(#satori_om-id)"/><mask id="satori_om-id-2-5-1"><rect x="715" y="114" width="45" height="16" fill="#fff" mask="url(#satori_om-id)"/></mask><g mask="url(#satori_om-id)" clip-path="url(#satori_cp-id)"><path fill="rgba(255,255,255,0.75)" d="M717.3 127L716.1 127L716.1 117.5L719.4 117.5Q720.5 117.5 721.2 117.9Q721.9 118.3 722.3 119.0Q722.6 119.7 722.6 120.6Q722.6 121.4 722.3 122.1Q721.9 122.8 721.2 123.2Q720.5 123.6 719.4 123.6L719.4 123.6L717.3 123.6L717.3 127ZM717.3 118.6L717.3 122.5L719.3 122.5Q720.1 122.5 720.5 122.3Q721.0 122.0 721.2 121.6Q721.4 121.1 721.4 120.6Q721.4 120.0 721.2 119.6Q721.0 119.1 720.5 118.9Q720.1 118.6 719.3 118.6L719.3 118.6L717.3 118.6ZM724.5 129.6L724.5 129.6L724.8 128.6L724.9 128.6Q725.3 128.7 725.5 128.7Q725.8 128.6 726.1 128.4Q726.3 128.1 726.5 127.6L726.5 127.6L726.7 127.0L723.9 119.9L725.2 119.9L726.7 124.1Q726.9 124.8 727.1 125.4L727.1 125.4Q727.2 125.7 727.3 126.0L727.3 126.0Q727.3 125.7 727.4 125.4L727.4 125.4Q727.6 124.8 727.8 124.1L727.8 124.1L729.3 119.9L730.6 119.9L727.4 128.1Q727.2 128.6 726.9 129.0Q726.6 129.4 726.2 129.5Q725.8 129.7 725.3 129.7L725.3 129.7Q725.0 129.7 724.8 129.7Q724.6 129.6 724.5 129.6ZM733.5 119.9L735.0 119.9L735.0 120.9L733.5 120.9L733.5 125.2Q733.5 125.6 733.7 125.9Q733.9 126.1 734.4 126.1L734.4 126.1Q734.5 126.1 734.7 126.0Q734.8 126.0 735.0 126.0L735.0 126.0L735.2 127.0Q735.0 127.0 734.8 127.1Q734.6 127.1 734.4 127.1L734.4 127.1Q733.4 127.1 732.9 126.6Q732.4 126.1 732.4 125.2L732.4 125.2L732.4 120.9L731.3 120.9L731.3 119.9L732.4 119.9L732.4 118.2L733.5 118.2L733.5 119.9ZM737.9 122.7L737.9 122.7L737.9 127L736.8 127L736.8 117.5L737.9 117.5L737.9 121.1Q738.2 120.5 738.6 120.2L738.6 120.2Q739.2 119.8 740.0 119.8L740.0 119.8Q740.8 119.8 741.3 120.1Q741.8 120.4 742.1 121.0Q742.4 121.6 742.4 122.5L742.4 122.5L742.4 127L741.3 127L741.3 122.6Q741.3 121.8 740.9 121.3Q740.4 120.8 739.7 120.8L739.7 120.8Q739.2 120.8 738.8 121.1Q738.4 121.3 738.1 121.7Q737.9 122.1 737.9 122.7ZM747.6 127.2L747.6 127.2Q746.7 127.2 745.9 126.7Q745.2 126.2 744.8 125.4Q744.4 124.6 744.4 123.5L744.4 123.5Q744.4 122.4 744.8 121.6Q745.2 120.7 745.9 120.3Q746.7 119.8 747.6 119.8L747.6 119.8Q748.6 119.8 749.3 120.3Q750.1 120.7 750.5 121.6Q750.9 122.4 750.9 123.5L750.9 123.5Q750.9 124.6 750.5 125.4Q750.1 126.2 749.3 126.7Q748.6 127.2 747.6 127.2ZM747.6 126.1L747.6 126.1Q748.4 126.1 748.8 125.8Q749.3 125.4 749.5 124.8Q749.7 124.2 749.7 123.5L749.7 123.5Q749.7 122.8 749.5 122.2Q749.3 121.6 748.8 121.2Q748.4 120.8 747.6 120.8L747.6 120.8Q746.9 120.8 746.5 121.2Q746.0 121.6 745.8 122.2Q745.6 122.8 745.6 123.5L745.6 123.5Q745.6 124.2 745.8 124.8Q746.0 125.4 746.5 125.8Q746.9 126.1 747.6 126.1ZM754.0 122.7L754.0 122.7L754.0 127L752.8 127L752.8 119.9L753.9 119.9L754.0 121.2Q754.2 120.6 754.7 120.2L754.7 120.2Q755.3 119.8 756.1 119.8L756.1 119.8Q756.8 119.8 757.4 120.1Q757.9 120.4 758.2 121.0Q758.5 121.6 758.5 122.5L758.5 122.5L758.5 127L757.4 127L757.4 122.6Q757.4 121.8 757.0 121.3Q756.5 120.8 755.8 120.8L755.8 120.8Q755.3 120.8 754.9 121.1Q754.5 121.3 754.2 121.7Q754.0 122.1 754.0 122.7Z "/></g><defs><clipPath id="satori_bc-id-2-6" clip-path="url(#satori_cp-id)"><path x="221" y="153" width="135" height="38" d="M233,153 h111 a12,12 0 0 1 12,12 v14 a12,12 0 0 1 -12,12 h-111 a12,12 0 0 1 -12,-12 v-14 a12,12 0 0 1 12,-12"/></clipPath></defs><mask id="satori_om-id-2-6"><rect x="222" y="154" width="133" height="36" fill="#fff" mask="url(#satori_om-id)"/><path width="135" height="38" fill="none" stroke="#000" stroke-width="2" d="M224.515,156.515 A12,12 0 0 1 233,153 h111 a12,12 0 0 1 12,12 v14 a12,12 0 0 1 -12,12 h-111 a12,12 0 0 1 -12,-12 v-14 A12,12 0 0 1 224.515,156.515"/></mask><path x="221" y="153" width="135" height="38" fill="rgba(51,103,145,0.06)" d="M233,153 h111 a12,12 0 0 1 12,12 v14 a12,12 0 0 1 -12,12 h-111 a12,12 0 0 1 -12,-12 v-14 a12,12 0 0 1 12,-12" clip-path="url(#satori_cp-id)" mask="url(#satori_om-id)"/><path width="135" height="38" clip-path="url(#satori_bc-id-2-6)" fill="none" stroke="rgba(51,103,145,0.18)" stroke-width="2" d="M224.515,156.515 A12,12 0 0 1 233,153 h111 a12,12 0 0 1 12,12 v14 a12,12 0 0 1 -12,12 h-111 a12,12 0 0 1 -12,-12 v-14 A12,12 0 0 1 224.515,156.515"/><mask id="satori_ms-id-2-6-0-0" maskUnits="userSpaceOnUse"><rect x="0" y="0" width="860" height="260" fill="#fff"/><path x="242" y="168" width="8" height="8" fill="#000"  stroke-width="0" d="M246,168 h0 a4,4 0 0 1 4,4 v0 a4,4 0 0 1 -4,4 h0 a4,4 0 0 1 -4,-4 v0 a4,4 0 0 1 4,-4" clip-path="url(#satori_cp-id)" mask="url(#satori_om-id)"/></mask><defs><filter id="satori_s-id-2-6-0-0" x="-200%" y="-200%" width="500%" height="500%"><feGaussianBlur stdDeviation="4" result="b"/><feFlood flood-color="rgba(51,103,145,0.5)" in="SourceGraphic" result="f"/><feComposite in="f" in2="b" operator="in"/></filter></defs><g mask="url(#satori_ms-id-2-6-0-0)" filter="url(#satori_s-id-2-6-0-0)" opacity="1"><path x="242" y="168" width="8" height="8" fill="#fff" stroke="#fff" stroke-width="0" d="M246,168 h0 a4,4 0 0 1 4,4 v0 a4,4 0 0 1 -4,4 h0 a4,4 0 0 1 -4,-4 v0 a4,4 0 0 1 4,-4" clip-path="url(#satori_cp-id)" mask="url(#satori_om-id)"/></g><mask id="satori_om-id-2-6-0"><rect x="242" y="168" width="8" height="8" fill="#fff" mask="url(#satori_om-id)"/></mask><path x="242" y="168" width="8" height="8" fill="rgba(51,103,145,0.8)" d="M246,168 h0 a4,4 0 0 1 4,4 v0 a4,4 0 0 1 -4,4 h0 a4,4 0 0 1 -4,-4 v0 a4,4 0 0 1 4,-4" clip-path="url(#satori_cp-id)" mask="url(#satori_om-id)"/><mask id="satori_om-id-2-6-1"><rect x="258" y="164" width="77" height="16" fill="#fff" mask="url(#satori_om-id)"/></mask><g mask="url(#satori_om-id)" clip-path="url(#satori_cp-id)"><path fill="rgba(255,255,255,0.75)" d="M260.3 177L259.1 177L259.1 167.5L262.4 167.5Q263.5 167.5 264.2 167.9Q264.9 168.3 265.3 169.0Q265.6 169.7 265.6 170.6Q265.6 171.4 265.3 172.1Q264.9 172.8 264.2 173.2Q263.5 173.6 262.4 173.6L262.4 173.6L260.3 173.6L260.3 177ZM260.3 168.6L260.3 172.5L262.3 172.5Q263.1 172.5 263.5 172.3Q264.0 172.0 264.2 171.6Q264.4 171.1 264.4 170.6Q264.4 170.0 264.2 169.6Q264.0 169.1 263.5 168.9Q263.1 168.6 262.3 168.6L262.3 168.6L260.3 168.6ZM270.5 177.2L270.5 177.2Q269.5 177.2 268.8 176.7Q268.1 176.2 267.7 175.4Q267.3 174.6 267.3 173.5L267.3 173.5Q267.3 172.4 267.7 171.6Q268.1 170.7 268.8 170.3Q269.5 169.8 270.5 169.8L270.5 169.8Q271.5 169.8 272.2 170.3Q272.9 170.7 273.3 171.6Q273.7 172.4 273.7 173.5L273.7 173.5Q273.7 174.6 273.3 175.4Q272.9 176.2 272.2 176.7Q271.5 177.2 270.5 177.2ZM270.5 176.1L270.5 176.1Q271.2 176.1 271.7 175.8Q272.1 175.4 272.4 174.8Q272.6 174.2 272.6 173.5L272.6 173.5Q272.6 172.8 272.4 172.2Q272.1 171.6 271.7 171.2Q271.2 170.8 270.5 170.8L270.5 170.8Q269.8 170.8 269.3 171.2Q268.9 171.6 268.6 172.2Q268.4 172.8 268.4 173.5L268.4 173.5Q268.4 174.2 268.6 174.8Q268.9 175.4 269.3 175.8Q269.8 176.1 270.5 176.1ZM278.1 177.2L278.1 177.2Q277.4 177.2 276.8 176.9Q276.2 176.7 275.9 176.3Q275.5 175.9 275.4 175.3L275.4 175.3L276.5 175.0Q276.6 175.6 277.0 175.9Q277.5 176.1 278.1 176.1L278.1 176.1Q278.8 176.1 279.3 175.8Q279.7 175.5 279.7 175.1L279.7 175.1Q279.7 174.7 279.5 174.5Q279.2 174.2 278.7 174.1L278.7 174.1L277.5 173.8Q276.5 173.6 276.1 173.1Q275.6 172.6 275.6 171.9L275.6 171.9Q275.6 171.3 275.9 170.8Q276.3 170.3 276.9 170.1Q277.5 169.8 278.2 169.8L278.2 169.8Q279.0 169.8 279.5 170.0Q280.0 170.3 280.3 170.6Q280.6 171.0 280.8 171.5L280.8 171.5L279.7 171.8Q279.6 171.4 279.3 171.1Q278.9 170.8 278.2 170.8L278.2 170.8Q277.6 170.8 277.2 171.1Q276.8 171.4 276.8 171.8L276.8 171.8Q276.8 172.2 277.0 172.4Q277.3 172.7 277.9 172.8L277.9 172.8L279.0 173.1Q280.0 173.3 280.4 173.8Q280.9 174.3 280.9 175.0L280.9 175.0Q280.9 175.6 280.6 176.1Q280.2 176.6 279.6 176.9Q278.9 177.2 278.1 177.2ZM284.2 169.9L285.7 169.9L285.7 170.9L284.2 170.9L284.2 175.2Q284.2 175.6 284.4 175.9Q284.6 176.1 285.0 176.1L285.0 176.1Q285.1 176.1 285.3 176.0Q285.5 176.0 285.6 176.0L285.6 176.0L285.9 177.0Q285.7 177.0 285.4 177.1Q285.2 177.1 285.0 177.1L285.0 177.1Q284.1 177.1 283.6 176.6Q283.1 176.1 283.1 175.2L283.1 175.2L283.1 170.9L282.0 170.9L282.0 169.9L283.1 169.9L283.1 168.2L284.2 168.2L284.2 169.9ZM290.3 179.8L290.3 179.8Q289.5 179.8 288.9 179.6Q288.4 179.4 288.0 179.1Q287.6 178.7 287.4 178.4L287.4 178.4L288.3 177.8Q288.5 178.0 288.7 178.2Q288.9 178.5 289.3 178.6Q289.7 178.8 290.3 178.8L290.3 178.8Q291.1 178.8 291.7 178.4Q292.2 178.0 292.2 177.1L292.2 177.1L292.2 175.7L292.1 175.7Q292.0 175.9 291.8 176.2Q291.6 176.5 291.2 176.7Q290.8 176.9 290.1 176.9L290.1 176.9Q289.2 176.9 288.5 176.5Q287.9 176.1 287.5 175.3Q287.1 174.5 287.1 173.4L287.1 173.4Q287.1 172.3 287.5 171.5Q287.8 170.7 288.5 170.3Q289.2 169.8 290.1 169.8L290.1 169.8Q290.8 169.8 291.2 170.0Q291.6 170.3 291.8 170.6Q292.0 170.8 292.2 171.0L292.2 171.0L292.3 171.0L292.3 169.9L293.4 169.9L293.4 177.2Q293.4 178.1 293.0 178.7Q292.6 179.3 291.9 179.5Q291.2 179.8 290.3 179.8ZM290.3 175.9L290.3 175.9Q290.9 175.9 291.4 175.6Q291.8 175.3 292.0 174.7Q292.3 174.2 292.3 173.4L292.3 173.4Q292.3 172.6 292.0 172.1Q291.8 171.5 291.4 171.2Q290.9 170.8 290.3 170.8L290.3 170.8Q289.6 170.8 289.1 171.2Q288.7 171.5 288.5 172.1Q288.2 172.7 288.2 173.4L288.2 173.4Q288.2 174.1 288.5 174.7Q288.7 175.2 289.1 175.6Q289.6 175.9 290.3 175.9ZM296.8 177L295.7 177L295.7 169.9L296.8 169.9L296.8 171.0L296.9 171.0Q297.1 170.5 297.6 170.1Q298.1 169.8 298.7 169.8L298.7 169.8Q298.8 169.8 299.0 169.8Q299.2 169.8 299.3 169.8L299.3 169.8L299.3 171.0Q299.2 171.0 299.0 170.9Q298.8 170.9 298.6 170.9L298.6 170.9Q298.1 170.9 297.7 171.1Q297.3 171.3 297.1 171.7Q296.8 172.1 296.8 172.6L296.8 172.6L296.8 177ZM303.9 177.2L303.9 177.2Q302.8 177.2 302.1 176.7Q301.3 176.2 300.9 175.4Q300.5 174.6 300.5 173.5Q300.5 172.4 300.9 171.6Q301.3 170.8 302.0 170.3Q302.8 169.8 303.7 169.8L303.7 169.8Q304.3 169.8 304.8 170.0Q305.4 170.2 305.8 170.6Q306.3 171.0 306.6 171.7Q306.8 172.4 306.8 173.4L306.8 173.4L306.8 173.8L301.7 173.8Q301.7 174.5 302.0 175.0L302.0 175.0Q302.2 175.6 302.7 175.9Q303.2 176.1 303.9 176.1L303.9 176.1Q304.3 176.1 304.6 176.0Q305.0 175.9 305.2 175.7Q305.5 175.4 305.6 175.0L305.6 175.0L306.7 175.3Q306.5 175.9 306.2 176.3Q305.8 176.7 305.2 176.9Q304.6 177.2 303.9 177.2ZM301.7 172.9L301.7 172.9L305.7 172.9Q305.6 172.4 305.5 172.0L305.5 172.0Q305.2 171.4 304.8 171.1Q304.4 170.8 303.7 170.8Q303.1 170.8 302.6 171.1Q302.2 171.5 301.9 172.0L301.9 172.0Q301.7 172.4 301.7 172.9ZM311.9 177.2L311.9 177.2Q310.9 177.2 310.2 176.8Q309.4 176.5 309.0 175.9Q308.6 175.3 308.5 174.5L308.5 174.5L309.7 174.5Q309.8 175.1 310.1 175.4Q310.4 175.7 310.9 175.9Q311.4 176.1 311.9 176.1L311.9 176.1Q312.6 176.1 313.1 175.9Q313.6 175.7 313.9 175.3Q314.2 174.9 314.2 174.4L314.2 174.4Q314.2 173.9 313.9 173.7Q313.7 173.4 313.2 173.2Q312.8 173.0 312.3 172.9L312.3 172.9L311.2 172.5Q310.0 172.2 309.4 171.6Q308.8 171.0 308.8 170.1L308.8 170.1Q308.8 169.3 309.2 168.7Q309.6 168.1 310.4 167.7Q311.1 167.4 312.0 167.4L312.0 167.4Q312.9 167.4 313.7 167.7Q314.4 168.1 314.8 168.6Q315.2 169.2 315.2 169.9L315.2 169.9L314.1 169.9Q314.0 169.2 313.4 168.9Q312.8 168.5 312.0 168.5L312.0 168.5Q311.4 168.5 310.9 168.7Q310.4 168.9 310.2 169.2Q309.9 169.6 309.9 170.0L309.9 170.0Q309.9 170.5 310.2 170.8Q310.6 171.1 311.0 171.3Q311.4 171.5 311.7 171.5L311.7 171.5L312.7 171.8Q313.1 171.9 313.5 172.1Q314.0 172.3 314.4 172.6Q314.8 172.9 315.1 173.3Q315.4 173.8 315.4 174.4L315.4 174.4Q315.4 175.2 315.0 175.8Q314.6 176.4 313.8 176.8Q313.0 177.2 311.9 177.2ZM321.4 177.1L321.4 177.1Q320.2 177.1 319.2 176.5Q318.3 176.0 317.7 174.9Q317.2 173.8 317.2 172.3L317.2 172.3Q317.2 170.8 317.7 169.7Q318.3 168.6 319.2 168.0Q320.2 167.4 321.4 167.4Q322.6 167.4 323.5 168.0Q324.5 168.6 325.0 169.7Q325.6 170.8 325.6 172.3L325.6 172.3Q325.6 173.8 325.0 174.9L325.0 174.9Q324.6 175.7 323.9 176.3L323.9 176.3L325.1 177.9L323.9 177.9L323.1 176.8Q322.3 177.1 321.4 177.1ZM322.4 175.8L321.0 174.0L322.2 174.0L323.2 175.3Q323.7 174.9 324.0 174.3L324.0 174.3Q324.4 173.5 324.4 172.3L324.4 172.3Q324.4 171.1 324.0 170.2Q323.6 169.4 322.9 169.0Q322.2 168.5 321.4 168.5L321.4 168.5Q320.5 168.5 319.8 169.0Q319.2 169.4 318.8 170.2Q318.3 171.1 318.3 172.3L318.3 172.3Q318.3 173.5 318.8 174.3Q319.2 175.1 319.8 175.6Q320.5 176.0 321.4 176.0L321.4 176.0Q321.9 176.0 322.4 175.8L322.4 175.8ZM333.4 177L327.8 177L327.8 167.5L329.0 167.5L329.0 175.9L333.4 175.9L333.4 177Z "/></g><defs><clipPath id="satori_bc-id-2-7" clip-path="url(#satori_cp-id)"><path x="368" y="153" width="105" height="38" d="M380,153 h81 a12,12 0 0 1 12,12 v14 a12,12 0 0 1 -12,12 h-81 a12,12 0 0 1 -12,-12 v-14 a12,12 0 0 1 12,-12"/></clipPath></defs><mask id="satori_om-id-2-7"><rect x="369" y="154" width="103" height="36" fill="#fff" mask="url(#satori_om-id)"/><path width="105" height="38" fill="none" stroke="#000" stroke-width="2" d="M371.515,156.515 A12,12 0 0 1 380,153 h81 a12,12 0 0 1 12,12 v14 a12,12 0 0 1 -12,12 h-81 a12,12 0 0 1 -12,-12 v-14 A12,12 0 0 1 371.515,156.515"/></mask><path x="368" y="153" width="105" height="38" fill="rgba(13,183,237,0.06)" d="M380,153 h81 a12,12 0 0 1 12,12 v14 a12,12 0 0 1 -12,12 h-81 a12,12 0 0 1 -12,-12 v-14 a12,12 0 0 1 12,-12" clip-path="url(#satori_cp-id)" mask="url(#satori_om-id)"/><path width="105" height="38" clip-path="url(#satori_bc-id-2-7)" fill="none" stroke="rgba(13,183,237,0.18)" stroke-width="2" d="M371.515,156.515 A12,12 0 0 1 380,153 h81 a12,12 0 0 1 12,12 v14 a12,12 0 0 1 -12,12 h-81 a12,12 0 0 1 -12,-12 v-14 A12,12 0 0 1 371.515,156.515"/><mask id="satori_ms-id-2-7-0-0" maskUnits="userSpaceOnUse"><rect x="0" y="0" width="860" height="260" fill="#fff"/><path x="389" y="168" width="8" height="8" fill="#000"  stroke-width="0" d="M393,168 h0 a4,4 0 0 1 4,4 v0 a4,4 0 0 1 -4,4 h0 a4,4 0 0 1 -4,-4 v0 a4,4 0 0 1 4,-4" clip-path="url(#satori_cp-id)" mask="url(#satori_om-id)"/></mask><defs><filter id="satori_s-id-2-7-0-0" x="-200%" y="-200%" width="500%" height="500%"><feGaussianBlur stdDeviation="4" result="b"/><feFlood flood-color="rgba(13,183,237,0.5)" in="SourceGraphic" result="f"/><feComposite in="f" in2="b" operator="in"/></filter></defs><g mask="url(#satori_ms-id-2-7-0-0)" filter="url(#satori_s-id-2-7-0-0)" opacity="1"><path x="389" y="168" width="8" height="8" fill="#fff" stroke="#fff" stroke-width="0" d="M393,168 h0 a4,4 0 0 1 4,4 v0 a4,4 0 0 1 -4,4 h0 a4,4 0 0 1 -4,-4 v0 a4,4 0 0 1 4,-4" clip-path="url(#satori_cp-id)" mask="url(#satori_om-id)"/></g><mask id="satori_om-id-2-7-0"><rect x="389" y="168" width="8" height="8" fill="#fff" mask="url(#satori_om-id)"/></mask><path x="389" y="168" width="8" height="8" fill="rgba(13,183,237,0.8)" d="M393,168 h0 a4,4 0 0 1 4,4 v0 a4,4 0 0 1 -4,4 h0 a4,4 0 0 1 -4,-4 v0 a4,4 0 0 1 4,-4" clip-path="url(#satori_cp-id)" mask="url(#satori_om-id)"/><mask id="satori_om-id-2-7-1"><rect x="405" y="164" width="47" height="16" fill="#fff" mask="url(#satori_om-id)"/></mask><g mask="url(#satori_om-id)" clip-path="url(#satori_cp-id)"><path fill="rgba(255,255,255,0.75)" d="M409.1 177L409.1 177L406.1 177L406.1 167.5L409.2 167.5Q410.6 167.5 411.6 168.1Q412.6 168.7 413.1 169.7Q413.6 170.8 413.6 172.3L413.6 172.3Q413.6 173.7 413.1 174.8Q412.6 175.9 411.5 176.4Q410.5 177 409.1 177ZM407.3 168.6L407.3 175.9L409.0 175.9Q410.2 175.9 410.9 175.5Q411.7 175.1 412.1 174.2Q412.4 173.4 412.4 172.3L412.4 172.3Q412.4 171.1 412.1 170.3Q411.7 169.5 411.0 169.0Q410.2 168.6 409.1 168.6L409.1 168.6L407.3 168.6ZM418.6 177.2L418.6 177.2Q417.6 177.2 416.9 176.7Q416.2 176.2 415.7 175.4Q415.3 174.6 415.3 173.5L415.3 173.5Q415.3 172.4 415.7 171.6Q416.2 170.7 416.9 170.3Q417.6 169.8 418.6 169.8L418.6 169.8Q419.5 169.8 420.3 170.3Q421.0 170.7 421.4 171.6Q421.8 172.4 421.8 173.5L421.8 173.5Q421.8 174.6 421.4 175.4Q421.0 176.2 420.3 176.7Q419.5 177.2 418.6 177.2ZM418.6 176.1L418.6 176.1Q419.3 176.1 419.8 175.8Q420.2 175.4 420.4 174.8Q420.7 174.2 420.7 173.5L420.7 173.5Q420.7 172.8 420.4 172.2Q420.2 171.6 419.8 171.2Q419.3 170.8 418.6 170.8L418.6 170.8Q417.9 170.8 417.4 171.2Q416.9 171.6 416.7 172.2Q416.5 172.8 416.5 173.5L416.5 173.5Q416.5 174.2 416.7 174.8Q416.9 175.4 417.4 175.8Q417.9 176.1 418.6 176.1ZM426.7 177.2L426.7 177.2Q425.7 177.2 425.0 176.7Q424.2 176.2 423.8 175.4Q423.4 174.6 423.4 173.5L423.4 173.5Q423.4 172.4 423.8 171.6Q424.2 170.7 425.0 170.3Q425.7 169.8 426.7 169.8L426.7 169.8Q427.2 169.8 427.6 169.9Q428.1 170.1 428.5 170.3Q428.9 170.6 429.1 170.9Q429.4 171.3 429.5 171.8L429.5 171.8L428.4 172.1Q428.4 171.8 428.2 171.6Q428.1 171.4 427.8 171.2Q427.6 171.0 427.3 170.9Q427.0 170.8 426.7 170.8L426.7 170.8Q426.0 170.8 425.5 171.2Q425.0 171.6 424.8 172.2Q424.6 172.8 424.6 173.5L424.6 173.5Q424.6 174.2 424.8 174.8Q425.0 175.4 425.5 175.8Q426.0 176.1 426.7 176.1L426.7 176.1Q427.0 176.1 427.3 176.0Q427.6 175.9 427.9 175.8Q428.1 175.6 428.2 175.3Q428.4 175.1 428.5 174.8L428.5 174.8L429.6 175.1Q429.4 175.6 429.2 176.0Q428.9 176.4 428.5 176.6Q428.1 176.9 427.7 177.0Q427.2 177.2 426.7 177.2ZM432.6 177L431.5 177L431.5 167.5L432.6 167.5L432.6 173.0L432.8 173.0L435.8 169.9L437.2 169.9L434.3 173.0L437.5 177L436.0 177L433.4 173.7L432.6 174.4L432.6 177ZM441.9 177.2L441.9 177.2Q440.9 177.2 440.2 176.7Q439.4 176.2 439.0 175.4Q438.6 174.6 438.6 173.5Q438.6 172.4 439.0 171.6Q439.4 170.8 440.1 170.3Q440.8 169.8 441.8 169.8L441.8 169.8Q442.4 169.8 442.9 170.0Q443.5 170.2 443.9 170.6Q444.3 171.0 444.6 171.7Q444.9 172.4 444.9 173.4L444.9 173.4L444.9 173.8L439.8 173.8Q439.8 174.5 440.0 175.0L440.0 175.0Q440.3 175.6 440.8 175.9Q441.3 176.1 441.9 176.1L441.9 176.1Q442.3 176.1 442.7 176.0Q443.0 175.9 443.3 175.7Q443.5 175.4 443.7 175.0L443.7 175.0L444.8 175.3Q444.6 175.9 444.2 176.3Q443.8 176.7 443.2 176.9Q442.7 177.2 441.9 177.2ZM439.8 172.9L439.8 172.9L443.7 172.9Q443.7 172.4 443.5 172.0L443.5 172.0Q443.3 171.4 442.9 171.1Q442.4 170.8 441.8 170.8Q441.2 170.8 440.7 171.1Q440.2 171.5 440.0 172.0L440.0 172.0Q439.8 172.4 439.8 172.9ZM448.0 177L446.8 177L446.8 169.9L447.9 169.9L447.9 171.0L448.0 171.0Q448.2 170.5 448.7 170.1Q449.2 169.8 449.8 169.8L449.8 169.8Q450.0 169.8 450.1 169.8Q450.3 169.8 450.4 169.8L450.4 169.8L450.4 171.0Q450.4 171.0 450.2 170.9Q450.0 170.9 449.7 170.9L449.7 170.9Q449.2 170.9 448.8 171.1Q448.4 171.3 448.2 171.7Q448.0 172.1 448.0 172.6L448.0 172.6L448.0 177Z "/></g><defs><clipPath id="satori_bc-id-2-8" clip-path="url(#satori_cp-id)"><path x="485" y="153" width="155" height="38" d="M497,153 h131 a12,12 0 0 1 12,12 v14 a12,12 0 0 1 -12,12 h-131 a12,12 0 0 1 -12,-12 v-14 a12,12 0 0 1 12,-12"/></clipPath></defs><mask id="satori_om-id-2-8"><rect x="486" y="154" width="153" height="36" fill="#fff" mask="url(#satori_om-id)"/><path width="155" height="38" fill="none" stroke="#000" stroke-width="2" d="M488.515,156.515 A12,12 0 0 1 497,153 h131 a12,12 0 0 1 12,12 v14 a12,12 0 0 1 -12,12 h-131 a12,12 0 0 1 -12,-12 v-14 A12,12 0 0 1 488.515,156.515"/></mask><path x="485" y="153" width="155" height="38" fill="rgba(33,136,255,0.06)" d="M497,153 h131 a12,12 0 0 1 12,12 v14 a12,12 0 0 1 -12,12 h-131 a12,12 0 0 1 -12,-12 v-14 a12,12 0 0 1 12,-12" clip-path="url(#satori_cp-id)" mask="url(#satori_om-id)"/><path width="155" height="38" clip-path="url(#satori_bc-id-2-8)" fill="none" stroke="rgba(33,136,255,0.18)" stroke-width="2" d="M488.515,156.515 A12,12 0 0 1 497,153 h131 a12,12 0 0 1 12,12 v14 a12,12 0 0 1 -12,12 h-131 a12,12 0 0 1 -12,-12 v-14 A12,12 0 0 1 488.515,156.515"/><mask id="satori_ms-id-2-8-0-0" maskUnits="userSpaceOnUse"><rect x="0" y="0" width="860" height="260" fill="#fff"/><path x="506" y="168" width="8" height="8" fill="#000"  stroke-width="0" d="M510,168 h0 a4,4 0 0 1 4,4 v0 a4,4 0 0 1 -4,4 h0 a4,4 0 0 1 -4,-4 v0 a4,4 0 0 1 4,-4" clip-path="url(#satori_cp-id)" mask="url(#satori_om-id)"/></mask><defs><filter id="satori_s-id-2-8-0-0" x="-200%" y="-200%" width="500%" height="500%"><feGaussianBlur stdDeviation="4" result="b"/><feFlood flood-color="rgba(33,136,255,0.5)" in="SourceGraphic" result="f"/><feComposite in="f" in2="b" operator="in"/></filter></defs><g mask="url(#satori_ms-id-2-8-0-0)" filter="url(#satori_s-id-2-8-0-0)" opacity="1"><path x="506" y="168" width="8" height="8" fill="#fff" stroke="#fff" stroke-width="0" d="M510,168 h0 a4,4 0 0 1 4,4 v0 a4,4 0 0 1 -4,4 h0 a4,4 0 0 1 -4,-4 v0 a4,4 0 0 1 4,-4" clip-path="url(#satori_cp-id)" mask="url(#satori_om-id)"/></g><mask id="satori_om-id-2-8-0"><rect x="506" y="168" width="8" height="8" fill="#fff" mask="url(#satori_om-id)"/></mask><path x="506" y="168" width="8" height="8" fill="rgba(33,136,255,0.8)" d="M510,168 h0 a4,4 0 0 1 4,4 v0 a4,4 0 0 1 -4,4 h0 a4,4 0 0 1 -4,-4 v0 a4,4 0 0 1 4,-4" clip-path="url(#satori_cp-id)" mask="url(#satori_om-id)"/><mask id="satori_om-id-2-8-1"><rect x="522" y="164" width="97" height="16" fill="#fff" mask="url(#satori_om-id)"/></mask><g mask="url(#satori_om-id)" clip-path="url(#satori_cp-id)"><path fill="rgba(255,255,255,0.75)" d="M527.0 177.1L527.0 177.1Q525.7 177.1 524.8 176.5Q523.8 175.9 523.3 174.9Q522.8 173.8 522.8 172.3L522.8 172.3Q522.8 170.8 523.3 169.7Q523.8 168.6 524.8 168.0Q525.7 167.4 526.9 167.4L526.9 167.4Q527.7 167.4 528.3 167.6Q529.0 167.9 529.5 168.3Q530.0 168.7 530.4 169.3Q530.7 169.8 530.8 170.5L530.8 170.5L529.6 170.5Q529.4 170.0 529.2 169.7Q528.9 169.3 528.6 169.1Q528.3 168.8 527.9 168.7Q527.4 168.5 526.9 168.5L526.9 168.5Q526.1 168.5 525.4 169.0Q524.7 169.4 524.3 170.2Q523.9 171.1 523.9 172.3L523.9 172.3Q523.9 173.5 524.4 174.3Q524.8 175.1 525.4 175.6Q526.1 176.0 527.0 176.0L527.0 176.0Q527.8 176.0 528.4 175.7Q529.0 175.3 529.4 174.7L529.4 174.7Q529.7 174.1 529.7 173.3L529.7 173.3L527.3 173.3L527.3 172.2L530.9 172.2L530.9 173.3Q530.9 174.5 530.4 175.3Q529.9 176.2 529.0 176.7Q528.1 177.1 527.0 177.1ZM534.1 177L533.0 177L533.0 169.9L534.1 169.9L534.1 177ZM533.6 168.7L533.6 168.7Q533.3 168.7 533.0 168.5Q532.8 168.3 532.8 168.0L532.8 168.0Q532.8 167.7 533.0 167.4Q533.3 167.2 533.6 167.2L533.6 167.2Q533.9 167.2 534.1 167.4Q534.4 167.7 534.4 168.0L534.4 168.0Q534.4 168.3 534.1 168.5Q533.9 168.7 533.6 168.7ZM537.8 169.9L539.2 169.9L539.2 170.9L537.8 170.9L537.8 175.2Q537.8 175.6 538.0 175.9Q538.2 176.1 538.6 176.1L538.6 176.1Q538.7 176.1 538.9 176.0Q539.1 176.0 539.2 176.0L539.2 176.0L539.4 177.0Q539.3 177.0 539.0 177.1Q538.8 177.1 538.6 177.1L538.6 177.1Q537.7 177.1 537.2 176.6Q536.6 176.1 536.6 175.2L536.6 175.2L536.6 170.9L535.6 170.9L535.6 169.9L536.6 169.9L536.6 168.2L537.8 168.2L537.8 169.9ZM542.3 177L541.1 177L541.1 167.5L542.3 167.5L542.3 171.6L547.3 171.6L547.3 167.5L548.5 167.5L548.5 177L547.3 177L547.3 172.7L542.3 172.7L542.3 177ZM553.4 177.1L553.4 177.1Q552.7 177.1 552.1 176.8Q551.6 176.5 551.3 175.9Q551.0 175.3 551.0 174.4L551.0 174.4L551.0 169.9L552.1 169.9L552.1 174.3Q552.1 175.1 552.5 175.6Q553.0 176.1 553.7 176.1L553.7 176.1Q554.2 176.1 554.6 175.8Q555.0 175.6 555.3 175.2Q555.5 174.8 555.5 174.2L555.5 174.2L555.5 169.9L556.6 169.9L556.6 177L555.5 177L555.5 175.7Q555.2 176.4 554.8 176.7L554.8 176.7Q554.2 177.1 553.4 177.1ZM562.2 177.2L562.2 177.2Q561.6 177.2 561.2 176.9Q560.7 176.7 560.5 176.4Q560.3 176.1 560.2 175.9L560.2 175.9L560.1 175.9L560.1 177L559.0 177L559.0 167.5L560.1 167.5L560.1 171.0L560.2 171.0Q560.3 170.8 560.5 170.6Q560.7 170.3 561.1 170.0Q561.5 169.8 562.2 169.8L562.2 169.8Q563.1 169.8 563.8 170.3Q564.5 170.7 564.9 171.5Q565.2 172.3 565.2 173.5L565.2 173.5Q565.2 174.6 564.9 175.4Q564.5 176.3 563.8 176.7Q563.1 177.2 562.2 177.2ZM562.1 176.1L562.1 176.1Q562.7 176.1 563.2 175.8Q563.6 175.4 563.9 174.8Q564.1 174.2 564.1 173.5L564.1 173.5Q564.1 172.7 563.9 172.1Q563.6 171.5 563.2 171.2Q562.7 170.8 562.1 170.8L562.1 170.8Q561.4 170.8 561.0 171.2Q560.5 171.5 560.3 172.1Q560.1 172.7 560.1 173.5L560.1 173.5Q560.1 174.2 560.3 174.8Q560.5 175.5 561.0 175.8Q561.4 176.1 562.1 176.1Z M571.8 177L570.5 177L573.9 167.5L575.3 167.5L578.8 177L577.5 177L576.6 174.4L572.7 174.4L571.8 177ZM573.1 173.3L576.2 173.3L575.5 171.4Q575.3 170.9 575.1 170.1L575.1 170.1Q574.9 169.4 574.6 168.5L574.6 168.5Q574.3 169.5 574.1 170.1L574.1 170.1Q573.9 170.9 573.7 171.4L573.7 171.4L573.1 173.3ZM583.3 177.2L583.3 177.2Q582.4 177.2 581.6 176.7Q580.9 176.2 580.5 175.4Q580.1 174.6 580.1 173.5L580.1 173.5Q580.1 172.4 580.5 171.6Q580.9 170.7 581.6 170.3Q582.4 169.8 583.3 169.8L583.3 169.8Q583.8 169.8 584.3 169.9Q584.8 170.1 585.1 170.3Q585.5 170.6 585.8 170.9Q586.1 171.3 586.2 171.8L586.2 171.8L585.1 172.1Q585.0 171.8 584.9 171.6Q584.7 171.4 584.5 171.2Q584.3 171.0 584.0 170.9Q583.7 170.8 583.3 170.8L583.3 170.8Q582.6 170.8 582.2 171.2Q581.7 171.6 581.5 172.2Q581.3 172.8 581.3 173.5L581.3 173.5Q581.3 174.2 581.5 174.8Q581.7 175.4 582.2 175.8Q582.6 176.1 583.3 176.1L583.3 176.1Q583.7 176.1 584.0 176.0Q584.3 175.9 584.5 175.8Q584.7 175.6 584.9 175.3Q585.1 175.1 585.1 174.8L585.1 174.8L586.2 175.1Q586.1 175.6 585.8 176.0Q585.5 176.4 585.2 176.6Q584.8 176.9 584.3 177.0Q583.8 177.2 583.3 177.2ZM589.5 169.9L591.0 169.9L591.0 170.9L589.5 170.9L589.5 175.2Q589.5 175.6 589.7 175.9Q589.9 176.1 590.3 176.1L590.3 176.1Q590.4 176.1 590.6 176.0Q590.8 176.0 590.9 176.0L590.9 176.0L591.2 177.0Q591.0 177.0 590.8 177.1Q590.5 177.1 590.3 177.1L590.3 177.1Q589.4 177.1 588.9 176.6Q588.4 176.1 588.4 175.2L588.4 175.2L588.4 170.9L587.3 170.9L587.3 169.9L588.4 169.9L588.4 168.2L589.5 168.2L589.5 169.9ZM593.9 177L592.7 177L592.7 169.9L593.9 169.9L593.9 177ZM593.3 168.7L593.3 168.7Q593.0 168.7 592.7 168.5Q592.5 168.3 592.5 168.0L592.5 168.0Q592.5 167.7 592.7 167.4Q593.0 167.2 593.3 167.2L593.3 167.2Q593.6 167.2 593.9 167.4Q594.1 167.7 594.1 168.0L594.1 168.0Q594.1 168.3 593.9 168.5Q593.6 168.7 593.3 168.7ZM599.1 177.2L599.1 177.2Q598.1 177.2 597.4 176.7Q596.6 176.2 596.2 175.4Q595.8 174.6 595.8 173.5L595.8 173.5Q595.8 172.4 596.2 171.6Q596.6 170.7 597.4 170.3Q598.1 169.8 599.1 169.8L599.1 169.8Q600.0 169.8 600.8 170.3Q601.5 170.7 601.9 171.6Q602.3 172.4 602.3 173.5L602.3 173.5Q602.3 174.6 601.9 175.4Q601.5 176.2 600.8 176.7Q600.0 177.2 599.1 177.2ZM599.1 176.1L599.1 176.1Q599.8 176.1 600.2 175.8Q600.7 175.4 600.9 174.8Q601.1 174.2 601.1 173.5L601.1 173.5Q601.1 172.8 600.9 172.2Q600.7 171.6 600.2 171.2Q599.8 170.8 599.1 170.8L599.1 170.8Q598.3 170.8 597.9 171.2Q597.4 171.6 597.2 172.2Q597.0 172.8 597.0 173.5L597.0 173.5Q597.0 174.2 597.2 174.8Q597.4 175.4 597.9 175.8Q598.3 176.1 599.1 176.1ZM605.4 172.7L605.4 172.7L605.4 177L604.3 177L604.3 169.9L605.4 169.9L605.4 171.2Q605.7 170.6 606.1 170.2L606.1 170.2Q606.7 169.8 607.5 169.8L607.5 169.8Q608.3 169.8 608.8 170.1Q609.3 170.4 609.6 171.0Q609.9 171.6 609.9 172.5L609.9 172.5L609.9 177L608.8 177L608.8 172.6Q608.8 171.8 608.4 171.3Q607.9 170.8 607.2 170.8L607.2 170.8Q606.7 170.8 606.3 171.1Q605.9 171.3 605.6 171.7Q605.4 172.1 605.4 172.7ZM614.7 177.2L614.7 177.2Q613.9 177.2 613.4 176.9Q612.8 176.7 612.4 176.3Q612.1 175.9 611.9 175.3L611.9 175.3L613.0 175.0Q613.2 175.6 613.6 175.9Q614.0 176.1 614.6 176.1L614.6 176.1Q615.4 176.1 615.8 175.8Q616.3 175.5 616.3 175.1L616.3 175.1Q616.3 174.7 616.0 174.5Q615.8 174.2 615.2 174.1L615.2 174.1L614.0 173.8Q613.1 173.6 612.6 173.1Q612.1 172.6 612.1 171.9L612.1 171.9Q612.1 171.3 612.5 170.8Q612.8 170.3 613.4 170.1Q614.0 169.8 614.8 169.8L614.8 169.8Q615.5 169.8 616.0 170.0Q616.5 170.3 616.8 170.6Q617.2 171.0 617.3 171.5L617.3 171.5L616.3 171.8Q616.1 171.4 615.8 171.1Q615.5 170.8 614.8 170.8L614.8 170.8Q614.1 170.8 613.7 171.1Q613.3 171.4 613.3 171.8L613.3 171.8Q613.3 172.2 613.6 172.4Q613.9 172.7 614.5 172.8L614.5 172.8L615.6 173.1Q616.5 173.3 617.0 173.8Q617.5 174.3 617.5 175.0L617.5 175.0Q617.5 175.6 617.1 176.1Q616.7 176.6 616.1 176.9Q615.5 177.2 614.7 177.2Z "/></g></svg>