<!-- Generated by readme-aura https://github.com/collectioneur/readme-aura -->
<svg width="860" height="320" viewBox="0 0 860 320" xmlns="http://www.w3.org/2000/svg"><defs><clipPath id="satori_bc-id"><path x="0" y="0" width="860" height="320" d="M20,0 h820 a20,20 0 0 1 20,20 v280 a20,20 0 0 1 -20,20 h-820 a20,20 0 0 1 -20,-20 v-280 a20,20 0 0 1 20,-20"/></clipPath></defs><clipPath id="satori_cp-id"><path x="0" y="0" width="860" height="320" d="M20,0 h820 a20,20 0 0 1 20,20 v280 a20,20 0 0 1 -20,20 h-820 a20,20 0 0 1 -20,-20 v-280 a20,20 0 0 1 20,-20"/></clipPath><mask id="satori_om-id"><rect x="1" y="1" width="858" height="318" fill="#fff"/><path width="860" height="320" fill="none" stroke="#000" stroke-width="2" d="M5.8580000000000005,5.8580000000000005 A20,20 0 0 1 20,0 h820 a20,20 0 0 1 20,20 v280 a20,20 0 0 1 -20,20 h-820 a20,20 0 0 1 -20,-20 v-280 A20,20 0 0 1 5.8580000000000005,5.8580000000000005"/></mask><path x="0" y="0" width="860" height="320" fill="#06060a" d="M20,0 h820 a20,20 0 0 1 20,20 v280 a20,20 0 0 1 -20,20 h-820 a20,20 0 0 1 -20,-20 v-280 a20,20 0 0 1 20,-20"/><path width="860" height="320" clip-path="url(#satori_bc-id)" fill="none" stroke="rgba(0,229,255,0.08)" stroke-width="2" d="M5.8580000000000005,5.8580000000000005 A20,20 0 0 1 20,0 h820 a20,20 0 0 1 20,20 v280 a20,20 0 0 1 -20,20 h-820 a20,20 0 0 1 -20,-20 v-280 A20,20 0 0 1 5.8580000000000005,5.8580000000000005"/><clipPath id="satori_cp-id-0" clip-path="url(#satori_cp-id)"><rect x="1" y="1" width="860" height="320"/></clipPath><mask id="satori_om-id-0"><rect x="1" y="1" width="860" height="320" fill="#fff" mask="url(#satori_om-id)"/></mask><svg x="1" y="1" width="860" height="320" preserveAspectRatio="none" clip-path="url(#satori_cp-id-0)" mask="url(#satori_om-id-0)"><defs><radialGradient id="hg1" cx="50%" cy="50%" r="50%"><stop offset="0%" stop-color="rgba(0,229,255,0.50)"></stop><stop offset="60%" stop-color="rgba(0,229,255,0.12)"></stop><stop offset="100%" stop-color="rgba(0,229,255,0)"></stop></radialGradient><radialGradient id="hg2" cx="50%" cy="50%" r="50%"><stop offset="0%" stop-color="rgba(139,92,246,0.55)"></stop><stop offset="55%" stop-color="rgba(139,92,246,0.15)"></stop><stop offset="100%" stop-color="rgba(139,92,246,0)"></stop></radialGradient><radialGradient id="hg3" cx="50%" cy="50%" r="50%"><stop offset="0%" stop-color="rgba(51,102,255,0.45)"></stop><stop offset="60%" stop-color="rgba(51,102,255,0.10)"></stop><stop offset="100%" stop-color="rgba(51,102,255,0)"></stop></radialGradient><radialGradient id="hg4" cx="50%" cy="50%" r="50%"><stop offset="0%" stop-color="rgba(236,72,153,0.30)"></stop><stop offset="70%" stop-color="rgba(236,72,153,0)"></stop></radialGradient><radialGradient id="hg5" cx="50%" cy="50%" r="50%"><stop offset="0%" stop-color="rgba(0,180,255,0.35)"></stop><stop offset="100%" stop-color="rgba(0,180,255,0)"></stop></radialGradient><radialGradient id="hg6" cx="50%" cy="50%" r="50%"><stop offset="0%" stop-color="rgba(168,85,247,0.40)"></stop><stop offset="100%" stop-color="rgba(168,85,247,0)"></stop></radialGradient><linearGradient id="hscan-g" x1="0" y1="0" x2="0" y2="1"><stop offset="0%" stop-color="rgba(0,229,255,0)"></stop><stop offset="45%" stop-color="rgba(0,229,255,0.04)"></stop><stop offset="50%" stop-color="rgba(0,229,255,0.12)"></stop><stop offset="55%" stop-color="rgba(0,229,255,0.04)"></stop><stop offset="100%" stop-color="rgba(0,229,255,0)"></stop></linearGradient></defs><ellipse id="ho1" cx="120" cy="280" rx="280" ry="200" fill="url(#hg1)"></ellipse><ellipse id="ho2" cx="740" cy="60" rx="250" ry="190" fill="url(#hg2)"></ellipse><ellipse id="ho3" cx="430" cy="310" rx="200" ry="160" fill="url(#hg3)"></ellipse><ellipse id="ho4" cx="680" cy="290" rx="180" ry="140" fill="url(#hg4)"></ellipse><ellipse id="ho5" cx="250" cy="40" rx="220" ry="160" fill="url(#hg5)"></ellipse><ellipse id="ho6" cx="500" cy="60" rx="160" ry="130" fill="url(#hg6)"></ellipse><circle id="hr1" cx="430" cy="160" r="55" fill="none" stroke="rgba(0,229,255,0.7)" stroke-width="0.5"></circle><circle id="hr2" cx="430" cy="160" r="100" fill="none" stroke="rgba(139,92,246,0.6)" stroke-width="0.5"></circle><circle id="hr3" cx="430" cy="160" r="155" fill="none" stroke="rgba(51,102,255,0.5)" stroke-width="0.4"></circle><circle id="hr4" cx="430" cy="160" r="220" fill="none" stroke="rgba(0,229,255,0.3)" stroke-width="0.3"></circle><g id="hdot"><circle cx="430" cy="105" r="2" fill="rgba(0,229,255,0.6)"></circle></g><rect id="hscan" x="0" y="0" width="860" height="320" fill="url(#hscan-g)"></rect><style>

    @keyframes hero-orb-a { 0%, 100% { transform: translate(0,0); opacity: 0.55; } 50% { transform: translate(40px,-30px); opacity: 0.85; } }
    @keyframes hero-orb-b { 0%, 100% { transform: translate(0,0); opacity: 0.45; } 50% { transform: translate(-35px,25px); opacity: 0.75; } }
    @keyframes hero-orb-c { 0%, 100% { transform: translate(0,0); opacity: 0.35; } 50% { transform: translate(25px,-40px); opacity: 0.65; } }
    @keyframes hero-orb-d { 0%, 100% { transform: translate(0,0); opacity: 0.40; } 50% { transform: translate(-20px,-15px); opacity: 0.70; } }
    @keyframes hero-ring { 0%, 100% { opacity: 0.04; } 50% { opacity: 0.14; } }
    @keyframes hero-ring-b { 0%, 100% { opacity: 0.03; } 50% { opacity: 0.10; } }
    @keyframes hero-dot-spin { 0% { transform: rotate(0deg); } 100% { transform: rotate(360deg); } }
    @keyframes hero-line-scan { 0% { transform: translateY(-320px); } 100% { transform: translateY(320px); } }
    @keyframes hero-cursor { 0%, 100% { opacity: 1; } 49% { opacity: 1; } 50% { opacity: 0; } 99% { opacity: 0; } }
    #ho1 { animation: hero-orb-a 9s ease-in-out infinite; }
    #ho2 { animation: hero-orb-b 12s ease-in-out infinite 0.6s; }
    #ho3 { animation: hero-orb-c 8s ease-in-out infinite 1.5s; }
    #ho4 { animation: hero-orb-d 11s ease-in-out infinite 0.3s; }
    #ho5 { animation: hero-orb-a 10s ease-in-out infinite 2s; }
    #ho6 { animation: hero-orb-b 14s ease-in-out infinite 1s; }
    #hr1 { animation: hero-ring 9s ease-in-out infinite; }
    #hr2 { animation: hero-ring 9s ease-in-out infinite 1.5s; }
    #hr3 { animation: hero-ring-b 9s ease-in-out infinite 3s; }
    #hr4 { animation: hero-ring-b 10s ease-in-out infinite 4.5s; }
    #hdot { animation: hero-dot-spin 24s linear infinite; }
    #hscan { animation: hero-line-scan 6s linear infinite; }
    #hcur { animation: hero-cursor 1.1s step-end infinite; }
  
</style>
</svg><mask id="satori_om-id-0-0"><rect x="1" y="1" width="0" height="320" fill="#fff" mask="url(#satori_om-id)"/></mask><mask id="satori_om-id-0-0-0"><rect x="1" y="1" width="0" height="320" fill="#fff" mask="url(#satori_om-id)"/></mask><mask id="satori_om-id-0-0-0-0"><rect x="1" y="1" width="0" height="320" fill="#fff" mask="url(#satori_om-id)"/></mask><mask id="satori_om-id-0-0-0-1"><rect x="1" y="1" width="0" height="320" fill="#fff" mask="url(#satori_om-id)"/></mask><mask id="satori_om-id-0-0-0-2"><rect x="1" y="1" width="0" height="320" fill="#fff" mask="url(#satori_om-id)"/></mask><mask id="satori_om-id-0-0-1"><rect x="1" y="1" width="0" height="320" fill="#fff" mask="url(#satori_om-id)"/></mask><mask id="satori_om-id-0-0-1-0"><rect x="1" y="1" width="0" height="320" fill="#fff" mask="url(#satori_om-id)"/></mask><mask id="satori_om-id-0-0-1-1"><rect x="1" y="1" width="0" height="320" fill="#fff" mask="url(#satori_om-id)"/></mask><mask id="satori_om-id-0-0-1-2"><rect x="1" y="1" width="0" height="320" fill="#fff" mask="url(#satori_om-id)"/></mask><mask id="satori_om-id-0-0-2"><rect x="1" y="1" width="0" height="320" fill="#fff" mask="url(#satori_om-id)"/></mask><mask id="satori_om-id-0-0-2-0"><rect x="1" y="1" width="0" height="320" fill="#fff" mask="url(#satori_om-id)"/></mask><mask id="satori_om-id-0-0-2-1"><rect x="1" y="1" width="0" height="320" fill="#fff" mask="url(#satori_om-id)"/></mask><mask id="satori_om-id-0-0-2-2"><rect x="1" y="1" width="0" height="320" fill="#fff" mask="url(#satori_om-id)"/></mask><mask id="satori_om-id-0-0-3"><rect x="1" y="1" width="0" height="320" fill="#fff" mask="url(#satori_om-id)"/></mask><mask id="satori_om-id-0-0-3-0"><rect x="1" y="1" width="0" height="320" fill="#fff" mask="url(#satori_om-id)"/></mask><mask id="satori_om-id-0-0-3-1"><rect x="1" y="1" width="0" height="320" fill="#fff" mask="url(#satori_om-id)"/></mask><mask id="satori_om-id-0-0-4"><rect x="1" y="1" width="0" height="320" fill="#fff" mask="url(#satori_om-id)"/></mask><mask id="satori_om-id-0-0-4-0"><rect x="1" y="1" width="0" height="320" fill="#fff" mask="url(#satori_om-id)"/></mask><mask id="satori_om-id-0-0-4-1"><rect x="1" y="1" width="0" height="320" fill="#fff" mask="url(#satori_om-id)"/></mask><mask id="satori_om-id-0-0-5"><rect x="1" y="1" width="0" height="320" fill="#fff" mask="url(#satori_om-id)"/></mask><mask id="satori_om-id-0-0-5-0"><rect x="1" y="1" width="0" height="320" fill="#fff" mask="url(#satori_om-id)"/></mask><mask id="satori_om-id-0-0-5-1"><rect x="1" y="1" width="0" height="320" fill="#fff" mask="url(#satori_om-id)"/></mask><mask id="satori_om-id-0-0-6"><rect x="1" y="1" width="0" height="320" fill="#fff" mask="url(#satori_om-id)"/></mask><mask id="satori_om-id-0-0-6-0"><rect x="1" y="1" width="0" height="320" fill="#fff" mask="url(#satori_om-id)"/></mask><mask id="satori_om-id-0-0-6-1"><rect x="1" y="1" width="0" height="320" fill="#fff" mask="url(#satori_om-id)"/></mask><mask id="satori_om-id-0-0-6-2"><rect x="1" y="1" width="0" height="320" fill="#fff" mask="url(#satori_om-id)"/></mask><mask id="satori_om-id-0-0-6-3"><rect x="1" y="1" width="0" height="320" fill="#fff" mask="url(#satori_om-id)"/></mask><mask id="satori_om-id-0-0-6-4"><rect x="1" y="1" width="0" height="320" fill="#fff" mask="url(#satori_om-id)"/></mask><mask id="satori_om-id-0-1"><rect x="1" y="1" width="0" height="320" fill="#fff" mask="url(#satori_om-id)"/></mask><mask id="satori_om-id-0-2"><rect x="1" y="1" width="0" height="320" fill="#fff" mask="url(#satori_om-id)"/></mask><mask id="satori_om-id-0-3"><rect x="1" y="1" width="0" height="320" fill="#fff" mask="url(#satori_om-id)"/></mask><mask id="satori_om-id-0-4"><rect x="1" y="1" width="0" height="320" fill="#fff" mask="url(#satori_om-id)"/></mask><mask id="satori_om-id-0-5"><rect x="1" y="1" width="0" height="320" fill="#fff" mask="url(#satori_om-id)"/></mask><mask id="satori_om-id-0-6"><rect x="1" y="1" width="0" height="320" fill="#fff" mask="url(#satori_om-id)"/></mask><mask id="satori_om-id-0-7"><rect x="1" y="1" width="0" height="320" fill="#fff" mask="url(#satori_om-id)"/></mask><mask id="satori_om-id-0-8"><rect x="1" y="1" width="0" height="320" fill="#fff" mask="url(#satori_om-id)"/></mask><mask id="satori_om-id-0-9"><rect x="1" y="1" width="0" height="320" fill="#fff" mask="url(#satori_om-id)"/></mask><mask id="satori_om-id-0-10"><rect x="1" y="1" width="0" height="320" fill="#fff" mask="url(#satori_om-id)"/></mask><mask id="satori_om-id-0-11"><rect x="1" y="1" width="0" height="320" fill="#fff" mask="url(#satori_om-id)"/></mask><mask id="satori_om-id-0-11-0"><rect x="1" y="1" width="0" height="320" fill="#fff" mask="url(#satori_om-id)"/></mask><mask id="satori_om-id-0-12"><rect x="1" y="1" width="0" height="320" fill="#fff" mask="url(#satori_om-id)"/></mask><mask id="satori_om-id-1"><rect x="152" y="77" width="557" height="166" fill="#fff" mask="url(#satori_om-id)"/></mask><mask id="satori_om-id-1-0"><rect x="311" y="77" width="240" height="13" fill="#fff" mask="url(#satori_om-id)"/></mask><g mask="url(#satori_om-id)" clip-path="url(#satori_cp-id)"><path fill="rgba(0,229,255,0.50)" d="M313.0 88L312.0 88L312.0 80.0L316.8 80.0L316.8 80.9L313.0 80.9L313.0 83.6L316.4 83.6L316.4 84.5L313.0 84.5L313.0 88ZM327.6 88.1L327.6 88.1Q326.6 88.1 325.9 87.8Q325.2 87.4 324.8 86.7Q324.5 86.1 324.5 85.3L324.5 85.3L324.5 80.0L325.5 80.0L325.5 85.2Q325.5 85.8 325.7 86.2Q326.0 86.7 326.5 86.9Q326.9 87.2 327.6 87.2L327.6 87.2Q328.2 87.2 328.7 86.9Q329.2 86.7 329.4 86.2Q329.7 85.8 329.7 85.2L329.7 85.2L329.7 80.0L330.7 80.0L330.7 85.3Q330.7 86.1 330.3 86.7Q329.9 87.4 329.2 87.8Q328.5 88.1 327.6 88.1ZM343.4 88L338.6 88L338.6 80.0L339.7 80.0L339.7 87.1L343.4 87.1L343.4 88ZM355.6 88L350.9 88L350.9 80.0L351.9 80.0L351.9 87.1L355.6 87.1L355.6 88Z M374.7 88.1L374.7 88.1Q373.9 88.1 373.2 87.9Q372.6 87.6 372.2 87.1Q371.9 86.6 371.8 85.9L371.8 85.9L372.9 85.9Q372.9 86.4 373.2 86.6Q373.5 86.9 373.9 87.1Q374.3 87.2 374.7 87.2L374.7 87.2Q375.3 87.2 375.7 87.0Q376.1 86.9 376.4 86.5Q376.7 86.2 376.7 85.8L376.7 85.8Q376.7 85.4 376.4 85.2Q376.2 84.9 375.9 84.8Q375.5 84.6 375.1 84.5L375.1 84.5L374.1 84.2Q373.1 84.0 372.6 83.4Q372.1 82.9 372.1 82.1L372.1 82.1Q372.1 81.5 372.4 81.0Q372.8 80.4 373.4 80.2Q374.0 79.9 374.8 79.9L374.8 79.9Q375.6 79.9 376.2 80.2Q376.8 80.4 377.2 80.9Q377.5 81.4 377.5 82.0L377.5 82.0L376.5 82.0Q376.5 81.4 376.0 81.1Q375.5 80.8 374.8 80.8L374.8 80.8Q374.3 80.8 373.9 81.0Q373.5 81.1 373.3 81.4Q373.1 81.7 373.1 82.1L373.1 82.1Q373.1 82.5 373.3 82.8Q373.6 83.0 373.9 83.2Q374.3 83.3 374.6 83.4L374.6 83.4L375.4 83.6Q375.7 83.7 376.1 83.8Q376.5 84.0 376.8 84.2Q377.2 84.5 377.4 84.9Q377.6 85.3 377.6 85.8L377.6 85.8Q377.6 86.5 377.3 87.0Q377.0 87.5 376.3 87.8Q375.7 88.1 374.7 88.1ZM387.3 80.9L384.8 80.9L384.8 80.0L390.8 80.0L390.8 80.9L388.3 80.9L388.3 88L387.3 88L387.3 80.9ZM398.7 88L397.6 88L400.6 80.0L401.7 80.0L404.7 88L403.6 88L402.8 85.8L399.5 85.8L398.7 88ZM399.8 84.9L402.5 84.9L401.9 83.3Q401.8 82.8 401.5 82.2L401.5 82.2Q401.4 81.6 401.1 80.8L401.1 80.8Q400.9 81.6 400.7 82.2L400.7 82.2Q400.5 82.8 400.4 83.3L400.4 83.3L399.8 84.9ZM415.2 88.1L415.2 88.1Q414.1 88.1 413.3 87.6Q412.5 87.1 412.1 86.2Q411.6 85.3 411.6 84.0L411.6 84.0Q411.6 82.7 412.1 81.8Q412.5 80.9 413.3 80.4Q414.1 79.9 415.2 79.9L415.2 79.9Q415.8 79.9 416.3 80.1Q416.9 80.2 417.3 80.6Q417.7 80.9 418.0 81.4Q418.3 81.9 418.4 82.5L418.4 82.5L417.4 82.5Q417.3 82.1 417.1 81.8Q416.9 81.5 416.6 81.3Q416.3 81.0 415.9 80.9Q415.6 80.8 415.2 80.8L415.2 80.8Q414.4 80.8 413.9 81.2Q413.3 81.6 412.9 82.3Q412.6 83.0 412.6 84.0L412.6 84.0Q412.6 85.0 412.9 85.7Q413.3 86.4 413.9 86.8Q414.5 87.2 415.2 87.2L415.2 87.2Q415.6 87.2 415.9 87.1Q416.3 86.9 416.6 86.7Q416.9 86.5 417.1 86.2Q417.3 85.9 417.4 85.5L417.4 85.5L418.4 85.5Q418.3 86.1 418.0 86.6Q417.7 87.1 417.3 87.4Q416.9 87.7 416.3 87.9Q415.8 88.1 415.2 88.1ZM427.0 88L426.0 88L426.0 80.0L427.0 80.0L427.0 82.7L427.0 84.2Q427.1 84.1 427.2 83.9L427.2 83.9Q427.5 83.6 427.8 83.2Q428.0 82.9 428.3 82.6L428.3 82.6L430.7 80.0L432.1 80.0L428.8 83.5L432.1 88L430.9 88L428.1 84.2L427.0 85.4L427.0 88Z M453.4 88L448.4 88L448.4 80.0L453.3 80.0L453.3 80.9L449.5 80.9L449.5 83.5L453.1 83.5L453.1 84.4L449.5 84.4L449.5 87.1L453.4 87.1L453.4 88ZM462.1 88L461.1 88L461.1 80.0L462.3 80.0L465.5 85.1Q465.6 85.3 465.8 85.6Q466.0 85.9 466.2 86.3L466.2 86.3Q466.3 86.5 466.5 86.8L466.5 86.8Q466.4 86.5 466.4 86.3L466.4 86.3Q466.4 85.9 466.4 85.5Q466.4 85.2 466.4 84.9L466.4 84.9L466.4 80.0L467.4 80.0L467.4 88L466.2 88L463.3 83.4Q463.1 83.1 462.9 82.8Q462.7 82.5 462.4 82.0L462.4 82.0Q462.3 81.7 462.0 81.2L462.0 81.2Q462.0 81.6 462.0 82.0L462.0 82.0Q462.1 82.5 462.1 82.8Q462.1 83.2 462.1 83.4L462.1 83.4L462.1 88ZM478.6 88.1L478.6 88.1Q477.5 88.1 476.7 87.6Q475.9 87.1 475.5 86.2Q475.0 85.3 475.0 84.0L475.0 84.0Q475.0 82.7 475.5 81.8Q475.9 80.9 476.7 80.4Q477.5 79.9 478.6 79.9L478.6 79.9Q479.2 79.9 479.7 80.1Q480.3 80.3 480.7 80.6Q481.2 81.0 481.4 81.4Q481.7 81.9 481.8 82.5L481.8 82.5L480.8 82.5Q480.7 82.1 480.5 81.8Q480.3 81.5 480.0 81.3Q479.7 81.1 479.3 81.0Q479.0 80.8 478.6 80.8L478.6 80.8Q477.9 80.8 477.3 81.2Q476.7 81.6 476.4 82.3Q476.0 83.0 476.0 84.0L476.0 84.0Q476.0 85.0 476.4 85.7Q476.7 86.4 477.3 86.8Q477.9 87.2 478.6 87.2L478.6 87.2Q479.3 87.2 479.8 86.9Q480.3 86.6 480.6 86.1L480.6 86.1Q480.9 85.6 480.9 84.9L480.9 84.9L478.8 84.9L478.8 84.0L481.9 84.0L481.9 84.9Q481.9 85.8 481.5 86.6Q481.0 87.3 480.3 87.7Q479.6 88.1 478.6 88.1ZM489.6 80.0L490.6 80.0L490.6 88L489.6 88L489.6 80.0ZM499.5 88L498.5 88L498.5 80.0L499.7 80.0L503.0 85.1Q503.1 85.3 503.3 85.6Q503.5 85.9 503.7 86.3L503.7 86.3Q503.8 86.5 503.9 86.8L503.9 86.8Q503.9 86.5 503.9 86.3L503.9 86.3Q503.9 85.9 503.8 85.5Q503.8 85.2 503.8 84.9L503.8 84.9L503.8 80.0L504.9 80.0L504.9 88L503.6 88L500.7 83.4Q500.5 83.1 500.3 82.8Q500.1 82.5 499.9 82.0L499.9 82.0Q499.7 81.7 499.5 81.2L499.5 81.2Q499.5 81.6 499.5 82.0L499.5 82.0Q499.5 82.5 499.5 82.8Q499.5 83.2 499.5 83.4L499.5 83.4L499.5 88ZM517.7 88L512.8 88L512.8 80.0L517.7 80.0L517.7 80.9L513.8 80.9L513.8 83.5L517.4 83.5L517.4 84.4L513.8 84.4L513.8 87.1L517.7 87.1L517.7 88ZM530.3 88L525.4 88L525.4 80.0L530.3 80.0L530.3 80.9L526.4 80.9L526.4 83.5L530.0 83.5L530.0 84.4L526.4 84.4L526.4 87.1L530.3 87.1L530.3 88ZM539.0 88L538.0 88L538.0 80.0L540.8 80.0Q541.7 80.0 542.3 80.3Q542.9 80.6 543.2 81.2Q543.5 81.8 543.5 82.5Q543.5 83.2 543.2 83.7Q542.9 84.3 542.3 84.6L542.3 84.6Q542.2 84.7 542.0 84.7L542.0 84.7L543.8 88L542.6 88L541.0 84.9Q540.9 84.9 540.8 84.9L540.8 84.9L539.0 84.9L539.0 88ZM539.0 80.9L539.0 84.0L540.7 84.0Q541.3 84.0 541.7 83.8Q542.1 83.6 542.3 83.3Q542.5 82.9 542.5 82.5L542.5 82.5Q542.5 82.0 542.3 81.6Q542.1 81.3 541.7 81.1Q541.3 80.9 540.7 80.9L540.7 80.9L539.0 80.9Z "/></g><mask id="satori_om-id-1-1"><rect x="262" y="104" width="338" height="56" fill="#fff" mask="url(#satori_om-id)"/></mask><defs><filter id="satori_s-id-1-1-0" x="-1171.60%" y="-7071.43%" width="2453.20%" height="14252.86%"><feDropShadow dx="0" dy="0" stdDeviation="30" flood-color="rgba(0,229,255,0.25)" flood-opacity="1" in="SourceGraphic" result="satori_s-id-1-1-0-result-0"/><feDropShadow dx="0" dy="0" stdDeviation="60" flood-color="rgba(139,92,246,0.15)" flood-opacity="1" in="SourceGraphic" result="satori_s-id-1-1-0-result-1"/><feMerge><feMergeNode in="satori_s-id-1-1-0-result-1"/><feMergeNode in="satori_s-id-1-1-0-result-0"/></feMerge></filter></defs><g filter="url(#satori_s-id-1-1-0)"><g mask="url(#satori_om-id)" clip-path="url(#satori_cp-id)"><path fill="#ffffff" d="M272.6 152L263.3 152L277.3 111.3L288.2 111.3L302.5 152L293.2 152L290.1 142.5L275.6 142.5L272.6 152ZM277.7 136.0L287.9 136.0L286.7 132.3Q285.5 128.5 284.3 124L284.3 124Q283.5 121.1 282.6 117.8L282.6 117.8Q281.8 121.1 281.1 124.1L281.1 124.1Q280.0 128.6 278.8 132.3L278.8 132.3L277.7 136.0ZM305.3 111.3L313.5 111.3L313.5 152L305.3 152L305.3 111.3ZM327.0 152.6L327.0 152.6Q324.1 152.6 321.8 151.6Q319.5 150.6 318.2 148.5Q316.8 146.5 316.8 143.4L316.8 143.4Q316.8 140.9 317.8 139.2Q318.7 137.5 320.4 136.4Q322.0 135.4 324.0 134.8Q326.1 134.3 328.4 134.1L328.4 134.1Q331.0 133.8 332.7 133.6Q334.3 133.3 335.0 132.8Q335.8 132.3 335.8 131.3L335.8 131.3L335.8 131.2Q335.8 129.9 335.2 129.0Q334.7 128.1 333.6 127.6Q332.5 127.1 331.0 127.1L331.0 127.1Q329.4 127.1 328.2 127.6Q327.1 128.1 326.3 128.9Q325.6 129.7 325.2 130.6L325.2 130.6L317.7 129.4Q318.5 126.7 320.3 124.9Q322.2 123.0 324.9 122.0Q327.6 121.0 331.0 121.0L331.0 121.0Q333.5 121.0 335.8 121.6Q338.1 122.2 340.0 123.5Q341.8 124.7 342.9 126.7Q344.0 128.6 344.0 131.4L344.0 131.4L344.0 152L336.2 152L336.2 147.8L336.0 147.8Q335.2 149.2 334.0 150.3Q332.8 151.3 331.0 152.0Q329.3 152.6 327.0 152.6ZM329.3 146.8L329.3 146.8Q331.3 146.8 332.7 146.1Q334.2 145.3 335.0 144.0Q335.8 142.7 335.8 141.1L335.8 141.1L335.8 137.8Q335.5 138.0 334.8 138.2Q334.0 138.5 333.1 138.6Q332.2 138.8 331.3 138.9Q330.5 139.1 329.8 139.1L329.8 139.1Q328.3 139.4 327.1 139.9Q326.0 140.4 325.3 141.2Q324.7 142.0 324.7 143.2L324.7 143.2Q324.7 144.4 325.3 145.2Q325.9 146.0 327.0 146.4Q328 146.8 329.3 146.8ZM357.2 134.3L357.2 134.3L357.2 152L349.0 152L349.0 121.4L356.7 121.4L356.8 127.7Q358.0 124.8 360.0 123.1L360.0 123.1Q362.5 121.0 366.4 121.0L366.4 121.0Q369.5 121.0 371.9 122.4Q374.3 123.8 375.6 126.4Q376.9 129.0 376.9 132.6L376.9 132.6L376.9 152L368.7 152L368.7 134.0Q368.7 131.1 367.2 129.5Q365.7 127.9 363.1 127.9L363.1 127.9Q361.4 127.9 360.1 128.7Q358.7 129.4 358.0 130.8Q357.2 132.3 357.2 134.3Z M404.1 118.2L391.7 118.2L391.7 111.3L424.9 111.3L424.9 118.2L412.5 118.2L412.5 152L404.1 152L404.1 118.2ZM436.7 134.3L436.7 134.3L436.7 152L428.5 152L428.5 111.3L436.5 111.3L436.5 127.3Q437.7 124.7 439.5 123.1L439.5 123.1Q442.0 121.0 445.9 121.0L445.9 121.0Q449.0 121.0 451.4 122.4Q453.8 123.8 455.1 126.4Q456.4 129.0 456.4 132.6L456.4 132.6L456.4 152L448.2 152L448.2 134.0Q448.2 131.1 446.7 129.5Q445.2 127.9 442.6 127.9L442.6 127.9Q440.9 127.9 439.6 128.7Q438.2 129.4 437.5 130.8Q436.7 132.3 436.7 134.3ZM475.0 152.6L475.0 152.6Q470.4 152.6 467.1 150.6Q463.7 148.6 461.9 145.1Q460.1 141.6 460.1 136.9L460.1 136.9Q460.1 132.1 461.9 128.6Q463.7 125.0 467.1 123.0Q470.4 121.0 475.0 121.0L475.0 121.0Q479.7 121.0 483.0 123.0Q486.4 125.0 488.2 128.6Q490.0 132.1 490.0 136.9L490.0 136.9Q490.0 141.6 488.2 145.1Q486.4 148.6 483.0 150.6Q479.7 152.6 475.0 152.6ZM475.0 146.1L475.0 146.1Q477.2 146.1 478.7 144.9Q480.2 143.7 480.9 141.6Q481.7 139.5 481.7 136.8L481.7 136.8Q481.7 134.1 480.9 132.0Q480.2 129.9 478.7 128.7Q477.2 127.5 475.0 127.5L475.0 127.5Q472.8 127.5 471.4 128.7Q469.9 129.9 469.2 132.0Q468.4 134.1 468.4 136.8L468.4 136.8Q468.4 139.5 469.2 141.6Q469.9 143.7 471.4 144.9Q472.8 146.1 475.0 146.1ZM501.9 152L493.7 152L493.7 121.4L501.3 121.4L501.6 127.4Q502.3 125.7 503.2 124.4L503.2 124.4Q504.6 122.7 506.4 121.8Q508.3 121.0 510.4 121.0L510.4 121.0Q513.7 121.0 515.7 123.0L515.7 123.0Q517.3 124.7 518.2 127.8L518.2 127.8Q518.9 126.0 520.0 124.7L520.0 124.7Q521.5 122.8 523.6 121.9Q525.7 121.0 528.1 121.0L528.1 121.0Q530.9 121.0 533.1 122.2Q535.3 123.4 536.5 125.7Q537.8 128.0 537.8 131.4L537.8 131.4L537.8 152L529.6 152L529.6 132.9Q529.6 130.3 528.2 129.1Q526.8 127.8 524.7 127.8L524.7 127.8Q523.2 127.8 522.1 128.5Q520.9 129.2 520.3 130.4Q519.7 131.6 519.7 133.2L519.7 133.2L519.7 152L511.8 152L511.8 132.7Q511.8 130.5 510.5 129.2Q509.1 127.8 507.0 127.8L507.0 127.8Q505.6 127.8 504.4 128.5Q503.3 129.1 502.6 130.4Q501.9 131.7 501.9 133.5L501.9 133.5L501.9 152ZM551.3 152.6L551.3 152.6Q548.4 152.6 546.1 151.6Q543.8 150.6 542.5 148.5Q541.2 146.5 541.2 143.4L541.2 143.4Q541.2 140.9 542.1 139.2Q543.1 137.5 544.7 136.4Q546.3 135.4 548.4 134.8Q550.4 134.3 552.7 134.1L552.7 134.1Q555.4 133.8 557.0 133.6Q558.6 133.3 559.4 132.8Q560.1 132.3 560.1 131.3L560.1 131.3L560.1 131.2Q560.1 129.9 559.6 129.0Q559.0 128.1 557.9 127.6Q556.9 127.1 555.3 127.1L555.3 127.1Q553.8 127.1 552.6 127.6Q551.4 128.1 550.7 128.9Q549.9 129.7 549.6 130.6L549.6 130.6L542.0 129.4Q542.8 126.7 544.7 124.9Q546.5 123.0 549.2 122.0Q551.9 121.0 555.4 121.0L555.4 121.0Q557.8 121.0 560.1 121.6Q562.5 122.2 564.3 123.5Q566.2 124.7 567.2 126.7Q568.3 128.6 568.3 131.4L568.3 131.4L568.3 152L560.6 152L560.6 147.8L560.3 147.8Q559.5 149.2 558.3 150.3Q557.1 151.3 555.3 152.0Q553.6 152.6 551.3 152.6ZM553.7 146.8L553.7 146.8Q555.6 146.8 557.1 146.1Q558.5 145.3 559.4 144.0Q560.2 142.7 560.2 141.1L560.2 141.1L560.2 137.8Q559.8 138.0 559.1 138.2Q558.3 138.5 557.4 138.6Q556.5 138.8 555.7 138.9Q554.8 139.1 554.1 139.1L554.1 139.1Q552.6 139.4 551.5 139.9Q550.3 140.4 549.7 141.2Q549.0 142.0 549.0 143.2L549.0 143.2Q549.0 144.4 549.6 145.2Q550.3 146.0 551.3 146.4Q552.3 146.8 553.7 146.8ZM585.5 152.6L585.5 152.6Q581.8 152.6 578.9 151.5Q576.1 150.5 574.3 148.5Q572.5 146.5 572.0 143.6L572.0 143.6L579.6 142.3Q580.2 144.5 581.7 145.5Q583.2 146.6 585.7 146.6L585.7 146.6Q588.1 146.6 589.4 145.7Q590.8 144.8 590.8 143.4L590.8 143.4Q590.8 142.2 589.8 141.5Q588.8 140.7 586.8 140.3L586.8 140.3L581.6 139.2Q577.1 138.3 574.9 136.1Q572.8 134.0 572.8 130.5L572.8 130.5Q572.8 127.6 574.4 125.5Q576.0 123.3 578.8 122.2Q581.7 121.0 585.6 121.0L585.6 121.0Q589.2 121.0 591.9 122.0Q594.5 123.0 596.2 124.9Q597.8 126.7 598.3 129.2L598.3 129.2L591.1 130.5Q590.6 128.9 589.3 127.9Q588.0 126.9 585.7 126.9L585.7 126.9Q583.7 126.9 582.3 127.8Q581.0 128.6 581.0 130.0L581.0 130.0Q581.0 131.2 581.8 132.0Q582.7 132.8 584.9 133.2L584.9 133.2L590.4 134.3Q594.8 135.2 597.0 137.2Q599.1 139.3 599.1 142.6L599.1 142.6Q599.1 145.6 597.4 147.8Q595.6 150.1 592.6 151.3Q589.5 152.6 585.5 152.6Z "/></g></g><mask id="satori_om-id-1-2"><rect x="221" y="176" width="419" height="18" fill="#fff" mask="url(#satori_om-id)"/></mask><mask id="satori_om-id-1-2-0"><rect x="221" y="176" width="406" height="18" fill="#fff" mask="url(#satori_om-id)"/></mask><g mask="url(#satori_om-id)" clip-path="url(#satori_cp-id)"><path fill="rgba(180,190,255,0.70)" d="M229.6 186.3L229.6 187.2L222.7 190.7L222.7 189.3L228.0 186.8L228.0 186.7L222.7 184.2L222.7 182.8L229.6 186.3Z M241.9 191.1L241.9 191.1Q240.5 191.1 239.4 190.5Q238.3 189.8 237.7 188.5Q237.0 187.3 237.0 185.6L237.0 185.6Q237.0 183.8 237.7 182.6Q238.3 181.3 239.4 180.6Q240.5 179.9 241.9 179.9L241.9 179.9Q242.7 179.9 243.4 180.2Q244.2 180.4 244.8 180.9Q245.3 181.4 245.7 182.0Q246.1 182.7 246.3 183.5L246.3 183.5L244.9 183.5Q244.8 183.0 244.5 182.5Q244.2 182.1 243.8 181.8Q243.4 181.5 242.9 181.4Q242.4 181.2 241.9 181.2L241.9 181.2Q240.9 181.2 240.1 181.7Q239.3 182.2 238.9 183.2Q238.4 184.2 238.4 185.6L238.4 185.6Q238.4 186.9 238.9 187.9Q239.3 188.9 240.1 189.4Q240.9 189.9 241.9 189.9L241.9 189.9Q242.4 189.9 242.9 189.7Q243.4 189.6 243.8 189.3Q244.2 189.0 244.5 188.6Q244.8 188.1 244.9 187.6L244.9 187.6L246.3 187.6Q246.1 188.4 245.7 189.1Q245.4 189.7 244.8 190.2Q244.2 190.7 243.4 190.9Q242.7 191.1 241.9 191.1ZM250.1 191L248.8 191L248.8 182.8L250.0 182.8L250.0 184.1L250.1 184.1Q250.3 183.4 250.9 183.1Q251.5 182.7 252.2 182.7L252.2 182.7Q252.4 182.7 252.6 182.7Q252.8 182.7 252.9 182.7L252.9 182.7L252.9 184.0Q252.9 184.0 252.6 184.0Q252.4 184.0 252.1 184.0L252.1 184.0Q251.5 184.0 251.1 184.2Q250.6 184.5 250.3 184.9Q250.1 185.3 250.1 185.9L250.1 185.9L250.1 191ZM257.2 191.2L257.2 191.2Q256.4 191.2 255.8 190.9Q255.2 190.6 254.8 190.0Q254.4 189.5 254.4 188.7L254.4 188.7Q254.4 188.0 254.7 187.5Q255.0 187.1 255.4 186.8Q255.9 186.6 256.5 186.5Q257.0 186.3 257.6 186.3L257.6 186.3Q258.3 186.2 258.8 186.1Q259.2 186.1 259.5 185.9Q259.7 185.8 259.7 185.5L259.7 185.5L259.7 185.5Q259.7 185.0 259.5 184.6Q259.3 184.2 258.9 184.1Q258.6 183.9 258.0 183.9L258.0 183.9Q257.4 183.9 257.0 184.0Q256.6 184.2 256.3 184.5Q256.0 184.8 255.9 185.1L255.9 185.1L254.6 184.6Q255.0 183.9 255.5 183.5Q256.0 183.1 256.7 182.9Q257.3 182.7 257.9 182.7L257.9 182.7Q258.4 182.7 258.9 182.8Q259.4 182.9 259.9 183.2Q260.4 183.5 260.7 184.1Q261.0 184.6 261.0 185.6L261.0 185.6L261.0 191L259.7 191L259.7 189.9L259.6 189.9Q259.5 190.2 259.2 190.5Q258.9 190.8 258.4 191.0Q257.9 191.2 257.2 191.2ZM257.4 190.0L257.4 190.0Q258.2 190.0 258.7 189.7Q259.2 189.5 259.4 189.0Q259.7 188.5 259.7 188.0L259.7 188.0L259.7 186.9Q259.6 187.0 259.3 187.1Q259.1 187.2 258.7 187.2Q258.4 187.3 258.1 187.3Q257.7 187.4 257.5 187.4L257.5 187.4Q257.1 187.4 256.6 187.6Q256.2 187.7 256.0 188.0Q255.7 188.3 255.7 188.7L255.7 188.7Q255.7 189.2 256.0 189.4Q256.2 189.7 256.6 189.9Q256.9 190.0 257.4 190.0ZM265.7 182.8L267.6 182.8L267.6 183.9L265.7 183.9L265.7 191L264.4 191L264.4 183.9L262.8 183.9L262.8 182.8L264.4 182.8L264.4 181.7Q264.4 181.0 264.8 180.5Q265.1 180.1 265.6 179.8Q266.2 179.6 266.8 179.6L266.8 179.6Q267.2 179.6 267.5 179.7Q267.8 179.7 268.0 179.8L268.0 179.8L267.6 180.9Q267.5 180.9 267.4 180.8Q267.2 180.8 266.9 180.8L266.9 180.8Q266.3 180.8 266.0 181.1Q265.7 181.4 265.7 182.0L265.7 182.0L265.7 182.8ZM271.4 182.8L273.1 182.8L273.1 183.9L271.4 183.9L271.4 188.9Q271.4 189.4 271.6 189.7Q271.9 189.9 272.4 189.9L272.4 189.9Q272.5 189.9 272.7 189.9Q272.9 189.9 273.1 189.8L273.1 189.8L273.3 191.0Q273.1 191.0 272.9 191.1Q272.6 191.1 272.3 191.1L272.3 191.1Q271.3 191.1 270.7 190.5Q270.1 190.0 270.1 189.0L270.1 189.0L270.1 183.9L268.9 183.9L268.9 182.8L270.1 182.8L270.1 180.9L271.4 180.9L271.4 182.8ZM276.6 191L275.3 191L275.3 182.8L276.6 182.8L276.6 191ZM276.0 181.5L276.0 181.5Q275.6 181.5 275.3 181.2Q275.0 181.0 275.0 180.6L275.0 180.6Q275.0 180.2 275.3 180.0Q275.6 179.7 276.0 179.7L276.0 179.7Q276.3 179.7 276.6 180.0Q276.9 180.2 276.9 180.6L276.9 180.6Q276.9 181.0 276.6 181.2Q276.3 181.5 276.0 181.5ZM280.7 186.1L280.7 186.1L280.7 191L279.4 191L279.4 182.8L280.7 182.8L280.7 184.3Q281.0 183.6 281.6 183.2L281.6 183.2Q282.3 182.7 283.2 182.7L283.2 182.7Q284.0 182.7 284.6 183.0Q285.3 183.4 285.6 184.1Q286.0 184.8 286.0 185.8L286.0 185.8L286.0 191L284.6 191L284.6 185.9Q284.6 185.0 284.2 184.4Q283.7 183.9 282.8 183.9L282.8 183.9Q282.2 183.9 281.7 184.2Q281.3 184.4 281.0 184.9Q280.7 185.4 280.7 186.1ZM292.1 194.2L292.1 194.2Q291.2 194.2 290.5 194.0Q289.9 193.8 289.4 193.4Q289.0 193.0 288.7 192.6L288.7 192.6L289.8 191.9Q290.0 192.1 290.2 192.4Q290.5 192.7 290.9 192.9Q291.4 193.1 292.1 193.1L292.1 193.1Q293.1 193.1 293.7 192.6Q294.3 192.1 294.3 191.1L294.3 191.1L294.3 189.5L294.2 189.5Q294.1 189.7 293.8 190.1Q293.6 190.4 293.1 190.6Q292.6 190.9 291.8 190.9L291.8 190.9Q290.9 190.9 290.1 190.4Q289.3 189.9 288.8 189.0Q288.4 188.2 288.4 186.9L288.4 186.9Q288.4 185.6 288.8 184.7Q289.3 183.7 290.1 183.2Q290.9 182.7 291.9 182.7L291.9 182.7Q292.7 182.7 293.1 183.0Q293.6 183.2 293.9 183.6Q294.1 183.9 294.3 184.1L294.3 184.1L294.4 184.1L294.4 182.8L295.7 182.8L295.7 191.2Q295.7 192.3 295.2 192.9Q294.7 193.6 293.9 193.9Q293.1 194.2 292.1 194.2ZM292.1 189.7L292.1 189.7Q292.8 189.7 293.3 189.4Q293.8 189.0 294.1 188.4Q294.4 187.7 294.4 186.8L294.4 186.8Q294.4 186.0 294.1 185.3Q293.8 184.6 293.3 184.3Q292.8 183.9 292.1 183.9L292.1 183.9Q291.3 183.9 290.8 184.3Q290.2 184.7 290.0 185.4Q289.7 186.0 289.7 186.8L289.7 186.8Q289.7 187.7 290.0 188.3Q290.3 189.0 290.8 189.3Q291.3 189.7 292.1 189.7Z M305.1 182.8L307.0 182.8L307.0 183.9L305.1 183.9L305.1 191L303.8 191L303.8 183.9L302.2 183.9L302.2 182.8L303.8 182.8L303.8 181.7Q303.8 181.0 304.1 180.5Q304.5 180.1 305.0 179.8Q305.5 179.6 306.1 179.6L306.1 179.6Q306.6 179.6 306.9 179.7Q307.2 179.7 307.4 179.8L307.4 179.8L307.0 180.9Q306.9 180.9 306.7 180.8Q306.6 180.8 306.3 180.8L306.3 180.8Q305.7 180.8 305.4 181.1Q305.1 181.4 305.1 182.0L305.1 182.0L305.1 182.8ZM312.0 191.1L312.0 191.1Q311.2 191.1 310.6 190.8Q309.9 190.4 309.6 189.7Q309.3 189.0 309.3 188.0L309.3 188.0L309.3 182.8L310.6 182.8L310.6 187.9Q310.6 188.8 311.1 189.4Q311.6 189.9 312.4 189.9L312.4 189.9Q313.0 189.9 313.5 189.7Q313.9 189.4 314.2 188.9Q314.5 188.4 314.5 187.7L314.5 187.7L314.5 182.8L315.8 182.8L315.8 191L314.5 191L314.5 189.5Q314.2 190.3 313.6 190.6L313.6 190.6Q312.9 191.1 312.0 191.1ZM320.2 182.8L321.8 182.8L321.8 183.9L320.2 183.9L320.2 188.9Q320.2 189.4 320.4 189.7Q320.6 189.9 321.1 189.9L321.1 189.9Q321.3 189.9 321.4 189.9Q321.6 189.9 321.8 189.8L321.8 189.8L322.1 191.0Q321.9 191.0 321.6 191.1Q321.3 191.1 321.1 191.1L321.1 191.1Q320.0 191.1 319.4 190.5Q318.8 190.0 318.8 189.0L318.8 189.0L318.8 183.9L317.6 183.9L317.6 182.8L318.8 182.8L318.8 180.9L320.2 180.9L320.2 182.8ZM326.8 191.1L326.8 191.1Q326.0 191.1 325.3 190.8Q324.7 190.4 324.4 189.7Q324.0 189.0 324.0 188.0L324.0 188.0L324.0 182.8L325.3 182.8L325.3 187.9Q325.3 188.8 325.8 189.4Q326.3 189.9 327.2 189.9L327.2 189.9Q327.8 189.9 328.3 189.7Q328.7 189.4 329.0 188.9Q329.3 188.4 329.3 187.7L329.3 187.7L329.3 182.8L330.6 182.8L330.6 191L329.3 191L329.3 189.5Q329.0 190.3 328.4 190.6L328.4 190.6Q327.7 191.1 326.8 191.1ZM334.7 191L333.4 191L333.4 182.8L334.7 182.8L334.7 184.1L334.8 184.1Q335.0 183.4 335.6 183.1Q336.2 182.7 336.9 182.7L336.9 182.7Q337.0 182.7 337.2 182.7Q337.4 182.7 337.6 182.7L337.6 182.7L337.6 184.0Q337.5 184.0 337.3 184.0Q337.0 184.0 336.8 184.0L336.8 184.0Q336.2 184.0 335.7 184.2Q335.2 184.5 335.0 184.9Q334.7 185.3 334.7 185.9L334.7 185.9L334.7 191ZM340.9 191L339.5 191L339.5 182.8L340.9 182.8L340.9 191ZM340.2 181.5L340.2 181.5Q339.8 181.5 339.6 181.2Q339.3 181.0 339.3 180.6L339.3 180.6Q339.3 180.2 339.6 180.0Q339.8 179.7 340.2 179.7L340.2 179.7Q340.6 179.7 340.9 180.0Q341.1 180.2 341.1 180.6L341.1 180.6Q341.1 181.0 340.9 181.2Q340.6 181.5 340.2 181.5ZM346.5 191.2L346.5 191.2Q345.6 191.2 345.0 190.9Q344.3 190.7 343.9 190.2Q343.5 189.7 343.3 189.0L343.3 189.0L344.6 188.7Q344.7 189.4 345.2 189.7Q345.7 190.0 346.4 190.0L346.4 190.0Q347.3 190.0 347.8 189.7Q348.3 189.3 348.3 188.8L348.3 188.8Q348.3 188.4 348.0 188.1Q347.7 187.8 347.1 187.7L347.1 187.7L345.8 187.3Q344.6 187.1 344.1 186.5Q343.6 186.0 343.6 185.1L343.6 185.1Q343.6 184.4 344.0 183.9Q344.4 183.3 345.0 183.0Q345.7 182.7 346.6 182.7L346.6 182.7Q347.4 182.7 348.0 183.0Q348.6 183.2 349.0 183.7Q349.4 184.1 349.5 184.7L349.5 184.7L348.3 185.0Q348.2 184.5 347.8 184.2Q347.4 183.8 346.6 183.8L346.6 183.8Q345.9 183.8 345.4 184.2Q344.9 184.5 344.9 185.0L344.9 185.0Q344.9 185.5 345.2 185.7Q345.6 186.0 346.3 186.2L346.3 186.2L347.5 186.5Q348.6 186.7 349.2 187.3Q349.7 187.9 349.7 188.7L349.7 188.7Q349.7 189.4 349.3 190.0Q348.9 190.5 348.1 190.9Q347.4 191.2 346.5 191.2ZM353.6 182.8L355.3 182.8L355.3 183.9L353.6 183.9L353.6 188.9Q353.6 189.4 353.9 189.7Q354.1 189.9 354.6 189.9L354.6 189.9Q354.7 189.9 354.9 189.9Q355.1 189.9 355.3 189.8L355.3 189.8L355.5 191.0Q355.3 191.0 355.1 191.1Q354.8 191.1 354.6 191.1L354.6 191.1Q353.5 191.1 352.9 190.5Q352.3 190.0 352.3 189.0L352.3 189.0L352.3 183.9L351.1 183.9L351.1 182.8L352.3 182.8L352.3 180.9L353.6 180.9L353.6 182.8ZM358.8 191L357.5 191L357.5 182.8L358.8 182.8L358.8 191ZM358.2 181.5L358.2 181.5Q357.8 181.5 357.5 181.2Q357.3 181.0 357.3 180.6L357.3 180.6Q357.3 180.2 357.5 180.0Q357.8 179.7 358.2 179.7L358.2 179.7Q358.5 179.7 358.8 180.0Q359.1 180.2 359.1 180.6L359.1 180.6Q359.1 181.0 358.8 181.2Q358.5 181.5 358.2 181.5ZM365.0 191.2L365.0 191.2Q363.9 191.2 363.0 190.6Q362.2 190.1 361.7 189.2Q361.2 188.2 361.2 187.0L361.2 187.0Q361.2 185.7 361.7 184.7Q362.2 183.8 363.0 183.2Q363.9 182.7 365.0 182.7L365.0 182.7Q365.6 182.7 366.1 182.9Q366.6 183.0 367.1 183.3Q367.5 183.6 367.8 184.0Q368.1 184.4 368.3 185.0L368.3 185.0L367.0 185.3Q366.9 185.0 366.7 184.8Q366.6 184.5 366.3 184.3Q366.0 184.1 365.7 184.0Q365.4 183.9 365.0 183.9L365.0 183.9Q364.1 183.9 363.6 184.3Q363.1 184.7 362.8 185.4Q362.6 186.1 362.6 187.0L362.6 187.0Q362.6 187.8 362.8 188.5Q363.1 189.1 363.6 189.6Q364.1 190.0 365.0 190.0L365.0 190.0Q365.4 190.0 365.7 189.9Q366.1 189.8 366.3 189.6Q366.6 189.4 366.8 189.1Q367.0 188.8 367.1 188.5L367.1 188.5L368.3 188.8Q368.2 189.4 367.8 189.8Q367.5 190.3 367.1 190.6Q366.6 190.9 366.1 191.0Q365.6 191.2 365.0 191.2Z M376.7 191L375.4 191L375.4 182.8L376.7 182.8L376.7 191ZM376.1 181.5L376.1 181.5Q375.7 181.5 375.4 181.2Q375.2 181.0 375.2 180.6L375.2 180.6Q375.2 180.2 375.4 180.0Q375.7 179.7 376.1 179.7L376.1 179.7Q376.5 179.7 376.7 180.0Q377.0 180.2 377.0 180.6L377.0 180.6Q377.0 181.0 376.7 181.2Q376.5 181.5 376.1 181.5ZM380.9 186.1L380.9 186.1L380.9 191L379.6 191L379.6 182.8L380.8 182.8L380.8 184.3Q381.2 183.6 381.7 183.2L381.7 183.2Q382.4 182.7 383.3 182.7L383.3 182.7Q384.2 182.7 384.8 183.0Q385.4 183.4 385.8 184.1Q386.1 184.8 386.1 185.8L386.1 185.8L386.1 191L384.8 191L384.8 185.9Q384.8 185.0 384.3 184.4Q383.8 183.9 382.9 183.9L382.9 183.9Q382.4 183.9 381.9 184.2Q381.4 184.4 381.1 184.9Q380.9 185.4 380.9 186.1ZM390.5 182.8L392.1 182.8L392.1 183.9L390.5 183.9L390.5 188.9Q390.5 189.4 390.7 189.7Q390.9 189.9 391.4 189.9L391.4 189.9Q391.5 189.9 391.7 189.9Q391.9 189.9 392.1 189.8L392.1 189.8L392.4 191.0Q392.2 191.0 391.9 191.1Q391.6 191.1 391.4 191.1L391.4 191.1Q390.3 191.1 389.7 190.5Q389.1 190.0 389.1 189.0L389.1 189.0L389.1 183.9L387.9 183.9L387.9 182.8L389.1 182.8L389.1 180.9L390.5 180.9L390.5 182.8ZM397.8 191.2L397.8 191.2Q396.6 191.2 395.7 190.6Q394.9 190.1 394.4 189.2Q393.9 188.2 393.9 187.0Q393.9 185.7 394.4 184.8Q394.8 183.8 395.7 183.3Q396.5 182.7 397.6 182.7L397.6 182.7Q398.3 182.7 398.9 182.9Q399.5 183.1 400.0 183.6Q400.6 184.1 400.9 184.9Q401.2 185.7 401.2 186.8L401.2 186.8L401.2 187.4L395.3 187.4Q395.3 188.1 395.6 188.7L395.6 188.7Q395.9 189.4 396.5 189.7Q397.0 190.0 397.8 190.0L397.8 190.0Q398.3 190.0 398.7 189.9Q399.0 189.7 399.3 189.4Q399.6 189.2 399.8 188.7L399.8 188.7L401.0 189.1Q400.9 189.7 400.4 190.2Q400.0 190.6 399.3 190.9Q398.6 191.2 397.8 191.2ZM395.3 186.2L395.3 186.2L399.8 186.2Q399.8 185.7 399.6 185.2L399.6 185.2Q399.3 184.6 398.9 184.2Q398.4 183.9 397.6 183.9Q396.9 183.9 396.3 184.2Q395.8 184.6 395.5 185.2L395.5 185.2Q395.3 185.7 395.3 186.2ZM404.9 191L403.6 191L403.6 182.8L404.8 182.8L404.8 184.1L404.9 184.1Q405.2 183.4 405.7 183.1Q406.3 182.7 407.1 182.7L407.1 182.7Q407.2 182.7 407.4 182.7Q407.6 182.7 407.7 182.7L407.7 182.7L407.7 184.0Q407.7 184.0 407.4 184.0Q407.2 184.0 406.9 184.0L406.9 184.0Q406.3 184.0 405.9 184.2Q405.4 184.5 405.2 184.9Q404.9 185.3 404.9 185.9L404.9 185.9L404.9 191ZM411.6 182.8L413.5 182.8L413.5 183.9L411.6 183.9L411.6 191L410.3 191L410.3 183.9L408.7 183.9L408.7 182.8L410.3 182.8L410.3 181.7Q410.3 181.0 410.7 180.5Q411.0 180.1 411.5 179.8Q412.1 179.6 412.6 179.6L412.6 179.6Q413.1 179.6 413.4 179.7Q413.7 179.7 413.9 179.8L413.9 179.8L413.5 180.9Q413.4 180.9 413.2 180.8Q413.1 180.8 412.8 180.8L412.8 180.8Q412.2 180.8 411.9 181.1Q411.6 181.4 411.6 182.0L411.6 182.0L411.6 182.8ZM418.1 191.2L418.1 191.2Q417.3 191.2 416.7 190.9Q416.0 190.6 415.6 190.0Q415.3 189.5 415.3 188.7L415.3 188.7Q415.3 188.0 415.5 187.5Q415.8 187.1 416.3 186.8Q416.8 186.6 417.3 186.5Q417.9 186.3 418.5 186.3L418.5 186.3Q419.2 186.2 419.7 186.1Q420.1 186.1 420.3 185.9Q420.6 185.8 420.6 185.5L420.6 185.5L420.6 185.5Q420.6 185.0 420.4 184.6Q420.2 184.2 419.8 184.1Q419.4 183.9 418.8 183.9L418.8 183.9Q418.3 183.9 417.8 184.0Q417.4 184.2 417.2 184.5Q416.9 184.8 416.8 185.1L416.8 185.1L415.5 184.6Q415.8 183.9 416.4 183.5Q416.9 183.1 417.5 182.9Q418.2 182.7 418.8 182.7L418.8 182.7Q419.2 182.7 419.7 182.8Q420.3 182.9 420.8 183.2Q421.2 183.5 421.6 184.1Q421.9 184.6 421.9 185.6L421.9 185.6L421.9 191L420.6 191L420.6 189.9L420.5 189.9Q420.4 190.2 420.0 190.5Q419.7 190.8 419.2 191.0Q418.8 191.2 418.1 191.2ZM418.3 190.0L418.3 190.0Q419.0 190.0 419.5 189.7Q420.0 189.5 420.3 189.0Q420.6 188.5 420.6 188.0L420.6 188.0L420.6 186.9Q420.5 187.0 420.2 187.1Q419.9 187.2 419.6 187.2Q419.2 187.3 418.9 187.3Q418.6 187.4 418.4 187.4L418.4 187.4Q417.9 187.4 417.5 187.6Q417.1 187.7 416.8 188.0Q416.6 188.3 416.6 188.7L416.6 188.7Q416.6 189.2 416.8 189.4Q417.0 189.7 417.4 189.9Q417.8 190.0 418.3 190.0ZM428.0 191.2L428.0 191.2Q426.9 191.2 426.1 190.6Q425.2 190.1 424.8 189.2Q424.3 188.2 424.3 187.0L424.3 187.0Q424.3 185.7 424.8 184.7Q425.2 183.8 426.1 183.2Q426.9 182.7 428.0 182.7L428.0 182.7Q428.6 182.7 429.1 182.9Q429.7 183.0 430.1 183.3Q430.5 183.6 430.9 184.0Q431.2 184.4 431.3 185.0L431.3 185.0L430.1 185.3Q430.0 185.0 429.8 184.8Q429.6 184.5 429.4 184.3Q429.1 184.1 428.8 184.0Q428.4 183.9 428.0 183.9L428.0 183.9Q427.2 183.9 426.7 184.3Q426.1 184.7 425.9 185.4Q425.6 186.1 425.6 187.0L425.6 187.0Q425.6 187.8 425.9 188.5Q426.1 189.1 426.7 189.6Q427.2 190.0 428.0 190.0L428.0 190.0Q428.4 190.0 428.8 189.9Q429.1 189.8 429.4 189.6Q429.7 189.4 429.8 189.1Q430.0 188.8 430.1 188.5L430.1 188.5L431.4 188.8Q431.2 189.4 430.9 189.8Q430.6 190.3 430.1 190.6Q429.7 190.9 429.2 191.0Q428.6 191.2 428.0 191.2ZM437.2 191.2L437.2 191.2Q436.0 191.2 435.2 190.6Q434.3 190.1 433.8 189.2Q433.4 188.2 433.4 187.0Q433.4 185.7 433.8 184.8Q434.3 183.8 435.1 183.3Q435.9 182.7 437.0 182.7L437.0 182.7Q437.7 182.7 438.3 182.9Q439.0 183.1 439.5 183.6Q440.0 184.1 440.3 184.9Q440.6 185.7 440.6 186.8L440.6 186.8L440.6 187.4L434.7 187.4Q434.7 188.1 435.0 188.7L435.0 188.7Q435.3 189.4 435.9 189.7Q436.5 190.0 437.2 190.0L437.2 190.0Q437.7 190.0 438.1 189.9Q438.5 189.7 438.8 189.4Q439.1 189.2 439.2 188.7L439.2 188.7L440.5 189.1Q440.3 189.7 439.8 190.2Q439.4 190.6 438.7 190.9Q438.0 191.2 437.2 191.2ZM434.7 186.2L434.7 186.2L439.3 186.2Q439.2 185.7 439.0 185.2L439.0 185.2Q438.8 184.6 438.3 184.2Q437.8 183.9 437.0 183.9Q436.3 183.9 435.8 184.2Q435.3 184.6 435.0 185.2L435.0 185.2Q434.7 185.7 434.7 186.2ZM445.8 191.2L445.8 191.2Q444.9 191.2 444.3 190.9Q443.6 190.7 443.2 190.2Q442.8 189.7 442.6 189.0L442.6 189.0L443.9 188.7Q444.1 189.4 444.6 189.7Q445.0 190.0 445.8 190.0L445.8 190.0Q446.6 190.0 447.1 189.7Q447.6 189.3 447.6 188.8L447.6 188.8Q447.6 188.4 447.4 188.1Q447.1 187.8 446.4 187.7L446.4 187.7L445.1 187.3Q444.0 187.1 443.4 186.5Q442.9 186.0 442.9 185.1L442.9 185.1Q442.9 184.4 443.3 183.9Q443.7 183.3 444.4 183.0Q445.0 182.7 445.9 182.7L445.9 182.7Q446.8 182.7 447.4 183.0Q447.9 183.2 448.3 183.7Q448.7 184.1 448.9 184.7L448.9 184.7L447.7 185.0Q447.5 184.5 447.1 184.2Q446.7 183.8 445.9 183.8L445.9 183.8Q445.2 183.8 444.7 184.2Q444.2 184.5 444.2 185.0L444.2 185.0Q444.2 185.5 444.6 185.7Q444.9 186.0 445.6 186.2L445.6 186.2L446.8 186.5Q448.0 186.7 448.5 187.3Q449.0 187.9 449.0 188.7L449.0 188.7Q449.0 189.4 448.6 190.0Q448.2 190.5 447.5 190.9Q446.7 191.2 445.8 191.2Z M459.2 191.1L459.2 191.1Q458.2 191.1 457.4 190.7Q456.6 190.3 456.2 189.7Q455.7 189.0 455.7 188.2L455.7 188.2Q455.7 187.4 456.0 186.9Q456.3 186.4 456.9 185.9L456.9 185.9Q457.3 185.5 457.9 185.1L457.9 185.1Q457.8 184.9 457.6 184.8L457.6 184.8Q457.2 184.2 456.9 183.7Q456.6 183.1 456.6 182.5L456.6 182.5Q456.6 181.7 457.0 181.2Q457.3 180.6 457.9 180.3Q458.5 180.0 459.3 180.0L459.3 180.0Q460.1 180.0 460.7 180.3Q461.3 180.6 461.6 181.2Q462.0 181.7 462.0 182.3L462.0 182.3Q462.0 182.8 461.8 183.3Q461.6 183.7 461.3 184.0Q460.9 184.4 460.5 184.7L460.5 184.7L459.7 185.3L462.1 188.1Q462.1 188.0 462.2 187.8L462.2 187.8Q462.5 187.1 462.5 186.2L462.5 186.2L463.8 186.2Q463.8 187.3 463.5 188.0Q463.3 188.7 463.0 189.1L463.0 189.1Q462.9 189.1 462.9 189.1L462.9 189.1L464.4 191L462.8 191L462.1 190.1Q461.6 190.6 460.8 190.9L460.8 190.9Q460.0 191.1 459.2 191.1ZM461.3 189.1L458.7 186.1L458.3 186.3Q457.7 186.8 457.4 187.3Q457.1 187.7 457.1 188.2L457.1 188.2Q457.1 188.7 457.4 189.1Q457.6 189.5 458.1 189.8Q458.5 190.0 459.1 190.0L459.1 190.0Q459.8 190.0 460.4 189.7L460.4 189.7Q460.9 189.5 461.3 189.1L461.3 189.1ZM458.9 184.3L458.9 184.3L459.6 183.8Q459.8 183.7 460.1 183.5Q460.3 183.3 460.5 183.0Q460.6 182.7 460.6 182.3L460.6 182.3Q460.6 181.8 460.3 181.5Q459.9 181.1 459.3 181.1L459.3 181.1Q458.9 181.1 458.6 181.3Q458.3 181.5 458.1 181.8Q458.0 182.0 458.0 182.4L458.0 182.4Q458.0 182.9 458.1 183.2Q458.3 183.6 458.7 184.0L458.7 184.0Q458.8 184.2 458.9 184.3Z M471.7 191L470.2 191L474.2 180.1L475.8 180.1L479.8 191L478.4 191L477.3 188.0L472.8 188.0L471.7 191ZM473.2 186.7L476.8 186.7L476.1 184.5Q475.8 183.9 475.6 183.0L475.6 183.0Q475.3 182.3 475.0 181.2L475.0 181.2Q474.7 182.3 474.5 183.1L474.5 183.1Q474.2 184.0 474.0 184.5L474.0 184.5L473.2 186.7ZM482.0 180.1L483.4 180.1L483.4 191L482.0 191L482.0 180.1ZM486.3 185.7L491.1 185.7L491.1 186.9L486.3 186.9L486.3 185.7ZM495.1 194.1L493.8 194.1L493.8 182.8L495.1 182.8L495.1 184.1L495.2 184.1Q495.4 183.9 495.6 183.6Q495.9 183.2 496.3 183.0Q496.8 182.7 497.6 182.7L497.6 182.7Q498.6 182.7 499.4 183.2Q500.2 183.7 500.6 184.7Q501.1 185.6 501.1 186.9L501.1 186.9Q501.1 188.2 500.6 189.2Q500.2 190.1 499.4 190.7Q498.6 191.2 497.6 191.2L497.6 191.2Q496.8 191.2 496.3 190.9Q495.9 190.6 495.6 190.3Q495.4 190.0 495.2 189.7L495.2 189.7L495.1 189.7L495.1 194.1ZM497.4 190.0L497.4 190.0Q498.2 190.0 498.7 189.6Q499.2 189.2 499.5 188.5Q499.7 187.8 499.7 186.9L499.7 186.9Q499.7 186.1 499.5 185.4Q499.2 184.7 498.7 184.3Q498.2 183.9 497.4 183.9L497.4 183.9Q496.6 183.9 496.1 184.3Q495.6 184.6 495.4 185.3Q495.1 186.0 495.1 186.9L495.1 186.9Q495.1 187.8 495.4 188.5Q495.6 189.2 496.1 189.6Q496.7 190.0 497.4 190.0ZM506.8 191.2L506.8 191.2Q505.7 191.2 504.9 190.6Q504.0 190.1 503.6 189.2Q503.1 188.2 503.1 187.0L503.1 187.0Q503.1 185.7 503.6 184.7Q504.0 183.8 504.9 183.2Q505.7 182.7 506.8 182.7L506.8 182.7Q507.9 182.7 508.8 183.2Q509.6 183.8 510.1 184.7Q510.6 185.7 510.6 187.0L510.6 187.0Q510.6 188.2 510.1 189.2Q509.6 190.1 508.8 190.6Q507.9 191.2 506.8 191.2ZM506.8 190.0L506.8 190.0Q507.6 190.0 508.2 189.6Q508.7 189.1 509.0 188.5Q509.2 187.8 509.2 187.0L509.2 187.0Q509.2 186.1 509.0 185.4Q508.7 184.7 508.2 184.3Q507.6 183.9 506.8 183.9L506.8 183.9Q506.0 183.9 505.5 184.3Q504.9 184.7 504.7 185.4Q504.4 186.1 504.4 187.0L504.4 187.0Q504.4 187.8 504.7 188.5Q504.9 189.1 505.5 189.6Q506.0 190.0 506.8 190.0ZM516.1 191L514.8 191L512.3 182.8L513.7 182.8L514.7 186.4Q514.9 187.1 515.2 188.0L515.2 188.0Q515.3 188.7 515.5 189.6L515.5 189.6Q515.7 188.8 515.8 188.1L515.8 188.1Q516.1 187.2 516.3 186.4L516.3 186.4L517.3 182.8L518.7 182.8L519.6 186.4Q519.8 187.1 520.1 188.1L520.1 188.1Q520.2 188.8 520.4 189.6L520.4 189.6Q520.6 188.8 520.7 188.1L520.7 188.1Q521.0 187.2 521.2 186.4L521.2 186.4L522.2 182.8L523.6 182.8L521.1 191L519.8 191L518.7 187.3Q518.6 186.7 518.4 186.1Q518.3 185.6 518.1 184.9L518.1 184.9Q518.0 184.6 518.0 184.3L518.0 184.3Q517.9 184.6 517.8 184.9L517.8 184.9Q517.7 185.6 517.5 186.2Q517.4 186.7 517.2 187.3L517.2 187.3L516.1 191ZM529.2 191.2L529.2 191.2Q528.0 191.2 527.1 190.6Q526.3 190.1 525.8 189.2Q525.4 188.2 525.4 187.0Q525.4 185.7 525.8 184.8Q526.3 183.8 527.1 183.3Q527.9 182.7 529.0 182.7L529.0 182.7Q529.7 182.7 530.3 182.9Q531.0 183.1 531.5 183.6Q532.0 184.1 532.3 184.9Q532.6 185.7 532.6 186.8L532.6 186.8L532.6 187.4L526.7 187.4Q526.7 188.1 527.0 188.7L527.0 188.7Q527.3 189.4 527.9 189.7Q528.5 190.0 529.2 190.0L529.2 190.0Q529.7 190.0 530.1 189.9Q530.5 189.7 530.8 189.4Q531.0 189.2 531.2 188.7L531.2 188.7L532.5 189.1Q532.3 189.7 531.8 190.2Q531.4 190.6 530.7 190.9Q530.0 191.2 529.2 191.2ZM526.7 186.2L526.7 186.2L531.3 186.2Q531.2 185.7 531.0 185.2L531.0 185.2Q530.8 184.6 530.3 184.2Q529.8 183.9 529.0 183.9Q528.3 183.9 527.8 184.2Q527.2 184.6 527.0 185.2L527.0 185.2Q526.7 185.7 526.7 186.2ZM536.3 191L535.0 191L535.0 182.8L536.3 182.8L536.3 184.1L536.4 184.1Q536.6 183.4 537.2 183.1Q537.8 182.7 538.5 182.7L538.5 182.7Q538.6 182.7 538.8 182.7Q539.0 182.7 539.2 182.7L539.2 182.7L539.2 184.0Q539.1 184.0 538.9 184.0Q538.6 184.0 538.4 184.0L538.4 184.0Q537.8 184.0 537.3 184.2Q536.8 184.5 536.6 184.9Q536.3 185.3 536.3 185.9L536.3 185.9L536.3 191ZM544.6 191.2L544.6 191.2Q543.4 191.2 542.5 190.6Q541.7 190.1 541.2 189.2Q540.7 188.2 540.7 187.0Q540.7 185.7 541.2 184.8Q541.7 183.8 542.5 183.3Q543.3 182.7 544.4 182.7L544.4 182.7Q545.1 182.7 545.7 182.9Q546.4 183.1 546.9 183.6Q547.4 184.1 547.7 184.9Q548.0 185.7 548.0 186.8L548.0 186.8L548.0 187.4L542.1 187.4Q542.1 188.1 542.4 188.7L542.4 188.7Q542.7 189.4 543.3 189.7Q543.8 190.0 544.6 190.0L544.6 190.0Q545.1 190.0 545.5 189.9Q545.9 189.7 546.2 189.4Q546.4 189.2 546.6 188.7L546.6 188.7L547.9 189.1Q547.7 189.7 547.2 190.2Q546.8 190.6 546.1 190.9Q545.4 191.2 544.6 191.2ZM542.1 186.2L542.1 186.2L546.7 186.2Q546.6 185.7 546.4 185.2L546.4 185.2Q546.2 184.6 545.7 184.2Q545.2 183.9 544.4 183.9Q543.7 183.9 543.2 184.2Q542.6 184.6 542.4 185.2L542.4 185.2Q542.1 185.7 542.1 186.2ZM553.5 191.2L553.5 191.2Q552.4 191.2 551.7 190.7Q550.9 190.1 550.4 189.2Q550.0 188.2 550.0 186.9L550.0 186.9Q550.0 185.6 550.4 184.7Q550.9 183.7 551.7 183.2Q552.4 182.7 553.5 182.7L553.5 182.7Q554.3 182.7 554.7 183.0Q555.2 183.2 555.5 183.6Q555.7 183.9 555.8 184.1L555.8 184.1L555.9 184.1L555.9 180.1L557.3 180.1L557.3 191L556.0 191L556.0 189.7L555.8 189.7Q555.7 190.0 555.4 190.3Q555.2 190.6 554.7 190.9Q554.2 191.2 553.5 191.2ZM553.7 190.0L553.7 190.0Q554.4 190.0 554.9 189.6Q555.4 189.2 555.7 188.5Q556.0 187.8 556.0 186.9L556.0 186.9Q556.0 186.0 555.7 185.3Q555.4 184.6 554.9 184.3Q554.4 183.9 553.7 183.9L553.7 183.9Q552.9 183.9 552.4 184.3Q551.8 184.7 551.6 185.4Q551.3 186.1 551.3 186.9L551.3 186.9Q551.3 187.8 551.6 188.5Q551.9 189.2 552.4 189.6Q552.9 190.0 553.7 190.0Z M567.6 191.2L567.6 191.2Q566.7 191.2 566.1 190.9Q565.4 190.7 565.0 190.2Q564.6 189.7 564.4 189.0L564.4 189.0L565.7 188.7Q565.9 189.4 566.3 189.7Q566.8 190.0 567.6 190.0L567.6 190.0Q568.4 190.0 568.9 189.7Q569.4 189.3 569.4 188.8L569.4 188.8Q569.4 188.4 569.1 188.1Q568.8 187.8 568.2 187.7L568.2 187.7L566.9 187.3Q565.8 187.1 565.2 186.5Q564.7 186.0 564.7 185.1L564.7 185.1Q564.7 184.4 565.1 183.9Q565.5 183.3 566.2 183.0Q566.8 182.7 567.7 182.7L567.7 182.7Q568.6 182.7 569.1 183.0Q569.7 183.2 570.1 183.7Q570.5 184.1 570.7 184.7L570.7 184.7L569.5 185.0Q569.3 184.5 568.9 184.2Q568.5 183.8 567.7 183.8L567.7 183.8Q567.0 183.8 566.5 184.2Q566.0 184.5 566.0 185.0L566.0 185.0Q566.0 185.5 566.3 185.7Q566.7 186.0 567.4 186.2L567.4 186.2L568.6 186.5Q569.7 186.7 570.3 187.3Q570.8 187.9 570.8 188.7L570.8 188.7Q570.8 189.4 570.4 190.0Q570.0 190.5 569.3 190.9Q568.5 191.2 567.6 191.2ZM573.1 194.0L573.1 194.0L573.4 192.8L573.6 192.9Q574.0 193.0 574.3 192.9Q574.6 192.9 574.9 192.6Q575.1 192.3 575.3 191.7L575.3 191.7L575.6 191.0L572.4 182.8L573.9 182.8L575.6 187.7Q575.9 188.4 576.1 189.2L576.1 189.2Q576.2 189.5 576.3 189.8L576.3 189.8Q576.3 189.5 576.4 189.2L576.4 189.2Q576.6 188.4 576.9 187.7L576.9 187.7L578.7 182.8L580.1 182.8L576.5 192.2Q576.2 192.9 575.9 193.3Q575.5 193.7 575.1 193.9Q574.6 194.1 574.0 194.1L574.0 194.1Q573.7 194.1 573.4 194.1Q573.2 194.0 573.1 194.0ZM584.9 191.2L584.9 191.2Q584.1 191.2 583.4 190.9Q582.8 190.7 582.3 190.2Q581.9 189.7 581.8 189.0L581.8 189.0L583.0 188.7Q583.2 189.4 583.7 189.7Q584.2 190.0 584.9 190.0L584.9 190.0Q585.8 190.0 586.3 189.7Q586.8 189.3 586.8 188.8L586.8 188.8Q586.8 188.4 586.5 188.1Q586.2 187.8 585.6 187.7L585.6 187.7L584.2 187.3Q583.1 187.1 582.6 186.5Q582.0 186.0 582.0 185.1L582.0 185.1Q582.0 184.4 582.4 183.9Q582.8 183.3 583.5 183.0Q584.2 182.7 585.1 182.7L585.1 182.7Q585.9 182.7 586.5 183.0Q587.1 183.2 587.4 183.7Q587.8 184.1 588.0 184.7L588.0 184.7L586.8 185.0Q586.6 184.5 586.2 184.2Q585.9 183.8 585.1 183.8L585.1 183.8Q584.3 183.8 583.8 184.2Q583.4 184.5 583.4 185.0L583.4 185.0Q583.4 185.5 583.7 185.7Q584.0 186.0 584.7 186.2L584.7 186.2L586.0 186.5Q587.1 186.7 587.6 187.3Q588.2 187.9 588.2 188.7L588.2 188.7Q588.2 189.4 587.7 190.0Q587.3 190.5 586.6 190.9Q585.9 191.2 584.9 191.2ZM592.1 182.8L593.8 182.8L593.8 183.9L592.1 183.9L592.1 188.9Q592.1 189.4 592.3 189.7Q592.5 189.9 593.1 189.9L593.1 189.9Q593.2 189.9 593.4 189.9Q593.6 189.9 593.7 189.8L593.7 189.8L594.0 191.0Q593.8 191.0 593.5 191.1Q593.3 191.1 593.0 191.1L593.0 191.1Q592.0 191.1 591.4 190.5Q590.8 190.0 590.8 189.0L590.8 189.0L590.8 183.9L589.5 183.9L589.5 182.8L590.8 182.8L590.8 180.9L592.1 180.9L592.1 182.8ZM599.4 191.2L599.4 191.2Q598.2 191.2 597.4 190.6Q596.5 190.1 596.0 189.2Q595.6 188.2 595.6 187.0Q595.6 185.7 596.0 184.8Q596.5 183.8 597.3 183.3Q598.1 182.7 599.3 182.7L599.3 182.7Q599.9 182.7 600.5 182.9Q601.2 183.1 601.7 183.6Q602.2 184.1 602.5 184.9Q602.8 185.7 602.8 186.8L602.8 186.8L602.8 187.4L596.9 187.4Q596.9 188.1 597.2 188.7L597.2 188.7Q597.5 189.4 598.1 189.7Q598.7 190.0 599.4 190.0L599.4 190.0Q599.9 190.0 600.3 189.9Q600.7 189.7 601.0 189.4Q601.3 189.2 601.4 188.7L601.4 188.7L602.7 189.1Q602.5 189.7 602.0 190.2Q601.6 190.6 600.9 190.9Q600.3 191.2 599.4 191.2ZM596.9 186.2L596.9 186.2L601.5 186.2Q601.4 185.7 601.2 185.2L601.2 185.2Q601.0 184.6 600.5 184.2Q600.0 183.9 599.3 183.9Q598.5 183.9 598.0 184.2Q597.5 184.6 597.2 185.2L597.2 185.2Q596.9 185.7 596.9 186.2ZM606.5 191L605.2 191L605.2 182.8L606.5 182.8L606.5 184.3Q606.7 183.9 606.9 183.5L606.9 183.5Q607.3 183.1 607.8 182.9Q608.3 182.7 608.8 182.7L608.8 182.7Q609.7 182.7 610.2 183.2L610.2 183.2Q610.7 183.7 610.9 184.3L610.9 184.3Q611.0 183.9 611.3 183.6L611.3 183.6Q611.7 183.1 612.3 182.9Q612.8 182.7 613.5 182.7L613.5 182.7Q614.2 182.7 614.8 183.0Q615.3 183.3 615.7 183.9Q616.0 184.5 616.0 185.5L616.0 185.5L616.0 191L614.7 191L614.7 185.5Q614.7 184.6 614.2 184.2Q613.7 183.9 613.1 183.9L613.1 183.9Q612.5 183.9 612.1 184.1Q611.7 184.3 611.5 184.7Q611.3 185.1 611.3 185.7L611.3 185.7L611.3 191L610.0 191L610.0 185.4Q610.0 184.7 609.5 184.3Q609.1 183.9 608.4 183.9L608.4 183.9Q607.9 183.9 607.5 184.1Q607.0 184.3 606.8 184.8Q606.5 185.2 606.5 185.8L606.5 185.8L606.5 191ZM621.6 191.2L621.6 191.2Q620.8 191.2 620.1 190.9Q619.5 190.7 619.1 190.2Q618.6 189.7 618.5 189.0L618.5 189.0L619.7 188.7Q619.9 189.4 620.4 189.7Q620.9 190.0 621.6 190.0L621.6 190.0Q622.5 190.0 623.0 189.7Q623.5 189.3 623.5 188.8L623.5 188.8Q623.5 188.4 623.2 188.1Q622.9 187.8 622.3 187.7L622.3 187.7L620.9 187.3Q619.8 187.1 619.3 186.5Q618.7 186.0 618.7 185.1L618.7 185.1Q618.7 184.4 619.1 183.9Q619.5 183.3 620.2 183.0Q620.9 182.7 621.8 182.7L621.8 182.7Q622.6 182.7 623.2 183.0Q623.8 183.2 624.2 183.7Q624.5 184.1 624.7 184.7L624.7 184.7L623.5 185.0Q623.3 184.5 623.0 184.2Q622.6 183.8 621.8 183.8L621.8 183.8Q621.0 183.8 620.6 184.2Q620.1 184.5 620.1 185.0L620.1 185.0Q620.1 185.5 620.4 185.7Q620.7 186.0 621.4 186.2L621.4 186.2L622.7 186.5Q623.8 186.7 624.3 187.3Q624.9 187.9 624.9 188.7L624.9 188.7Q624.9 189.4 624.5 190.0Q624.1 190.5 623.3 190.9Q622.6 191.2 621.6 191.2Z "/></g><mask id="satori_om-id-1-2-1"><rect x="633" y="176" width="7" height="18" fill="#fff" mask="url(#satori_om-id)"/></mask><g mask="url(#satori_om-id)" clip-path="url(#satori_cp-id)"><path fill="rgba(0,229,255,0.7)" d="M633 191L639.8 191L639.8 192.2L633 192.2L633 191Z "/></g><mask id="satori_om-id-1-3"><rect x="152" y="218" width="557" height="25" fill="#fff" mask="url(#satori_om-id)"/></mask><defs><clipPath id="satori_bc-id-1-3-0" clip-path="url(#satori_cp-id)"><path x="152" y="218" width="162" height="25" d="M164.5,218 h137 a12.5,12.5 0 0 1 12.5,12.5 v0 a12.5,12.5 0 0 1 -12.5,12.5 h-137 a12.5,12.5 0 0 1 -12.5,-12.5 v0 a12.5,12.5 0 0 1 12.5,-12.5"/></clipPath></defs><mask id="satori_om-id-1-3-0"><rect x="153" y="219" width="160" height="23" fill="#fff" mask="url(#satori_om-id)"/><path width="162" height="25" fill="none" stroke="#000" stroke-width="2" d="M155.661,221.661 A12.5,12.5 0 0 1 164.5,218 h137 a12.5,12.5 0 0 1 12.5,12.5 v0 a12.5,12.5 0 0 1 -12.5,12.5 h-137 a12.5,12.5 0 0 1 -12.5,-12.5 v0 A12.5,12.5 0 0 1 155.661,221.661"/></mask><path x="152" y="218" width="162" height="25" fill="rgba(0,229,255,0.04)" d="M164.5,218 h137 a12.5,12.5 0 0 1 12.5,12.5 v0 a12.5,12.5 0 0 1 -12.5,12.5 h-137 a12.5,12.5 0 0 1 -12.5,-12.5 v0 a12.5,12.5 0 0 1 12.5,-12.5" clip-path="url(#satori_cp-id)" mask="url(#satori_om-id)"/><path width="162" height="25" clip-path="url(#satori_bc-id-1-3-0)" fill="none" stroke="rgba(0,229,255,0.12)" stroke-width="2" d="M155.661,221.661 A12.5,12.5 0 0 1 164.5,218 h137 a12.5,12.5 0 0 1 12.5,12.5 v0 a12.5,12.5 0 0 1 -12.5,12.5 h-137 a12.5,12.5 0 0 1 -12.5,-12.5 v0 A12.5,12.5 0 0 1 155.661,221.661"/><g mask="url(#satori_om-id)" clip-path="url(#satori_cp-id)"><path fill="rgba(0,229,255,0.65)" d="M169.0 235L168.0 235L168.0 227.0L172.8 227.0L172.8 227.9L169.0 227.9L169.0 230.6L172.4 230.6L172.4 231.5L169.0 231.5L169.0 235ZM176.1 235L175.1 235L175.1 229.0L176.1 229.0L176.1 229.9L176.1 229.9Q176.3 229.5 176.7 229.2Q177.2 228.9 177.7 228.9L177.7 228.9Q177.8 228.9 178.0 228.9Q178.1 228.9 178.2 228.9L178.2 228.9L178.2 229.9Q178.1 229.9 178.0 229.9Q177.8 229.8 177.6 229.8L177.6 229.8Q177.2 229.8 176.8 230.0Q176.5 230.2 176.3 230.5Q176.1 230.8 176.1 231.2L176.1 231.2L176.1 235ZM182.5 235.1L182.5 235.1Q181.7 235.1 181.1 234.7Q180.5 234.4 180.1 233.7Q179.8 233.0 179.8 232.0L179.8 232.0Q179.8 231.1 180.1 230.4Q180.5 229.7 181.1 229.3Q181.7 228.9 182.5 228.9L182.5 228.9Q183.3 228.9 184.0 229.3Q184.6 229.7 184.9 230.4Q185.3 231.1 185.3 232.0L185.3 232.0Q185.3 233.0 184.9 233.7Q184.6 234.4 184.0 234.7Q183.3 235.1 182.5 235.1ZM182.5 234.3L182.5 234.3Q183.1 234.3 183.5 234.0Q183.9 233.6 184.1 233.1Q184.3 232.6 184.3 232.0L184.3 232.0Q184.3 231.4 184.1 230.9Q183.9 230.4 183.5 230.1Q183.1 229.8 182.5 229.8L182.5 229.8Q181.9 229.8 181.5 230.1Q181.2 230.4 181.0 230.9Q180.8 231.4 180.8 232.0L180.8 232.0Q180.8 232.6 181.0 233.1Q181.2 233.6 181.5 234.0Q181.9 234.3 182.5 234.3ZM188.4 231.4L188.4 231.4L188.4 235L187.5 235L187.5 229.0L188.4 229.0L188.4 230.1Q188.7 229.5 189.1 229.3L189.1 229.3Q189.6 228.9 190.3 228.9L190.3 228.9Q190.9 228.9 191.3 229.2Q191.8 229.4 192.0 229.9Q192.3 230.4 192.3 231.2L192.3 231.2L192.3 235L191.3 235L191.3 231.3Q191.3 230.6 191.0 230.2Q190.6 229.8 190.0 229.8L190.0 229.8Q189.5 229.8 189.2 230.0Q188.8 230.2 188.6 230.5Q188.4 230.9 188.4 231.4ZM195.9 229.0L197.1 229.0L197.1 229.8L195.9 229.8L195.9 233.4Q195.9 233.8 196.1 234.0Q196.2 234.2 196.6 234.2L196.6 234.2Q196.7 234.2 196.8 234.2Q197.0 234.2 197.1 234.2L197.1 234.2L197.3 235.0Q197.2 235.0 197.0 235.0Q196.8 235.1 196.6 235.1L196.6 235.1Q195.8 235.1 195.4 234.7Q194.9 234.3 194.9 233.5L194.9 233.5L194.9 229.8L194.0 229.8L194.0 229.0L194.9 229.0L194.9 227.6L195.9 227.6L195.9 229.0ZM201.7 235.1L201.7 235.1Q200.8 235.1 200.2 234.7Q199.6 234.4 199.2 233.7Q198.9 233.0 198.9 232.0Q198.9 231.1 199.2 230.4Q199.6 229.7 200.2 229.3Q200.8 228.9 201.6 228.9L201.6 228.9Q202.1 228.9 202.5 229.1Q203.0 229.2 203.4 229.6Q203.8 229.9 204.0 230.5Q204.2 231.1 204.2 231.9L204.2 231.9L204.2 232.3L199.9 232.3Q199.9 232.9 200.1 233.3L200.1 233.3Q200.3 233.8 200.7 234.0Q201.2 234.3 201.7 234.3L201.7 234.3Q202.1 234.3 202.4 234.2Q202.6 234.1 202.9 233.9Q203.1 233.7 203.2 233.3L203.2 233.3L204.1 233.6Q204.0 234.1 203.6 234.4Q203.3 234.7 202.8 234.9Q202.3 235.1 201.7 235.1ZM199.9 231.5L199.9 231.5L203.2 231.5Q203.2 231.1 203.0 230.8L203.0 230.8Q202.9 230.3 202.5 230.0Q202.1 229.8 201.6 229.8Q201.0 229.8 200.7 230.0Q200.3 230.3 200.1 230.7L200.1 230.7Q199.9 231.1 199.9 231.5ZM207.4 231.4L207.4 231.4L207.4 235L206.4 235L206.4 229.0L207.3 229.0L207.3 230.1Q207.6 229.5 208.0 229.3L208.0 229.3Q208.5 228.9 209.2 228.9L209.2 228.9Q209.8 228.9 210.2 229.2Q210.7 229.4 210.9 229.9Q211.2 230.4 211.2 231.2L211.2 231.2L211.2 235L210.2 235L210.2 231.3Q210.2 230.6 209.9 230.2Q209.5 229.8 208.9 229.8L208.9 229.8Q208.4 229.8 208.1 230.0Q207.8 230.2 207.6 230.5Q207.4 230.9 207.4 231.4ZM215.9 235.1L215.9 235.1Q215.2 235.1 214.6 234.7Q214.0 234.4 213.7 233.7Q213.4 233.0 213.4 232.0L213.4 232.0Q213.4 231.1 213.7 230.4Q214.0 229.7 214.6 229.3Q215.2 228.9 215.9 228.9L215.9 228.9Q216.5 228.9 216.9 229.1Q217.2 229.3 217.4 229.6Q217.6 229.8 217.7 230.0L217.7 230.0L217.8 230.0L217.8 227.0L218.7 227.0L218.7 235L217.8 235L217.8 234.1L217.7 234.1Q217.6 234.2 217.4 234.5Q217.2 234.7 216.9 234.9Q216.5 235.1 215.9 235.1ZM216.1 234.3L216.1 234.3Q216.6 234.3 217.0 234.0Q217.4 233.7 217.6 233.2Q217.8 232.7 217.8 232.0L217.8 232.0Q217.8 231.3 217.6 230.8Q217.4 230.3 217.0 230.1Q216.6 229.8 216.1 229.8L216.1 229.8Q215.5 229.8 215.1 230.1Q214.8 230.4 214.6 230.9Q214.4 231.4 214.4 232.0L214.4 232.0Q214.4 232.6 214.6 233.1Q214.8 233.7 215.1 234.0Q215.5 234.3 216.1 234.3Z M225.6 235L224.5 235L227.5 227.0L228.6 227.0L231.6 235L230.5 235L229.7 232.8L226.4 232.8L225.6 235ZM226.7 231.9L229.4 231.9L228.8 230.3Q228.7 229.8 228.4 229.2L228.4 229.2Q228.3 228.6 228.0 227.8L228.0 227.8Q227.8 228.6 227.6 229.2L227.6 229.2Q227.4 229.8 227.3 230.3L227.3 230.3L226.7 231.9ZM234.5 235L233.5 235L233.5 229.0L234.4 229.0L234.4 229.9L234.5 229.9Q234.7 229.5 235.1 229.2Q235.5 228.9 236.1 228.9L236.1 228.9Q236.2 228.9 236.3 228.9Q236.5 228.9 236.6 228.9L236.6 228.9L236.6 229.9Q236.5 229.9 236.3 229.9Q236.2 229.8 236.0 229.8L236.0 229.8Q235.5 229.8 235.2 230.0Q234.9 230.2 234.7 230.5Q234.5 230.8 234.5 231.2L234.5 231.2L234.5 235ZM240.9 235.1L240.9 235.1Q240.1 235.1 239.5 234.7Q238.8 234.4 238.5 233.7Q238.2 233.0 238.2 232.0L238.2 232.0Q238.2 231.1 238.5 230.4Q238.8 229.7 239.5 229.3Q240.1 228.9 240.9 228.9L240.9 228.9Q241.3 228.9 241.7 229.0Q242.1 229.1 242.4 229.4Q242.7 229.6 243.0 229.9Q243.2 230.2 243.3 230.6L243.3 230.6L242.4 230.8Q242.3 230.6 242.2 230.4Q242.1 230.2 241.9 230.1Q241.7 229.9 241.4 229.9Q241.2 229.8 240.9 229.8L240.9 229.8Q240.3 229.8 239.9 230.1Q239.5 230.4 239.3 230.9Q239.1 231.4 239.1 232.0L239.1 232.0Q239.1 232.6 239.3 233.1Q239.5 233.6 239.9 234.0Q240.3 234.3 240.9 234.3L240.9 234.3Q241.2 234.3 241.4 234.2Q241.7 234.1 241.9 234.0Q242.1 233.8 242.2 233.6Q242.4 233.4 242.4 233.2L242.4 233.2L243.3 233.4Q243.2 233.8 243.0 234.1Q242.8 234.5 242.4 234.7Q242.1 234.9 241.7 235.0Q241.3 235.1 240.9 235.1ZM246.5 231.4L246.5 231.4L246.5 235L245.5 235L245.5 227.0L246.5 227.0L246.5 230.0Q246.7 229.5 247.1 229.3L247.1 229.3Q247.6 228.9 248.3 228.9L248.3 228.9Q248.9 228.9 249.4 229.2Q249.8 229.4 250.1 229.9Q250.3 230.4 250.3 231.2L250.3 231.2L250.3 235L249.4 235L249.4 231.3Q249.4 230.6 249.0 230.2Q248.6 229.8 248.0 229.8L248.0 229.8Q247.6 229.8 247.2 230.0Q246.9 230.2 246.7 230.5Q246.5 230.9 246.5 231.4ZM253.8 235L252.8 235L252.8 229.0L253.8 229.0L253.8 235ZM253.3 228.0L253.3 228.0Q253.1 228.0 252.9 227.8Q252.7 227.6 252.7 227.4L252.7 227.4Q252.7 227.1 252.9 226.9Q253.1 226.7 253.3 226.7L253.3 226.7Q253.6 226.7 253.8 226.9Q254.0 227.1 254.0 227.4L254.0 227.4Q254.0 227.6 253.8 227.8Q253.6 228.0 253.3 228.0ZM257.4 229.0L258.7 229.0L258.7 229.8L257.4 229.8L257.4 233.4Q257.4 233.8 257.6 234.0Q257.8 234.2 258.1 234.2L258.1 234.2Q258.2 234.2 258.4 234.2Q258.5 234.2 258.6 234.2L258.6 234.2L258.8 235.0Q258.7 235.0 258.5 235.0Q258.3 235.1 258.1 235.1L258.1 235.1Q257.3 235.1 256.9 234.7Q256.5 234.3 256.5 233.5L256.5 233.5L256.5 229.8L255.6 229.8L255.6 229.0L256.5 229.0L256.5 227.6L257.4 227.6L257.4 229.0ZM263.2 235.1L263.2 235.1Q262.4 235.1 261.7 234.7Q261.1 234.4 260.8 233.7Q260.4 233.0 260.4 232.0Q260.4 231.1 260.7 230.4Q261.1 229.7 261.7 229.3Q262.3 228.9 263.1 228.9L263.1 228.9Q263.6 228.9 264.1 229.1Q264.5 229.2 264.9 229.6Q265.3 229.9 265.5 230.5Q265.7 231.1 265.7 231.9L265.7 231.9L265.7 232.3L261.4 232.3Q261.4 232.9 261.6 233.3L261.6 233.3Q261.8 233.8 262.3 234.0Q262.7 234.3 263.2 234.3L263.2 234.3Q263.6 234.3 263.9 234.2Q264.2 234.1 264.4 233.9Q264.6 233.7 264.7 233.3L264.7 233.3L265.6 233.6Q265.5 234.1 265.2 234.4Q264.8 234.7 264.3 234.9Q263.8 235.1 263.2 235.1ZM261.4 231.5L261.4 231.5L264.7 231.5Q264.7 231.1 264.6 230.8L264.6 230.8Q264.4 230.3 264.0 230.0Q263.7 229.8 263.1 229.8Q262.6 229.8 262.2 230.0Q261.8 230.3 261.6 230.7L261.6 230.7Q261.4 231.1 261.4 231.5ZM270.4 235.1L270.4 235.1Q269.5 235.1 268.9 234.7Q268.3 234.4 268.0 233.7Q267.6 233.0 267.6 232.0L267.6 232.0Q267.6 231.1 268.0 230.4Q268.3 229.7 268.9 229.3Q269.5 228.9 270.4 228.9L270.4 228.9Q270.8 228.9 271.2 229.0Q271.6 229.1 271.9 229.4Q272.2 229.6 272.4 229.9Q272.7 230.2 272.8 230.6L272.8 230.6L271.9 230.8Q271.8 230.6 271.7 230.4Q271.5 230.2 271.3 230.1Q271.1 229.9 270.9 229.9Q270.7 229.8 270.4 229.8L270.4 229.8Q269.8 229.8 269.4 230.1Q269.0 230.4 268.8 230.9Q268.6 231.4 268.6 232.0L268.6 232.0Q268.6 232.6 268.8 233.1Q269.0 233.6 269.4 234.0Q269.8 234.3 270.4 234.3L270.4 234.3Q270.7 234.3 270.9 234.2Q271.2 234.1 271.4 234.0Q271.6 233.8 271.7 233.6Q271.8 233.4 271.9 233.2L271.9 233.2L272.8 233.4Q272.7 233.8 272.5 234.1Q272.2 234.5 271.9 234.7Q271.6 234.9 271.2 235.0Q270.8 235.1 270.4 235.1ZM276.1 229.0L277.4 229.0L277.4 229.8L276.1 229.8L276.1 233.4Q276.1 233.8 276.3 234.0Q276.5 234.2 276.8 234.2L276.8 234.2Q276.9 234.2 277.1 234.2Q277.2 234.2 277.3 234.2L277.3 234.2L277.5 235.0Q277.4 235.0 277.2 235.0Q277.0 235.1 276.8 235.1L276.8 235.1Q276.0 235.1 275.6 234.7Q275.2 234.3 275.2 233.5L275.2 233.5L275.2 229.8L274.3 229.8L274.3 229.0L275.2 229.0L275.2 227.6L276.1 227.6L276.1 229.0ZM281.4 235.1L281.4 235.1Q280.8 235.1 280.4 234.8Q279.9 234.6 279.7 234.1Q279.4 233.6 279.4 232.8L279.4 232.8L279.4 229.0L280.4 229.0L280.4 232.7Q280.4 233.4 280.7 233.8Q281.1 234.2 281.7 234.2L281.7 234.2Q282.2 234.2 282.5 234.0Q282.8 233.8 283.0 233.5Q283.2 233.1 283.2 232.6L283.2 232.6L283.2 229.0L284.2 229.0L284.2 235L283.3 235L283.3 233.9Q283.0 234.5 282.6 234.7L282.6 234.7Q282.1 235.1 281.4 235.1ZM287.7 235L286.7 235L286.7 229.0L287.6 229.0L287.6 229.9L287.7 229.9Q287.9 229.5 288.3 229.2Q288.7 228.9 289.3 228.9L289.3 228.9Q289.4 228.9 289.5 228.9Q289.7 228.9 289.7 228.9L289.7 228.9L289.7 229.9Q289.7 229.9 289.5 229.9Q289.4 229.8 289.2 229.8L289.2 229.8Q288.7 229.8 288.4 230.0Q288.1 230.2 287.9 230.5Q287.7 230.8 287.7 231.2L287.7 231.2L287.7 235ZM294.2 235.1L294.2 235.1Q293.3 235.1 292.7 234.7Q292.0 234.4 291.7 233.7Q291.4 233.0 291.4 232.0Q291.4 231.1 291.7 230.4Q292.0 229.7 292.6 229.3Q293.2 228.9 294.1 228.9L294.1 228.9Q294.5 228.9 295.0 229.1Q295.5 229.2 295.8 229.6Q296.2 229.9 296.4 230.5Q296.7 231.1 296.7 231.9L296.7 231.9L296.7 232.3L292.3 232.3Q292.4 232.9 292.6 233.3L292.6 233.3Q292.8 233.8 293.2 234.0Q293.6 234.3 294.2 234.3L294.2 234.3Q294.5 234.3 294.8 234.2Q295.1 234.1 295.3 233.9Q295.5 233.7 295.6 233.3L295.6 233.3L296.6 233.6Q296.4 234.1 296.1 234.4Q295.8 234.7 295.3 234.9Q294.8 235.1 294.2 235.1ZM292.3 231.5L292.3 231.5L295.7 231.5Q295.6 231.1 295.5 230.8L295.5 230.8Q295.3 230.3 295.0 230.0Q294.6 229.8 294.1 229.8Q293.5 229.8 293.1 230.0Q292.7 230.3 292.5 230.7L292.5 230.7Q292.4 231.1 292.3 231.5Z "/></g><defs><clipPath id="satori_bc-id-1-3-1" clip-path="url(#satori_cp-id)"><path x="322" y="218" width="91" height="25" d="M334.5,218 h66 a12.5,12.5 0 0 1 12.5,12.5 v0 a12.5,12.5 0 0 1 -12.5,12.5 h-66 a12.5,12.5 0 0 1 -12.5,-12.5 v0 a12.5,12.5 0 0 1 12.5,-12.5"/></clipPath></defs><mask id="satori_om-id-1-3-1"><rect x="323" y="219" width="89" height="23" fill="#fff" mask="url(#satori_om-id)"/><path width="91" height="25" fill="none" stroke="#000" stroke-width="2" d="M325.661,221.661 A12.5,12.5 0 0 1 334.5,218 h66 a12.5,12.5 0 0 1 12.5,12.5 v0 a12.5,12.5 0 0 1 -12.5,12.5 h-66 a12.5,12.5 0 0 1 -12.5,-12.5 v0 A12.5,12.5 0 0 1 325.661,221.661"/></mask><path x="322" y="218" width="91" height="25" fill="rgba(0,229,255,0.04)" d="M334.5,218 h66 a12.5,12.5 0 0 1 12.5,12.5 v0 a12.5,12.5 0 0 1 -12.5,12.5 h-66 a12.5,12.5 0 0 1 -12.5,-12.5 v0 a12.5,12.5 0 0 1 12.5,-12.5" clip-path="url(#satori_cp-id)" mask="url(#satori_om-id)"/><path width="91" height="25" clip-path="url(#satori_bc-id-1-3-1)" fill="none" stroke="rgba(0,229,255,0.12)" stroke-width="2" d="M325.661,221.661 A12.5,12.5 0 0 1 334.5,218 h66 a12.5,12.5 0 0 1 12.5,12.5 v0 a12.5,12.5 0 0 1 -12.5,12.5 h-66 a12.5,12.5 0 0 1 -12.5,-12.5 v0 A12.5,12.5 0 0 1 325.661,221.661"/><g mask="url(#satori_om-id)" clip-path="url(#satori_cp-id)"><path fill="rgba(0,229,255,0.65)" d="M338.4 235L337.3 235L340.2 227.0L341.4 227.0L344.3 235L343.2 235L342.4 232.8L339.1 232.8L338.4 235ZM339.4 231.9L342.1 231.9L341.5 230.3Q341.4 229.8 341.2 229.2L341.2 229.2Q341.0 228.6 340.8 227.8L340.8 227.8Q340.5 228.6 340.4 229.2L340.4 229.2Q340.2 229.8 340.0 230.3L340.0 230.3L339.4 231.9ZM346.4 227.0L347.4 227.0L347.4 235L346.4 235L346.4 227.0Z M356.1 227.9L353.6 227.9L353.6 227.0L359.6 227.0L359.6 227.9L357.1 227.9L357.1 235L356.1 235L356.1 227.9ZM364.2 235.1L364.2 235.1Q363.4 235.1 362.8 234.7Q362.2 234.4 361.8 233.7Q361.5 233.0 361.5 232.0L361.5 232.0Q361.5 231.1 361.8 230.4Q362.2 229.7 362.8 229.3Q363.4 228.9 364.2 228.9L364.2 228.9Q365.1 228.9 365.7 229.3Q366.3 229.7 366.6 230.4Q367.0 231.1 367.0 232.0L367.0 232.0Q367.0 233.0 366.6 233.7Q366.3 234.4 365.7 234.7Q365.1 235.1 364.2 235.1ZM364.2 234.3L364.2 234.3Q364.8 234.3 365.2 234.0Q365.6 233.6 365.8 233.1Q366.0 232.6 366.0 232.0L366.0 232.0Q366.0 231.4 365.8 230.9Q365.6 230.4 365.2 230.1Q364.8 229.8 364.2 229.8L364.2 229.8Q363.6 229.8 363.2 230.1Q362.9 230.4 362.7 230.9Q362.5 231.4 362.5 232.0L362.5 232.0Q362.5 232.6 362.7 233.1Q362.9 233.6 363.2 234.0Q363.6 234.3 364.2 234.3ZM371.6 235.1L371.6 235.1Q370.8 235.1 370.2 234.7Q369.6 234.4 369.2 233.7Q368.9 233.0 368.9 232.0L368.9 232.0Q368.9 231.1 369.2 230.4Q369.6 229.7 370.2 229.3Q370.8 228.9 371.6 228.9L371.6 228.9Q372.4 228.9 373.1 229.3Q373.7 229.7 374.0 230.4Q374.4 231.1 374.4 232.0L374.4 232.0Q374.4 233.0 374.0 233.7Q373.7 234.4 373.1 234.7Q372.4 235.1 371.6 235.1ZM371.6 234.3L371.6 234.3Q372.2 234.3 372.6 234.0Q373.0 233.6 373.2 233.1Q373.4 232.6 373.4 232.0L373.4 232.0Q373.4 231.4 373.2 230.9Q373.0 230.4 372.6 230.1Q372.2 229.8 371.6 229.8L371.6 229.8Q371.0 229.8 370.6 230.1Q370.3 230.4 370.1 230.9Q369.9 231.4 369.9 232.0L369.9 232.0Q369.9 232.6 370.1 233.1Q370.3 233.6 370.6 234.0Q371.0 234.3 371.6 234.3ZM376.6 227.0L377.5 227.0L377.5 235L376.6 235L376.6 227.0ZM381.0 235L380.0 235L380.0 229.0L381.0 229.0L381.0 235ZM380.5 228.0L380.5 228.0Q380.3 228.0 380.1 227.8Q379.9 227.6 379.9 227.4L379.9 227.4Q379.9 227.1 380.1 226.9Q380.3 226.7 380.5 226.7L380.5 226.7Q380.8 226.7 381.0 226.9Q381.2 227.1 381.2 227.4L381.2 227.4Q381.2 227.6 381.0 227.8Q380.8 228.0 380.5 228.0ZM384.5 231.4L384.5 231.4L384.5 235L383.5 235L383.5 229.0L384.4 229.0L384.4 230.1Q384.7 229.5 385.1 229.3L385.1 229.3Q385.6 228.9 386.3 228.9L386.3 228.9Q386.9 228.9 387.3 229.2Q387.8 229.4 388.1 229.9Q388.3 230.4 388.3 231.2L388.3 231.2L388.3 235L387.3 235L387.3 231.3Q387.3 230.6 387.0 230.2Q386.6 229.8 386.0 229.8L386.0 229.8Q385.6 229.8 385.2 230.0Q384.9 230.2 384.7 230.5Q384.5 230.9 384.5 231.4ZM393.2 237.4L393.2 237.4Q392.6 237.4 392.1 237.2Q391.6 237.0 391.3 236.8Q391.0 236.5 390.8 236.1L390.8 236.1L391.6 235.6Q391.7 235.8 391.9 236.0Q392.1 236.2 392.4 236.4Q392.7 236.5 393.2 236.5L393.2 236.5Q394.0 236.5 394.4 236.2Q394.9 235.8 394.9 235.1L394.9 235.1L394.9 233.9L394.8 233.9Q394.7 234.1 394.5 234.3Q394.3 234.5 394.0 234.7Q393.6 234.9 393.1 234.9L393.1 234.9Q392.3 234.9 391.8 234.6Q391.2 234.2 390.8 233.6Q390.5 232.9 390.5 232.0L390.5 232.0Q390.5 231.0 390.8 230.4Q391.2 229.7 391.7 229.3Q392.3 228.9 393.1 228.9L393.1 228.9Q393.7 228.9 394.0 229.1Q394.3 229.3 394.5 229.5Q394.7 229.8 394.8 230.0L394.8 230.0L394.9 230.0L394.9 229.0L395.9 229.0L395.9 235.2Q395.9 235.9 395.5 236.4Q395.2 236.9 394.6 237.1Q394.0 237.4 393.2 237.4ZM393.2 234.0L393.2 234.0Q393.8 234.0 394.1 233.8Q394.5 233.5 394.7 233.1Q394.9 232.6 394.9 231.9L394.9 231.9Q394.9 231.3 394.7 230.8Q394.5 230.3 394.1 230.1Q393.8 229.8 393.2 229.8L393.2 229.8Q392.6 229.8 392.3 230.1Q391.9 230.4 391.7 230.9Q391.5 231.3 391.5 231.9L391.5 231.9Q391.5 232.6 391.7 233.0Q391.9 233.5 392.3 233.8Q392.6 234.0 393.2 234.0Z "/></g><defs><clipPath id="satori_bc-id-1-3-2" clip-path="url(#satori_cp-id)"><path x="421" y="218" width="119" height="25" d="M433.5,218 h94 a12.5,12.5 0 0 1 12.5,12.5 v0 a12.5,12.5 0 0 1 -12.5,12.5 h-94 a12.5,12.5 0 0 1 -12.5,-12.5 v0 a12.5,12.5 0 0 1 12.5,-12.5"/></clipPath></defs><mask id="satori_om-id-1-3-2"><rect x="422" y="219" width="117" height="23" fill="#fff" mask="url(#satori_om-id)"/><path width="119" height="25" fill="none" stroke="#000" stroke-width="2" d="M424.661,221.661 A12.5,12.5 0 0 1 433.5,218 h94 a12.5,12.5 0 0 1 12.5,12.5 v0 a12.5,12.5 0 0 1 -12.5,12.5 h-94 a12.5,12.5 0 0 1 -12.5,-12.5 v0 A12.5,12.5 0 0 1 424.661,221.661"/></mask><path x="421" y="218" width="119" height="25" fill="rgba(0,229,255,0.04)" d="M433.5,218 h94 a12.5,12.5 0 0 1 12.5,12.5 v0 a12.5,12.5 0 0 1 -12.5,12.5 h-94 a12.5,12.5 0 0 1 -12.5,-12.5 v0 a12.5,12.5 0 0 1 12.5,-12.5" clip-path="url(#satori_cp-id)" mask="url(#satori_om-id)"/><path width="119" height="25" clip-path="url(#satori_bc-id-1-3-2)" fill="none" stroke="rgba(0,229,255,0.12)" stroke-width="2" d="M424.661,221.661 A12.5,12.5 0 0 1 433.5,218 h94 a12.5,12.5 0 0 1 12.5,12.5 v0 a12.5,12.5 0 0 1 -12.5,12.5 h-94 a12.5,12.5 0 0 1 -12.5,-12.5 v0 A12.5,12.5 0 0 1 424.661,221.661"/><g mask="url(#satori_om-id)" clip-path="url(#satori_cp-id)"><path fill="rgba(0,229,255,0.65)" d="M439.5 235.1L439.5 235.1Q438.7 235.1 438.0 234.9Q437.4 234.6 437.0 234.1Q436.7 233.6 436.6 232.9L436.6 232.9L437.7 232.9Q437.7 233.4 438.0 233.6Q438.2 233.9 438.7 234.1Q439.1 234.2 439.5 234.2L439.5 234.2Q440.1 234.2 440.5 234.0Q440.9 233.9 441.2 233.5Q441.4 233.2 441.4 232.8L441.4 232.8Q441.4 232.4 441.2 232.2Q441.0 231.9 440.6 231.8Q440.3 231.6 439.9 231.5L439.9 231.5L438.9 231.2Q437.9 231.0 437.4 230.4Q436.8 229.9 436.8 229.1L436.8 229.1Q436.8 228.5 437.2 228.0Q437.6 227.4 438.2 227.2Q438.8 226.9 439.6 226.9L439.6 226.9Q440.4 226.9 441.0 227.2Q441.6 227.4 442.0 227.9Q442.3 228.4 442.3 229.0L442.3 229.0L441.3 229.0Q441.3 228.4 440.8 228.1Q440.3 227.8 439.6 227.8L439.6 227.8Q439.1 227.8 438.7 228.0Q438.3 228.1 438.1 228.4Q437.8 228.7 437.8 229.1L437.8 229.1Q437.8 229.5 438.1 229.8Q438.4 230.0 438.7 230.2Q439.1 230.3 439.4 230.4L439.4 230.4L440.2 230.6Q440.5 230.7 440.9 230.8Q441.3 231.0 441.6 231.2Q442.0 231.5 442.2 231.9Q442.4 232.3 442.4 232.8L442.4 232.8Q442.4 233.5 442.1 234.0Q441.8 234.5 441.1 234.8Q440.5 235.1 439.5 235.1ZM444.6 237.2L444.6 237.2L444.9 236.3L445.0 236.4Q445.3 236.4 445.5 236.4Q445.7 236.4 445.9 236.2Q446.1 236.0 446.3 235.5L446.3 235.5L446.4 235.0L444.1 229.0L445.2 229.0L446.5 232.6Q446.7 233.1 446.8 233.7L446.8 233.7Q446.9 233.9 446.9 234.1L446.9 234.1Q447.0 233.9 447.1 233.7L447.1 233.7Q447.2 233.1 447.4 232.6L447.4 232.6L448.7 229.0L449.7 229.0L447.1 235.9Q446.9 236.4 446.7 236.7Q446.4 237.0 446.1 237.1Q445.7 237.3 445.3 237.3L445.3 237.3Q445.1 237.3 444.9 237.3Q444.7 237.2 444.6 237.2ZM453.7 235.1L453.7 235.1Q453.1 235.1 452.6 234.9Q452.2 234.8 451.8 234.4Q451.5 234.1 451.4 233.5L451.4 233.5L452.3 233.3Q452.5 233.8 452.8 234.0Q453.2 234.3 453.7 234.3L453.7 234.3Q454.3 234.3 454.7 234.0Q455.1 233.7 455.1 233.4L455.1 233.4Q455.1 233.1 454.9 232.9Q454.7 232.6 454.2 232.5L454.2 232.5L453.2 232.3Q452.4 232.1 452.0 231.7Q451.6 231.3 451.6 230.7L451.6 230.7Q451.6 230.2 451.9 229.8Q452.2 229.4 452.7 229.1Q453.2 228.9 453.8 228.9L453.8 228.9Q454.4 228.9 454.9 229.1Q455.3 229.3 455.6 229.6Q455.9 229.9 456.0 230.4L456.0 230.4L455.1 230.6Q455.0 230.3 454.7 230.0Q454.4 229.7 453.8 229.7L453.8 229.7Q453.3 229.7 452.9 230.0Q452.6 230.2 452.6 230.6L452.6 230.6Q452.6 230.9 452.8 231.1Q453.1 231.3 453.6 231.5L453.6 231.5L454.5 231.7Q455.3 231.9 455.7 232.3Q456.1 232.7 456.1 233.3L456.1 233.3Q456.1 233.8 455.8 234.2Q455.5 234.7 455.0 234.9Q454.4 235.1 453.7 235.1ZM459.4 229.0L460.7 229.0L460.7 229.8L459.4 229.8L459.4 233.4Q459.4 233.8 459.6 234.0Q459.8 234.2 460.1 234.2L460.1 234.2Q460.2 234.2 460.4 234.2Q460.5 234.2 460.6 234.2L460.6 234.2L460.8 235.0Q460.7 235.0 460.5 235.0Q460.3 235.1 460.1 235.1L460.1 235.1Q459.3 235.1 458.9 234.7Q458.5 234.3 458.5 233.5L458.5 233.5L458.5 229.8L457.6 229.8L457.6 229.0L458.5 229.0L458.5 227.6L459.4 227.6L459.4 229.0ZM465.2 235.1L465.2 235.1Q464.3 235.1 463.7 234.7Q463.1 234.4 462.7 233.7Q462.4 233.0 462.4 232.0Q462.4 231.1 462.7 230.4Q463.1 229.7 463.7 229.3Q464.3 228.9 465.1 228.9L465.1 228.9Q465.6 228.9 466.0 229.1Q466.5 229.2 466.9 229.6Q467.3 229.9 467.5 230.5Q467.7 231.1 467.7 231.9L467.7 231.9L467.7 232.3L463.4 232.3Q463.4 232.9 463.6 233.3L463.6 233.3Q463.8 233.8 464.3 234.0Q464.7 234.3 465.2 234.3L465.2 234.3Q465.6 234.3 465.9 234.2Q466.2 234.1 466.4 233.9Q466.6 233.7 466.7 233.3L466.7 233.3L467.6 233.6Q467.5 234.1 467.2 234.4Q466.8 234.7 466.3 234.9Q465.8 235.1 465.2 235.1ZM463.4 231.5L463.4 231.5L466.7 231.5Q466.7 231.1 466.6 230.8L466.6 230.8Q466.4 230.3 466.0 230.0Q465.6 229.8 465.1 229.8Q464.6 229.8 464.2 230.0Q463.8 230.3 463.6 230.7L463.6 230.7Q463.4 231.1 463.4 231.5ZM470.9 235L469.9 235L469.9 229.0L470.8 229.0L470.9 230.1Q471.0 229.8 471.2 229.5L471.2 229.5Q471.4 229.2 471.8 229.0Q472.1 228.9 472.5 228.9L472.5 228.9Q473.2 228.9 473.6 229.3L473.6 229.3Q473.9 229.6 474.1 230.1L474.1 230.1Q474.2 229.8 474.4 229.6L474.4 229.6Q474.7 229.2 475.1 229.1Q475.5 228.9 476.0 228.9L476.0 228.9Q476.5 228.9 476.9 229.1Q477.3 229.3 477.6 229.8Q477.8 230.3 477.8 231.0L477.8 231.0L477.8 235L476.9 235L476.9 231.0Q476.9 230.3 476.5 230.0Q476.1 229.8 475.7 229.8L475.7 229.8Q475.3 229.8 475.0 229.9Q474.7 230.1 474.5 230.4Q474.4 230.7 474.4 231.1L474.4 231.1L474.4 235L473.4 235L473.4 230.9Q473.4 230.4 473.1 230.1Q472.7 229.8 472.2 229.8L472.2 229.8Q471.9 229.8 471.6 229.9Q471.2 230.1 471.1 230.4Q470.9 230.7 470.9 231.2L470.9 231.2L470.9 235Z M486.9 235L486.9 235L484.4 235L484.4 227.0L487.0 227.0Q488.1 227.0 489.0 227.5Q489.8 228.0 490.2 228.8Q490.7 229.7 490.7 231.0L490.7 231.0Q490.7 232.2 490.2 233.1Q489.8 234.0 488.9 234.5Q488.1 235 486.9 235ZM485.4 227.9L485.4 234.1L486.8 234.1Q487.8 234.1 488.4 233.7Q489.0 233.4 489.4 232.7Q489.7 232.0 489.7 231.0L489.7 231.0Q489.7 230.0 489.4 229.3Q489.1 228.6 488.4 228.3Q487.8 227.9 486.9 227.9L486.9 227.9L485.4 227.9ZM495.5 235.1L495.5 235.1Q494.6 235.1 494.0 234.7Q493.4 234.4 493.0 233.7Q492.7 233.0 492.7 232.0Q492.7 231.1 493.0 230.4Q493.4 229.7 494.0 229.3Q494.6 228.9 495.4 228.9L495.4 228.9Q495.9 228.9 496.3 229.1Q496.8 229.2 497.2 229.6Q497.6 229.9 497.8 230.5Q498.0 231.1 498.0 231.9L498.0 231.9L498.0 232.3L493.7 232.3Q493.7 232.9 493.9 233.3L493.9 233.3Q494.1 233.8 494.5 234.0Q495.0 234.3 495.5 234.3L495.5 234.3Q495.9 234.3 496.1 234.2Q496.4 234.1 496.6 233.9Q496.9 233.7 497.0 233.3L497.0 233.3L497.9 233.6Q497.8 234.1 497.4 234.4Q497.1 234.7 496.6 234.9Q496.1 235.1 495.5 235.1ZM493.7 231.5L493.7 231.5L497.0 231.5Q497.0 231.1 496.8 230.8L496.8 230.8Q496.7 230.3 496.3 230.0Q495.9 229.8 495.4 229.8Q494.8 229.8 494.5 230.0Q494.1 230.3 493.9 230.7L493.9 230.7Q493.7 231.1 493.7 231.5ZM502.2 235.1L502.2 235.1Q501.6 235.1 501.1 234.9Q500.6 234.8 500.3 234.4Q500.0 234.1 499.9 233.5L499.9 233.5L500.8 233.3Q501.0 233.8 501.3 234.0Q501.7 234.3 502.2 234.3L502.2 234.3Q502.8 234.3 503.2 234.0Q503.6 233.7 503.6 233.4L503.6 233.4Q503.6 233.1 503.4 232.9Q503.2 232.6 502.7 232.5L502.7 232.5L501.7 232.3Q500.9 232.1 500.5 231.7Q500.1 231.3 500.1 230.7L500.1 230.7Q500.1 230.2 500.4 229.8Q500.7 229.4 501.2 229.1Q501.7 228.9 502.3 228.9L502.3 228.9Q502.9 228.9 503.4 229.1Q503.8 229.3 504.1 229.6Q504.3 229.9 504.5 230.4L504.5 230.4L503.6 230.6Q503.5 230.3 503.2 230.0Q502.9 229.7 502.3 229.7L502.3 229.7Q501.8 229.7 501.4 230.0Q501.1 230.2 501.1 230.6L501.1 230.6Q501.1 230.9 501.3 231.1Q501.6 231.3 502.1 231.5L502.1 231.5L503.0 231.7Q503.8 231.9 504.2 232.3Q504.6 232.7 504.6 233.3L504.6 233.3Q504.6 233.8 504.3 234.2Q504.0 234.7 503.5 234.9Q502.9 235.1 502.2 235.1ZM507.8 235L506.8 235L506.8 229.0L507.8 229.0L507.8 235ZM507.3 228.0L507.3 228.0Q507.0 228.0 506.8 227.8Q506.6 227.6 506.6 227.4L506.6 227.4Q506.6 227.1 506.8 226.9Q507.0 226.7 507.3 226.7L507.3 226.7Q507.6 226.7 507.8 226.9Q508.0 227.1 508.0 227.4L508.0 227.4Q508.0 227.6 507.8 227.8Q507.6 228.0 507.3 228.0ZM512.7 237.4L512.7 237.4Q512.0 237.4 511.5 237.2Q511.1 237.0 510.7 236.8Q510.4 236.5 510.2 236.1L510.2 236.1L511.0 235.6Q511.1 235.8 511.3 236.0Q511.5 236.2 511.8 236.4Q512.2 236.5 512.7 236.5L512.7 236.5Q513.4 236.5 513.9 236.2Q514.3 235.8 514.3 235.1L514.3 235.1L514.3 233.9L514.2 233.9Q514.1 234.1 514.0 234.3Q513.8 234.5 513.4 234.7Q513.1 234.9 512.5 234.9L512.5 234.9Q511.8 234.9 511.2 234.6Q510.6 234.2 510.3 233.6Q510.0 232.9 510.0 232.0L510.0 232.0Q510.0 231.0 510.3 230.4Q510.6 229.7 511.2 229.3Q511.8 228.9 512.5 228.9L512.5 228.9Q513.1 228.9 513.5 229.1Q513.8 229.3 514.0 229.5Q514.2 229.8 514.3 230.0L514.3 230.0L514.4 230.0L514.4 229.0L515.3 229.0L515.3 235.2Q515.3 235.9 515.0 236.4Q514.6 236.9 514.0 237.1Q513.4 237.4 512.7 237.4ZM512.7 234.0L512.7 234.0Q513.2 234.0 513.6 233.8Q514.0 233.5 514.2 233.1Q514.4 232.6 514.4 231.9L514.4 231.9Q514.4 231.3 514.2 230.8Q514.0 230.3 513.6 230.1Q513.2 229.8 512.7 229.8L512.7 229.8Q512.1 229.8 511.7 230.1Q511.3 230.4 511.1 230.9Q511.0 231.3 511.0 231.9L511.0 231.9Q511.0 232.6 511.1 233.0Q511.3 233.5 511.7 233.8Q512.1 234.0 512.7 234.0ZM518.8 231.4L518.8 231.4L518.8 235L517.8 235L517.8 229.0L518.7 229.0L518.7 230.1Q519.0 229.5 519.4 229.3L519.4 229.3Q519.9 228.9 520.6 228.9L520.6 228.9Q521.2 228.9 521.6 229.2Q522.1 229.4 522.4 229.9Q522.6 230.4 522.6 231.2L522.6 231.2L522.6 235L521.6 235L521.6 231.3Q521.6 230.6 521.3 230.2Q520.9 229.8 520.3 229.8L520.3 229.8Q519.9 229.8 519.5 230.0Q519.2 230.2 519.0 230.5Q518.8 230.9 518.8 231.4Z "/></g><defs><clipPath id="satori_bc-id-1-3-3" clip-path="url(#satori_cp-id)"><path x="548" y="218" width="161" height="25" d="M560.5,218 h136 a12.5,12.5 0 0 1 12.5,12.5 v0 a12.5,12.5 0 0 1 -12.5,12.5 h-136 a12.5,12.5 0 0 1 -12.5,-12.5 v0 a12.5,12.5 0 0 1 12.5,-12.5"/></clipPath></defs><mask id="satori_om-id-1-3-3"><rect x="549" y="219" width="159" height="23" fill="#fff" mask="url(#satori_om-id)"/><path width="161" height="25" fill="none" stroke="#000" stroke-width="2" d="M551.661,221.661 A12.5,12.5 0 0 1 560.5,218 h136 a12.5,12.5 0 0 1 12.5,12.5 v0 a12.5,12.5 0 0 1 -12.5,12.5 h-136 a12.5,12.5 0 0 1 -12.5,-12.5 v0 A12.5,12.5 0 0 1 551.661,221.661"/></mask><path x="548" y="218" width="161" height="25" fill="rgba(0,229,255,0.04)" d="M560.5,218 h136 a12.5,12.5 0 0 1 12.5,12.5 v0 a12.5,12.5 0 0 1 -12.5,12.5 h-136 a12.5,12.5 0 0 1 -12.5,-12.5 v0 a12.5,12.5 0 0 1 12.5,-12.5" clip-path="url(#satori_cp-id)" mask="url(#satori_om-id)"/><path width="161" height="25" clip-path="url(#satori_bc-id-1-3-3)" fill="none" stroke="rgba(0,229,255,0.12)" stroke-width="2" d="M551.661,221.661 A12.5,12.5 0 0 1 560.5,218 h136 a12.5,12.5 0 0 1 12.5,12.5 v0 a12.5,12.5 0 0 1 -12.5,12.5 h-136 a12.5,12.5 0 0 1 -12.5,-12.5 v0 A12.5,12.5 0 0 1 551.661,221.661"/><g mask="url(#satori_om-id)" clip-path="url(#satori_cp-id)"><path fill="rgba(0,229,255,0.65)" d="M566.5 235L566.5 235L564.0 235L564.0 227.0L566.6 227.0Q567.7 227.0 568.6 227.5Q569.4 228.0 569.8 228.8Q570.3 229.7 570.3 231.0L570.3 231.0Q570.3 232.2 569.8 233.1Q569.4 234.0 568.5 234.5Q567.7 235 566.5 235ZM565.0 227.9L565.0 234.1L566.4 234.1Q567.4 234.1 568.0 233.7Q568.7 233.4 569.0 232.7Q569.3 232.0 569.3 231.0L569.3 231.0Q569.3 230.0 569.0 229.3Q568.7 228.6 568.0 228.3Q567.4 227.9 566.5 227.9L566.5 227.9L565.0 227.9ZM575.1 235.1L575.1 235.1Q574.2 235.1 573.6 234.7Q573.0 234.4 572.6 233.7Q572.3 233.0 572.3 232.0Q572.3 231.1 572.6 230.4Q573.0 229.7 573.6 229.3Q574.2 228.9 575.0 228.9L575.0 228.9Q575.5 228.9 575.9 229.1Q576.4 229.2 576.8 229.6Q577.2 229.9 577.4 230.5Q577.6 231.1 577.6 231.9L577.6 231.9L577.6 232.3L573.3 232.3Q573.3 232.9 573.5 233.3L573.5 233.3Q573.7 233.8 574.2 234.0Q574.6 234.3 575.1 234.3L575.1 234.3Q575.5 234.3 575.8 234.2Q576.1 234.1 576.3 233.9Q576.5 233.7 576.6 233.3L576.6 233.3L577.5 233.6Q577.4 234.1 577.0 234.4Q576.7 234.7 576.2 234.9Q575.7 235.1 575.1 235.1ZM573.3 231.5L573.3 231.5L576.6 231.5Q576.6 231.1 576.5 230.8L576.5 230.8Q576.3 230.3 575.9 230.0Q575.5 229.8 575.0 229.8Q574.5 229.8 574.1 230.0Q573.7 230.3 573.5 230.7L573.5 230.7Q573.3 231.1 573.3 231.5ZM582.6 235L581.5 235L579.2 229.0L580.3 229.0L581.6 232.6Q581.8 233.1 581.9 233.7L581.9 233.7Q582.0 233.9 582.0 234.1L582.0 234.1Q582.1 233.9 582.2 233.7L582.2 233.7Q582.3 233.1 582.5 232.6L582.5 232.6L583.8 229.0L584.8 229.0L582.6 235ZM589.3 235.1L589.3 235.1Q588.4 235.1 587.8 234.7Q587.2 234.4 586.8 233.7Q586.5 233.0 586.5 232.0Q586.5 231.1 586.8 230.4Q587.2 229.7 587.8 229.3Q588.4 228.9 589.2 228.9L589.2 228.9Q589.7 228.9 590.1 229.1Q590.6 229.2 591.0 229.6Q591.4 229.9 591.6 230.5Q591.8 231.1 591.8 231.9L591.8 231.9L591.8 232.3L587.5 232.3Q587.5 232.9 587.7 233.3L587.7 233.3Q587.9 233.8 588.3 234.0Q588.8 234.3 589.3 234.3L589.3 234.3Q589.7 234.3 590.0 234.2Q590.2 234.1 590.5 233.9Q590.7 233.7 590.8 233.3L590.8 233.3L591.7 233.6Q591.6 234.1 591.2 234.4Q590.9 234.7 590.4 234.9Q589.9 235.1 589.3 235.1ZM587.5 231.5L587.5 231.5L590.8 231.5Q590.8 231.1 590.7 230.8L590.7 230.8Q590.5 230.3 590.1 230.0Q589.7 229.8 589.2 229.8Q588.7 229.8 588.3 230.0Q587.9 230.3 587.7 230.7L587.7 230.7Q587.5 231.1 587.5 231.5ZM594.0 227.0L595.0 227.0L595.0 235L594.0 235L594.0 227.0ZM599.9 235.1L599.9 235.1Q599.1 235.1 598.5 234.7Q597.9 234.4 597.5 233.7Q597.2 233.0 597.2 232.0L597.2 232.0Q597.2 231.1 597.5 230.4Q597.9 229.7 598.5 229.3Q599.1 228.9 599.9 228.9L599.9 228.9Q600.7 228.9 601.3 229.3Q602.0 229.7 602.3 230.4Q602.6 231.1 602.6 232.0L602.6 232.0Q602.6 233.0 602.3 233.7Q602.0 234.4 601.3 234.7Q600.7 235.1 599.9 235.1ZM599.9 234.3L599.9 234.3Q600.5 234.3 600.9 234.0Q601.3 233.6 601.5 233.1Q601.7 232.6 601.7 232.0L601.7 232.0Q601.7 231.4 601.5 230.9Q601.3 230.4 600.9 230.1Q600.5 229.8 599.9 229.8L599.9 229.8Q599.3 229.8 598.9 230.1Q598.5 230.4 598.3 230.9Q598.2 231.4 598.2 232.0L598.2 232.0Q598.2 232.6 598.3 233.1Q598.5 233.6 598.9 234.0Q599.3 234.3 599.9 234.3ZM605.8 237.2L604.9 237.2L604.9 229.0L605.8 229.0L605.8 230.0L605.9 230.0Q606.0 229.8 606.2 229.6Q606.4 229.3 606.7 229.1Q607.1 228.9 607.6 228.9L607.6 228.9Q608.4 228.9 609.0 229.3Q609.5 229.7 609.9 230.4Q610.2 231.1 610.2 232.0L610.2 232.0Q610.2 233.0 609.9 233.7Q609.5 234.4 609.0 234.7Q608.4 235.1 607.6 235.1L607.6 235.1Q607.1 235.1 606.7 234.9Q606.4 234.7 606.2 234.5Q606.0 234.2 605.9 234.1L605.9 234.1L605.8 234.1L605.8 237.2ZM607.5 234.3L607.5 234.3Q608.1 234.3 608.4 234.0Q608.8 233.7 609.0 233.1Q609.2 232.6 609.2 232.0L609.2 232.0Q609.2 231.4 609.0 230.9Q608.8 230.4 608.4 230.1Q608.1 229.8 607.5 229.8L607.5 229.8Q606.9 229.8 606.6 230.1Q606.2 230.3 606.0 230.8Q605.8 231.3 605.8 232.0L605.8 232.0Q605.8 232.7 606.0 233.2Q606.2 233.7 606.6 234.0Q607.0 234.3 607.5 234.3ZM614.9 235.1L614.9 235.1Q614.0 235.1 613.4 234.7Q612.8 234.4 612.4 233.7Q612.1 233.0 612.1 232.0Q612.1 231.1 612.4 230.4Q612.8 229.7 613.4 229.3Q614.0 228.9 614.8 228.9L614.8 228.9Q615.3 228.9 615.7 229.1Q616.2 229.2 616.6 229.6Q617.0 229.9 617.2 230.5Q617.4 231.1 617.4 231.9L617.4 231.9L617.4 232.3L613.1 232.3Q613.1 232.9 613.3 233.3L613.3 233.3Q613.5 233.8 614.0 234.0Q614.4 234.3 614.9 234.3L614.9 234.3Q615.3 234.3 615.6 234.2Q615.9 234.1 616.1 233.9Q616.3 233.7 616.4 233.3L616.4 233.3L617.3 233.6Q617.2 234.1 616.8 234.4Q616.5 234.7 616.0 234.9Q615.5 235.1 614.9 235.1ZM613.1 231.5L613.1 231.5L616.4 231.5Q616.4 231.1 616.3 230.8L616.3 230.8Q616.1 230.3 615.7 230.0Q615.3 229.8 614.8 229.8Q614.3 229.8 613.9 230.0Q613.5 230.3 613.3 230.7L613.3 230.7Q613.1 231.1 613.1 231.5ZM620.6 235L619.6 235L619.6 229.0L620.5 229.0L620.5 229.9L620.6 229.9Q620.8 229.5 621.2 229.2Q621.6 228.9 622.2 228.9L622.2 228.9Q622.3 228.9 622.4 228.9Q622.6 228.9 622.6 228.9L622.6 228.9L622.6 229.9Q622.6 229.9 622.4 229.9Q622.3 229.8 622.1 229.8L622.1 229.8Q621.6 229.8 621.3 230.0Q621.0 230.2 620.8 230.5Q620.6 230.8 620.6 231.2L620.6 231.2L620.6 235Z M633.5 235L628.6 235L628.6 227.0L633.4 227.0L633.4 227.9L629.6 227.9L629.6 230.5L633.2 230.5L633.2 231.4L629.6 231.4L629.6 234.1L633.5 234.1L633.5 235ZM636.5 235L635.4 235L637.5 231.9L635.5 229.0L636.6 229.0L637.3 230.2Q637.6 230.6 637.9 231.0L637.9 231.0Q637.9 231.2 638.0 231.3L638.0 231.3Q638.1 231.2 638.2 231.0L638.2 231.0Q638.4 230.6 638.7 230.2L638.7 230.2L639.5 229.0L640.6 229.0L638.6 232.0L640.7 235L639.5 235L638.7 233.7Q638.4 233.2 638.2 232.8L638.2 232.8Q638.1 232.7 638.0 232.5L638.0 232.5Q637.9 232.7 637.8 232.8L637.8 232.8Q637.6 233.2 637.4 233.7L637.4 233.7L636.5 235ZM643.6 237.2L642.7 237.2L642.7 229.0L643.6 229.0L643.6 230.0L643.7 230.0Q643.8 229.8 644.0 229.6Q644.2 229.3 644.5 229.1Q644.9 228.9 645.4 228.9L645.4 228.9Q646.2 228.9 646.8 229.3Q647.3 229.7 647.7 230.4Q648.0 231.1 648.0 232.0L648.0 232.0Q648.0 233.0 647.7 233.7Q647.3 234.4 646.8 234.7Q646.2 235.1 645.4 235.1L645.4 235.1Q644.9 235.1 644.5 234.9Q644.2 234.7 644.0 234.5Q643.8 234.2 643.7 234.1L643.7 234.1L643.6 234.1L643.6 237.2ZM645.3 234.3L645.3 234.3Q645.9 234.3 646.2 234.0Q646.6 233.7 646.8 233.1Q647.0 232.6 647.0 232.0L647.0 232.0Q647.0 231.4 646.8 230.9Q646.6 230.4 646.2 230.1Q645.9 229.8 645.3 229.8L645.3 229.8Q644.7 229.8 644.4 230.1Q644.0 230.3 643.8 230.8Q643.6 231.3 643.6 232.0L643.6 232.0Q643.6 232.7 643.8 233.2Q644.0 233.7 644.4 234.0Q644.8 234.3 645.3 234.3ZM652.7 235.1L652.7 235.1Q651.8 235.1 651.2 234.7Q650.6 234.4 650.2 233.7Q649.9 233.0 649.9 232.0Q649.9 231.1 650.2 230.4Q650.6 229.7 651.2 229.3Q651.8 228.9 652.6 228.9L652.6 228.9Q653.1 228.9 653.5 229.1Q654.0 229.2 654.4 229.6Q654.8 229.9 655.0 230.5Q655.2 231.1 655.2 231.9L655.2 231.9L655.2 232.3L650.9 232.3Q650.9 232.9 651.1 233.3L651.1 233.3Q651.3 233.8 651.8 234.0Q652.2 234.3 652.7 234.3L652.7 234.3Q653.1 234.3 653.4 234.2Q653.7 234.1 653.9 233.9Q654.1 233.7 654.2 233.3L654.2 233.3L655.1 233.6Q655.0 234.1 654.6 234.4Q654.3 234.7 653.8 234.9Q653.3 235.1 652.7 235.1ZM650.9 231.5L650.9 231.5L654.2 231.5Q654.2 231.1 654.1 230.8L654.1 230.8Q653.9 230.3 653.5 230.0Q653.1 229.8 652.6 229.8Q652.1 229.8 651.7 230.0Q651.3 230.3 651.1 230.7L651.1 230.7Q650.9 231.1 650.9 231.5ZM658.4 235L657.4 235L657.4 229.0L658.3 229.0L658.3 229.9L658.4 229.9Q658.6 229.5 659.0 229.2Q659.4 228.9 660.0 228.9L660.0 228.9Q660.1 228.9 660.2 228.9Q660.4 228.9 660.4 228.9L660.4 228.9L660.4 229.9Q660.4 229.9 660.2 229.9Q660.1 229.8 659.9 229.8L659.9 229.8Q659.4 229.8 659.1 230.0Q658.8 230.2 658.6 230.5Q658.4 230.8 658.4 231.2L658.4 231.2L658.4 235ZM663.3 235L662.3 235L662.3 229.0L663.3 229.0L663.3 235ZM662.8 228.0L662.8 228.0Q662.6 228.0 662.4 227.8Q662.2 227.6 662.2 227.4L662.2 227.4Q662.2 227.1 662.4 226.9Q662.6 226.7 662.8 226.7L662.8 226.7Q663.1 226.7 663.3 226.9Q663.5 227.1 663.5 227.4L663.5 227.4Q663.5 227.6 663.3 227.8Q663.1 228.0 662.8 228.0ZM668.3 235.1L668.3 235.1Q667.5 235.1 666.8 234.7Q666.2 234.4 665.9 233.7Q665.5 233.0 665.5 232.0Q665.5 231.1 665.9 230.4Q666.2 229.7 666.8 229.3Q667.4 228.9 668.2 228.9L668.2 228.9Q668.7 228.9 669.2 229.1Q669.6 229.2 670.0 229.6Q670.4 229.9 670.6 230.5Q670.8 231.1 670.8 231.9L670.8 231.9L670.8 232.3L666.5 232.3Q666.5 232.9 666.7 233.3L666.7 233.3Q667.0 233.8 667.4 234.0Q667.8 234.3 668.3 234.3L668.3 234.3Q668.7 234.3 669.0 234.2Q669.3 234.1 669.5 233.9Q669.7 233.7 669.8 233.3L669.8 233.3L670.7 233.6Q670.6 234.1 670.3 234.4Q669.9 234.7 669.4 234.9Q669.0 235.1 668.3 235.1ZM666.5 231.5L666.5 231.5L669.9 231.5Q669.8 231.1 669.7 230.8L669.7 230.8Q669.5 230.3 669.1 230.0Q668.8 229.8 668.2 229.8Q667.7 229.8 667.3 230.0Q666.9 230.3 666.7 230.7L666.7 230.7Q666.5 231.1 666.5 231.5ZM674.0 231.4L674.0 231.4L674.0 235L673.0 235L673.0 229.0L674.0 229.0L674.0 230.1Q674.2 229.5 674.6 229.3L674.6 229.3Q675.1 228.9 675.8 228.9L675.8 228.9Q676.4 228.9 676.9 229.2Q677.3 229.4 677.6 229.9Q677.8 230.4 677.8 231.2L677.8 231.2L677.8 235L676.9 235L676.9 231.3Q676.9 230.6 676.5 230.2Q676.1 229.8 675.5 229.8L675.5 229.8Q675.1 229.8 674.7 230.0Q674.4 230.2 674.2 230.5Q674.0 230.9 674.0 231.4ZM682.8 235.1L682.8 235.1Q681.9 235.1 681.3 234.7Q680.7 234.4 680.4 233.7Q680.0 233.0 680.0 232.0L680.0 232.0Q680.0 231.1 680.4 230.4Q680.7 229.7 681.3 229.3Q681.9 228.9 682.8 228.9L682.8 228.9Q683.2 228.9 683.6 229.0Q684.0 229.1 684.3 229.4Q684.6 229.6 684.8 229.9Q685.1 230.2 685.2 230.6L685.2 230.6L684.3 230.8Q684.2 230.6 684.1 230.4Q683.9 230.2 683.7 230.1Q683.6 229.9 683.3 229.9Q683.1 229.8 682.8 229.8L682.8 229.8Q682.2 229.8 681.8 230.1Q681.4 230.4 681.2 230.9Q681.0 231.4 681.0 232.0L681.0 232.0Q681.0 232.6 681.2 233.1Q681.4 233.6 681.8 234.0Q682.2 234.3 682.8 234.3L682.8 234.3Q683.1 234.3 683.3 234.2Q683.6 234.1 683.8 234.0Q684.0 233.8 684.1 233.6Q684.2 233.4 684.3 233.2L684.3 233.2L685.2 233.4Q685.1 233.8 684.9 234.1Q684.6 234.5 684.3 234.7Q684.0 234.9 683.6 235.0Q683.2 235.1 682.8 235.1ZM689.9 235.1L689.9 235.1Q689.1 235.1 688.4 234.7Q687.8 234.4 687.5 233.7Q687.1 233.0 687.1 232.0Q687.1 231.1 687.4 230.4Q687.8 229.7 688.4 229.3Q689.0 228.9 689.8 228.9L689.8 228.9Q690.3 228.9 690.8 229.1Q691.2 229.2 691.6 229.6Q692.0 229.9 692.2 230.5Q692.4 231.1 692.4 231.9L692.4 231.9L692.4 232.3L688.1 232.3Q688.1 232.9 688.3 233.3L688.3 233.3Q688.6 233.8 689.0 234.0Q689.4 234.3 689.9 234.3L689.9 234.3Q690.3 234.3 690.6 234.2Q690.9 234.1 691.1 233.9Q691.3 233.7 691.4 233.3L691.4 233.3L692.3 233.6Q692.2 234.1 691.9 234.4Q691.5 234.7 691.0 234.9Q690.5 235.1 689.9 235.1ZM688.1 231.5L688.1 231.5L691.4 231.5Q691.4 231.1 691.3 230.8L691.3 230.8Q691.1 230.3 690.7 230.0Q690.4 229.8 689.8 229.8Q689.3 229.8 688.9 230.0Q688.5 230.3 688.3 230.7L688.3 230.7Q688.1 231.1 688.1 231.5Z "/></g></svg>