<!-- Generated by readme-aura https://github.com/collectioneur/readme-aura -->
<svg width="140" height="44" viewBox="0 0 140 44" xmlns="http://www.w3.org/2000/svg"><mask id="satori_om-id"><rect x="0" y="0" width="140" height="44" fill="#fff"/></mask><path x="0" y="0" width="140" height="44" fill="#0a0a12" d="M22,0 h96 a22,22 0 0 1 22,22 v0 a22,22 0 0 1 -22,22 h-96 a22,22 0 0 1 -22,-22 v0 a22,22 0 0 1 22,-22"/><clipPath id="satori_cp-id-0"><rect x="0" y="0" width="140" height="44"/></clipPath><mask id="satori_om-id-0"><rect x="0" y="0" width="140" height="44" fill="#fff"/></mask><svg x="0" y="0" width="140" height="44" preserveAspectRatio="none" clip-path="url(#satori_cp-id-0)" mask="url(#satori_om-id-0)"><defs><linearGradient id="smb-grad-LinkedIn" gradientUnits="objectBoundingBox" x1="0" y1="0" x2="1" y2="1"><stop offset="0%" stop-color="#0A66C2"></stop><stop offset="20%" stop-color="#111122"></stop><stop offset="50%" stop-color="#00e5ff"></stop><stop offset="80%" stop-color="#111122"></stop><stop offset="100%" stop-color="#0A66C2"></stop><animateTransform attributeName="gradientTransform" type="rotate" from="0 0.5 0.5" to="360 0.5 0.5" dur="8s" repeatCount="indefinite"></animateTransform></linearGradient></defs><rect x="1.25" y="1.25" width="137.5" height="41.5" rx="20.75" ry="20.75" fill="none" stroke="url(#smb-grad-LinkedIn)" stroke-width="2" stroke-linecap="round" stroke-linejoin="round"></rect><rect x="0.25" y="0.25" width="139.5" height="43.5" rx="21.75" ry="21.75" fill="none" stroke="#AAAAAA" stroke-width="0.5" stroke-linecap="round" stroke-linejoin="round"></rect></svg><mask id="satori_om-id-0-0"><rect x="0" y="0" width="0" height="44" fill="#fff"/></mask><mask id="satori_om-id-0-0-0"><rect x="0" y="0" width="0" height="44" fill="#fff"/></mask><mask id="satori_om-id-0-0-0-0"><rect x="0" y="0" width="0" height="44" fill="#fff"/></mask><mask id="satori_om-id-0-0-0-1"><rect x="0" y="0" width="0" height="44" fill="#fff"/></mask><mask id="satori_om-id-0-0-0-2"><rect x="0" y="0" width="0" height="44" fill="#fff"/></mask><mask id="satori_om-id-0-0-0-3"><rect x="0" y="0" width="0" height="44" fill="#fff"/></mask><mask id="satori_om-id-0-0-0-4"><rect x="0" y="0" width="0" height="44" fill="#fff"/></mask><mask id="satori_om-id-0-0-0-5"><rect x="0" y="0" width="0" height="44" fill="#fff"/></mask><mask id="satori_om-id-0-1"><rect x="0" y="0" width="0" height="44" fill="#fff"/></mask><mask id="satori_om-id-0-2"><rect x="0" y="0" width="0" height="44" fill="#fff"/></mask><mask id="satori_om-id-1"><rect x="0" y="0" width="140" height="44" fill="#fff"/></mask><mask id="satori_om-id-1-0"><rect x="32" y="13" width="18" height="18" fill="#fff"/></mask><mask id="satori_om-id-1-1"><rect x="55" y="14" width="53" height="16" fill="#fff"/></mask><g  ><path fill="#c0c8e0" d="M61.9 27L55.9 27L55.9 17.5L57.8 17.5L57.8 25.4L61.9 25.4L61.9 27ZM64.9 27L63.0 27L63.0 19.9L64.9 19.9L64.9 27ZM63.9 19.0L63.9 19.0Q63.5 19.0 63.2 18.7Q62.9 18.4 62.9 18.0L62.9 18.0Q62.9 17.6 63.2 17.3Q63.5 17.0 63.9 17.0L63.9 17.0Q64.3 17.0 64.7 17.3Q65.0 17.6 65.0 18.0L65.0 18.0Q65.0 18.4 64.7 18.7Q64.3 19.0 63.9 19.0ZM68.2 22.9L68.2 22.9L68.2 27L66.3 27L66.3 19.9L68.1 19.9L68.1 21.4Q68.4 20.7 68.9 20.3L68.9 20.3Q69.4 19.8 70.3 19.8L70.3 19.8Q71.1 19.8 71.6 20.1Q72.2 20.5 72.5 21.1Q72.8 21.7 72.8 22.5L72.8 22.5L72.8 27L70.8 27L70.8 22.8Q70.8 22.2 70.5 21.8Q70.2 21.4 69.6 21.4L69.6 21.4Q69.2 21.4 68.9 21.6Q68.5 21.8 68.4 22.1Q68.2 22.4 68.2 22.9ZM76.1 27L74.2 27L74.2 17.5L76.1 17.5L76.1 22.6L76.2 22.6L78.5 19.9L80.7 19.9L78.1 23.0L80.9 27L78.6 27L76.6 24.1L76.1 24.7L76.1 27ZM84.7 27.1L84.7 27.1Q83.6 27.1 82.9 26.7Q82.1 26.3 81.6 25.4Q81.2 24.6 81.2 23.5L81.2 23.5Q81.2 22.4 81.6 21.6Q82.1 20.7 82.8 20.3Q83.6 19.8 84.6 19.8L84.6 19.8Q85.3 19.8 85.9 20.0Q86.5 20.3 87.0 20.7Q87.4 21.2 87.7 21.8Q88.0 22.5 88.0 23.4L88.0 23.4L88.0 23.9L83.1 23.9Q83.1 24.5 83.3 24.9L83.3 24.9Q83.5 25.3 83.9 25.5Q84.3 25.7 84.8 25.7L84.8 25.7Q85.1 25.7 85.4 25.6Q85.6 25.5 85.8 25.3Q86.0 25.1 86.1 24.9L86.1 24.9L87.9 25.2Q87.7 25.8 87.3 26.2Q86.8 26.7 86.2 26.9Q85.6 27.1 84.7 27.1ZM83.1 22.8L83.1 22.8L86.1 22.8Q86.1 22.4 86.0 22.1L86.0 22.1Q85.8 21.7 85.5 21.5Q85.1 21.2 84.6 21.2L84.6 21.2Q84.2 21.2 83.8 21.5Q83.5 21.7 83.3 22.1L83.3 22.1Q83.2 22.4 83.1 22.8ZM91.7 27.1L91.7 27.1Q90.8 27.1 90.2 26.7Q89.5 26.3 89.1 25.5Q88.8 24.6 88.8 23.5L88.8 23.5Q88.8 22.3 89.2 21.4Q89.6 20.6 90.2 20.2Q90.9 19.8 91.6 19.8L91.6 19.8Q92.3 19.8 92.7 20.0Q93.1 20.2 93.3 20.5Q93.5 20.8 93.7 21.1L93.7 21.1L93.7 21.1L93.7 17.5L95.6 17.5L95.6 27L93.8 27L93.8 25.9L93.7 25.9Q93.5 26.1 93.3 26.4Q93.0 26.7 92.6 26.9Q92.2 27.1 91.7 27.1ZM92.2 25.6L92.2 25.6Q92.7 25.6 93.1 25.3Q93.4 25.1 93.6 24.6Q93.8 24.1 93.8 23.5L93.8 23.5Q93.8 22.8 93.6 22.3Q93.4 21.9 93.1 21.6Q92.7 21.3 92.2 21.3L92.2 21.3Q91.7 21.3 91.4 21.6Q91.1 21.9 90.9 22.4Q90.7 22.8 90.7 23.5L90.7 23.5Q90.7 24.1 90.9 24.6Q91.1 25.0 91.4 25.3Q91.7 25.6 92.2 25.6ZM97.1 17.5L99.0 17.5L99.0 27L97.1 27L97.1 17.5ZM102.4 22.9L102.4 22.9L102.4 27L100.5 27L100.5 19.9L102.3 19.9L102.3 21.4Q102.6 20.7 103.1 20.3L103.1 20.3Q103.6 19.8 104.5 19.8L104.5 19.8Q105.3 19.8 105.8 20.1Q106.4 20.5 106.7 21.1Q107.0 21.7 107.0 22.5L107.0 22.5L107.0 27L105.1 27L105.1 22.8Q105.1 22.2 104.7 21.8Q104.4 21.4 103.8 21.4L103.8 21.4Q103.4 21.4 103.1 21.6Q102.8 21.8 102.6 22.1Q102.4 22.4 102.4 22.9Z "/></g></svg>