<!-- Generated by readme-aura https://github.com/collectioneur/readme-aura -->
<svg width="120" height="44" viewBox="0 0 120 44" xmlns="http://www.w3.org/2000/svg"><mask id="satori_om-id"><rect x="0" y="0" width="120" height="44" fill="#fff"/></mask><path x="0" y="0" width="120" height="44" fill="#0a0a12" d="M22,0 h76 a22,22 0 0 1 22,22 v0 a22,22 0 0 1 -22,22 h-76 a22,22 0 0 1 -22,-22 v0 a22,22 0 0 1 22,-22"/><clipPath id="satori_cp-id-0"><rect x="0" y="0" width="120" height="44"/></clipPath><mask id="satori_om-id-0"><rect x="0" y="0" width="120" height="44" fill="#fff"/></mask><svg x="0" y="0" width="120" height="44" preserveAspectRatio="none" clip-path="url(#satori_cp-id-0)" mask="url(#satori_om-id-0)"><defs><linearGradient id="smb-grad-Email" gradientUnits="objectBoundingBox" x1="0" y1="0" x2="1" y2="1"><stop offset="0%" stop-color="#EA4335"></stop><stop offset="20%" stop-color="#111122"></stop><stop offset="50%" stop-color="#ec4899"></stop><stop offset="80%" stop-color="#111122"></stop><stop offset="100%" stop-color="#EA4335"></stop><animateTransform attributeName="gradientTransform" type="rotate" from="0 0.5 0.5" to="360 0.5 0.5" dur="8s" repeatCount="indefinite"></animateTransform></linearGradient></defs><rect x="1.25" y="1.25" width="117.5" height="41.5" rx="20.75" ry="20.75" fill="none" stroke="url(#smb-grad-Email)" stroke-width="2" stroke-linecap="round" stroke-linejoin="round"></rect><rect x="0.25" y="0.25" width="119.5" height="43.5" rx="21.75" ry="21.75" fill="none" stroke="#AAAAAA" stroke-width="0.5" stroke-linecap="round" stroke-linejoin="round"></rect></svg><mask id="satori_om-id-0-0"><rect x="0" y="0" width="0" height="44" fill="#fff"/></mask><mask id="satori_om-id-0-0-0"><rect x="0" y="0" width="0" height="44" fill="#fff"/></mask><mask id="satori_om-id-0-0-0-0"><rect x="0" y="0" width="0" height="44" fill="#fff"/></mask><mask id="satori_om-id-0-0-0-1"><rect x="0" y="0" width="0" height="44" fill="#fff"/></mask><mask id="satori_om-id-0-0-0-2"><rect x="0" y="0" width="0" height="44" fill="#fff"/></mask><mask id="satori_om-id-0-0-0-3"><rect x="0" y="0" width="0" height="44" fill="#fff"/></mask><mask id="satori_om-id-0-0-0-4"><rect x="0" y="0" width="0" height="44" fill="#fff"/></mask><mask id="satori_om-id-0-0-0-5"><rect x="0" y="0" width="0" height="44" fill="#fff"/></mask><mask id="satori_om-id-0-1"><rect x="0" y="0" width="0" height="44" fill="#fff"/></mask><mask id="satori_om-id-0-2"><rect x="0" y="0" width="0" height="44" fill="#fff"/></mask><mask id="satori_om-id-1"><rect x="0" y="0" width="120" height="44" fill="#fff"/></mask><mask id="satori_om-id-1-0"><rect x="32" y="13" width="18" height="18" fill="#fff"/></mask><mask id="satori_om-id-1-1"><rect x="55" y="14" width="34" height="16" fill="#fff"/></mask><g  ><path fill="#c0c8e0" d="M62.2 27L55.9 27L55.9 17.5L62.2 17.5L62.2 19.1L57.8 19.1L57.8 21.4L61.9 21.4L61.9 23.0L57.8 23.0L57.8 25.4L62.2 25.4L62.2 27ZM65.4 27L63.5 27L63.5 19.9L65.3 19.9L65.3 21.3Q65.5 20.9 65.7 20.6L65.7 20.6Q66.0 20.2 66.5 20.0Q66.9 19.8 67.4 19.8L67.4 19.8Q68.1 19.8 68.6 20.3L68.6 20.3Q69.0 20.7 69.2 21.4L69.2 21.4Q69.4 21.0 69.6 20.7L69.6 20.7Q70.0 20.2 70.5 20.0Q70.9 19.8 71.5 19.8L71.5 19.8Q72.1 19.8 72.6 20.1Q73.2 20.4 73.5 20.9Q73.7 21.4 73.7 22.2L73.7 22.2L73.7 27L71.8 27L71.8 22.6Q71.8 22.0 71.5 21.7Q71.2 21.4 70.7 21.4L70.7 21.4Q70.4 21.4 70.1 21.5Q69.8 21.7 69.7 22.0Q69.5 22.3 69.5 22.6L69.5 22.6L69.5 27L67.7 27L67.7 22.5Q67.7 22.0 67.4 21.7Q67.1 21.4 66.6 21.4L66.6 21.4Q66.3 21.4 66.0 21.5Q65.7 21.7 65.6 22.0Q65.4 22.3 65.4 22.7L65.4 22.7L65.4 27ZM77.2 27.1L77.2 27.1Q76.5 27.1 75.9 26.9Q75.4 26.7 75.1 26.2Q74.8 25.7 74.8 25.0L74.8 25.0Q74.8 24.4 75.0 24.0Q75.2 23.6 75.6 23.4Q76.0 23.1 76.5 23.0Q76.9 22.9 77.5 22.8L77.5 22.8Q78.1 22.8 78.5 22.7Q78.8 22.7 79.0 22.5Q79.2 22.4 79.2 22.2L79.2 22.2L79.2 22.2Q79.2 21.9 79.1 21.7Q78.9 21.4 78.7 21.3Q78.4 21.2 78.1 21.2L78.1 21.2Q77.7 21.2 77.4 21.3Q77.2 21.4 77.0 21.6Q76.8 21.8 76.7 22.0L76.7 22.0L75.0 21.8Q75.2 21.1 75.6 20.7Q76.0 20.3 76.7 20.0Q77.3 19.8 78.1 19.8L78.1 19.8Q78.7 19.8 79.2 20.0Q79.7 20.1 80.2 20.4Q80.6 20.7 80.8 21.1Q81.1 21.6 81.1 22.2L81.1 22.2L81.1 27L79.3 27L79.3 26.0L79.2 26.0Q79.1 26.3 78.8 26.6Q78.5 26.8 78.1 27.0Q77.7 27.1 77.2 27.1ZM77.7 25.8L77.7 25.8Q78.1 25.8 78.5 25.6Q78.8 25.4 79.0 25.1Q79.2 24.8 79.2 24.5L79.2 24.5L79.2 23.7Q79.1 23.8 78.9 23.8Q78.8 23.9 78.6 23.9Q78.4 23.9 78.2 24.0Q78.0 24.0 77.8 24.0L77.8 24.0Q77.4 24.1 77.2 24.2Q76.9 24.3 76.8 24.5Q76.6 24.7 76.6 25.0L76.6 25.0Q76.6 25.2 76.8 25.4Q76.9 25.6 77.1 25.7Q77.4 25.8 77.7 25.8ZM84.4 27L82.5 27L82.5 19.9L84.4 19.9L84.4 27ZM83.5 19.0L83.5 19.0Q83.0 19.0 82.7 18.7Q82.4 18.4 82.4 18.0L82.4 18.0Q82.4 17.6 82.7 17.3Q83.0 17.0 83.5 17.0L83.5 17.0Q83.9 17.0 84.2 17.3Q84.5 17.6 84.5 18.0L84.5 18.0Q84.5 18.4 84.2 18.7Q83.9 19.0 83.5 19.0ZM85.8 17.5L87.7 17.5L87.7 27L85.8 27L85.8 17.5Z "/></g></svg>