<!-- Generated by readme-aura https://github.com/collectioneur/readme-aura -->
<svg width="860" height="80" viewBox="0 0 860 80" xmlns="http://www.w3.org/2000/svg"><defs><clipPath id="satori_bc-id"><path x="0" y="0" width="860" height="80" d="M16,0 h828 a16,16 0 0 1 16,16 v48 a16,16 0 0 1 -16,16 h-828 a16,16 0 0 1 -16,-16 v-48 a16,16 0 0 1 16,-16"/></clipPath></defs><clipPath id="satori_cp-id"><path x="0" y="0" width="860" height="80" d="M16,0 h828 a16,16 0 0 1 16,16 v48 a16,16 0 0 1 -16,16 h-828 a16,16 0 0 1 -16,-16 v-48 a16,16 0 0 1 16,-16"/></clipPath><mask id="satori_om-id"><rect x="1" y="1" width="858" height="78" fill="#fff"/><path width="860" height="80" fill="none" stroke="#000" stroke-width="2" d="M4.686,4.686 A16,16 0 0 1 16,0 h828 a16,16 0 0 1 16,16 v48 a16,16 0 0 1 -16,16 h-828 a16,16 0 0 1 -16,-16 v-48 A16,16 0 0 1 4.686,4.686"/></mask><path x="0" y="0" width="860" height="80" fill="#06060a" d="M16,0 h828 a16,16 0 0 1 16,16 v48 a16,16 0 0 1 -16,16 h-828 a16,16 0 0 1 -16,-16 v-48 a16,16 0 0 1 16,-16"/><path width="860" height="80" clip-path="url(#satori_bc-id)" fill="none" stroke="rgba(0,229,255,0.05)" stroke-width="2" d="M4.686,4.686 A16,16 0 0 1 16,0 h828 a16,16 0 0 1 16,16 v48 a16,16 0 0 1 -16,16 h-828 a16,16 0 0 1 -16,-16 v-48 A16,16 0 0 1 4.686,4.686"/><clipPath id="satori_cp-id-0" clip-path="url(#satori_cp-id)"><rect x="1" y="1" width="860" height="80"/></clipPath><mask id="satori_om-id-0"><rect x="1" y="1" width="860" height="80" fill="#fff" mask="url(#satori_om-id)"/></mask><svg x="1" y="1" width="860" height="80" preserveAspectRatio="none" clip-path="url(#satori_cp-id-0)" mask="url(#satori_om-id-0)"><defs><linearGradient id="fsg" x1="0" y1="0" x2="0" y2="1"><stop offset="0%" stop-color="rgba(0,229,255,0)"></stop><stop offset="45%" stop-color="rgba(0,229,255,0.03)"></stop><stop offset="50%" stop-color="rgba(0,229,255,0.08)"></stop><stop offset="55%" stop-color="rgba(0,229,255,0.03)"></stop><stop offset="100%" stop-color="rgba(0,229,255,0)"></stop></linearGradient><radialGradient id="ftg1" cx="50%" cy="50%" r="50%"><stop offset="0%" stop-color="rgba(139,92,246,0.25)"></stop><stop offset="100%" stop-color="rgba(139,92,246,0)"></stop></radialGradient></defs><line x1="0" y1="1" x2="860" y2="1" stroke="rgba(0,229,255,0.06)" stroke-width="1"></line><ellipse id="ftorb1" cx="430" cy="40" rx="300" ry="60" fill="url(#ftg1)"></ellipse><rect id="ftscan" x="0" y="0" width="860" height="80" fill="url(#fsg)"></rect><style>

    @keyframes ft-scan { 0% { transform: translateY(-80px); } 100% { transform: translateY(80px); } }
    @keyframes ft-pulse { 0%, 100% { opacity: 0.3; } 50% { opacity: 0.7; } }
    @keyframes ft-orb { 0%, 100% { transform: translate(0,0); opacity: 0.25; } 50% { transform: translate(30px,-10px); opacity: 0.45; } }
    #ftscan { animation: ft-scan 4s linear infinite; }
    #ftd1 { animation: ft-pulse 3s ease-in-out infinite; }
    #ftd2 { animation: ft-pulse 3s ease-in-out infinite 1s; }
    #ftd3 { animation: ft-pulse 3s ease-in-out infinite 2s; }
    #ftorb1 { animation: ft-orb 8s ease-in-out infinite; }
  
</style>
</svg><mask id="satori_om-id-0-0"><rect x="1" y="1" width="0" height="80" fill="#fff" mask="url(#satori_om-id)"/></mask><mask id="satori_om-id-0-0-0"><rect x="1" y="1" width="0" height="80" fill="#fff" mask="url(#satori_om-id)"/></mask><mask id="satori_om-id-0-0-0-0"><rect x="1" y="1" width="0" height="80" fill="#fff" mask="url(#satori_om-id)"/></mask><mask id="satori_om-id-0-0-0-1"><rect x="1" y="1" width="0" height="80" fill="#fff" mask="url(#satori_om-id)"/></mask><mask id="satori_om-id-0-0-0-2"><rect x="1" y="1" width="0" height="80" fill="#fff" mask="url(#satori_om-id)"/></mask><mask id="satori_om-id-0-0-0-3"><rect x="1" y="1" width="0" height="80" fill="#fff" mask="url(#satori_om-id)"/></mask><mask id="satori_om-id-0-0-0-4"><rect x="1" y="1" width="0" height="80" fill="#fff" mask="url(#satori_om-id)"/></mask><mask id="satori_om-id-0-0-1"><rect x="1" y="1" width="0" height="80" fill="#fff" mask="url(#satori_om-id)"/></mask><mask id="satori_om-id-0-0-1-0"><rect x="1" y="1" width="0" height="80" fill="#fff" mask="url(#satori_om-id)"/></mask><mask id="satori_om-id-0-0-1-1"><rect x="1" y="1" width="0" height="80" fill="#fff" mask="url(#satori_om-id)"/></mask><mask id="satori_om-id-0-1"><rect x="1" y="1" width="0" height="80" fill="#fff" mask="url(#satori_om-id)"/></mask><mask id="satori_om-id-0-2"><rect x="1" y="1" width="0" height="80" fill="#fff" mask="url(#satori_om-id)"/></mask><mask id="satori_om-id-0-3"><rect x="1" y="1" width="0" height="80" fill="#fff" mask="url(#satori_om-id)"/></mask><mask id="satori_om-id-1"><rect x="418" y="28" width="24" height="4" fill="#fff" mask="url(#satori_om-id)"/></mask><mask id="satori_om-id-1-0"><rect x="418" y="28" width="4" height="4" fill="#fff" mask="url(#satori_om-id)"/></mask><path x="418" y="28" width="4" height="4" fill="rgba(0,229,255,0.6)" d="M420,28 h0 a2,2 0 0 1 2,2 v0 a2,2 0 0 1 -2,2 h0 a2,2 0 0 1 -2,-2 v0 a2,2 0 0 1 2,-2" clip-path="url(#satori_cp-id)" mask="url(#satori_om-id)"/><mask id="satori_om-id-1-1"><rect x="428" y="28" width="4" height="4" fill="#fff" mask="url(#satori_om-id)"/></mask><path x="428" y="28" width="4" height="4" fill="rgba(139,92,246,0.6)" d="M430,28 h0 a2,2 0 0 1 2,2 v0 a2,2 0 0 1 -2,2 h0 a2,2 0 0 1 -2,-2 v0 a2,2 0 0 1 2,-2" clip-path="url(#satori_cp-id)" mask="url(#satori_om-id)"/><mask id="satori_om-id-1-2"><rect x="438" y="28" width="4" height="4" fill="#fff" mask="url(#satori_om-id)"/></mask><path x="438" y="28" width="4" height="4" fill="rgba(236,72,153,0.6)" d="M440,28 h0 a2,2 0 0 1 2,2 v0 a2,2 0 0 1 -2,2 h0 a2,2 0 0 1 -2,-2 v0 a2,2 0 0 1 2,-2" clip-path="url(#satori_cp-id)" mask="url(#satori_om-id)"/><mask id="satori_om-id-2"><rect x="232" y="40" width="397" height="13" fill="#fff" mask="url(#satori_om-id)"/></mask><g mask="url(#satori_om-id)" clip-path="url(#satori_cp-id)"><path fill="rgba(255,255,255,0.20)" d="M235.3 51.1L235.3 51.1Q234.5 51.1 233.9 50.7Q233.2 50.4 232.9 49.7Q232.6 49.0 232.6 48.0L232.6 48.0Q232.6 47.1 232.9 46.4Q233.2 45.7 233.9 45.3Q234.5 44.9 235.3 44.9L235.3 44.9Q235.7 44.9 236.1 45.0Q236.5 45.1 236.8 45.4Q237.1 45.6 237.4 45.9Q237.6 46.2 237.7 46.6L237.7 46.6L236.8 46.8Q236.7 46.6 236.6 46.4Q236.5 46.2 236.3 46.1Q236.1 45.9 235.8 45.9Q235.6 45.8 235.3 45.8L235.3 45.8Q234.7 45.8 234.3 46.1Q233.9 46.4 233.7 46.9Q233.5 47.4 233.5 48.0L233.5 48.0Q233.5 48.6 233.7 49.1Q233.9 49.6 234.3 50.0Q234.7 50.3 235.3 50.3L235.3 50.3Q235.6 50.3 235.8 50.2Q236.1 50.1 236.3 50.0Q236.5 49.8 236.6 49.6Q236.8 49.4 236.8 49.2L236.8 49.2L237.7 49.4Q237.6 49.8 237.4 50.1Q237.2 50.5 236.8 50.7Q236.5 50.9 236.1 51.0Q235.7 51.1 235.3 51.1ZM243.1 51L242.1 51L242.1 45.0L243.1 45.0L243.1 45.9L243.1 45.9Q243.3 45.5 243.7 45.2Q244.2 44.9 244.7 44.9L244.7 44.9Q244.8 44.9 244.9 44.9Q245.1 44.9 245.2 44.9L245.2 44.9L245.2 45.9Q245.1 45.9 245.0 45.9Q244.8 45.8 244.6 45.8L244.6 45.8Q244.2 45.8 243.8 46.0Q243.5 46.2 243.3 46.5Q243.1 46.8 243.1 47.2L243.1 47.2L243.1 51ZM251.0 51.1L251.0 51.1Q250.4 51.1 249.9 50.9Q249.5 50.7 249.2 50.3Q248.9 49.9 248.9 49.3L248.9 49.3Q248.9 48.8 249.1 48.5Q249.3 48.1 249.7 47.9Q250.0 47.8 250.4 47.7Q250.8 47.6 251.2 47.5L251.2 47.5Q251.8 47.5 252.1 47.4Q252.5 47.4 252.6 47.3Q252.8 47.2 252.8 47.0L252.8 47.0L252.8 46.9Q252.8 46.6 252.6 46.3Q252.5 46.0 252.2 45.9Q251.9 45.8 251.5 45.8L251.5 45.8Q251.1 45.8 250.8 45.9Q250.5 46.0 250.3 46.2Q250.1 46.4 250.0 46.6L250.0 46.6L249.1 46.3Q249.3 45.8 249.7 45.5Q250.1 45.2 250.6 45.0Q251.0 44.9 251.5 44.9L251.5 44.9Q251.8 44.9 252.2 45.0Q252.6 45.1 252.9 45.3Q253.3 45.5 253.5 45.9Q253.8 46.3 253.8 47.0L253.8 47.0L253.8 51L252.8 51L252.8 50.2L252.7 50.2Q252.6 50.4 252.4 50.6Q252.2 50.8 251.8 51.0Q251.5 51.1 251.0 51.1ZM251.1 50.3L251.1 50.3Q251.7 50.3 252.0 50.1Q252.4 49.9 252.6 49.5Q252.8 49.2 252.8 48.8L252.8 48.8L252.8 48.0Q252.7 48.1 252.5 48.1Q252.3 48.2 252.1 48.2Q251.8 48.3 251.6 48.3Q251.3 48.3 251.2 48.3L251.2 48.3Q250.9 48.4 250.5 48.5Q250.2 48.6 250.1 48.8Q249.9 49.0 249.9 49.3L249.9 49.3Q249.9 49.7 250.0 49.9Q250.2 50.1 250.5 50.2Q250.8 50.3 251.1 50.3ZM259.9 45.0L261.2 45.0L261.2 45.8L259.9 45.8L259.9 51L258.9 51L258.9 45.8L257.7 45.8L257.7 45.0L258.9 45.0L258.9 44.2Q258.9 43.7 259.1 43.3Q259.4 43.0 259.8 42.8Q260.2 42.6 260.6 42.6L260.6 42.6Q260.9 42.6 261.2 42.7Q261.4 42.7 261.5 42.8L261.5 42.8L261.2 43.6Q261.2 43.6 261.0 43.6Q260.9 43.5 260.7 43.5L260.7 43.5Q260.3 43.5 260.1 43.7Q259.9 44.0 259.9 44.4L259.9 44.4L259.9 45.0ZM266.6 45.0L267.9 45.0L267.9 45.8L266.6 45.8L266.6 49.4Q266.6 49.8 266.8 50.0Q267.0 50.2 267.4 50.2L267.4 50.2Q267.5 50.2 267.6 50.2Q267.7 50.2 267.9 50.2L267.9 50.2L268.1 51.0Q267.9 51.0 267.7 51.0Q267.5 51.1 267.3 51.1L267.3 51.1Q266.6 51.1 266.1 50.7Q265.7 50.3 265.7 49.5L265.7 49.5L265.7 45.8L264.8 45.8L264.8 45.0L265.7 45.0L265.7 43.6L266.6 43.6L266.6 45.0ZM274.6 51.1L274.6 51.1Q273.8 51.1 273.1 50.7Q272.5 50.4 272.2 49.7Q271.8 49.0 271.8 48.0Q271.8 47.1 272.2 46.4Q272.5 45.7 273.1 45.3Q273.7 44.9 274.5 44.9L274.5 44.9Q275.0 44.9 275.5 45.1Q275.9 45.2 276.3 45.6Q276.7 45.9 276.9 46.5Q277.1 47.1 277.1 47.9L277.1 47.9L277.1 48.3L272.8 48.3Q272.8 48.9 273.0 49.3L273.0 49.3Q273.3 49.8 273.7 50.0Q274.1 50.3 274.7 50.3L274.7 50.3Q275.0 50.3 275.3 50.2Q275.6 50.1 275.8 49.9Q276.0 49.7 276.1 49.3L276.1 49.3L277.1 49.6Q276.9 50.1 276.6 50.4Q276.2 50.7 275.8 50.9Q275.3 51.1 274.6 51.1ZM272.8 47.5L272.8 47.5L276.2 47.5Q276.1 47.1 276.0 46.8L276.0 46.8Q275.8 46.3 275.4 46.0Q275.1 45.8 274.5 45.8Q274.0 45.8 273.6 46.0Q273.2 46.3 273.0 46.7L273.0 46.7Q272.8 47.1 272.8 47.5ZM283.8 51.1L283.8 51.1Q283.0 51.1 282.5 50.7Q281.9 50.4 281.6 49.7Q281.2 49.0 281.2 48.0L281.2 48.0Q281.2 47.1 281.6 46.4Q281.9 45.7 282.5 45.3Q283.0 44.9 283.8 44.9L283.8 44.9Q284.4 44.9 284.7 45.1Q285.1 45.3 285.2 45.6Q285.4 45.8 285.5 46.0L285.5 46.0L285.6 46.0L285.6 43.0L286.6 43.0L286.6 51L285.6 51L285.6 50.1L285.5 50.1Q285.4 50.2 285.2 50.5Q285.1 50.7 284.7 50.9Q284.4 51.1 283.8 51.1ZM283.9 50.3L283.9 50.3Q284.5 50.3 284.9 50.0Q285.2 49.7 285.4 49.2Q285.6 48.7 285.6 48.0L285.6 48.0Q285.6 47.3 285.4 46.8Q285.2 46.3 284.9 46.1Q284.5 45.8 283.9 45.8L283.9 45.8Q283.4 45.8 283.0 46.1Q282.6 46.4 282.4 46.9Q282.2 47.4 282.2 48.0L282.2 48.0Q282.2 48.6 282.4 49.1Q282.6 49.7 283.0 50.0Q283.4 50.3 283.9 50.3Z M299.7 51L298.7 51L296.9 45.0L297.9 45.0L298.6 47.6Q298.8 48.2 299.0 48.8L299.0 48.8Q299.1 49.3 299.2 50.0L299.2 50.0Q299.3 49.4 299.5 48.9L299.5 48.9Q299.6 48.2 299.8 47.6L299.8 47.6L300.5 45.0L301.5 45.0L302.3 47.6Q302.4 48.2 302.6 48.8L302.6 48.8Q302.7 49.4 302.8 49.9L302.8 49.9Q302.9 49.4 303.1 48.9L303.1 48.9Q303.2 48.2 303.4 47.6L303.4 47.6L304.1 45.0L305.1 45.0L303.3 51L302.4 51L301.6 48.3Q301.5 47.9 301.3 47.4Q301.2 47.0 301.1 46.6L301.1 46.6Q301.1 46.3 301.0 46.1L301.0 46.1Q301.0 46.3 300.9 46.6L300.9 46.6Q300.8 47.0 300.7 47.4Q300.6 47.9 300.5 48.3L300.5 48.3L299.7 51ZM310.3 51L309.4 51L309.4 45.0L310.3 45.0L310.3 51ZM309.9 44.0L309.9 44.0Q309.6 44.0 309.4 43.8Q309.2 43.6 309.2 43.4L309.2 43.4Q309.2 43.1 309.4 42.9Q309.6 42.7 309.9 42.7L309.9 42.7Q310.1 42.7 310.3 42.9Q310.5 43.1 310.5 43.4L310.5 43.4Q310.5 43.6 310.3 43.8Q310.1 44.0 309.9 44.0ZM316.2 45.0L317.4 45.0L317.4 45.8L316.2 45.8L316.2 49.4Q316.2 49.8 316.3 50.0Q316.5 50.2 316.9 50.2L316.9 50.2Q317.0 50.2 317.1 50.2Q317.2 50.2 317.4 50.2L317.4 50.2L317.6 51.0Q317.4 51.0 317.2 51.0Q317.0 51.1 316.8 51.1L316.8 51.1Q316.1 51.1 315.6 50.7Q315.2 50.3 315.2 49.5L315.2 49.5L315.2 45.8L314.3 45.8L314.3 45.0L315.2 45.0L315.2 43.6L316.2 43.6L316.2 45.0ZM322.6 47.4L322.6 47.4L322.6 51L321.6 51L321.6 43.0L322.6 43.0L322.6 46.0Q322.8 45.5 323.2 45.3L323.2 45.3Q323.7 44.9 324.4 44.9L324.4 44.9Q325.0 44.9 325.5 45.2Q325.9 45.4 326.2 45.9Q326.4 46.4 326.4 47.2L326.4 47.2L326.4 51L325.5 51L325.5 47.3Q325.5 46.6 325.1 46.2Q324.7 45.8 324.1 45.8L324.1 45.8Q323.7 45.8 323.3 46.0Q323.0 46.2 322.8 46.5Q322.6 46.9 322.6 47.4Z M338.2 53.2L337.2 53.2L337.2 45.0L338.2 45.0L338.2 46.0L338.3 46.0Q338.4 45.8 338.6 45.6Q338.7 45.3 339.1 45.1Q339.4 44.9 340.0 44.9L340.0 44.9Q340.8 44.9 341.3 45.3Q341.9 45.7 342.2 46.4Q342.6 47.1 342.6 48.0L342.6 48.0Q342.6 49.0 342.2 49.7Q341.9 50.4 341.3 50.7Q340.8 51.1 340.0 51.1L340.0 51.1Q339.4 51.1 339.1 50.9Q338.7 50.7 338.6 50.5Q338.4 50.2 338.3 50.1L338.3 50.1L338.2 50.1L338.2 53.2ZM339.9 50.3L339.9 50.3Q340.4 50.3 340.8 50.0Q341.2 49.7 341.4 49.1Q341.6 48.6 341.6 48.0L341.6 48.0Q341.6 47.4 341.4 46.9Q341.2 46.4 340.8 46.1Q340.4 45.8 339.9 45.8L339.9 45.8Q339.3 45.8 338.9 46.1Q338.6 46.3 338.4 46.8Q338.2 47.3 338.2 48.0L338.2 48.0Q338.2 48.7 338.4 49.2Q338.6 49.7 338.9 50.0Q339.3 50.3 339.9 50.3ZM347.9 51L347.0 51L347.0 45.0L347.9 45.0L347.9 45.9L348.0 45.9Q348.1 45.5 348.6 45.2Q349.0 44.9 349.5 44.9L349.5 44.9Q349.6 44.9 349.8 44.9Q349.9 44.9 350.0 44.9L350.0 44.9L350.0 45.9Q350.0 45.9 349.8 45.9Q349.6 45.8 349.4 45.8L349.4 45.8Q349.0 45.8 348.7 46.0Q348.3 46.2 348.1 46.5Q347.9 46.8 347.9 47.2L347.9 47.2L347.9 51ZM356.6 51.1L356.6 51.1Q355.8 51.1 355.1 50.7Q354.5 50.4 354.2 49.7Q353.8 49.0 353.8 48.0Q353.8 47.1 354.1 46.4Q354.5 45.7 355.1 45.3Q355.7 44.9 356.5 44.9L356.5 44.9Q357.0 44.9 357.5 45.1Q357.9 45.2 358.3 45.6Q358.7 45.9 358.9 46.5Q359.1 47.1 359.1 47.9L359.1 47.9L359.1 48.3L354.8 48.3Q354.8 48.9 355.0 49.3L355.0 49.3Q355.3 49.8 355.7 50.0Q356.1 50.3 356.6 50.3L356.6 50.3Q357.0 50.3 357.3 50.2Q357.6 50.1 357.8 49.9Q358.0 49.7 358.1 49.3L358.1 49.3L359.0 49.6Q358.9 50.1 358.6 50.4Q358.2 50.7 357.7 50.9Q357.2 51.1 356.6 51.1ZM354.8 47.5L354.8 47.5L358.1 47.5Q358.1 47.1 358.0 46.8L358.0 46.8Q357.8 46.3 357.4 46.0Q357.1 45.8 356.5 45.8Q356.0 45.8 355.6 46.0Q355.2 46.3 355.0 46.7L355.0 46.7Q354.8 47.1 354.8 47.5ZM366.0 51.1L366.0 51.1Q365.1 51.1 364.5 50.7Q363.9 50.4 363.6 49.7Q363.2 49.0 363.2 48.0L363.2 48.0Q363.2 47.1 363.6 46.4Q363.9 45.7 364.5 45.3Q365.1 44.9 366.0 44.9L366.0 44.9Q366.4 44.9 366.8 45.0Q367.2 45.1 367.5 45.4Q367.8 45.6 368.0 45.9Q368.3 46.2 368.4 46.6L368.4 46.6L367.5 46.8Q367.4 46.6 367.3 46.4Q367.1 46.2 366.9 46.1Q366.7 45.9 366.5 45.9Q366.3 45.8 366.0 45.8L366.0 45.8Q365.4 45.8 365.0 46.1Q364.6 46.4 364.4 46.9Q364.2 47.4 364.2 48.0L364.2 48.0Q364.2 48.6 364.4 49.1Q364.6 49.6 365.0 50.0Q365.4 50.3 366.0 50.3L366.0 50.3Q366.3 50.3 366.5 50.2Q366.8 50.1 367.0 50.0Q367.2 49.8 367.3 49.6Q367.4 49.4 367.5 49.2L367.5 49.2L368.4 49.4Q368.3 49.8 368.1 50.1Q367.8 50.5 367.5 50.7Q367.2 50.9 366.8 51.0Q366.4 51.1 366.0 51.1ZM373.8 51L372.8 51L372.8 45.0L373.8 45.0L373.8 51ZM373.3 44.0L373.3 44.0Q373.0 44.0 372.8 43.8Q372.6 43.6 372.6 43.4L372.6 43.4Q372.6 43.1 372.8 42.9Q373.0 42.7 373.3 42.7L373.3 42.7Q373.6 42.7 373.8 42.9Q374.0 43.1 374.0 43.4L374.0 43.4Q374.0 43.6 373.8 43.8Q373.6 44.0 373.3 44.0ZM380.5 51.1L380.5 51.1Q379.9 51.1 379.4 50.9Q378.9 50.8 378.6 50.4Q378.3 50.1 378.2 49.5L378.2 49.5L379.1 49.3Q379.2 49.8 379.6 50.0Q380.0 50.3 380.5 50.3L380.5 50.3Q381.1 50.3 381.5 50.0Q381.9 49.7 381.9 49.4L381.9 49.4Q381.9 49.1 381.7 48.9Q381.4 48.6 381.0 48.5L381.0 48.5L380.0 48.3Q379.2 48.1 378.8 47.7Q378.4 47.3 378.4 46.7L378.4 46.7Q378.4 46.2 378.7 45.8Q379.0 45.4 379.5 45.1Q380.0 44.9 380.6 44.9L380.6 44.9Q381.2 44.9 381.7 45.1Q382.1 45.3 382.4 45.6Q382.6 45.9 382.8 46.4L382.8 46.4L381.9 46.6Q381.8 46.3 381.5 46.0Q381.2 45.7 380.6 45.7L380.6 45.7Q380.1 45.7 379.7 46.0Q379.4 46.2 379.4 46.6L379.4 46.6Q379.4 46.9 379.6 47.1Q379.8 47.3 380.4 47.5L380.4 47.5L381.3 47.7Q382.1 47.9 382.5 48.3Q382.9 48.7 382.9 49.3L382.9 49.3Q382.9 49.8 382.6 50.2Q382.3 50.7 381.7 50.9Q381.2 51.1 380.5 51.1ZM388.2 51L387.3 51L387.3 45.0L388.2 45.0L388.2 51ZM387.8 44.0L387.8 44.0Q387.5 44.0 387.3 43.8Q387.1 43.6 387.1 43.4L387.1 43.4Q387.1 43.1 387.3 42.9Q387.5 42.7 387.8 42.7L387.8 42.7Q388.0 42.7 388.2 42.9Q388.4 43.1 388.4 43.4L388.4 43.4Q388.4 43.6 388.2 43.8Q388.0 44.0 387.8 44.0ZM395.4 51.1L395.4 51.1Q394.6 51.1 393.9 50.7Q393.3 50.4 393.0 49.7Q392.6 49.0 392.6 48.0L392.6 48.0Q392.6 47.1 393.0 46.4Q393.3 45.7 393.9 45.3Q394.6 44.9 395.4 44.9L395.4 44.9Q396.2 44.9 396.8 45.3Q397.4 45.7 397.8 46.4Q398.1 47.1 398.1 48.0L398.1 48.0Q398.1 49.0 397.8 49.7Q397.4 50.4 396.8 50.7Q396.2 51.1 395.4 51.1ZM395.4 50.3L395.4 50.3Q396.0 50.3 396.4 50.0Q396.8 49.6 397.0 49.1Q397.1 48.6 397.1 48.0L397.1 48.0Q397.1 47.4 397.0 46.9Q396.8 46.4 396.4 46.1Q396.0 45.8 395.4 45.8L395.4 45.8Q394.8 45.8 394.4 46.1Q394.0 46.4 393.8 46.9Q393.6 47.4 393.6 48.0L393.6 48.0Q393.6 48.6 393.8 49.1Q394.0 49.6 394.4 50.0Q394.8 50.3 395.4 50.3ZM403.5 47.4L403.5 47.4L403.5 51L402.5 51L402.5 45.0L403.5 45.0L403.5 46.1Q403.7 45.5 404.1 45.3L404.1 45.3Q404.6 44.9 405.3 44.9L405.3 44.9Q405.9 44.9 406.4 45.2Q406.8 45.4 407.1 45.9Q407.3 46.4 407.3 47.2L407.3 47.2L407.3 51L406.4 51L406.4 47.3Q406.4 46.6 406.0 46.2Q405.6 45.8 405.0 45.8L405.0 45.8Q404.6 45.8 404.2 46.0Q403.9 46.2 403.7 46.5Q403.5 46.9 403.5 47.4Z M418.9 47.9L418.9 47.9Q418.6 47.9 418.3 47.7Q418.1 47.5 418.1 47.2L418.1 47.2Q418.1 46.9 418.3 46.7Q418.6 46.5 418.9 46.5L418.9 46.5Q419.2 46.5 419.4 46.7Q419.6 46.9 419.6 47.2L419.6 47.2Q419.6 47.5 419.4 47.7Q419.2 47.9 418.9 47.9Z M431.4 53.2L430.4 53.2L430.4 45.0L431.3 45.0L431.3 46.0L431.4 46.0Q431.5 45.8 431.7 45.6Q431.9 45.3 432.2 45.1Q432.6 44.9 433.2 44.9L433.2 44.9Q433.9 44.9 434.5 45.3Q435.1 45.7 435.4 46.4Q435.7 47.1 435.7 48.0L435.7 48.0Q435.7 49.0 435.4 49.7Q435.1 50.4 434.5 50.7Q433.9 51.1 433.2 51.1L433.2 51.1Q432.6 51.1 432.3 50.9Q431.9 50.7 431.7 50.5Q431.5 50.2 431.4 50.1L431.4 50.1L431.4 50.1L431.4 53.2ZM433.0 50.3L433.0 50.3Q433.6 50.3 434.0 50.0Q434.3 49.7 434.5 49.1Q434.7 48.6 434.7 48.0L434.7 48.0Q434.7 47.4 434.5 46.9Q434.4 46.4 434.0 46.1Q433.6 45.8 433.0 45.8L433.0 45.8Q432.5 45.8 432.1 46.1Q431.7 46.3 431.5 46.8Q431.3 47.3 431.3 48.0L431.3 48.0Q431.3 48.7 431.5 49.2Q431.7 49.7 432.1 50.0Q432.5 50.3 433.0 50.3ZM442.6 51.1L442.6 51.1Q441.7 51.1 441.1 50.7Q440.5 50.4 440.2 49.7Q439.8 49.0 439.8 48.0L439.8 48.0Q439.8 47.1 440.2 46.4Q440.5 45.7 441.1 45.3Q441.7 44.9 442.6 44.9L442.6 44.9Q443.4 44.9 444.0 45.3Q444.6 45.7 445.0 46.4Q445.3 47.1 445.3 48.0L445.3 48.0Q445.3 49.0 445.0 49.7Q444.6 50.4 444.0 50.7Q443.4 51.1 442.6 51.1ZM442.6 50.3L442.6 50.3Q443.2 50.3 443.6 50.0Q444.0 49.6 444.1 49.1Q444.3 48.6 444.3 48.0L444.3 48.0Q444.3 47.4 444.1 46.9Q444.0 46.4 443.6 46.1Q443.2 45.8 442.6 45.8L442.6 45.8Q442.0 45.8 441.6 46.1Q441.2 46.4 441.0 46.9Q440.8 47.4 440.8 48.0L440.8 48.0Q440.8 48.6 441.0 49.1Q441.2 49.6 441.6 50.0Q442.0 50.3 442.6 50.3ZM452.0 51L451.1 51L449.2 45.0L450.3 45.0L451.0 47.6Q451.1 48.2 451.3 48.8L451.3 48.8Q451.5 49.3 451.6 50.0L451.6 50.0Q451.7 49.4 451.8 48.9L451.8 48.9Q452.0 48.2 452.1 47.6L452.1 47.6L452.9 45.0L453.9 45.0L454.6 47.6Q454.8 48.2 454.9 48.8L454.9 48.8Q455.0 49.4 455.2 49.9L455.2 49.9Q455.3 49.4 455.4 48.9L455.4 48.9Q455.6 48.2 455.7 47.6L455.7 47.6L456.5 45.0L457.5 45.0L455.7 51L454.7 51L453.9 48.3Q453.8 47.9 453.7 47.4Q453.6 47.0 453.5 46.6L453.5 46.6Q453.4 46.3 453.4 46.1L453.4 46.1Q453.3 46.3 453.3 46.6L453.3 46.6Q453.1 47.0 453.0 47.4Q452.9 47.9 452.8 48.3L452.8 48.3L452.0 51ZM464.2 51.1L464.2 51.1Q463.4 51.1 462.7 50.7Q462.1 50.4 461.8 49.7Q461.4 49.0 461.4 48.0Q461.4 47.1 461.8 46.4Q462.1 45.7 462.7 45.3Q463.3 44.9 464.1 44.9L464.1 44.9Q464.6 44.9 465.1 45.1Q465.5 45.2 465.9 45.6Q466.3 45.9 466.5 46.5Q466.7 47.1 466.7 47.9L466.7 47.9L466.7 48.3L462.4 48.3Q462.4 48.9 462.6 49.3L462.6 49.3Q462.9 49.8 463.3 50.0Q463.7 50.3 464.2 50.3L464.2 50.3Q464.6 50.3 464.9 50.2Q465.2 50.1 465.4 49.9Q465.6 49.7 465.7 49.3L465.7 49.3L466.6 49.6Q466.5 50.1 466.2 50.4Q465.8 50.7 465.4 50.9Q464.9 51.1 464.2 51.1ZM462.4 47.5L462.4 47.5L465.8 47.5Q465.7 47.1 465.6 46.8L465.6 46.8Q465.4 46.3 465.0 46.0Q464.7 45.8 464.1 45.8Q463.6 45.8 463.2 46.0Q462.8 46.3 462.6 46.7L462.6 46.7Q462.4 47.1 462.4 47.5ZM472.1 51L471.1 51L471.1 45.0L472.1 45.0L472.1 45.9L472.1 45.9Q472.3 45.5 472.7 45.2Q473.2 44.9 473.7 44.9L473.7 44.9Q473.8 44.9 473.9 44.9Q474.1 44.9 474.2 44.9L474.2 44.9L474.2 45.9Q474.1 45.9 474.0 45.9Q473.8 45.8 473.6 45.8L473.6 45.8Q473.2 45.8 472.8 46.0Q472.5 46.2 472.3 46.5Q472.1 46.8 472.1 47.2L472.1 47.2L472.1 51ZM480.8 51.1L480.8 51.1Q479.9 51.1 479.3 50.7Q478.7 50.4 478.3 49.7Q478.0 49.0 478.0 48.0Q478.0 47.1 478.3 46.4Q478.6 45.7 479.3 45.3Q479.9 44.9 480.7 44.9L480.7 44.9Q481.2 44.9 481.6 45.1Q482.1 45.2 482.5 45.6Q482.8 45.9 483.1 46.5Q483.3 47.1 483.3 47.9L483.3 47.9L483.3 48.3L479.0 48.3Q479.0 48.9 479.2 49.3L479.2 49.3Q479.4 49.8 479.8 50.0Q480.3 50.3 480.8 50.3L480.8 50.3Q481.2 50.3 481.4 50.2Q481.7 50.1 481.9 49.9Q482.2 49.7 482.3 49.3L482.3 49.3L483.2 49.6Q483.1 50.1 482.7 50.4Q482.4 50.7 481.9 50.9Q481.4 51.1 480.8 51.1ZM479.0 47.5L479.0 47.5L482.3 47.5Q482.3 47.1 482.1 46.8L482.1 46.8Q482.0 46.3 481.6 46.0Q481.2 45.8 480.7 45.8Q480.1 45.8 479.8 46.0Q479.4 46.3 479.2 46.7L479.2 46.7Q479.0 47.1 479.0 47.5ZM489.9 51.1L489.9 51.1Q489.2 51.1 488.6 50.7Q488.0 50.4 487.7 49.7Q487.4 49.0 487.4 48.0L487.4 48.0Q487.4 47.1 487.7 46.4Q488.0 45.7 488.6 45.3Q489.2 44.9 489.9 44.9L489.9 44.9Q490.5 44.9 490.9 45.1Q491.2 45.3 491.4 45.6Q491.6 45.8 491.7 46.0L491.7 46.0L491.8 46.0L491.8 43.0L492.7 43.0L492.7 51L491.8 51L491.8 50.1L491.7 50.1Q491.6 50.2 491.4 50.5Q491.2 50.7 490.9 50.9Q490.5 51.1 489.9 51.1ZM490.1 50.3L490.1 50.3Q490.6 50.3 491.0 50.0Q491.4 49.7 491.6 49.2Q491.8 48.7 491.8 48.0L491.8 48.0Q491.8 47.3 491.6 46.8Q491.4 46.3 491.0 46.1Q490.6 45.8 490.1 45.8L490.1 45.8Q489.5 45.8 489.1 46.1Q488.8 46.4 488.6 46.9Q488.4 47.4 488.4 48.0L488.4 48.0Q488.4 48.6 488.6 49.1Q488.8 49.7 489.1 50.0Q489.5 50.3 490.1 50.3Z M506.3 51.1L506.3 51.1Q505.7 51.1 505.4 50.9Q505.0 50.7 504.8 50.5Q504.7 50.2 504.6 50.1L504.6 50.1L504.4 50.1L504.4 51L503.5 51L503.5 43.0L504.5 43.0L504.5 46.0L504.6 46.0Q504.7 45.8 504.8 45.6Q505.0 45.3 505.4 45.1Q505.7 44.9 506.3 44.9L506.3 44.9Q507.0 44.9 507.6 45.3Q508.2 45.7 508.5 46.4Q508.8 47.1 508.8 48.0L508.8 48.0Q508.8 49.0 508.5 49.7Q508.2 50.4 507.6 50.7Q507.1 51.1 506.3 51.1ZM506.2 50.3L506.2 50.3Q506.7 50.3 507.1 50.0Q507.5 49.7 507.7 49.1Q507.9 48.6 507.9 48.0L507.9 48.0Q507.9 47.4 507.7 46.9Q507.5 46.4 507.1 46.1Q506.7 45.8 506.2 45.8L506.2 45.8Q505.6 45.8 505.2 46.1Q504.9 46.3 504.7 46.8Q504.5 47.3 504.5 48.0L504.5 48.0Q504.5 48.7 504.7 49.2Q504.9 49.7 505.2 50.0Q505.6 50.3 506.2 50.3ZM513.2 53.2L513.2 53.2L513.4 52.3L513.5 52.4Q513.8 52.4 514.0 52.4Q514.3 52.4 514.5 52.2Q514.7 52.0 514.8 51.5L514.8 51.5L515.0 51.0L512.7 45.0L513.7 45.0L515.0 48.6Q515.2 49.1 515.4 49.7L515.4 49.7Q515.4 49.9 515.5 50.1L515.5 50.1Q515.5 49.9 515.6 49.7L515.6 49.7Q515.8 49.1 516.0 48.6L516.0 48.6L517.2 45.0L518.3 45.0L515.7 51.9Q515.5 52.4 515.2 52.7Q515.0 53.0 514.6 53.1Q514.3 53.3 513.9 53.3L513.9 53.3Q513.6 53.3 513.4 53.3Q513.2 53.2 513.2 53.2Z M529.5 51L528.5 51L528.5 45.0L529.5 45.0L529.5 45.9L529.5 45.9Q529.7 45.5 530.1 45.2Q530.5 44.9 531.1 44.9L531.1 44.9Q531.2 44.9 531.3 44.9Q531.5 44.9 531.6 44.9L531.6 44.9L531.6 45.9Q531.5 45.9 531.4 45.9Q531.2 45.8 531.0 45.8L531.0 45.8Q530.6 45.8 530.2 46.0Q529.9 46.2 529.7 46.5Q529.5 46.8 529.5 47.2L529.5 47.2L529.5 51ZM538.2 51.1L538.2 51.1Q537.3 51.1 536.7 50.7Q536.1 50.4 535.7 49.7Q535.4 49.0 535.4 48.0Q535.4 47.1 535.7 46.4Q536.0 45.7 536.7 45.3Q537.3 44.9 538.1 44.9L538.1 44.9Q538.6 44.9 539.0 45.1Q539.5 45.2 539.9 45.6Q540.2 45.9 540.5 46.5Q540.7 47.1 540.7 47.9L540.7 47.9L540.7 48.3L536.4 48.3Q536.4 48.9 536.6 49.3L536.6 49.3Q536.8 49.8 537.2 50.0Q537.6 50.3 538.2 50.3L538.2 50.3Q538.6 50.3 538.8 50.2Q539.1 50.1 539.3 49.9Q539.5 49.7 539.7 49.3L539.7 49.3L540.6 49.6Q540.5 50.1 540.1 50.4Q539.8 50.7 539.3 50.9Q538.8 51.1 538.2 51.1ZM536.4 47.5L536.4 47.5L539.7 47.5Q539.7 47.1 539.5 46.8L539.5 46.8Q539.4 46.3 539.0 46.0Q538.6 45.8 538.1 45.8Q537.5 45.8 537.1 46.0Q536.8 46.3 536.6 46.7L536.6 46.7Q536.4 47.1 536.4 47.5ZM546.8 51.1L546.8 51.1Q546.2 51.1 545.7 50.9Q545.3 50.7 545.0 50.3Q544.7 49.9 544.7 49.3L544.7 49.3Q544.7 48.8 544.9 48.5Q545.1 48.1 545.5 47.9Q545.8 47.8 546.2 47.7Q546.6 47.6 547.1 47.5L547.1 47.5Q547.6 47.5 547.9 47.4Q548.3 47.4 548.4 47.3Q548.6 47.2 548.6 47.0L548.6 47.0L548.6 46.9Q548.6 46.6 548.5 46.3Q548.3 46.0 548.0 45.9Q547.8 45.8 547.3 45.8L547.3 45.8Q546.9 45.8 546.6 45.9Q546.3 46.0 546.1 46.2Q545.9 46.4 545.8 46.6L545.8 46.6L544.9 46.3Q545.1 45.8 545.5 45.5Q545.9 45.2 546.4 45.0Q546.8 44.9 547.3 44.9L547.3 44.9Q547.6 44.9 548.0 45.0Q548.4 45.1 548.7 45.3Q549.1 45.5 549.3 45.9Q549.6 46.3 549.6 47.0L549.6 47.0L549.6 51L548.6 51L548.6 50.2L548.5 50.2Q548.4 50.4 548.2 50.6Q548.0 50.8 547.6 51.0Q547.3 51.1 546.8 51.1ZM546.9 50.3L546.9 50.3Q547.5 50.3 547.8 50.1Q548.2 49.9 548.4 49.5Q548.6 49.2 548.6 48.8L548.6 48.8L548.6 48.0Q548.5 48.1 548.3 48.1Q548.1 48.2 547.9 48.2Q547.6 48.3 547.4 48.3Q547.1 48.3 547.0 48.3L547.0 48.3Q546.7 48.4 546.4 48.5Q546.1 48.6 545.9 48.8Q545.7 49.0 545.7 49.3L545.7 49.3Q545.7 49.7 545.8 49.9Q546.0 50.1 546.3 50.2Q546.6 50.3 546.9 50.3ZM556.5 51.1L556.5 51.1Q555.8 51.1 555.2 50.7Q554.6 50.4 554.3 49.7Q554.0 49.0 554.0 48.0L554.0 48.0Q554.0 47.1 554.3 46.4Q554.6 45.7 555.2 45.3Q555.8 44.9 556.5 44.9L556.5 44.9Q557.1 44.9 557.4 45.1Q557.8 45.3 558.0 45.6Q558.2 45.8 558.3 46.0L558.3 46.0L558.3 46.0L558.3 43.0L559.3 43.0L559.3 51L558.4 51L558.4 50.1L558.3 50.1Q558.2 50.2 558.0 50.5Q557.8 50.7 557.4 50.9Q557.1 51.1 556.5 51.1ZM556.7 50.3L556.7 50.3Q557.2 50.3 557.6 50.0Q558.0 49.7 558.1 49.2Q558.3 48.7 558.3 48.0L558.3 48.0Q558.3 47.3 558.1 46.8Q558.0 46.3 557.6 46.1Q557.2 45.8 556.7 45.8L556.7 45.8Q556.1 45.8 555.7 46.1Q555.3 46.4 555.1 46.9Q554.9 47.4 554.9 48.0L554.9 48.0Q554.9 48.6 555.1 49.1Q555.3 49.7 555.7 50.0Q556.1 50.3 556.7 50.3ZM565.0 51L564.0 51L564.0 45.0L564.9 45.0L564.9 46.1Q565.1 45.8 565.3 45.5L565.3 45.5Q565.5 45.2 565.9 45.0Q566.2 44.9 566.6 44.9L566.6 44.9Q567.3 44.9 567.7 45.3L567.7 45.3Q568.0 45.6 568.1 46.1L568.1 46.1Q568.3 45.8 568.5 45.6L568.5 45.6Q568.8 45.2 569.2 45.1Q569.6 44.9 570.0 44.9L570.0 44.9Q570.6 44.9 571.0 45.1Q571.4 45.3 571.7 45.8Q571.9 46.3 571.9 47.0L571.9 47.0L571.9 51L571.0 51L571.0 47.0Q571.0 46.3 570.6 46.0Q570.2 45.8 569.7 45.8L569.7 45.8Q569.3 45.8 569.1 45.9Q568.8 46.1 568.6 46.4Q568.4 46.7 568.4 47.1L568.4 47.1L568.4 51L567.5 51L567.5 46.9Q567.5 46.4 567.1 46.1Q566.8 45.8 566.3 45.8L566.3 45.8Q566.0 45.8 565.6 45.9Q565.3 46.1 565.1 46.4Q565.0 46.7 565.0 47.2L565.0 47.2L565.0 51ZM579.2 51.1L579.2 51.1Q578.3 51.1 577.7 50.7Q577.0 50.4 576.7 49.7Q576.3 49.0 576.3 48.0Q576.3 47.1 576.7 46.4Q577.0 45.7 577.6 45.3Q578.2 44.9 579.0 44.9L579.0 44.9Q579.5 44.9 580.0 45.1Q580.4 45.2 580.8 45.6Q581.2 45.9 581.4 46.5Q581.7 47.1 581.7 47.9L581.7 47.9L581.7 48.3L577.3 48.3Q577.3 48.9 577.5 49.3L577.5 49.3Q577.8 49.8 578.2 50.0Q578.6 50.3 579.2 50.3L579.2 50.3Q579.5 50.3 579.8 50.2Q580.1 50.1 580.3 49.9Q580.5 49.7 580.6 49.3L580.6 49.3L581.6 49.6Q581.4 50.1 581.1 50.4Q580.8 50.7 580.3 50.9Q579.8 51.1 579.2 51.1ZM577.3 47.5L577.3 47.5L580.7 47.5Q580.6 47.1 580.5 46.8L580.5 46.8Q580.3 46.3 579.9 46.0Q579.6 45.8 579.0 45.8Q578.5 45.8 578.1 46.0Q577.7 46.3 577.5 46.7L577.5 46.7Q577.3 47.1 577.3 47.5ZM586.0 47.1L589.5 47.1L589.5 48.0L586.0 48.0L586.0 47.1ZM595.8 51.1L595.8 51.1Q595.2 51.1 594.7 50.9Q594.3 50.7 594.0 50.3Q593.7 49.9 593.7 49.3L593.7 49.3Q593.7 48.8 593.9 48.5Q594.1 48.1 594.5 47.9Q594.8 47.8 595.2 47.7Q595.7 47.6 596.1 47.5L596.1 47.5Q596.6 47.5 596.9 47.4Q597.3 47.4 597.4 47.3Q597.6 47.2 597.6 47.0L597.6 47.0L597.6 46.9Q597.6 46.6 597.5 46.3Q597.3 46.0 597.1 45.9Q596.8 45.8 596.4 45.8L596.4 45.8Q595.9 45.8 595.6 45.9Q595.3 46.0 595.1 46.2Q594.9 46.4 594.8 46.6L594.8 46.6L593.9 46.3Q594.1 45.8 594.5 45.5Q594.9 45.2 595.4 45.0Q595.9 44.9 596.3 44.9L596.3 44.9Q596.6 44.9 597.0 45.0Q597.4 45.1 597.8 45.3Q598.1 45.5 598.3 45.9Q598.6 46.3 598.6 47.0L598.6 47.0L598.6 51L597.6 51L597.6 50.2L597.6 50.2Q597.5 50.4 597.2 50.6Q597.0 50.8 596.7 51.0Q596.3 51.1 595.8 51.1ZM595.9 50.3L595.9 50.3Q596.5 50.3 596.9 50.1Q597.2 49.9 597.4 49.5Q597.6 49.2 597.6 48.8L597.6 48.8L597.6 48.0Q597.6 48.1 597.4 48.1Q597.2 48.2 596.9 48.2Q596.6 48.3 596.4 48.3Q596.2 48.3 596.0 48.3L596.0 48.3Q595.7 48.4 595.4 48.5Q595.1 48.6 594.9 48.8Q594.7 49.0 594.7 49.3L594.7 49.3Q594.7 49.7 594.9 49.9Q595.0 50.1 595.3 50.2Q595.6 50.3 595.9 50.3ZM605.3 51.1L605.3 51.1Q604.7 51.1 604.2 50.8Q603.8 50.6 603.5 50.1Q603.3 49.6 603.3 48.8L603.3 48.8L603.3 45.0L604.2 45.0L604.2 48.7Q604.2 49.4 604.6 49.8Q605.0 50.2 605.6 50.2L605.6 50.2Q606.0 50.2 606.4 50.0Q606.7 49.8 606.9 49.5Q607.1 49.1 607.1 48.6L607.1 48.6L607.1 45.0L608.1 45.0L608.1 51L607.1 51L607.1 49.9Q606.9 50.5 606.5 50.7L606.5 50.7Q606.0 51.1 605.3 51.1ZM613.7 51L612.8 51L612.8 45.0L613.7 45.0L613.7 45.9L613.8 45.9Q613.9 45.5 614.4 45.2Q614.8 44.9 615.3 44.9L615.3 44.9Q615.4 44.9 615.6 44.9Q615.7 44.9 615.8 44.9L615.8 44.9L615.8 45.9Q615.8 45.9 615.6 45.9Q615.4 45.8 615.2 45.8L615.2 45.8Q614.8 45.8 614.5 46.0Q614.1 46.2 613.9 46.5Q613.7 46.8 613.7 47.2L613.7 47.2L613.7 51ZM621.6 51.1L621.6 51.1Q621.0 51.1 620.6 50.9Q620.1 50.7 619.8 50.3Q619.6 49.9 619.6 49.3L619.6 49.3Q619.6 48.8 619.8 48.5Q620.0 48.1 620.3 47.9Q620.6 47.8 621.1 47.7Q621.5 47.6 621.9 47.5L621.9 47.5Q622.4 47.5 622.8 47.4Q623.1 47.4 623.3 47.3Q623.4 47.2 623.4 47.0L623.4 47.0L623.4 46.9Q623.4 46.6 623.3 46.3Q623.2 46.0 622.9 45.9Q622.6 45.8 622.2 45.8L622.2 45.8Q621.7 45.8 621.4 45.9Q621.1 46.0 620.9 46.2Q620.8 46.4 620.7 46.6L620.7 46.6L619.7 46.3Q620.0 45.8 620.4 45.5Q620.7 45.2 621.2 45.0Q621.7 44.9 622.2 44.9L622.2 44.9Q622.5 44.9 622.8 45.0Q623.2 45.1 623.6 45.3Q623.9 45.5 624.2 45.9Q624.4 46.3 624.4 47.0L624.4 47.0L624.4 51L623.5 51L623.5 50.2L623.4 50.2Q623.3 50.4 623.1 50.6Q622.8 50.8 622.5 51.0Q622.1 51.1 621.6 51.1ZM621.8 50.3L621.8 50.3Q622.3 50.3 622.7 50.1Q623.0 49.9 623.2 49.5Q623.4 49.2 623.4 48.8L623.4 48.8L623.4 48.0Q623.4 48.1 623.2 48.1Q623.0 48.2 622.7 48.2Q622.5 48.3 622.2 48.3Q622.0 48.3 621.9 48.3L621.9 48.3Q621.5 48.4 621.2 48.5Q620.9 48.6 620.7 48.8Q620.5 49.0 620.5 49.3L620.5 49.3Q620.5 49.7 620.7 49.9Q620.9 50.1 621.1 50.2Q621.4 50.3 621.8 50.3Z "/></g></svg>