<!-- Generated by readme-aura https://github.com/collectioneur/readme-aura -->
<svg width="860" height="80" viewBox="0 0 860 80" xmlns="http://www.w3.org/2000/svg"><defs><clipPath id="satori_bc-id"><path x="0" y="0" width="860" height="80" d="M16,0 h828 a16,16 0 0 1 16,16 v48 a16,16 0 0 1 -16,16 h-828 a16,16 0 0 1 -16,-16 v-48 a16,16 0 0 1 16,-16"/></clipPath></defs><clipPath id="satori_cp-id"><path x="0" y="0" width="860" height="80" d="M16,0 h828 a16,16 0 0 1 16,16 v48 a16,16 0 0 1 -16,16 h-828 a16,16 0 0 1 -16,-16 v-48 a16,16 0 0 1 16,-16"/></clipPath><mask id="satori_om-id"><rect x="1" y="1" width="858" height="78" fill="#fff"/><path width="860" height="80" fill="none" stroke="#000" stroke-width="2" d="M4.686,4.686 A16,16 0 0 1 16,0 h828 a16,16 0 0 1 16,16 v48 a16,16 0 0 1 -16,16 h-828 a16,16 0 0 1 -16,-16 v-48 A16,16 0 0 1 4.686,4.686"/></mask><path x="0" y="0" width="860" height="80" fill="#06060a" d="M16,0 h828 a16,16 0 0 1 16,16 v48 a16,16 0 0 1 -16,16 h-828 a16,16 0 0 1 -16,-16 v-48 a16,16 0 0 1 16,-16"/><path width="860" height="80" clip-path="url(#satori_bc-id)" fill="none" stroke="rgba(0,229,255,0.05)" stroke-width="2" d="M4.686,4.686 A16,16 0 0 1 16,0 h828 a16,16 0 0 1 16,16 v48 a16,16 0 0 1 -16,16 h-828 a16,16 0 0 1 -16,-16 v-48 A16,16 0 0 1 4.686,4.686"/><clipPath id="satori_cp-id-0" clip-path="url(#satori_cp-id)"><rect x="1" y="1" width="860" height="80"/></clipPath><mask id="satori_om-id-0"><rect x="1" y="1" width="860" height="80" fill="#fff" mask="url(#satori_om-id)"/></mask><svg x="1" y="1" width="860" height="80" preserveAspectRatio="none" clip-path="url(#satori_cp-id-0)" mask="url(#satori_om-id-0)"><defs><linearGradient id="fsg" x1="0" y1="0" x2="0" y2="1"><stop offset="0%" stop-color="rgba(0,229,255,0)"></stop><stop offset="45%" stop-color="rgba(0,229,255,0.03)"></stop><stop offset="50%" stop-color="rgba(0,229,255,0.08)"></stop><stop offset="55%" stop-color="rgba(0,229,255,0.03)"></stop><stop offset="100%" stop-color="rgba(0,229,255,0)"></stop></linearGradient><radialGradient id="ftg1" cx="50%" cy="50%" r="50%"><stop offset="0%" stop-color="rgba(139,92,246,0.25)"></stop><stop offset="100%" stop-color="rgba(139,92,246,0)"></stop></radialGradient></defs><line x1="0" y1="1" x2="860" y2="1" stroke="rgba(0,229,255,0.06)" stroke-width="1"></line><ellipse id="ftorb1" cx="430" cy="40" rx="300" ry="60" fill="url(#ftg1)"></ellipse><rect id="ftscan" x="0" y="0" width="860" height="80" fill="url(#fsg)"></rect><style>

    @keyframes ft-scan { 0% { transform: translateY(-80px); } 100% { transform: translateY(80px); } }
    @keyframes ft-pulse { 0%, 100% { opacity: 0.3; } 50% { opacity: 0.7; } }
    @keyframes ft-orb { 0%, 100% { transform: translate(0,0); opacity: 0.25; } 50% { transform: translate(30px,-10px); opacity: 0.45; } }
    #ftscan { animation: ft-scan 4s linear infinite; }
    #ftd1 { animation: ft-pulse 3s ease-in-out infinite; }
    #ftd2 { animation: ft-pulse 3s ease-in-out infinite 1s; }
    #ftd3 { animation: ft-pulse 3s ease-in-out infinite 2s; }
    #ftorb1 { animation: ft-orb 8s ease-in-out infinite; }
  
</style>
</svg><mask id="satori_om-id-0-0"><rect x="1" y="1" width="0" height="80" fill="#fff" mask="url(#satori_om-id)"/></mask><mask id="satori_om-id-0-0-0"><rect x="1" y="1" width="0" height="80" fill="#fff" mask="url(#satori_om-id)"/></mask><mask id="satori_om-id-0-0-0-0"><rect x="1" y="1" width="0" height="80" fill="#fff" mask="url(#satori_om-id)"/></mask><mask id="satori_om-id-0-0-0-1"><rect x="1" y="1" width="0" height="80" fill="#fff" mask="url(#satori_om-id)"/></mask><mask id="satori_om-id-0-0-0-2"><rect x="1" y="1" width="0" height="80" fill="#fff" mask="url(#satori_om-id)"/></mask><mask id="satori_om-id-0-0-0-3"><rect x="1" y="1" width="0" height="80" fill="#fff" mask="url(#satori_om-id)"/></mask><mask id="satori_om-id-0-0-0-4"><rect x="1" y="1" width="0" height="80" fill="#fff" mask="url(#satori_om-id)"/></mask><mask id="satori_om-id-0-0-1"><rect x="1" y="1" width="0" height="80" fill="#fff" mask="url(#satori_om-id)"/></mask><mask id="satori_om-id-0-0-1-0"><rect x="1" y="1" width="0" height="80" fill="#fff" mask="url(#satori_om-id)"/></mask><mask id="satori_om-id-0-0-1-1"><rect x="1" y="1" width="0" height="80" fill="#fff" mask="url(#satori_om-id)"/></mask><mask id="satori_om-id-0-1"><rect x="1" y="1" width="0" height="80" fill="#fff" mask="url(#satori_om-id)"/></mask><mask id="satori_om-id-0-2"><rect x="1" y="1" width="0" height="80" fill="#fff" mask="url(#satori_om-id)"/></mask><mask id="satori_om-id-0-3"><rect x="1" y="1" width="0" height="80" fill="#fff" mask="url(#satori_om-id)"/></mask><mask id="satori_om-id-1"><rect x="418" y="28" width="24" height="4" fill="#fff" mask="url(#satori_om-id)"/></mask><mask id="satori_om-id-1-0"><rect x="418" y="28" width="4" height="4" fill="#fff" mask="url(#satori_om-id)"/></mask><path x="418" y="28" width="4" height="4" fill="rgba(0,229,255,0.6)" d="M420,28 h0 a2,2 0 0 1 2,2 v0 a2,2 0 0 1 -2,2 h0 a2,2 0 0 1 -2,-2 v0 a2,2 0 0 1 2,-2" clip-path="url(#satori_cp-id)" mask="url(#satori_om-id)"/><mask id="satori_om-id-1-1"><rect x="428" y="28" width="4" height="4" fill="#fff" mask="url(#satori_om-id)"/></mask><path x="428" y="28" width="4" height="4" fill="rgba(139,92,246,0.6)" d="M430,28 h0 a2,2 0 0 1 2,2 v0 a2,2 0 0 1 -2,2 h0 a2,2 0 0 1 -2,-2 v0 a2,2 0 0 1 2,-2" clip-path="url(#satori_cp-id)" mask="url(#satori_om-id)"/><mask id="satori_om-id-1-2"><rect x="438" y="28" width="4" height="4" fill="#fff" mask="url(#satori_om-id)"/></mask><path x="438" y="28" width="4" height="4" fill="rgba(236,72,153,0.6)" d="M440,28 h0 a2,2 0 0 1 2,2 v0 a2,2 0 0 1 -2,2 h0 a2,2 0 0 1 -2,-2 v0 a2,2 0 0 1 2,-2" clip-path="url(#satori_cp-id)" mask="url(#satori_om-id)"/><mask id="satori_om-id-2"><rect x="261" y="40" width="339" height="13" fill="#fff" mask="url(#satori_om-id)"/></mask><g mask="url(#satori_om-id)" clip-path="url(#satori_cp-id)"><path fill="rgba(255,255,255,0.20)" d="M263.5 51.1L263.5 51.1Q263.0 51.1 262.5 50.9Q262.0 50.7 261.8 50.3Q261.5 49.9 261.5 49.3L261.5 49.3Q261.5 48.8 261.7 48.5Q261.9 48.1 262.2 47.9Q262.6 47.8 263.0 47.7Q263.4 47.6 263.8 47.5L263.8 47.5Q264.4 47.5 264.7 47.4Q265.0 47.4 265.2 47.3Q265.4 47.2 265.4 47.0L265.4 47.0L265.4 46.9Q265.4 46.6 265.2 46.3Q265.1 46.0 264.8 45.9Q264.5 45.8 264.1 45.8L264.1 45.8Q263.7 45.8 263.4 45.9Q263.1 46.0 262.9 46.2Q262.7 46.4 262.6 46.6L262.6 46.6L261.7 46.3Q261.9 45.8 262.3 45.5Q262.7 45.2 263.1 45.0Q263.6 44.9 264.1 44.9L264.1 44.9Q264.4 44.9 264.8 45.0Q265.1 45.1 265.5 45.3Q265.9 45.5 266.1 45.9Q266.3 46.3 266.3 47.0L266.3 47.0L266.3 51L265.4 51L265.4 50.2L265.3 50.2Q265.2 50.4 265.0 50.6Q264.8 50.8 264.4 51.0Q264.0 51.1 263.5 51.1ZM263.7 50.3L263.7 50.3Q264.2 50.3 264.6 50.1Q265.0 49.9 265.2 49.5Q265.4 49.2 265.4 48.8L265.4 48.8L265.4 48.0Q265.3 48.1 265.1 48.1Q264.9 48.2 264.6 48.2Q264.4 48.3 264.2 48.3Q263.9 48.3 263.8 48.3L263.8 48.3Q263.4 48.4 263.1 48.5Q262.8 48.6 262.6 48.8Q262.5 49.0 262.5 49.3L262.5 49.3Q262.5 49.7 262.6 49.9Q262.8 50.1 263.1 50.2Q263.3 50.3 263.7 50.3ZM271.0 43.0L272.0 43.0L272.0 51L271.0 51L271.0 43.0ZM278.4 51.1L278.4 51.1Q277.8 51.1 277.3 50.9Q276.9 50.7 276.6 50.3Q276.3 49.9 276.3 49.3L276.3 49.3Q276.3 48.8 276.5 48.5Q276.7 48.1 277.1 47.9Q277.4 47.8 277.8 47.7Q278.2 47.6 278.7 47.5L278.7 47.5Q279.2 47.5 279.5 47.4Q279.9 47.4 280.0 47.3Q280.2 47.2 280.2 47.0L280.2 47.0L280.2 46.9Q280.2 46.6 280.1 46.3Q279.9 46.0 279.6 45.9Q279.4 45.8 278.9 45.8L278.9 45.8Q278.5 45.8 278.2 45.9Q277.9 46.0 277.7 46.2Q277.5 46.4 277.4 46.6L277.4 46.6L276.5 46.3Q276.7 45.8 277.1 45.5Q277.5 45.2 278.0 45.0Q278.5 44.9 278.9 44.9L278.9 44.9Q279.2 44.9 279.6 45.0Q280.0 45.1 280.3 45.3Q280.7 45.5 280.9 45.9Q281.2 46.3 281.2 47.0L281.2 47.0L281.2 51L280.2 51L280.2 50.2L280.2 50.2Q280.1 50.4 279.8 50.6Q279.6 50.8 279.2 51.0Q278.9 51.1 278.4 51.1ZM278.5 50.3L278.5 50.3Q279.1 50.3 279.4 50.1Q279.8 49.9 280.0 49.5Q280.2 49.2 280.2 48.8L280.2 48.8L280.2 48.0Q280.1 48.1 279.9 48.1Q279.7 48.2 279.5 48.2Q279.2 48.3 279.0 48.3Q278.8 48.3 278.6 48.3L278.6 48.3Q278.3 48.4 278.0 48.5Q277.7 48.6 277.5 48.8Q277.3 49.0 277.3 49.3L277.3 49.3Q277.3 49.7 277.5 49.9Q277.6 50.1 277.9 50.2Q278.2 50.3 278.5 50.3ZM286.8 47.4L286.8 47.4L286.8 51L285.9 51L285.9 45.0L286.8 45.0L286.8 46.1Q287.1 45.5 287.5 45.3L287.5 45.3Q288.0 44.9 288.6 44.9L288.6 44.9Q289.2 44.9 289.7 45.2Q290.2 45.4 290.4 45.9Q290.7 46.4 290.7 47.2L290.7 47.2L290.7 51L289.7 51L289.7 47.3Q289.7 46.6 289.3 46.2Q289.0 45.8 288.3 45.8L288.3 45.8Q287.9 45.8 287.6 46.0Q287.2 46.2 287.0 46.5Q286.8 46.9 286.8 47.4Z M302.6 45.0L303.8 45.0L303.8 45.8L302.6 45.8L302.6 49.4Q302.6 49.8 302.8 50.0Q302.9 50.2 303.3 50.2L303.3 50.2Q303.4 50.2 303.5 50.2Q303.7 50.2 303.8 50.2L303.8 50.2L304.0 51.0Q303.8 51.0 303.6 51.0Q303.5 51.1 303.3 51.1L303.3 51.1Q302.5 51.1 302.1 50.7Q301.6 50.3 301.6 49.5L301.6 49.5L301.6 45.8L300.7 45.8L300.7 45.0L301.6 45.0L301.6 43.6L302.6 43.6L302.6 45.0ZM309.0 47.4L309.0 47.4L309.0 51L308.1 51L308.1 43.0L309.0 43.0L309.0 46.0Q309.3 45.5 309.6 45.3L309.6 45.3Q310.1 44.9 310.8 44.9L310.8 44.9Q311.4 44.9 311.9 45.2Q312.4 45.4 312.6 45.9Q312.9 46.4 312.9 47.2L312.9 47.2L312.9 51L311.9 51L311.9 47.3Q311.9 46.6 311.5 46.2Q311.2 45.8 310.5 45.8L310.5 45.8Q310.1 45.8 309.8 46.0Q309.4 46.2 309.2 46.5Q309.0 46.9 309.0 47.4ZM320.0 51.1L320.0 51.1Q319.2 51.1 318.6 50.7Q318.0 50.4 317.6 49.7Q317.3 49.0 317.3 48.0L317.3 48.0Q317.3 47.1 317.6 46.4Q318.0 45.7 318.6 45.3Q319.2 44.9 320.0 44.9L320.0 44.9Q320.8 44.9 321.4 45.3Q322.1 45.7 322.4 46.4Q322.8 47.1 322.8 48.0L322.8 48.0Q322.8 49.0 322.4 49.7Q322.1 50.4 321.4 50.7Q320.8 51.1 320.0 51.1ZM320.0 50.3L320.0 50.3Q320.6 50.3 321.0 50.0Q321.4 49.6 321.6 49.1Q321.8 48.6 321.8 48.0L321.8 48.0Q321.8 47.4 321.6 46.9Q321.4 46.4 321.0 46.1Q320.6 45.8 320.0 45.8L320.0 45.8Q319.4 45.8 319.0 46.1Q318.6 46.4 318.4 46.9Q318.3 47.4 318.3 48.0L318.3 48.0Q318.3 48.6 318.4 49.1Q318.6 49.6 319.0 50.0Q319.4 50.3 320.0 50.3ZM328.1 51L327.2 51L327.2 45.0L328.1 45.0L328.1 46.1Q328.2 45.8 328.4 45.5L328.4 45.5Q328.7 45.2 329.0 45.0Q329.4 44.9 329.8 44.9L329.8 44.9Q330.4 44.9 330.8 45.3L330.8 45.3Q331.2 45.6 331.3 46.1L331.3 46.1Q331.4 45.8 331.6 45.6L331.6 45.6Q331.9 45.2 332.3 45.1Q332.7 44.9 333.2 44.9L333.2 44.9Q333.7 44.9 334.2 45.1Q334.6 45.3 334.8 45.8Q335.1 46.3 335.1 47.0L335.1 47.0L335.1 51L334.1 51L334.1 47.0Q334.1 46.3 333.8 46.0Q333.4 45.8 332.9 45.8L332.9 45.8Q332.5 45.8 332.2 45.9Q331.9 46.1 331.8 46.4Q331.6 46.7 331.6 47.1L331.6 47.1L331.6 51L330.6 51L330.6 46.9Q330.6 46.4 330.3 46.1Q330.0 45.8 329.5 45.8L329.5 45.8Q329.1 45.8 328.8 45.9Q328.5 46.1 328.3 46.4Q328.1 46.7 328.1 47.2L328.1 47.2L328.1 51ZM341.5 51.1L341.5 51.1Q340.9 51.1 340.4 50.9Q340.0 50.7 339.7 50.3Q339.4 49.9 339.4 49.3L339.4 49.3Q339.4 48.8 339.6 48.5Q339.8 48.1 340.2 47.9Q340.5 47.8 340.9 47.7Q341.3 47.6 341.8 47.5L341.8 47.5Q342.3 47.5 342.6 47.4Q343.0 47.4 343.1 47.3Q343.3 47.2 343.3 47.0L343.3 47.0L343.3 46.9Q343.3 46.6 343.2 46.3Q343.0 46.0 342.7 45.9Q342.5 45.8 342.0 45.8L342.0 45.8Q341.6 45.8 341.3 45.9Q341.0 46.0 340.8 46.2Q340.6 46.4 340.5 46.6L340.5 46.6L339.6 46.3Q339.8 45.8 340.2 45.5Q340.6 45.2 341.1 45.0Q341.6 44.9 342.0 44.9L342.0 44.9Q342.3 44.9 342.7 45.0Q343.1 45.1 343.4 45.3Q343.8 45.5 344.0 45.9Q344.3 46.3 344.3 47.0L344.3 47.0L344.3 51L343.3 51L343.3 50.2L343.3 50.2Q343.2 50.4 342.9 50.6Q342.7 50.8 342.3 51.0Q342.0 51.1 341.5 51.1ZM341.6 50.3L341.6 50.3Q342.2 50.3 342.5 50.1Q342.9 49.9 343.1 49.5Q343.3 49.2 343.3 48.8L343.3 48.8L343.3 48.0Q343.2 48.1 343.0 48.1Q342.8 48.2 342.6 48.2Q342.3 48.3 342.1 48.3Q341.9 48.3 341.7 48.3L341.7 48.3Q341.4 48.4 341.1 48.5Q340.8 48.6 340.6 48.8Q340.4 49.0 340.4 49.3L340.4 49.3Q340.4 49.7 340.6 49.9Q340.7 50.1 341.0 50.2Q341.3 50.3 341.6 50.3ZM351.0 51.1L351.0 51.1Q350.4 51.1 349.9 50.9Q349.4 50.8 349.1 50.4Q348.8 50.1 348.7 49.5L348.7 49.5L349.6 49.3Q349.7 49.8 350.1 50.0Q350.5 50.3 351.0 50.3L351.0 50.3Q351.6 50.3 352.0 50.0Q352.4 49.7 352.4 49.4L352.4 49.4Q352.4 49.1 352.2 48.9Q351.9 48.6 351.5 48.5L351.5 48.5L350.5 48.3Q349.7 48.1 349.3 47.7Q348.9 47.3 348.9 46.7L348.9 46.7Q348.9 46.2 349.2 45.8Q349.5 45.4 350.0 45.1Q350.5 44.9 351.1 44.9L351.1 44.9Q351.7 44.9 352.2 45.1Q352.6 45.3 352.9 45.6Q353.1 45.9 353.3 46.4L353.3 46.4L352.4 46.6Q352.3 46.3 352.0 46.0Q351.7 45.7 351.1 45.7L351.1 45.7Q350.6 45.7 350.2 46.0Q349.9 46.2 349.9 46.6L349.9 46.6Q349.9 46.9 350.1 47.1Q350.3 47.3 350.9 47.5L350.9 47.5L351.8 47.7Q352.6 47.9 353.0 48.3Q353.4 48.7 353.4 49.3L353.4 49.3Q353.4 49.8 353.1 50.2Q352.8 50.7 352.2 50.9Q351.7 51.1 351.0 51.1Z M365.9 51.1L365.9 51.1Q365.3 51.1 364.8 50.9Q364.3 50.8 364.0 50.4Q363.7 50.1 363.6 49.5L363.6 49.5L364.5 49.3Q364.6 49.8 365.0 50.0Q365.4 50.3 365.9 50.3L365.9 50.3Q366.5 50.3 366.9 50.0Q367.3 49.7 367.3 49.4L367.3 49.4Q367.3 49.1 367.1 48.9Q366.8 48.6 366.4 48.5L366.4 48.5L365.4 48.3Q364.6 48.1 364.2 47.7Q363.8 47.3 363.8 46.7L363.8 46.7Q363.8 46.2 364.1 45.8Q364.4 45.4 364.9 45.1Q365.4 44.9 366.0 44.9L366.0 44.9Q366.6 44.9 367.1 45.1Q367.5 45.3 367.8 45.6Q368.0 45.9 368.2 46.4L368.2 46.4L367.3 46.6Q367.2 46.3 366.9 46.0Q366.6 45.7 366.0 45.7L366.0 45.7Q365.5 45.7 365.1 46.0Q364.8 46.2 364.8 46.6L364.8 46.6Q364.8 46.9 365.0 47.1Q365.2 47.3 365.8 47.5L365.8 47.5L366.7 47.7Q367.5 47.9 367.9 48.3Q368.3 48.7 368.3 49.3L368.3 49.3Q368.3 49.8 368.0 50.2Q367.7 50.7 367.1 50.9Q366.6 51.1 365.9 51.1ZM373.6 47.4L373.6 47.4L373.6 51L372.7 51L372.7 43.0L373.6 43.0L373.6 46.0Q373.9 45.5 374.3 45.3L374.3 45.3Q374.8 44.9 375.4 44.9L375.4 44.9Q376.1 44.9 376.5 45.2Q377.0 45.4 377.2 45.9Q377.5 46.4 377.5 47.2L377.5 47.2L377.5 51L376.5 51L376.5 47.3Q376.5 46.6 376.1 46.2Q375.8 45.8 375.2 45.8L375.2 45.8Q374.7 45.8 374.4 46.0Q374.0 46.2 373.8 46.5Q373.6 46.9 373.6 47.4ZM383.9 51.1L383.9 51.1Q383.3 51.1 382.8 50.9Q382.4 50.7 382.1 50.3Q381.8 49.9 381.8 49.3L381.8 49.3Q381.8 48.8 382.0 48.5Q382.2 48.1 382.6 47.9Q382.9 47.8 383.3 47.7Q383.7 47.6 384.2 47.5L384.2 47.5Q384.7 47.5 385.0 47.4Q385.4 47.4 385.5 47.3Q385.7 47.2 385.7 47.0L385.7 47.0L385.7 46.9Q385.7 46.6 385.6 46.3Q385.4 46.0 385.1 45.9Q384.9 45.8 384.4 45.8L384.4 45.8Q384.0 45.8 383.7 45.9Q383.4 46.0 383.2 46.2Q383.0 46.4 382.9 46.6L382.9 46.6L382.0 46.3Q382.2 45.8 382.6 45.5Q383.0 45.2 383.5 45.0Q383.9 44.9 384.4 44.9L384.4 44.9Q384.7 44.9 385.1 45.0Q385.5 45.1 385.8 45.3Q386.2 45.5 386.4 45.9Q386.7 46.3 386.7 47.0L386.7 47.0L386.7 51L385.7 51L385.7 50.2L385.6 50.2Q385.5 50.4 385.3 50.6Q385.1 50.8 384.7 51.0Q384.4 51.1 383.9 51.1ZM384.0 50.3L384.0 50.3Q384.6 50.3 384.9 50.1Q385.3 49.9 385.5 49.5Q385.7 49.2 385.7 48.8L385.7 48.8L385.7 48.0Q385.6 48.1 385.4 48.1Q385.2 48.2 385.0 48.2Q384.7 48.3 384.5 48.3Q384.2 48.3 384.1 48.3L384.1 48.3Q383.8 48.4 383.5 48.5Q383.2 48.6 383.0 48.8Q382.8 49.0 382.8 49.3L382.8 49.3Q382.8 49.7 382.9 49.9Q383.1 50.1 383.4 50.2Q383.7 50.3 384.0 50.3ZM391.4 51.4L391.4 45.0L392.3 45.0L392.3 51.4Q392.3 52.0 392.1 52.4Q391.9 52.8 391.5 53.0Q391.1 53.2 390.6 53.2L390.6 53.2L390.4 53.2L390.4 52.4L390.5 52.4Q391.0 52.4 391.2 52.1Q391.4 51.9 391.4 51.4L391.4 51.4ZM391.8 44.0L391.8 44.0Q391.6 44.0 391.4 43.8Q391.2 43.6 391.2 43.4L391.2 43.4Q391.2 43.1 391.4 42.9Q391.6 42.7 391.8 42.7L391.8 42.7Q392.1 42.7 392.3 42.9Q392.5 43.1 392.5 43.4L392.5 43.4Q392.5 43.6 392.3 43.8Q392.1 44.0 391.8 44.0ZM398.0 51L397.0 51L397.0 45.0L398.0 45.0L398.0 51ZM397.5 44.0L397.5 44.0Q397.2 44.0 397.0 43.8Q396.8 43.6 396.8 43.4L396.8 43.4Q396.8 43.1 397.0 42.9Q397.2 42.7 397.5 42.7L397.5 42.7Q397.8 42.7 398.0 42.9Q398.2 43.1 398.2 43.4L398.2 43.4Q398.2 43.6 398.0 43.8Q397.8 44.0 397.5 44.0Z M409.5 47.9L409.5 47.9Q409.2 47.9 409.0 47.7Q408.8 47.5 408.8 47.2L408.8 47.2Q408.8 46.9 409.0 46.7Q409.2 46.5 409.5 46.5L409.5 46.5Q409.8 46.5 410.0 46.7Q410.2 46.9 410.2 47.2L410.2 47.2Q410.2 47.5 410.0 47.7Q409.8 47.9 409.5 47.9Z M423.5 51.1L423.5 51.1Q422.7 51.1 422.1 50.7Q421.4 50.4 421.1 49.7Q420.8 49.0 420.8 48.0L420.8 48.0Q420.8 47.1 421.1 46.4Q421.4 45.7 422.1 45.3Q422.7 44.9 423.5 44.9L423.5 44.9Q423.9 44.9 424.3 45.0Q424.7 45.1 425.0 45.4Q425.3 45.6 425.6 45.9Q425.8 46.2 425.9 46.6L425.9 46.6L425.0 46.8Q424.9 46.6 424.8 46.4Q424.7 46.2 424.5 46.1Q424.3 45.9 424.0 45.9Q423.8 45.8 423.5 45.8L423.5 45.8Q422.9 45.8 422.5 46.1Q422.1 46.4 421.9 46.9Q421.7 47.4 421.7 48.0L421.7 48.0Q421.7 48.6 421.9 49.1Q422.1 49.6 422.5 50.0Q422.9 50.3 423.5 50.3L423.5 50.3Q423.8 50.3 424.0 50.2Q424.3 50.1 424.5 50.0Q424.7 49.8 424.8 49.6Q425.0 49.4 425.0 49.2L425.0 49.2L425.9 49.4Q425.8 49.8 425.6 50.1Q425.4 50.5 425.0 50.7Q424.7 50.9 424.3 51.0Q423.9 51.1 423.5 51.1ZM431.3 51L430.3 51L430.3 45.0L431.3 45.0L431.3 45.9L431.3 45.9Q431.5 45.5 431.9 45.2Q432.3 44.9 432.9 44.9L432.9 44.9Q433.0 44.9 433.1 44.9Q433.3 44.9 433.4 44.9L433.4 44.9L433.4 45.9Q433.3 45.9 433.2 45.9Q433.0 45.8 432.8 45.8L432.8 45.8Q432.4 45.8 432.0 46.0Q431.7 46.2 431.5 46.5Q431.3 46.8 431.3 47.2L431.3 47.2L431.3 51ZM439.1 51.1L439.1 51.1Q438.6 51.1 438.1 50.9Q437.6 50.7 437.4 50.3Q437.1 49.9 437.1 49.3L437.1 49.3Q437.1 48.8 437.3 48.5Q437.5 48.1 437.9 47.9Q438.2 47.8 438.6 47.7Q439.0 47.6 439.4 47.5L439.4 47.5Q440.0 47.5 440.3 47.4Q440.7 47.4 440.8 47.3Q441.0 47.2 441.0 47.0L441.0 47.0L441.0 46.9Q441.0 46.6 440.8 46.3Q440.7 46.0 440.4 45.9Q440.1 45.8 439.7 45.8L439.7 45.8Q439.3 45.8 439.0 45.9Q438.7 46.0 438.5 46.2Q438.3 46.4 438.2 46.6L438.2 46.6L437.3 46.3Q437.5 45.8 437.9 45.5Q438.3 45.2 438.8 45.0Q439.2 44.9 439.7 44.9L439.7 44.9Q440.0 44.9 440.4 45.0Q440.8 45.1 441.1 45.3Q441.5 45.5 441.7 45.9Q441.9 46.3 441.9 47.0L441.9 47.0L441.9 51L441.0 51L441.0 50.2L440.9 50.2Q440.8 50.4 440.6 50.6Q440.4 50.8 440.0 51.0Q439.7 51.1 439.1 51.1ZM439.3 50.3L439.3 50.3Q439.9 50.3 440.2 50.1Q440.6 49.9 440.8 49.5Q441.0 49.2 441.0 48.8L441.0 48.8L441.0 48.0Q440.9 48.1 440.7 48.1Q440.5 48.2 440.3 48.2Q440.0 48.3 439.8 48.3Q439.5 48.3 439.4 48.3L439.4 48.3Q439.0 48.4 438.7 48.5Q438.4 48.6 438.3 48.8Q438.1 49.0 438.1 49.3L438.1 49.3Q438.1 49.7 438.2 49.9Q438.4 50.1 438.7 50.2Q439.0 50.3 439.3 50.3ZM448.1 45.0L449.4 45.0L449.4 45.8L448.1 45.8L448.1 51L447.1 51L447.1 45.8L445.9 45.8L445.9 45.0L447.1 45.0L447.1 44.2Q447.1 43.7 447.3 43.3Q447.6 43.0 448.0 42.8Q448.4 42.6 448.8 42.6L448.8 42.6Q449.1 42.6 449.4 42.7Q449.6 42.7 449.7 42.8L449.7 42.8L449.4 43.6Q449.4 43.6 449.2 43.6Q449.1 43.5 448.9 43.5L448.9 43.5Q448.5 43.5 448.3 43.7Q448.1 44.0 448.1 44.4L448.1 44.4L448.1 45.0ZM454.8 45.0L456.1 45.0L456.1 45.8L454.8 45.8L454.8 49.4Q454.8 49.8 455.0 50.0Q455.2 50.2 455.6 50.2L455.6 50.2Q455.6 50.2 455.8 50.2Q455.9 50.2 456.0 50.2L456.0 50.2L456.2 51.0Q456.1 51.0 455.9 51.0Q455.7 51.1 455.5 51.1L455.5 51.1Q454.7 51.1 454.3 50.7Q453.9 50.3 453.9 49.5L453.9 49.5L453.9 45.8L453.0 45.8L453.0 45.0L453.9 45.0L453.9 43.6L454.8 43.6L454.8 45.0ZM462.8 51.1L462.8 51.1Q462.0 51.1 461.3 50.7Q460.7 50.4 460.4 49.7Q460.0 49.0 460.0 48.0Q460.0 47.1 460.4 46.4Q460.7 45.7 461.3 45.3Q461.9 44.9 462.7 44.9L462.7 44.9Q463.2 44.9 463.7 45.1Q464.1 45.2 464.5 45.6Q464.9 45.9 465.1 46.5Q465.3 47.1 465.3 47.9L465.3 47.9L465.3 48.3L461.0 48.3Q461.0 48.9 461.2 49.3L461.2 49.3Q461.5 49.8 461.9 50.0Q462.3 50.3 462.8 50.3L462.8 50.3Q463.2 50.3 463.5 50.2Q463.8 50.1 464.0 49.9Q464.2 49.7 464.3 49.3L464.3 49.3L465.2 49.6Q465.1 50.1 464.8 50.4Q464.4 50.7 463.9 50.9Q463.5 51.1 462.8 51.1ZM461.0 47.5L461.0 47.5L464.4 47.5Q464.3 47.1 464.2 46.8L464.2 46.8Q464.0 46.3 463.6 46.0Q463.3 45.8 462.7 45.8Q462.2 45.8 461.8 46.0Q461.4 46.3 461.2 46.7L461.2 46.7Q461.0 47.1 461.0 47.5ZM472.0 51.1L472.0 51.1Q471.2 51.1 470.7 50.7Q470.1 50.4 469.8 49.7Q469.4 49.0 469.4 48.0L469.4 48.0Q469.4 47.1 469.8 46.4Q470.1 45.7 470.7 45.3Q471.2 44.9 472.0 44.9L472.0 44.9Q472.6 44.9 472.9 45.1Q473.3 45.3 473.4 45.6Q473.6 45.8 473.7 46.0L473.7 46.0L473.8 46.0L473.8 43.0L474.8 43.0L474.8 51L473.8 51L473.8 50.1L473.7 50.1Q473.6 50.2 473.4 50.5Q473.2 50.7 472.9 50.9Q472.6 51.1 472.0 51.1ZM472.1 50.3L472.1 50.3Q472.7 50.3 473.0 50.0Q473.4 49.7 473.6 49.2Q473.8 48.7 473.8 48.0L473.8 48.0Q473.8 47.3 473.6 46.8Q473.4 46.3 473.1 46.1Q472.7 45.8 472.1 45.8L472.1 45.8Q471.6 45.8 471.2 46.1Q470.8 46.4 470.6 46.9Q470.4 47.4 470.4 48.0L470.4 48.0Q470.4 48.6 470.6 49.1Q470.8 49.7 471.2 50.0Q471.6 50.3 472.1 50.3Z M487.9 51L486.9 51L485.1 45.0L486.1 45.0L486.8 47.6Q487.0 48.2 487.2 48.8L487.2 48.8Q487.3 49.3 487.4 50.0L487.4 50.0Q487.5 49.4 487.7 48.9L487.7 48.9Q487.8 48.2 488.0 47.6L488.0 47.6L488.7 45.0L489.7 45.0L490.4 47.6Q490.6 48.2 490.8 48.8L490.8 48.8Q490.9 49.4 491.0 49.9L491.0 49.9Q491.1 49.4 491.3 48.9L491.3 48.9Q491.4 48.2 491.6 47.6L491.6 47.6L492.3 45.0L493.3 45.0L491.5 51L490.6 51L489.8 48.3Q489.7 47.9 489.5 47.4Q489.4 47.0 489.3 46.6L489.3 46.6Q489.3 46.3 489.2 46.1L489.2 46.1Q489.2 46.3 489.1 46.6L489.1 46.6Q489.0 47.0 488.9 47.4Q488.8 47.9 488.6 48.3L488.6 48.3L487.9 51ZM498.5 51L497.6 51L497.6 45.0L498.5 45.0L498.5 51ZM498.0 44.0L498.0 44.0Q497.8 44.0 497.6 43.8Q497.4 43.6 497.4 43.4L497.4 43.4Q497.4 43.1 497.6 42.9Q497.8 42.7 498.0 42.7L498.0 42.7Q498.3 42.7 498.5 42.9Q498.7 43.1 498.7 43.4L498.7 43.4Q498.7 43.6 498.5 43.8Q498.3 44.0 498.0 44.0ZM504.4 45.0L505.6 45.0L505.6 45.8L504.4 45.8L504.4 49.4Q504.4 49.8 504.5 50.0Q504.7 50.2 505.1 50.2L505.1 50.2Q505.2 50.2 505.3 50.2Q505.4 50.2 505.6 50.2L505.6 50.2L505.8 51.0Q505.6 51.0 505.4 51.0Q505.2 51.1 505.0 51.1L505.0 51.1Q504.3 51.1 503.8 50.7Q503.4 50.3 503.4 49.5L503.4 49.5L503.4 45.8L502.5 45.8L502.5 45.0L503.4 45.0L503.4 43.6L504.4 43.6L504.4 45.0ZM510.8 47.4L510.8 47.4L510.8 51L509.8 51L509.8 43.0L510.8 43.0L510.8 46.0Q511.0 45.5 511.4 45.3L511.4 45.3Q511.9 44.9 512.6 44.9L512.6 44.9Q513.2 44.9 513.7 45.2Q514.1 45.4 514.4 45.9Q514.6 46.4 514.6 47.2L514.6 47.2L514.6 51L513.7 51L513.7 47.3Q513.7 46.6 513.3 46.2Q512.9 45.8 512.3 45.8L512.3 45.8Q511.9 45.8 511.5 46.0Q511.2 46.2 511.0 46.5Q510.8 46.9 510.8 47.4Z M526.4 53.2L525.4 53.2L525.4 45.0L526.4 45.0L526.4 46.0L526.5 46.0Q526.6 45.8 526.7 45.6Q526.9 45.3 527.3 45.1Q527.6 44.9 528.2 44.9L528.2 44.9Q529.0 44.9 529.5 45.3Q530.1 45.7 530.4 46.4Q530.7 47.1 530.7 48.0L530.7 48.0Q530.7 49.0 530.4 49.7Q530.1 50.4 529.5 50.7Q529.0 51.1 528.2 51.1L528.2 51.1Q527.6 51.1 527.3 50.9Q526.9 50.7 526.8 50.5Q526.6 50.2 526.5 50.1L526.5 50.1L526.4 50.1L526.4 53.2ZM528.1 50.3L528.1 50.3Q528.6 50.3 529.0 50.0Q529.4 49.7 529.6 49.1Q529.8 48.6 529.8 48.0L529.8 48.0Q529.8 47.4 529.6 46.9Q529.4 46.4 529.0 46.1Q528.6 45.8 528.1 45.8L528.1 45.8Q527.5 45.8 527.1 46.1Q526.8 46.3 526.6 46.8Q526.4 47.3 526.4 48.0L526.4 48.0Q526.4 48.7 526.6 49.2Q526.8 49.7 527.1 50.0Q527.5 50.3 528.1 50.3ZM536.1 51L535.2 51L535.2 45.0L536.1 45.0L536.1 45.9L536.2 45.9Q536.3 45.5 536.7 45.2Q537.2 44.9 537.7 44.9L537.7 44.9Q537.8 44.9 538.0 44.9Q538.1 44.9 538.2 44.9L538.2 44.9L538.2 45.9Q538.2 45.9 538.0 45.9Q537.8 45.8 537.6 45.8L537.6 45.8Q537.2 45.8 536.8 46.0Q536.5 46.2 536.3 46.5Q536.1 46.8 536.1 47.2L536.1 47.2L536.1 51ZM544.8 51.1L544.8 51.1Q543.9 51.1 543.3 50.7Q542.7 50.4 542.3 49.7Q542.0 49.0 542.0 48.0Q542.0 47.1 542.3 46.4Q542.7 45.7 543.3 45.3Q543.9 44.9 544.7 44.9L544.7 44.9Q545.2 44.9 545.6 45.1Q546.1 45.2 546.5 45.6Q546.9 45.9 547.1 46.5Q547.3 47.1 547.3 47.9L547.3 47.9L547.3 48.3L543.0 48.3Q543.0 48.9 543.2 49.3L543.2 49.3Q543.4 49.8 543.9 50.0Q544.3 50.3 544.8 50.3L544.8 50.3Q545.2 50.3 545.5 50.2Q545.8 50.1 546.0 49.9Q546.2 49.7 546.3 49.3L546.3 49.3L547.2 49.6Q547.1 50.1 546.8 50.4Q546.4 50.7 545.9 50.9Q545.4 51.1 544.8 51.1ZM543.0 47.5L543.0 47.5L546.3 47.5Q546.3 47.1 546.2 46.8L546.2 46.8Q546.0 46.3 545.6 46.0Q545.2 45.8 544.7 45.8Q544.2 45.8 543.8 46.0Q543.4 46.3 543.2 46.7L543.2 46.7Q543.0 47.1 543.0 47.5ZM554.2 51.1L554.2 51.1Q553.3 51.1 552.7 50.7Q552.1 50.4 551.8 49.7Q551.4 49.0 551.4 48.0L551.4 48.0Q551.4 47.1 551.8 46.4Q552.1 45.7 552.7 45.3Q553.3 44.9 554.2 44.9L554.2 44.9Q554.6 44.9 555.0 45.0Q555.4 45.1 555.7 45.4Q556 45.6 556.2 45.9Q556.5 46.2 556.6 46.6L556.6 46.6L555.7 46.8Q555.6 46.6 555.5 46.4Q555.3 46.2 555.1 46.1Q554.9 45.9 554.7 45.9Q554.4 45.8 554.2 45.8L554.2 45.8Q553.6 45.8 553.2 46.1Q552.8 46.4 552.6 46.9Q552.4 47.4 552.4 48.0L552.4 48.0Q552.4 48.6 552.6 49.1Q552.8 49.6 553.2 50.0Q553.6 50.3 554.2 50.3L554.2 50.3Q554.5 50.3 554.7 50.2Q555.0 50.1 555.2 50.0Q555.4 49.8 555.5 49.6Q555.6 49.4 555.7 49.2L555.7 49.2L556.6 49.4Q556.5 49.8 556.3 50.1Q556.0 50.5 555.7 50.7Q555.4 50.9 555.0 51.0Q554.6 51.1 554.2 51.1ZM562.0 51L561.0 51L561.0 45.0L562.0 45.0L562.0 51ZM561.5 44.0L561.5 44.0Q561.2 44.0 561.0 43.8Q560.8 43.6 560.8 43.4L560.8 43.4Q560.8 43.1 561.0 42.9Q561.2 42.7 561.5 42.7L561.5 42.7Q561.8 42.7 562.0 42.9Q562.2 43.1 562.2 43.4L562.2 43.4Q562.2 43.6 562.0 43.8Q561.8 44.0 561.5 44.0ZM568.7 51.1L568.7 51.1Q568.1 51.1 567.6 50.9Q567.1 50.8 566.8 50.4Q566.5 50.1 566.4 49.5L566.4 49.5L567.3 49.3Q567.4 49.8 567.8 50.0Q568.1 50.3 568.7 50.3L568.7 50.3Q569.3 50.3 569.7 50.0Q570.1 49.7 570.1 49.4L570.1 49.4Q570.1 49.1 569.8 48.9Q569.6 48.6 569.2 48.5L569.2 48.5L568.2 48.3Q567.4 48.1 567.0 47.7Q566.6 47.3 566.6 46.7L566.6 46.7Q566.6 46.2 566.9 45.8Q567.2 45.4 567.7 45.1Q568.2 44.9 568.8 44.9L568.8 44.9Q569.4 44.9 569.8 45.1Q570.3 45.3 570.5 45.6Q570.8 45.9 571.0 46.4L571.0 46.4L570.1 46.6Q570.0 46.3 569.7 46.0Q569.4 45.7 568.8 45.7L568.8 45.7Q568.3 45.7 567.9 46.0Q567.5 46.2 567.5 46.6L567.5 46.6Q567.5 46.9 567.8 47.1Q568.0 47.3 568.6 47.5L568.6 47.5L569.5 47.7Q570.3 47.9 570.7 48.3Q571.1 48.7 571.1 49.3L571.1 49.3Q571.1 49.8 570.8 50.2Q570.5 50.7 569.9 50.9Q569.4 51.1 568.7 51.1ZM576.4 51L575.5 51L575.5 45.0L576.4 45.0L576.4 51ZM576.0 44.0L576.0 44.0Q575.7 44.0 575.5 43.8Q575.3 43.6 575.3 43.4L575.3 43.4Q575.3 43.1 575.5 42.9Q575.7 42.7 576.0 42.7L576.0 42.7Q576.2 42.7 576.4 42.9Q576.6 43.1 576.6 43.4L576.6 43.4Q576.6 43.6 576.4 43.8Q576.2 44.0 576.0 44.0ZM583.6 51.1L583.6 51.1Q582.8 51.1 582.1 50.7Q581.5 50.4 581.2 49.7Q580.8 49.0 580.8 48.0L580.8 48.0Q580.8 47.1 581.2 46.4Q581.5 45.7 582.1 45.3Q582.8 44.9 583.6 44.9L583.6 44.9Q584.4 44.9 585.0 45.3Q585.6 45.7 586.0 46.4Q586.3 47.1 586.3 48.0L586.3 48.0Q586.3 49.0 586.0 49.7Q585.6 50.4 585.0 50.7Q584.4 51.1 583.6 51.1ZM583.6 50.3L583.6 50.3Q584.2 50.3 584.6 50.0Q585.0 49.6 585.1 49.1Q585.3 48.6 585.3 48.0L585.3 48.0Q585.3 47.4 585.1 46.9Q585.0 46.4 584.6 46.1Q584.2 45.8 583.6 45.8L583.6 45.8Q583.0 45.8 582.6 46.1Q582.2 46.4 582.0 46.9Q581.8 47.4 581.8 48.0L581.8 48.0Q581.8 48.6 582.0 49.1Q582.2 49.6 582.6 50.0Q583.0 50.3 583.6 50.3ZM591.7 47.4L591.7 47.4L591.7 51L590.7 51L590.7 45.0L591.7 45.0L591.7 46.1Q591.9 45.5 592.3 45.3L592.3 45.3Q592.8 44.9 593.5 44.9L593.5 44.9Q594.1 44.9 594.6 45.2Q595.0 45.4 595.3 45.9Q595.5 46.4 595.5 47.2L595.5 47.2L595.5 51L594.6 51L594.6 47.3Q594.6 46.6 594.2 46.2Q593.8 45.8 593.2 45.8L593.2 45.8Q592.8 45.8 592.4 46.0Q592.1 46.2 591.9 46.5Q591.7 46.9 591.7 47.4Z "/></g></svg>