<!-- Generated by readme-aura https://github.com/collectioneur/readme-aura -->
<svg width="860" height="220" viewBox="0 0 860 220" xmlns="http://www.w3.org/2000/svg"><defs><clipPath id="satori_bc-id"><path x="0" y="0" width="860" height="220" d="M20,0 h820 a20,20 0 0 1 20,20 v180 a20,20 0 0 1 -20,20 h-820 a20,20 0 0 1 -20,-20 v-180 a20,20 0 0 1 20,-20"/></clipPath></defs><clipPath id="satori_cp-id"><path x="0" y="0" width="860" height="220" d="M20,0 h820 a20,20 0 0 1 20,20 v180 a20,20 0 0 1 -20,20 h-820 a20,20 0 0 1 -20,-20 v-180 a20,20 0 0 1 20,-20"/></clipPath><mask id="satori_om-id"><rect x="1" y="1" width="858" height="218" fill="#fff"/><path width="860" height="220" fill="none" stroke="#000" stroke-width="2" d="M5.8580000000000005,5.8580000000000005 A20,20 0 0 1 20,0 h820 a20,20 0 0 1 20,20 v180 a20,20 0 0 1 -20,20 h-820 a20,20 0 0 1 -20,-20 v-180 A20,20 0 0 1 5.8580000000000005,5.8580000000000005"/></mask><path x="0" y="0" width="860" height="220" fill="#06060a" d="M20,0 h820 a20,20 0 0 1 20,20 v180 a20,20 0 0 1 -20,20 h-820 a20,20 0 0 1 -20,-20 v-180 a20,20 0 0 1 20,-20"/><path width="860" height="220" clip-path="url(#satori_bc-id)" fill="none" stroke="rgba(139,92,246,0.08)" stroke-width="2" d="M5.8580000000000005,5.8580000000000005 A20,20 0 0 1 20,0 h820 a20,20 0 0 1 20,20 v180 a20,20 0 0 1 -20,20 h-820 a20,20 0 0 1 -20,-20 v-180 A20,20 0 0 1 5.8580000000000005,5.8580000000000005"/><clipPath id="satori_cp-id-0" clip-path="url(#satori_cp-id)"><rect x="1" y="1" width="860" height="220"/></clipPath><mask id="satori_om-id-0"><rect x="1" y="1" width="860" height="220" fill="#fff" mask="url(#satori_om-id)"/></mask><svg x="1" y="1" width="860" height="220" preserveAspectRatio="none" clip-path="url(#satori_cp-id-0)" mask="url(#satori_om-id-0)"><defs><radialGradient id="cfg1" cx="50%" cy="50%" r="50%"><stop offset="0%" stop-color="rgba(139,92,246,0.30)"></stop><stop offset="100%" stop-color="rgba(139,92,246,0)"></stop></radialGradient><radialGradient id="cfg2" cx="50%" cy="50%" r="50%"><stop offset="0%" stop-color="rgba(0,229,255,0.25)"></stop><stop offset="100%" stop-color="rgba(0,229,255,0)"></stop></radialGradient></defs><ellipse id="cfo1" cx="120" cy="190" rx="200" ry="150" fill="url(#cfg1)"></ellipse><ellipse id="cfo2" cx="740" cy="50" rx="180" ry="140" fill="url(#cfg2)"></ellipse><style>

    @keyframes cf-orb1 { 0%, 100% { transform: translate(0,0); opacity: 0.35; } 50% { transform: translate(25px,-18px); opacity: 0.6; } }
    @keyframes cf-orb2 { 0%, 100% { transform: translate(0,0); opacity: 0.3; } 50% { transform: translate(-20px,14px); opacity: 0.55; } }
    @keyframes cf-dot { 0%, 100% { opacity: 0.4; } 50% { opacity: 1; } }
    #cfo1 { animation: cf-orb1 10s ease-in-out infinite; }
    #cfo2 { animation: cf-orb2 12s ease-in-out infinite 1s; }
    #cfd1 { animation: cf-dot 2.5s ease-in-out infinite; }
    #cfd2 { animation: cf-dot 2.5s ease-in-out infinite 0.4s; }
    #cfd3 { animation: cf-dot 2.5s ease-in-out infinite 0.8s; }
    #cfd4 { animation: cf-dot 2.5s ease-in-out infinite 1.2s; }
    #cfd5 { animation: cf-dot 2.5s ease-in-out infinite 1.6s; }
    #cfd6 { animation: cf-dot 2.5s ease-in-out infinite 2.0s; }
  
</style>
</svg><mask id="satori_om-id-0-0"><rect x="1" y="1" width="0" height="220" fill="#fff" mask="url(#satori_om-id)"/></mask><mask id="satori_om-id-0-0-0"><rect x="1" y="1" width="0" height="220" fill="#fff" mask="url(#satori_om-id)"/></mask><mask id="satori_om-id-0-0-0-0"><rect x="1" y="1" width="0" height="220" fill="#fff" mask="url(#satori_om-id)"/></mask><mask id="satori_om-id-0-0-0-1"><rect x="1" y="1" width="0" height="220" fill="#fff" mask="url(#satori_om-id)"/></mask><mask id="satori_om-id-0-0-1"><rect x="1" y="1" width="0" height="220" fill="#fff" mask="url(#satori_om-id)"/></mask><mask id="satori_om-id-0-0-1-0"><rect x="1" y="1" width="0" height="220" fill="#fff" mask="url(#satori_om-id)"/></mask><mask id="satori_om-id-0-0-1-1"><rect x="1" y="1" width="0" height="220" fill="#fff" mask="url(#satori_om-id)"/></mask><mask id="satori_om-id-0-1"><rect x="1" y="1" width="0" height="220" fill="#fff" mask="url(#satori_om-id)"/></mask><mask id="satori_om-id-0-2"><rect x="1" y="1" width="0" height="220" fill="#fff" mask="url(#satori_om-id)"/></mask><mask id="satori_om-id-1"><rect x="1" y="1" width="858" height="218" fill="#fff" mask="url(#satori_om-id)"/></mask><mask id="satori_om-id-1-0"><rect x="41" y="58" width="778" height="13" fill="#fff" mask="url(#satori_om-id)"/></mask><g mask="url(#satori_om-id)" clip-path="url(#satori_cp-id)"><path fill="rgba(139,92,246,0.50)" d="M45.2 69.1L45.2 69.1Q44.2 69.1 43.4 68.6Q42.6 68.1 42.1 67.2Q41.7 66.3 41.7 65.0L41.7 65.0Q41.7 63.7 42.1 62.8Q42.6 61.9 43.4 61.4Q44.2 60.9 45.2 60.9L45.2 60.9Q45.8 60.9 46.4 61.1Q46.9 61.2 47.3 61.6Q47.8 61.9 48.0 62.4Q48.3 62.9 48.4 63.5L48.4 63.5L47.4 63.5Q47.3 63.1 47.1 62.8Q46.9 62.5 46.6 62.3Q46.3 62.0 46.0 61.9Q45.6 61.8 45.2 61.8L45.2 61.8Q44.5 61.8 43.9 62.2Q43.3 62.6 43.0 63.3Q42.6 64.0 42.6 65.0L42.6 65.0Q42.6 66.0 43.0 66.7Q43.3 67.4 43.9 67.8Q44.5 68.2 45.2 68.2L45.2 68.2Q45.6 68.2 46.0 68.1Q46.3 67.9 46.6 67.7Q46.9 67.5 47.1 67.2Q47.3 66.9 47.4 66.5L47.4 66.5L48.4 66.5Q48.3 67.1 48.0 67.6Q47.8 68.1 47.3 68.4Q46.9 68.7 46.4 68.9Q45.8 69.1 45.2 69.1ZM58.1 69.1L58.1 69.1Q57.2 69.1 56.5 68.8Q55.8 68.4 55.4 67.7Q55.0 67.1 55.0 66.3L55.0 66.3L55.0 61.0L56.0 61.0L56.0 66.2Q56.0 66.8 56.3 67.2Q56.5 67.7 57.0 67.9Q57.5 68.2 58.1 68.2L58.1 68.2Q58.8 68.2 59.3 67.9Q59.7 67.7 60.0 67.2Q60.2 66.8 60.2 66.2L60.2 66.2L60.2 61.0L61.3 61.0L61.3 66.3Q61.3 67.1 60.9 67.7Q60.5 68.4 59.8 68.8Q59.1 69.1 58.1 69.1ZM69.2 69L68.2 69L68.2 61.0L70.9 61.0Q71.9 61.0 72.5 61.3Q73.1 61.6 73.4 62.2Q73.7 62.8 73.7 63.5Q73.7 64.2 73.4 64.7Q73.1 65.3 72.5 65.6L72.5 65.6Q72.3 65.7 72.2 65.7L72.2 65.7L74.0 69L72.8 69L71.1 65.9Q71.0 65.9 70.9 65.9L70.9 65.9L69.2 65.9L69.2 69ZM69.2 61.9L69.2 65.0L70.9 65.0Q71.5 65.0 71.9 64.8Q72.3 64.6 72.5 64.3Q72.6 63.9 72.6 63.5L72.6 63.5Q72.6 63.0 72.5 62.6Q72.3 62.3 71.9 62.1Q71.5 61.9 70.9 61.9L70.9 61.9L69.2 61.9ZM81.3 69L80.3 69L80.3 61.0L83.0 61.0Q83.9 61.0 84.5 61.3Q85.1 61.6 85.4 62.2Q85.7 62.8 85.7 63.5Q85.7 64.2 85.4 64.7Q85.1 65.3 84.5 65.6L84.5 65.6Q84.4 65.7 84.3 65.7L84.3 65.7L86.0 69L84.9 69L83.2 65.9Q83.1 65.9 83.0 65.9L83.0 65.9L81.3 65.9L81.3 69ZM81.3 61.9L81.3 65.0L83.0 65.0Q83.6 65.0 84.0 64.8Q84.4 64.6 84.5 64.3Q84.7 63.9 84.7 63.5L84.7 63.5Q84.7 63.0 84.5 62.6Q84.4 62.3 84.0 62.1Q83.6 61.9 83.0 61.9L83.0 61.9L81.3 61.9ZM97.3 69L92.3 69L92.3 61.0L97.2 61.0L97.2 61.9L93.4 61.9L93.4 64.5L97.0 64.5L97.0 65.4L93.4 65.4L93.4 68.1L97.3 68.1L97.3 69ZM105.0 69L104.0 69L104.0 61.0L105.2 61.0L108.4 66.1Q108.5 66.3 108.7 66.6Q108.9 66.9 109.1 67.3L109.1 67.3Q109.2 67.5 109.4 67.8L109.4 67.8Q109.3 67.5 109.3 67.3L109.3 67.3Q109.3 66.9 109.3 66.5Q109.3 66.2 109.3 65.9L109.3 65.9L109.3 61.0L110.3 61.0L110.3 69L109.1 69L106.2 64.4Q106.0 64.1 105.8 63.8Q105.6 63.5 105.3 63.0L105.3 63.0Q105.1 62.7 104.9 62.2L104.9 62.2Q104.9 62.6 104.9 63.0L104.9 63.0Q105.0 63.5 105.0 63.8Q105.0 64.2 105.0 64.4L105.0 64.4L105.0 69ZM119.3 61.9L116.8 61.9L116.8 61.0L122.9 61.0L122.9 61.9L120.3 61.9L120.3 69L119.3 69L119.3 61.9ZM134.1 69L129.3 69L129.3 61.0L130.4 61.0L130.4 68.1L134.1 68.1L134.1 69ZM143.8 69L142.8 69L142.8 65.7L139.9 61.0L141.1 61.0L142.6 63.6Q142.9 64.0 143.1 64.4L143.1 64.4Q143.2 64.6 143.3 64.9L143.3 64.9Q143.5 64.6 143.6 64.4L143.6 64.4Q143.8 64.0 144.0 63.6L144.0 63.6L145.6 61.0L146.8 61.0L143.8 65.7L143.8 69Z M166.1 69L161.1 69L161.1 61.0L166.0 61.0L166.0 61.9L162.1 61.9L162.1 64.5L165.7 64.5L165.7 65.4L162.1 65.4L162.1 68.1L166.1 68.1L166.1 69ZM173.2 69L172.1 69L174.9 64.9L172.3 61.0L173.4 61.0L174.6 62.7Q174.8 63.1 175.0 63.3Q175.2 63.6 175.3 63.8L175.3 63.8Q175.4 64.0 175.5 64.3L175.5 64.3Q175.7 64.0 175.8 63.8L175.8 63.8Q175.9 63.6 176.1 63.3Q176.2 63.1 176.5 62.7L176.5 62.7L177.7 61.0L178.8 61.0L176.1 64.9L179.0 69L177.8 69L176.4 67.0Q176.2 66.6 176.0 66.4Q175.9 66.2 175.7 65.9L175.7 65.9Q175.6 65.8 175.5 65.6L175.5 65.6Q175.4 65.8 175.3 65.9L175.3 65.9Q175.2 66.1 175.0 66.4Q174.9 66.6 174.6 67.0L174.6 67.0L173.2 69ZM186.3 69L185.2 69L185.2 61.0L188.0 61.0Q188.9 61.0 189.5 61.3Q190.1 61.7 190.4 62.3Q190.7 62.8 190.7 63.5Q190.7 64.3 190.4 64.8Q190.1 65.4 189.5 65.8Q188.9 66.1 188.0 66.1L188.0 66.1L186.3 66.1L186.3 69ZM186.3 61.9L186.3 65.2L187.9 65.2Q188.6 65.2 189.0 65.0Q189.3 64.8 189.5 64.4Q189.7 64.0 189.7 63.5Q189.7 63.1 189.5 62.7Q189.3 62.3 189.0 62.1Q188.6 61.9 187.9 61.9L187.9 61.9L186.3 61.9ZM202.0 69L197.3 69L197.3 61.0L198.3 61.0L198.3 68.1L202.0 68.1L202.0 69ZM211.7 69.1L211.7 69.1Q210.7 69.1 209.9 68.6Q209.1 68.1 208.6 67.2Q208.2 66.3 208.2 65.0L208.2 65.0Q208.2 63.7 208.6 62.8Q209.1 61.9 209.9 61.4Q210.7 60.9 211.7 60.9L211.7 60.9Q212.8 60.9 213.6 61.4Q214.4 61.9 214.8 62.8Q215.3 63.7 215.3 65.0L215.3 65.0Q215.3 66.3 214.8 67.2Q214.4 68.1 213.6 68.6Q212.8 69.1 211.7 69.1ZM211.7 68.2L211.7 68.2Q212.4 68.2 213.0 67.8Q213.6 67.4 213.9 66.7Q214.3 66.0 214.3 65.0L214.3 65.0Q214.3 64.0 213.9 63.3Q213.6 62.6 213.0 62.2Q212.4 61.8 211.7 61.8L211.7 61.8Q211.0 61.8 210.4 62.2Q209.8 62.6 209.5 63.3Q209.2 64.0 209.2 65.0L209.2 65.0Q209.2 66.0 209.5 66.7Q209.8 67.4 210.4 67.8Q211.0 68.2 211.7 68.2ZM222.9 69L221.9 69L221.9 61.0L224.6 61.0Q225.6 61.0 226.2 61.3Q226.8 61.6 227.1 62.2Q227.4 62.8 227.4 63.5Q227.4 64.2 227.1 64.7Q226.8 65.3 226.2 65.6L226.2 65.6Q226.0 65.7 225.9 65.7L225.9 65.7L227.7 69L226.5 69L224.8 65.9Q224.7 65.9 224.6 65.9L224.6 65.9L222.9 65.9L222.9 69ZM222.9 61.9L222.9 65.0L224.6 65.0Q225.2 65.0 225.6 64.8Q226.0 64.6 226.2 64.3Q226.3 63.9 226.3 63.5L226.3 63.5Q226.3 63.0 226.2 62.6Q226.0 62.3 225.6 62.1Q225.2 61.9 224.6 61.9L224.6 61.9L222.9 61.9ZM234.0 61.0L235.0 61.0L235.0 69L234.0 69L234.0 61.0ZM243.0 69L241.9 69L241.9 61.0L243.1 61.0L246.4 66.1Q246.5 66.3 246.7 66.6Q246.9 66.9 247.1 67.3L247.1 67.3Q247.2 67.5 247.3 67.8L247.3 67.8Q247.3 67.5 247.3 67.3L247.3 67.3Q247.3 66.9 247.3 66.5Q247.3 66.2 247.3 65.9L247.3 65.9L247.3 61.0L248.3 61.0L248.3 69L247.1 69L244.2 64.4Q244.0 64.1 243.8 63.8Q243.6 63.5 243.3 63.0L243.3 63.0Q243.1 62.7 242.9 62.2L242.9 62.2Q242.9 62.6 242.9 63.0L242.9 63.0Q242.9 63.5 242.9 63.8Q243.0 64.2 243.0 64.4L243.0 64.4L243.0 69ZM258.5 69.1L258.5 69.1Q257.4 69.1 256.6 68.6Q255.8 68.1 255.4 67.2Q254.9 66.3 254.9 65.0L254.9 65.0Q254.9 63.7 255.4 62.8Q255.8 61.9 256.6 61.4Q257.4 60.9 258.4 60.9L258.4 60.9Q259.1 60.9 259.6 61.1Q260.2 61.3 260.6 61.6Q261.0 62.0 261.3 62.4Q261.6 62.9 261.7 63.5L261.7 63.5L260.7 63.5Q260.5 63.1 260.3 62.8Q260.1 62.5 259.8 62.3Q259.6 62.1 259.2 62.0Q258.9 61.8 258.4 61.8L258.4 61.8Q257.7 61.8 257.2 62.2Q256.6 62.6 256.2 63.3Q255.9 64.0 255.9 65.0L255.9 65.0Q255.9 66.0 256.2 66.7Q256.6 67.4 257.2 67.8Q257.8 68.2 258.5 68.2L258.5 68.2Q259.2 68.2 259.7 67.9Q260.2 67.6 260.5 67.1L260.5 67.1Q260.8 66.6 260.8 65.9L260.8 65.9L258.7 65.9L258.7 65.0L261.8 65.0L261.8 65.9Q261.8 66.8 261.3 67.6Q260.9 68.3 260.2 68.7Q259.4 69.1 258.5 69.1Z "/></g><mask id="satori_om-id-1-1"><rect x="41" y="87" width="778" height="76" fill="#fff" mask="url(#satori_om-id)"/></mask><defs><clipPath id="satori_bc-id-1-1-0" clip-path="url(#satori_cp-id)"><path x="41" y="87" width="202" height="33" d="M51,87 h182 a10,10 0 0 1 10,10 v13 a10,10 0 0 1 -10,10 h-182 a10,10 0 0 1 -10,-10 v-13 a10,10 0 0 1 10,-10"/></clipPath></defs><mask id="satori_om-id-1-1-0"><rect x="42" y="88" width="200" height="31" fill="#fff" mask="url(#satori_om-id)"/><path width="202" height="33" fill="none" stroke="#000" stroke-width="2" d="M43.929,89.929 A10,10 0 0 1 51,87 h182 a10,10 0 0 1 10,10 v13 a10,10 0 0 1 -10,10 h-182 a10,10 0 0 1 -10,-10 v-13 A10,10 0 0 1 43.929,89.929"/></mask><path x="41" y="87" width="202" height="33" fill="rgba(0,229,255,0.04)" d="M51,87 h182 a10,10 0 0 1 10,10 v13 a10,10 0 0 1 -10,10 h-182 a10,10 0 0 1 -10,-10 v-13 a10,10 0 0 1 10,-10" clip-path="url(#satori_cp-id)" mask="url(#satori_om-id)"/><path width="202" height="33" clip-path="url(#satori_bc-id-1-1-0)" fill="none" stroke="rgba(0,229,255,0.12)" stroke-width="2" d="M43.929,89.929 A10,10 0 0 1 51,87 h182 a10,10 0 0 1 10,10 v13 a10,10 0 0 1 -10,10 h-182 a10,10 0 0 1 -10,-10 v-13 A10,10 0 0 1 43.929,89.929"/><mask id="satori_ms-id-1-1-0-0-0" maskUnits="userSpaceOnUse"><rect x="0" y="0" width="860" height="220" fill="#fff"/><path x="58" y="101" width="6" height="6" fill="#000"  stroke-width="0" d="M61,101 h0 a3,3 0 0 1 3,3 v0 a3,3 0 0 1 -3,3 h0 a3,3 0 0 1 -3,-3 v0 a3,3 0 0 1 3,-3" clip-path="url(#satori_cp-id)" mask="url(#satori_om-id)"/></mask><defs><filter id="satori_s-id-1-1-0-0-0" x="-266.66666666666663%" y="-266.66666666666663%" width="633.3333333333333%" height="633.3333333333333%"><feGaussianBlur stdDeviation="4" result="b"/><feFlood flood-color="rgba(0,229,255,0.5)" in="SourceGraphic" result="f"/><feComposite in="f" in2="b" operator="in"/></filter></defs><g mask="url(#satori_ms-id-1-1-0-0-0)" filter="url(#satori_s-id-1-1-0-0-0)" opacity="1"><path x="58" y="101" width="6" height="6" fill="#fff" stroke="#fff" stroke-width="0" d="M61,101 h0 a3,3 0 0 1 3,3 v0 a3,3 0 0 1 -3,3 h0 a3,3 0 0 1 -3,-3 v0 a3,3 0 0 1 3,-3" clip-path="url(#satori_cp-id)" mask="url(#satori_om-id)"/></g><mask id="satori_om-id-1-1-0-0"><rect x="58" y="101" width="6" height="6" fill="#fff" mask="url(#satori_om-id)"/></mask><path x="58" y="101" width="6" height="6" fill="rgba(0,229,255,0.9)" d="M61,101 h0 a3,3 0 0 1 3,3 v0 a3,3 0 0 1 -3,3 h0 a3,3 0 0 1 -3,-3 v0 a3,3 0 0 1 3,-3" clip-path="url(#satori_cp-id)" mask="url(#satori_om-id)"/><mask id="satori_om-id-1-1-0-1"><rect x="72" y="96" width="154" height="15" fill="#fff" mask="url(#satori_om-id)"/></mask><g mask="url(#satori_om-id)" clip-path="url(#satori_cp-id)"><path fill="rgba(255,255,255,0.60)" d="M73.5 108L72.3 108L75.5 99.3L76.8 99.3L80.0 108L78.8 108L77.9 105.6L74.3 105.6L73.5 108ZM74.7 104.6L77.6 104.6L77.0 102.8Q76.8 102.3 76.6 101.6L76.6 101.6Q76.4 101.0 76.1 100.2L76.1 100.2Q75.9 101.0 75.7 101.6L75.7 101.6Q75.4 102.4 75.3 102.8L75.3 102.8L74.7 104.6ZM81.6 99.3L82.7 99.3L82.7 108L81.6 108L81.6 99.3Z M89.3 108L88.1 108L91.3 99.3L92.5 99.3L95.8 108L94.6 108L93.7 105.6L90.1 105.6L89.3 108ZM90.4 104.6L93.4 104.6L92.7 102.8Q92.6 102.3 92.3 101.6L92.3 101.6Q92.1 101.0 91.9 100.2L91.9 100.2Q91.6 101.0 91.5 101.6L91.5 101.6Q91.2 102.4 91.1 102.8L91.1 102.8L90.4 104.6ZM99.9 110.6L99.9 110.6Q99.2 110.6 98.7 110.4Q98.1 110.2 97.8 109.9Q97.4 109.6 97.2 109.3L97.2 109.3L98.1 108.7Q98.2 108.9 98.4 109.1Q98.7 109.3 99.0 109.5Q99.4 109.7 99.9 109.7L99.9 109.7Q100.7 109.7 101.2 109.3Q101.7 108.9 101.7 108.1L101.7 108.1L101.7 106.8L101.6 106.8Q101.5 107.0 101.3 107.2Q101.1 107.5 100.7 107.7Q100.4 107.9 99.7 107.9L99.7 107.9Q98.9 107.9 98.3 107.5Q97.7 107.2 97.3 106.4Q97.0 105.7 97.0 104.7L97.0 104.7Q97.0 103.7 97.3 102.9Q97.7 102.2 98.3 101.8Q98.9 101.4 99.8 101.4L99.8 101.4Q100.4 101.4 100.8 101.6Q101.1 101.8 101.3 102.1Q101.6 102.3 101.7 102.5L101.7 102.5L101.8 102.5L101.8 101.4L102.8 101.4L102.8 108.2Q102.8 109.0 102.4 109.5Q102.0 110.1 101.4 110.3Q100.7 110.6 99.9 110.6ZM99.9 107.0L99.9 107.0Q100.5 107.0 100.9 106.7Q101.3 106.4 101.5 105.9Q101.7 105.4 101.7 104.7L101.7 104.7Q101.7 104.0 101.5 103.4Q101.3 102.9 100.9 102.6Q100.5 102.3 99.9 102.3L99.9 102.3Q99.3 102.3 98.9 102.6Q98.5 102.9 98.2 103.5Q98.0 104.0 98.0 104.7L98.0 104.7Q98.0 105.3 98.2 105.9Q98.5 106.4 98.9 106.7Q99.3 107.0 99.9 107.0ZM107.7 108.1L107.7 108.1Q106.7 108.1 106.1 107.7Q105.4 107.3 105.0 106.5Q104.6 105.8 104.6 104.8Q104.6 103.8 105.0 103.0Q105.4 102.2 106.0 101.8Q106.7 101.4 107.6 101.4L107.6 101.4Q108.1 101.4 108.6 101.5Q109.1 101.7 109.5 102.1Q109.9 102.5 110.2 103.1Q110.4 103.7 110.4 104.6L110.4 104.6L110.4 105.1L105.7 105.1Q105.7 105.7 105.9 106.2L105.9 106.2Q106.2 106.7 106.6 106.9Q107.1 107.2 107.7 107.2L107.7 107.2Q108.1 107.2 108.4 107.1Q108.7 107.0 108.9 106.8Q109.2 106.5 109.3 106.2L109.3 106.2L110.3 106.5Q110.2 107.0 109.8 107.3Q109.4 107.7 108.9 107.9Q108.4 108.1 107.7 108.1ZM105.7 104.2L105.7 104.2L109.4 104.2Q109.3 103.7 109.2 103.4L109.2 103.4Q109.0 102.9 108.6 102.6Q108.2 102.3 107.6 102.3Q107.0 102.3 106.6 102.6Q106.1 102.9 105.9 103.3L105.9 103.3Q105.7 103.7 105.7 104.2ZM113.3 104.1L113.3 104.1L113.3 108L112.2 108L112.2 101.4L113.3 101.4L113.3 102.7Q113.5 102.0 114.0 101.7L114.0 101.7Q114.5 101.4 115.3 101.4L115.3 101.4Q115.9 101.4 116.4 101.6Q116.9 101.9 117.2 102.5Q117.5 103.0 117.5 103.8L117.5 103.8L117.5 108L116.4 108L116.4 103.9Q116.4 103.2 116.0 102.7Q115.6 102.3 114.9 102.3L114.9 102.3Q114.5 102.3 114.1 102.5Q113.7 102.7 113.5 103.1Q113.3 103.5 113.3 104.1ZM120.9 101.4L122.2 101.4L122.2 102.4L120.9 102.4L120.9 106.3Q120.9 106.7 121.0 106.9Q121.2 107.1 121.6 107.1L121.6 107.1Q121.7 107.1 121.9 107.1Q122.0 107.1 122.2 107.1L122.2 107.1L122.4 108.0Q122.2 108.0 122.0 108.1Q121.8 108.1 121.6 108.1L121.6 108.1Q120.8 108.1 120.3 107.6Q119.8 107.2 119.8 106.4L119.8 106.4L119.8 102.4L118.8 102.4L118.8 101.4L119.8 101.4L119.8 99.9L120.9 99.9L120.9 101.4ZM126.1 108.1L126.1 108.1Q125.4 108.1 124.9 107.9Q124.4 107.7 124.0 107.4Q123.7 107.0 123.6 106.4L123.6 106.4L124.6 106.2Q124.7 106.7 125.1 107.0Q125.5 107.2 126.1 107.2L126.1 107.2Q126.8 107.2 127.2 106.9Q127.6 106.6 127.6 106.2L127.6 106.2Q127.6 105.9 127.3 105.7Q127.1 105.4 126.6 105.3L126.6 105.3L125.5 105.1Q124.6 104.9 124.2 104.4Q123.8 104.0 123.8 103.3L123.8 103.3Q123.8 102.7 124.1 102.3Q124.4 101.9 124.9 101.6Q125.5 101.4 126.2 101.4L126.2 101.4Q126.9 101.4 127.3 101.6Q127.8 101.8 128.1 102.1Q128.4 102.5 128.5 102.9L128.5 102.9L127.6 103.2Q127.5 102.8 127.1 102.6Q126.8 102.3 126.2 102.3L126.2 102.3Q125.6 102.3 125.2 102.5Q124.8 102.8 124.8 103.2L124.8 103.2Q124.8 103.6 125.1 103.8Q125.4 104.0 125.9 104.2L125.9 104.2L126.9 104.4Q127.8 104.6 128.2 105.0Q128.7 105.5 128.7 106.2L128.7 106.2Q128.7 106.7 128.3 107.2Q128.0 107.6 127.4 107.9Q126.8 108.1 126.1 108.1Z M136.6 108.1L136.6 108.1Q135.8 108.1 135.1 107.8Q134.5 107.5 134.2 106.9Q133.8 106.4 133.8 105.7L133.8 105.7Q133.8 105.1 134.1 104.7Q134.3 104.3 134.7 104.0L134.7 104.0Q135.1 103.6 135.6 103.3L135.6 103.3Q135.5 103.1 135.4 103.0L135.4 103.0Q135.0 102.6 134.8 102.1Q134.6 101.7 134.6 101.2L134.6 101.2Q134.6 100.6 134.8 100.1Q135.1 99.7 135.6 99.4Q136.0 99.2 136.7 99.2L136.7 99.2Q137.3 99.2 137.8 99.4Q138.3 99.7 138.6 100.1Q138.8 100.5 138.8 101.1L138.8 101.1Q138.8 101.5 138.7 101.8Q138.5 102.1 138.3 102.4Q138.0 102.7 137.7 103.0L137.7 103.0L137.0 103.4L138.9 105.7Q139.0 105.6 139.0 105.4L139.0 105.4Q139.2 104.8 139.2 104.1L139.2 104.1L140.3 104.1Q140.3 105.0 140.1 105.6Q139.9 106.1 139.6 106.4L139.6 106.4Q139.6 106.5 139.6 106.5L139.6 106.5L140.8 108L139.5 108L138.9 107.3Q138.5 107.7 137.9 107.9L137.9 107.9Q137.3 108.1 136.6 108.1ZM138.3 106.5L136.2 104.0L135.9 104.3Q135.4 104.7 135.1 105.0Q134.9 105.4 134.9 105.8L134.9 105.8Q134.9 106.2 135.1 106.5Q135.3 106.8 135.7 107.0Q136.1 107.2 136.6 107.2L136.6 107.2Q137.1 107.2 137.6 107.0L137.6 107.0Q137.9 106.8 138.3 106.5L138.3 106.5ZM136.4 102.7L136.4 102.7L137.0 102.3Q137.1 102.1 137.3 102.0Q137.5 101.8 137.6 101.6Q137.8 101.4 137.8 101.1L137.8 101.1Q137.8 100.6 137.5 100.4Q137.2 100.1 136.7 100.1L136.7 100.1Q136.4 100.1 136.1 100.2Q135.9 100.4 135.8 100.6Q135.6 100.8 135.6 101.2L135.6 101.2Q135.6 101.5 135.8 101.8Q135.9 102.1 136.2 102.4L136.2 102.4Q136.3 102.5 136.4 102.7Z M147.1 108L146.0 108L146.0 99.3L149.0 99.3Q150.0 99.3 150.7 99.6Q151.3 100.0 151.6 100.6Q152.0 101.2 152.0 102.0Q152.0 102.7 151.6 103.3Q151.3 103.9 150.7 104.3L150.7 104.3Q150.5 104.4 150.3 104.4L150.3 104.4L152.3 108L151.0 108L149.2 104.6Q149.1 104.6 149.0 104.6L149.0 104.6L147.1 104.6L147.1 108ZM147.1 100.2L147.1 103.6L148.9 103.6Q149.6 103.6 150.0 103.4Q150.5 103.2 150.7 102.8Q150.9 102.5 150.9 102.0L150.9 102.0Q150.9 101.4 150.7 101.1Q150.5 100.7 150.0 100.5Q149.6 100.2 148.9 100.2L148.9 100.2L147.1 100.2ZM154.5 108L153.3 108L156.4 99.3L157.7 99.3L160.9 108L159.8 108L158.9 105.6L155.3 105.6L154.5 108ZM155.6 104.6L158.5 104.6L157.9 102.8Q157.7 102.3 157.5 101.6L157.5 101.6Q157.3 101.0 157.1 100.2L157.1 100.2Q156.8 101.0 156.6 101.6L156.6 101.6Q156.4 102.4 156.2 102.8L156.2 102.8L155.6 104.6ZM166.2 108.1L166.2 108.1Q165.0 108.1 164.1 107.6Q163.2 107.0 162.7 106.0Q162.3 105.0 162.3 103.6L162.3 103.6Q162.3 102.3 162.7 101.2Q163.2 100.2 164.1 99.7Q165.0 99.2 166.1 99.2L166.1 99.2Q166.8 99.2 167.4 99.4Q168.0 99.6 168.5 99.9Q168.9 100.3 169.2 100.8Q169.6 101.4 169.7 102.0L169.7 102.0L168.5 102.0Q168.4 101.6 168.2 101.3Q168.0 100.9 167.6 100.7Q167.3 100.4 167.0 100.3Q166.6 100.2 166.1 100.2L166.1 100.2Q165.3 100.2 164.7 100.6Q164.1 101.0 163.7 101.7Q163.3 102.5 163.3 103.6L163.3 103.6Q163.3 104.8 163.7 105.5Q164.1 106.3 164.7 106.7Q165.4 107.1 166.2 107.1L166.2 107.1Q166.9 107.1 167.5 106.8Q168.0 106.5 168.3 105.9L168.3 105.9Q168.6 105.3 168.7 104.6L168.7 104.6L166.4 104.6L166.4 103.6L169.7 103.6L169.7 104.6Q169.7 105.7 169.3 106.4Q168.8 107.2 168.0 107.7Q167.2 108.1 166.2 108.1Z M178.3 108.2L178.3 108.2Q177.4 108.2 176.7 107.8Q176.0 107.5 175.6 107.0Q175.2 106.4 175.1 105.7L175.1 105.7L176.3 105.7Q176.3 106.2 176.6 106.5Q176.9 106.8 177.4 107.0Q177.8 107.2 178.3 107.2L178.3 107.2Q178.9 107.2 179.4 107.0Q179.9 106.8 180.1 106.4Q180.4 106.1 180.4 105.6L180.4 105.6Q180.4 105.2 180.2 104.9Q179.9 104.7 179.5 104.5Q179.1 104.3 178.7 104.2L178.7 104.2L177.6 103.9Q176.6 103.6 176.0 103.0Q175.4 102.5 175.4 101.6L175.4 101.6Q175.4 100.9 175.8 100.3Q176.2 99.8 176.9 99.5Q177.6 99.2 178.4 99.2L178.4 99.2Q179.3 99.2 179.9 99.5Q180.6 99.8 181.0 100.3Q181.3 100.8 181.4 101.5L181.4 101.5L180.3 101.5Q180.2 100.8 179.7 100.5Q179.1 100.1 178.4 100.1L178.4 100.1Q177.8 100.1 177.4 100.3Q176.9 100.5 176.7 100.8Q176.5 101.1 176.5 101.6L176.5 101.6Q176.5 102.0 176.8 102.3Q177.0 102.6 177.4 102.7Q177.8 102.9 178.1 103.0L178.1 103.0L179.0 103.2Q179.4 103.3 179.8 103.5Q180.2 103.6 180.6 103.9Q181.0 104.2 181.2 104.6Q181.5 105.0 181.5 105.6L181.5 105.6Q181.5 106.3 181.1 106.9Q180.7 107.5 180.0 107.8Q179.3 108.2 178.3 108.2ZM183.3 110.4L183.3 110.4L183.6 109.5L183.7 109.5Q184.0 109.6 184.3 109.5Q184.5 109.5 184.7 109.3Q184.9 109.0 185.1 108.6L185.1 108.6L185.3 108.0L182.8 101.4L183.9 101.4L185.3 105.3Q185.6 105.9 185.7 106.5L185.7 106.5Q185.8 106.8 185.8 107.0L185.8 107.0Q185.9 106.8 186.0 106.5L186.0 106.5Q186.1 105.9 186.3 105.3L186.3 105.3L187.7 101.4L188.9 101.4L186.0 109.0Q185.8 109.5 185.5 109.8Q185.3 110.2 184.9 110.3Q184.5 110.5 184.1 110.5L184.1 110.5Q183.8 110.5 183.6 110.5Q183.4 110.4 183.3 110.4ZM192.7 108.1L192.7 108.1Q192.0 108.1 191.5 107.9Q190.9 107.7 190.6 107.4Q190.3 107.0 190.1 106.4L190.1 106.4L191.1 106.2Q191.3 106.7 191.7 107.0Q192.1 107.2 192.7 107.2L192.7 107.2Q193.3 107.2 193.7 106.9Q194.2 106.6 194.2 106.2L194.2 106.2Q194.2 105.9 193.9 105.7Q193.7 105.4 193.2 105.3L193.2 105.3L192.1 105.1Q191.2 104.9 190.8 104.4Q190.3 104.0 190.3 103.3L190.3 103.3Q190.3 102.7 190.7 102.3Q191.0 101.9 191.5 101.6Q192.1 101.4 192.8 101.4L192.8 101.4Q193.4 101.4 193.9 101.6Q194.4 101.8 194.7 102.1Q195.0 102.5 195.1 102.9L195.1 102.9L194.2 103.2Q194.0 102.8 193.7 102.6Q193.4 102.3 192.8 102.3L192.8 102.3Q192.2 102.3 191.8 102.5Q191.4 102.8 191.4 103.2L191.4 103.2Q191.4 103.6 191.7 103.8Q191.9 104.0 192.5 104.2L192.5 104.2L193.5 104.4Q194.4 104.6 194.8 105.0Q195.2 105.5 195.2 106.2L195.2 106.2Q195.2 106.7 194.9 107.2Q194.6 107.6 194.0 107.9Q193.4 108.1 192.7 108.1ZM198.3 101.4L199.7 101.4L199.7 102.4L198.3 102.4L198.3 106.3Q198.3 106.7 198.5 106.9Q198.7 107.1 199.1 107.1L199.1 107.1Q199.2 107.1 199.3 107.1Q199.5 107.1 199.6 107.1L199.6 107.1L199.8 108.0Q199.7 108.0 199.5 108.1Q199.3 108.1 199.0 108.1L199.0 108.1Q198.2 108.1 197.7 107.6Q197.2 107.2 197.2 106.4L197.2 106.4L197.2 102.4L196.3 102.4L196.3 101.4L197.2 101.4L197.2 99.9L198.3 99.9L198.3 101.4ZM204.1 108.1L204.1 108.1Q203.1 108.1 202.4 107.7Q201.7 107.3 201.4 106.5Q201.0 105.8 201.0 104.8Q201.0 103.8 201.3 103.0Q201.7 102.2 202.4 101.8Q203.0 101.4 203.9 101.4L203.9 101.4Q204.5 101.4 205.0 101.5Q205.5 101.7 205.9 102.1Q206.3 102.5 206.5 103.1Q206.8 103.7 206.8 104.6L206.8 104.6L206.8 105.1L202.0 105.1Q202.1 105.7 202.3 106.2L202.3 106.2Q202.6 106.7 203.0 106.9Q203.5 107.2 204.1 107.2L204.1 107.2Q204.4 107.2 204.8 107.1Q205.1 107.0 205.3 106.8Q205.5 106.5 205.7 106.2L205.7 106.2L206.7 106.5Q206.5 107.0 206.2 107.3Q205.8 107.7 205.3 107.9Q204.7 108.1 204.1 108.1ZM202.1 104.2L202.1 104.2L205.7 104.2Q205.7 103.7 205.5 103.4L205.5 103.4Q205.3 102.9 204.9 102.6Q204.5 102.3 203.9 102.3Q203.3 102.3 202.9 102.6Q202.5 102.9 202.3 103.3L202.3 103.3Q202.1 103.7 202.1 104.2ZM209.6 108L208.6 108L208.6 101.4L209.6 101.4L209.6 102.7Q209.8 102.3 210.0 102.0L210.0 102.0Q210.3 101.7 210.6 101.5Q211.0 101.3 211.5 101.3L211.5 101.3Q212.2 101.3 212.6 101.8L212.6 101.8Q213.0 102.1 213.1 102.7L213.1 102.7Q213.3 102.3 213.5 102.1L213.5 102.1Q213.8 101.7 214.2 101.5Q214.7 101.3 215.2 101.3L215.2 101.3Q215.8 101.3 216.2 101.6Q216.7 101.8 217.0 102.3Q217.3 102.8 217.3 103.6L217.3 103.6L217.3 108L216.2 108L216.2 103.6Q216.2 102.9 215.8 102.6Q215.4 102.3 214.9 102.3L214.9 102.3Q214.4 102.3 214.1 102.5Q213.8 102.7 213.6 103.0Q213.5 103.3 213.5 103.7L213.5 103.7L213.5 108L212.4 108L212.4 103.5Q212.4 103.0 212.0 102.6Q211.7 102.3 211.1 102.3L211.1 102.3Q210.7 102.3 210.4 102.5Q210.1 102.7 209.9 103.0Q209.6 103.4 209.6 103.9L209.6 103.9L209.6 108ZM221.6 108.1L221.6 108.1Q221.0 108.1 220.4 107.9Q219.9 107.7 219.6 107.4Q219.2 107.0 219.1 106.4L219.1 106.4L220.1 106.2Q220.3 106.7 220.6 107.0Q221.0 107.2 221.6 107.2L221.6 107.2Q222.3 107.2 222.7 106.9Q223.1 106.6 223.1 106.2L223.1 106.2Q223.1 105.9 222.9 105.7Q222.6 105.4 222.2 105.3L222.2 105.3L221.1 105.1Q220.2 104.9 219.7 104.4Q219.3 104.0 219.3 103.3L219.3 103.3Q219.3 102.7 219.6 102.3Q219.9 101.9 220.5 101.6Q221.0 101.4 221.7 101.4L221.7 101.4Q222.4 101.4 222.9 101.6Q223.4 101.8 223.7 102.1Q223.9 102.5 224.1 102.9L224.1 102.9L223.1 103.2Q223.0 102.8 222.7 102.6Q222.4 102.3 221.7 102.3L221.7 102.3Q221.2 102.3 220.8 102.5Q220.4 102.8 220.4 103.2L220.4 103.2Q220.4 103.6 220.6 103.8Q220.9 104.0 221.5 104.2L221.5 104.2L222.5 104.4Q223.4 104.6 223.8 105.0Q224.2 105.5 224.2 106.2L224.2 106.2Q224.2 106.7 223.9 107.2Q223.6 107.6 223.0 107.9Q222.4 108.1 221.6 108.1Z "/></g><defs><clipPath id="satori_bc-id-1-1-1" clip-path="url(#satori_cp-id)"><path x="253" y="87" width="234" height="33" d="M263,87 h214 a10,10 0 0 1 10,10 v13 a10,10 0 0 1 -10,10 h-214 a10,10 0 0 1 -10,-10 v-13 a10,10 0 0 1 10,-10"/></clipPath></defs><mask id="satori_om-id-1-1-1"><rect x="254" y="88" width="232" height="31" fill="#fff" mask="url(#satori_om-id)"/><path width="234" height="33" fill="none" stroke="#000" stroke-width="2" d="M255.929,89.929 A10,10 0 0 1 263,87 h214 a10,10 0 0 1 10,10 v13 a10,10 0 0 1 -10,10 h-214 a10,10 0 0 1 -10,-10 v-13 A10,10 0 0 1 255.929,89.929"/></mask><path x="253" y="87" width="234" height="33" fill="rgba(139,92,246,0.04)" d="M263,87 h214 a10,10 0 0 1 10,10 v13 a10,10 0 0 1 -10,10 h-214 a10,10 0 0 1 -10,-10 v-13 a10,10 0 0 1 10,-10" clip-path="url(#satori_cp-id)" mask="url(#satori_om-id)"/><path width="234" height="33" clip-path="url(#satori_bc-id-1-1-1)" fill="none" stroke="rgba(139,92,246,0.12)" stroke-width="2" d="M255.929,89.929 A10,10 0 0 1 263,87 h214 a10,10 0 0 1 10,10 v13 a10,10 0 0 1 -10,10 h-214 a10,10 0 0 1 -10,-10 v-13 A10,10 0 0 1 255.929,89.929"/><mask id="satori_ms-id-1-1-1-0-0" maskUnits="userSpaceOnUse"><rect x="0" y="0" width="860" height="220" fill="#fff"/><path x="270" y="101" width="6" height="6" fill="#000"  stroke-width="0" d="M273,101 h0 a3,3 0 0 1 3,3 v0 a3,3 0 0 1 -3,3 h0 a3,3 0 0 1 -3,-3 v0 a3,3 0 0 1 3,-3" clip-path="url(#satori_cp-id)" mask="url(#satori_om-id)"/></mask><defs><filter id="satori_s-id-1-1-1-0-0" x="-266.66666666666663%" y="-266.66666666666663%" width="633.3333333333333%" height="633.3333333333333%"><feGaussianBlur stdDeviation="4" result="b"/><feFlood flood-color="rgba(139,92,246,0.5)" in="SourceGraphic" result="f"/><feComposite in="f" in2="b" operator="in"/></filter></defs><g mask="url(#satori_ms-id-1-1-1-0-0)" filter="url(#satori_s-id-1-1-1-0-0)" opacity="1"><path x="270" y="101" width="6" height="6" fill="#fff" stroke="#fff" stroke-width="0" d="M273,101 h0 a3,3 0 0 1 3,3 v0 a3,3 0 0 1 -3,3 h0 a3,3 0 0 1 -3,-3 v0 a3,3 0 0 1 3,-3" clip-path="url(#satori_cp-id)" mask="url(#satori_om-id)"/></g><mask id="satori_om-id-1-1-1-0"><rect x="270" y="101" width="6" height="6" fill="#fff" mask="url(#satori_om-id)"/></mask><path x="270" y="101" width="6" height="6" fill="rgba(139,92,246,0.9)" d="M273,101 h0 a3,3 0 0 1 3,3 v0 a3,3 0 0 1 -3,3 h0 a3,3 0 0 1 -3,-3 v0 a3,3 0 0 1 3,-3" clip-path="url(#satori_cp-id)" mask="url(#satori_om-id)"/><mask id="satori_om-id-1-1-1-1"><rect x="284" y="96" width="186" height="15" fill="#fff" mask="url(#satori_om-id)"/></mask><g mask="url(#satori_om-id)" clip-path="url(#satori_cp-id)"><path fill="rgba(255,255,255,0.60)" d="M287.8 108.2L287.8 108.2Q286.9 108.2 286.2 107.8Q285.5 107.5 285.1 107.0Q284.7 106.4 284.7 105.7L284.7 105.7L285.8 105.7Q285.9 106.2 286.2 106.5Q286.4 106.8 286.9 107.0Q287.3 107.2 287.8 107.2L287.8 107.2Q288.4 107.2 288.9 107.0Q289.4 106.8 289.7 106.4Q289.9 106.1 289.9 105.6L289.9 105.6Q289.9 105.2 289.7 104.9Q289.5 104.7 289.1 104.5Q288.7 104.3 288.2 104.2L288.2 104.2L287.2 103.9Q286.1 103.6 285.5 103.0Q284.9 102.5 284.9 101.6L284.9 101.6Q284.9 100.9 285.3 100.3Q285.7 99.8 286.4 99.5Q287.1 99.2 287.9 99.2L287.9 99.2Q288.8 99.2 289.4 99.5Q290.1 99.8 290.5 100.3Q290.9 100.8 290.9 101.5L290.9 101.5L289.8 101.5Q289.7 100.8 289.2 100.5Q288.7 100.1 287.9 100.1L287.9 100.1Q287.3 100.1 286.9 100.3Q286.5 100.5 286.2 100.8Q286.0 101.1 286.0 101.6L286.0 101.6Q286.0 102.0 286.3 102.3Q286.6 102.6 287.0 102.7Q287.4 102.9 287.7 103.0L287.7 103.0L288.5 103.2Q288.9 103.3 289.3 103.5Q289.7 103.6 290.1 103.9Q290.5 104.2 290.8 104.6Q291.0 105.0 291.0 105.6L291.0 105.6Q291.0 106.3 290.6 106.9Q290.3 107.5 289.6 107.8Q288.9 108.2 287.8 108.2ZM295.6 108.1L295.6 108.1Q294.7 108.1 294.0 107.7Q293.4 107.3 293.0 106.5Q292.6 105.8 292.6 104.8L292.6 104.8Q292.6 103.7 293.0 103.0Q293.4 102.2 294.0 101.8Q294.7 101.4 295.6 101.4L295.6 101.4Q296.1 101.4 296.5 101.5Q296.9 101.6 297.3 101.8Q297.6 102.1 297.9 102.4Q298.1 102.8 298.2 103.2L298.2 103.2L297.2 103.5Q297.2 103.2 297.0 103.0Q296.9 102.8 296.7 102.6Q296.5 102.5 296.2 102.4Q295.9 102.3 295.6 102.3L295.6 102.3Q294.9 102.3 294.5 102.7Q294.1 103.0 293.9 103.6Q293.7 104.1 293.7 104.8L293.7 104.8Q293.7 105.4 293.9 106.0Q294.1 106.5 294.5 106.9Q294.9 107.2 295.6 107.2L295.6 107.2Q295.9 107.2 296.2 107.1Q296.5 107.0 296.7 106.9Q296.9 106.7 297.0 106.5Q297.2 106.3 297.3 106.0L297.3 106.0L298.3 106.3Q298.1 106.7 297.9 107.1Q297.6 107.4 297.3 107.6Q296.9 107.9 296.5 108.0Q296.1 108.1 295.6 108.1ZM301.9 108.2L301.9 108.2Q301.3 108.2 300.8 107.9Q300.3 107.7 300.0 107.2Q299.7 106.8 299.7 106.1L299.7 106.1Q299.7 105.6 299.9 105.2Q300.1 104.9 300.5 104.7Q300.9 104.5 301.3 104.4Q301.8 104.3 302.2 104.2L302.2 104.2Q302.8 104.1 303.2 104.1Q303.6 104.1 303.7 104.0Q303.9 103.9 303.9 103.6L303.9 103.6L303.9 103.6Q303.9 103.2 303.8 102.9Q303.6 102.6 303.3 102.4Q303.0 102.3 302.5 102.3L302.5 102.3Q302.1 102.3 301.7 102.4Q301.4 102.6 301.2 102.8Q301.0 103.0 300.9 103.3L300.9 103.3L299.9 102.9Q300.1 102.3 300.5 102.0Q301.0 101.6 301.5 101.5Q302.0 101.4 302.5 101.4L302.5 101.4Q302.8 101.4 303.3 101.4Q303.7 101.5 304.1 101.8Q304.5 102.0 304.7 102.5Q305.0 102.9 305.0 103.7L305.0 103.7L305.0 108L303.9 108L303.9 107.1L303.9 107.1Q303.7 107.3 303.5 107.6Q303.3 107.8 302.9 108.0Q302.5 108.2 301.9 108.2ZM302.1 107.2L302.1 107.2Q302.7 107.2 303.1 107.0Q303.5 106.8 303.7 106.4Q303.9 106.0 303.9 105.6L303.9 105.6L303.9 104.7Q303.8 104.8 303.6 104.9Q303.4 104.9 303.1 105.0Q302.9 105.0 302.6 105.0Q302.3 105.1 302.2 105.1L302.2 105.1Q301.8 105.1 301.5 105.3Q301.1 105.4 300.9 105.6Q300.7 105.8 300.7 106.2L300.7 106.2Q300.7 106.5 300.9 106.8Q301.1 107.0 301.4 107.1Q301.7 107.2 302.1 107.2ZM307.1 99.3L308.2 99.3L308.2 108L307.1 108L307.1 99.3ZM312.2 108.2L312.2 108.2Q311.5 108.2 311.0 107.9Q310.5 107.7 310.2 107.2Q309.9 106.8 309.9 106.1L309.9 106.1Q309.9 105.6 310.1 105.2Q310.4 104.9 310.7 104.7Q311.1 104.5 311.6 104.4Q312.0 104.3 312.5 104.2L312.5 104.2Q313.1 104.1 313.4 104.1Q313.8 104.1 314.0 104.0Q314.2 103.9 314.2 103.6L314.2 103.6L314.2 103.6Q314.2 103.2 314.0 102.9Q313.9 102.6 313.5 102.4Q313.2 102.3 312.8 102.3L312.8 102.3Q312.3 102.3 312.0 102.4Q311.6 102.6 311.4 102.8Q311.2 103.0 311.1 103.3L311.1 103.3L310.1 102.9Q310.4 102.3 310.8 102.0Q311.2 101.6 311.7 101.5Q312.3 101.4 312.8 101.4L312.8 101.4Q313.1 101.4 313.5 101.4Q313.9 101.5 314.3 101.8Q314.7 102.0 315.0 102.5Q315.2 102.9 315.2 103.7L315.2 103.7L315.2 108L314.2 108L314.2 107.1L314.1 107.1Q314.0 107.3 313.7 107.6Q313.5 107.8 313.1 108.0Q312.7 108.2 312.2 108.2ZM312.3 107.2L312.3 107.2Q312.9 107.2 313.3 107.0Q313.7 106.8 313.9 106.4Q314.2 106.0 314.2 105.6L314.2 105.6L314.2 104.7Q314.1 104.8 313.9 104.9Q313.7 104.9 313.4 105.0Q313.1 105.0 312.8 105.0Q312.6 105.1 312.4 105.1L312.4 105.1Q312.0 105.1 311.7 105.3Q311.4 105.4 311.2 105.6Q311.0 105.8 311.0 106.2L311.0 106.2Q311.0 106.5 311.2 106.8Q311.3 107.0 311.6 107.1Q311.9 107.2 312.3 107.2ZM320.4 108.1L320.4 108.1Q319.8 108.1 319.4 107.9Q319.0 107.7 318.8 107.4Q318.6 107.2 318.5 107.0L318.5 107.0L318.4 107.0L318.4 108L317.4 108L317.4 99.3L318.4 99.3L318.4 102.5L318.5 102.5Q318.6 102.3 318.8 102.1Q319.0 101.8 319.4 101.6Q319.8 101.4 320.4 101.4L320.4 101.4Q321.2 101.4 321.8 101.8Q322.5 102.2 322.8 102.9Q323.2 103.7 323.2 104.7L323.2 104.7Q323.2 105.8 322.8 106.5Q322.5 107.3 321.8 107.7Q321.2 108.1 320.4 108.1ZM320.2 107.2L320.2 107.2Q320.9 107.2 321.3 106.9Q321.7 106.5 321.9 106.0Q322.1 105.4 322.1 104.7L322.1 104.7Q322.1 104.1 321.9 103.5Q321.7 103.0 321.3 102.6Q320.9 102.3 320.2 102.3L320.2 102.3Q319.6 102.3 319.2 102.6Q318.8 102.9 318.6 103.5Q318.4 104.0 318.4 104.7L318.4 104.7Q318.4 105.5 318.6 106.0Q318.8 106.6 319.2 106.9Q319.7 107.2 320.2 107.2ZM325.0 99.3L326.1 99.3L326.1 108L325.0 108L325.0 99.3ZM331.0 108.1L331.0 108.1Q330.0 108.1 329.3 107.7Q328.6 107.3 328.3 106.5Q327.9 105.8 327.9 104.8Q327.9 103.8 328.3 103.0Q328.6 102.2 329.3 101.8Q330.0 101.4 330.8 101.4L330.8 101.4Q331.4 101.4 331.9 101.5Q332.4 101.7 332.8 102.1Q333.2 102.5 333.5 103.1Q333.7 103.7 333.7 104.6L333.7 104.6L333.7 105.1L329.0 105.1Q329.0 105.7 329.2 106.2L329.2 106.2Q329.5 106.7 329.9 106.9Q330.4 107.2 331.0 107.2L331.0 107.2Q331.4 107.2 331.7 107.1Q332.0 107.0 332.2 106.8Q332.5 106.5 332.6 106.2L332.6 106.2L333.6 106.5Q333.4 107.0 333.1 107.3Q332.7 107.7 332.2 107.9Q331.6 108.1 331.0 108.1ZM329.0 104.2L329.0 104.2L332.6 104.2Q332.6 103.7 332.4 103.4L332.4 103.4Q332.2 102.9 331.8 102.6Q331.4 102.3 330.8 102.3Q330.3 102.3 329.8 102.6Q329.4 102.9 329.2 103.3L329.2 103.3Q329.0 103.7 329.0 104.2Z M340.4 108L339.3 108L339.3 99.3L344.6 99.3L344.6 100.3L340.4 100.3L340.4 103.2L344.2 103.2L344.2 104.2L340.4 104.2L340.4 108ZM347.6 108L346.6 108L346.6 101.4L347.6 101.4L347.6 102.5L347.7 102.5Q347.8 102.0 348.3 101.7Q348.8 101.4 349.4 101.4L349.4 101.4Q349.5 101.4 349.6 101.4Q349.8 101.4 349.9 101.4L349.9 101.4L349.9 102.4Q349.8 102.4 349.7 102.4Q349.5 102.4 349.3 102.4L349.3 102.4Q348.8 102.4 348.4 102.6Q348.0 102.8 347.8 103.1Q347.6 103.5 347.6 103.9L347.6 103.9L347.6 108ZM354.1 108.1L354.1 108.1Q353.2 108.1 352.5 107.7Q351.8 107.3 351.4 106.5Q351.1 105.8 351.1 104.8L351.1 104.8Q351.1 103.7 351.4 103.0Q351.8 102.2 352.5 101.8Q353.2 101.4 354.1 101.4L354.1 101.4Q355.0 101.4 355.6 101.8Q356.3 102.2 356.7 103.0Q357.1 103.7 357.1 104.8L357.1 104.8Q357.1 105.8 356.7 106.5Q356.3 107.3 355.6 107.7Q355.0 108.1 354.1 108.1ZM354.1 107.2L354.1 107.2Q354.7 107.2 355.1 106.9Q355.6 106.5 355.8 106.0Q356.0 105.4 356.0 104.8L356.0 104.8Q356.0 104.1 355.8 103.6Q355.6 103.0 355.1 102.7Q354.7 102.3 354.1 102.3L354.1 102.3Q353.4 102.3 353.0 102.7Q352.6 103.0 352.4 103.6Q352.1 104.1 352.1 104.8L352.1 104.8Q352.1 105.4 352.4 106.0Q352.6 106.5 353.0 106.9Q353.4 107.2 354.1 107.2ZM359.9 104.1L359.9 104.1L359.9 108L358.9 108L358.9 101.4L359.9 101.4L359.9 102.7Q360.2 102.0 360.6 101.7L360.6 101.7Q361.2 101.4 361.9 101.4L361.9 101.4Q362.6 101.4 363.1 101.6Q363.6 101.9 363.8 102.5Q364.1 103.0 364.1 103.8L364.1 103.8L364.1 108L363.1 108L363.1 103.9Q363.1 103.2 362.7 102.7Q362.3 102.3 361.6 102.3L361.6 102.3Q361.1 102.3 360.7 102.5Q360.4 102.7 360.2 103.1Q359.9 103.5 359.9 104.1ZM367.5 101.4L368.9 101.4L368.9 102.4L367.5 102.4L367.5 106.3Q367.5 106.7 367.7 106.9Q367.9 107.1 368.3 107.1L368.3 107.1Q368.4 107.1 368.5 107.1Q368.7 107.1 368.8 107.1L368.8 107.1L369.0 108.0Q368.9 108.0 368.7 108.1Q368.5 108.1 368.2 108.1L368.2 108.1Q367.4 108.1 366.9 107.6Q366.5 107.2 366.5 106.4L366.5 106.4L366.5 102.4L365.5 102.4L365.5 101.4L366.5 101.4L366.5 99.9L367.5 99.9L367.5 101.4ZM373.3 108.1L373.3 108.1Q372.3 108.1 371.6 107.7Q370.9 107.3 370.6 106.5Q370.2 105.8 370.2 104.8Q370.2 103.8 370.5 103.0Q370.9 102.2 371.6 101.8Q372.2 101.4 373.1 101.4L373.1 101.4Q373.7 101.4 374.2 101.5Q374.7 101.7 375.1 102.1Q375.5 102.5 375.7 103.1Q376.0 103.7 376.0 104.6L376.0 104.6L376.0 105.1L371.3 105.1Q371.3 105.7 371.5 106.2L371.5 106.2Q371.8 106.7 372.2 106.9Q372.7 107.2 373.3 107.2L373.3 107.2Q373.6 107.2 374.0 107.1Q374.3 107.0 374.5 106.8Q374.7 106.5 374.9 106.2L374.9 106.2L375.9 106.5Q375.7 107.0 375.4 107.3Q375.0 107.7 374.5 107.9Q373.9 108.1 373.3 108.1ZM371.3 104.2L371.3 104.2L374.9 104.2Q374.9 103.7 374.7 103.4L374.7 103.4Q374.5 102.9 374.1 102.6Q373.7 102.3 373.1 102.3Q372.5 102.3 372.1 102.6Q371.7 102.9 371.5 103.3L371.5 103.3Q371.3 103.7 371.3 104.2ZM378.9 104.1L378.9 104.1L378.9 108L377.8 108L377.8 101.4L378.8 101.4L378.8 102.7Q379.1 102.0 379.5 101.7L379.5 101.7Q380.1 101.4 380.8 101.4L380.8 101.4Q381.5 101.4 382.0 101.6Q382.5 101.9 382.8 102.5Q383.0 103.0 383.0 103.8L383.0 103.8L383.0 108L382.0 108L382.0 103.9Q382.0 103.2 381.6 102.7Q381.2 102.3 380.5 102.3L380.5 102.3Q380.0 102.3 379.7 102.5Q379.3 102.7 379.1 103.1Q378.9 103.5 378.9 104.1ZM387.6 108.1L387.6 108.1Q386.8 108.1 386.2 107.7Q385.6 107.3 385.2 106.5Q384.9 105.8 384.9 104.7L384.9 104.7Q384.9 103.7 385.2 102.9Q385.6 102.2 386.2 101.8Q386.8 101.4 387.6 101.4L387.6 101.4Q388.3 101.4 388.7 101.6Q389.0 101.8 389.2 102.1Q389.4 102.3 389.5 102.5L389.5 102.5L389.6 102.5L389.6 99.3L390.7 99.3L390.7 108L389.7 108L389.7 107.0L389.5 107.0Q389.4 107.2 389.2 107.4Q389.0 107.7 388.6 107.9Q388.3 108.1 387.6 108.1ZM387.8 107.2L387.8 107.2Q388.4 107.2 388.8 106.9Q389.2 106.6 389.4 106.0Q389.6 105.5 389.6 104.7L389.6 104.7Q389.6 104.0 389.4 103.5Q389.2 102.9 388.8 102.6Q388.4 102.3 387.8 102.3L387.8 102.3Q387.2 102.3 386.8 102.6Q386.4 103.0 386.1 103.5Q385.9 104.1 385.9 104.7L385.9 104.7Q385.9 105.4 386.2 106.0Q386.4 106.5 386.8 106.9Q387.2 107.2 387.8 107.2Z M397.1 108L395.9 108L399.1 99.3L400.3 99.3L403.6 108L402.4 108L401.5 105.6L397.9 105.6L397.1 108ZM398.3 104.6L401.2 104.6L400.5 102.8Q400.4 102.3 400.1 101.6L400.1 101.6Q400.0 101.0 399.7 100.2L399.7 100.2Q399.4 101.0 399.3 101.6L399.3 101.6Q399.0 102.4 398.9 102.8L398.9 102.8L398.3 104.6ZM406.1 108L405.1 108L405.1 101.4L406.1 101.4L406.1 102.5L406.2 102.5Q406.4 102.0 406.8 101.7Q407.3 101.4 407.9 101.4L407.9 101.4Q408.0 101.4 408.2 101.4Q408.3 101.4 408.4 101.4L408.4 101.4L408.4 102.4Q408.4 102.4 408.2 102.4Q408.0 102.4 407.8 102.4L407.8 102.4Q407.3 102.4 406.9 102.6Q406.6 102.8 406.4 103.1Q406.1 103.5 406.1 103.9L406.1 103.9L406.1 108ZM412.6 108.1L412.6 108.1Q411.7 108.1 411.0 107.7Q410.3 107.3 410.0 106.5Q409.6 105.8 409.6 104.8L409.6 104.8Q409.6 103.7 410.0 103.0Q410.3 102.2 411.0 101.8Q411.7 101.4 412.6 101.4L412.6 101.4Q413.0 101.4 413.5 101.5Q413.9 101.6 414.2 101.8Q414.6 102.1 414.8 102.4Q415.1 102.8 415.2 103.2L415.2 103.2L414.2 103.5Q414.1 103.2 414.0 103.0Q413.8 102.8 413.6 102.6Q413.4 102.5 413.2 102.4Q412.9 102.3 412.6 102.3L412.6 102.3Q411.9 102.3 411.5 102.7Q411.1 103.0 410.9 103.6Q410.7 104.1 410.7 104.8L410.7 104.8Q410.7 105.4 410.9 106.0Q411.1 106.5 411.5 106.9Q411.9 107.2 412.6 107.2L412.6 107.2Q412.9 107.2 413.2 107.1Q413.5 107.0 413.7 106.9Q413.9 106.7 414.0 106.5Q414.2 106.3 414.2 106.0L414.2 106.0L415.3 106.3Q415.1 106.7 414.9 107.1Q414.6 107.4 414.3 107.6Q413.9 107.9 413.5 108.0Q413.1 108.1 412.6 108.1ZM418.1 104.1L418.1 104.1L418.1 108L417.1 108L417.1 99.3L418.1 99.3L418.1 102.6Q418.4 102.0 418.8 101.7L418.8 101.7Q419.3 101.4 420.1 101.4L420.1 101.4Q420.7 101.4 421.2 101.6Q421.7 101.9 422.0 102.5Q422.3 103.0 422.3 103.8L422.3 103.8L422.3 108L421.2 108L421.2 103.9Q421.2 103.2 420.8 102.7Q420.5 102.3 419.8 102.3L419.8 102.3Q419.3 102.3 418.9 102.5Q418.6 102.7 418.3 103.1Q418.1 103.5 418.1 104.1ZM425.5 108L424.5 108L424.5 101.4L425.5 101.4L425.5 108ZM425.0 100.4L425.0 100.4Q424.7 100.4 424.5 100.2Q424.3 100.0 424.3 99.7L424.3 99.7Q424.3 99.4 424.5 99.2Q424.7 99.0 425.0 99.0L425.0 99.0Q425.3 99.0 425.5 99.2Q425.7 99.4 425.7 99.7L425.7 99.7Q425.7 100.0 425.5 100.2Q425.3 100.4 425.0 100.4ZM428.9 101.4L430.2 101.4L430.2 102.4L428.9 102.4L428.9 106.3Q428.9 106.7 429.1 106.9Q429.3 107.1 429.7 107.1L429.7 107.1Q429.8 107.1 429.9 107.1Q430.1 107.1 430.2 107.1L430.2 107.1L430.4 108.0Q430.3 108.0 430.1 108.1Q429.8 108.1 429.6 108.1L429.6 108.1Q428.8 108.1 428.3 107.6Q427.8 107.2 427.8 106.4L427.8 106.4L427.8 102.4L426.9 102.4L426.9 101.4L427.8 101.4L427.8 99.9L428.9 99.9L428.9 101.4ZM434.6 108.1L434.6 108.1Q433.7 108.1 433.0 107.7Q432.3 107.3 431.9 106.5Q431.6 105.8 431.6 104.8Q431.6 103.8 431.9 103.0Q432.3 102.2 433.0 101.8Q433.6 101.4 434.5 101.4L434.5 101.4Q435.0 101.4 435.5 101.5Q436.1 101.7 436.5 102.1Q436.9 102.5 437.1 103.1Q437.4 103.7 437.4 104.6L437.4 104.6L437.4 105.1L432.6 105.1Q432.7 105.7 432.9 106.2L432.9 106.2Q433.1 106.7 433.6 106.9Q434.1 107.2 434.6 107.2L434.6 107.2Q435.0 107.2 435.4 107.1Q435.7 107.0 435.9 106.8Q436.1 106.5 436.2 106.2L436.2 106.2L437.3 106.5Q437.1 107.0 436.8 107.3Q436.4 107.7 435.9 107.9Q435.3 108.1 434.6 108.1ZM432.6 104.2L432.6 104.2L436.3 104.2Q436.3 103.7 436.1 103.4L436.1 103.4Q435.9 102.9 435.5 102.6Q435.1 102.3 434.5 102.3Q433.9 102.3 433.5 102.6Q433.1 102.9 432.9 103.3L432.9 103.3Q432.7 103.7 432.6 104.2ZM441.9 108.1L441.9 108.1Q441.0 108.1 440.3 107.7Q439.6 107.3 439.2 106.5Q438.9 105.8 438.9 104.8L438.9 104.8Q438.9 103.7 439.2 103.0Q439.6 102.2 440.3 101.8Q441.0 101.4 441.9 101.4L441.9 101.4Q442.3 101.4 442.7 101.5Q443.2 101.6 443.5 101.8Q443.9 102.1 444.1 102.4Q444.4 102.8 444.5 103.2L444.5 103.2L443.5 103.5Q443.4 103.2 443.3 103.0Q443.1 102.8 442.9 102.6Q442.7 102.5 442.4 102.4Q442.2 102.3 441.9 102.3L441.9 102.3Q441.2 102.3 440.8 102.7Q440.4 103.0 440.1 103.6Q439.9 104.1 439.9 104.8L439.9 104.8Q439.9 105.4 440.1 106.0Q440.4 106.5 440.8 106.9Q441.2 107.2 441.9 107.2L441.9 107.2Q442.2 107.2 442.5 107.1Q442.7 107.0 442.9 106.9Q443.2 106.7 443.3 106.5Q443.5 106.3 443.5 106.0L443.5 106.0L444.5 106.3Q444.4 106.7 444.1 107.1Q443.9 107.4 443.5 107.6Q443.2 107.9 442.8 108.0Q442.3 108.1 441.9 108.1ZM447.6 101.4L448.9 101.4L448.9 102.4L447.6 102.4L447.6 106.3Q447.6 106.7 447.8 106.9Q447.9 107.1 448.3 107.1L448.3 107.1Q448.4 107.1 448.6 107.1Q448.8 107.1 448.9 107.1L448.9 107.1L449.1 108.0Q448.9 108.0 448.7 108.1Q448.5 108.1 448.3 108.1L448.3 108.1Q447.5 108.1 447.0 107.6Q446.5 107.2 446.5 106.4L446.5 106.4L446.5 102.4L445.5 102.4L445.5 101.4L446.5 101.4L446.5 99.9L447.6 99.9L447.6 101.4ZM452.8 108.1L452.8 108.1Q452.1 108.1 451.6 107.8Q451.1 107.5 450.8 107.0Q450.6 106.4 450.6 105.6L450.6 105.6L450.6 101.4L451.6 101.4L451.6 105.5Q451.6 106.3 452.0 106.7Q452.4 107.1 453.1 107.1L453.1 107.1Q453.6 107.1 453.9 106.9Q454.3 106.7 454.5 106.3Q454.8 105.9 454.8 105.4L454.8 105.4L454.8 101.4L455.8 101.4L455.8 108L454.8 108L454.8 106.8Q454.5 107.4 454.1 107.7L454.1 107.7Q453.5 108.1 452.8 108.1ZM459.0 108L458.0 108L458.0 101.4L459.0 101.4L459.0 102.5L459.1 102.5Q459.2 102.0 459.7 101.7Q460.2 101.4 460.8 101.4L460.8 101.4Q460.9 101.4 461.0 101.4Q461.2 101.4 461.3 101.4L461.3 101.4L461.3 102.4Q461.2 102.4 461.1 102.4Q460.9 102.4 460.7 102.4L460.7 102.4Q460.2 102.4 459.8 102.6Q459.4 102.8 459.2 103.1Q459.0 103.5 459.0 103.9L459.0 103.9L459.0 108ZM465.5 108.1L465.5 108.1Q464.6 108.1 463.9 107.7Q463.2 107.3 462.8 106.5Q462.5 105.8 462.5 104.8Q462.5 103.8 462.8 103.0Q463.2 102.2 463.9 101.8Q464.5 101.4 465.4 101.4L465.4 101.4Q465.9 101.4 466.4 101.5Q466.9 101.7 467.4 102.1Q467.8 102.5 468.0 103.1Q468.3 103.7 468.3 104.6L468.3 104.6L468.3 105.1L463.5 105.1Q463.6 105.7 463.8 106.2L463.8 106.2Q464.0 106.7 464.5 106.9Q464.9 107.2 465.5 107.2L465.5 107.2Q465.9 107.2 466.2 107.1Q466.6 107.0 466.8 106.8Q467.0 106.5 467.1 106.2L467.1 106.2L468.2 106.5Q468.0 107.0 467.6 107.3Q467.3 107.7 466.7 107.9Q466.2 108.1 465.5 108.1ZM463.5 104.2L463.5 104.2L467.2 104.2Q467.2 103.7 467.0 103.4L467.0 103.4Q466.8 102.9 466.4 102.6Q466.0 102.3 465.4 102.3Q464.8 102.3 464.4 102.6Q464.0 102.9 463.8 103.3L463.8 103.3Q463.6 103.7 463.5 104.2Z "/></g><defs><clipPath id="satori_bc-id-1-1-2" clip-path="url(#satori_cp-id)"><path x="497" y="87" width="168" height="33" d="M507,87 h148 a10,10 0 0 1 10,10 v13 a10,10 0 0 1 -10,10 h-148 a10,10 0 0 1 -10,-10 v-13 a10,10 0 0 1 10,-10"/></clipPath></defs><mask id="satori_om-id-1-1-2"><rect x="498" y="88" width="166" height="31" fill="#fff" mask="url(#satori_om-id)"/><path width="168" height="33" fill="none" stroke="#000" stroke-width="2" d="M499.929,89.929 A10,10 0 0 1 507,87 h148 a10,10 0 0 1 10,10 v13 a10,10 0 0 1 -10,10 h-148 a10,10 0 0 1 -10,-10 v-13 A10,10 0 0 1 499.929,89.929"/></mask><path x="497" y="87" width="168" height="33" fill="rgba(51,102,255,0.04)" d="M507,87 h148 a10,10 0 0 1 10,10 v13 a10,10 0 0 1 -10,10 h-148 a10,10 0 0 1 -10,-10 v-13 a10,10 0 0 1 10,-10" clip-path="url(#satori_cp-id)" mask="url(#satori_om-id)"/><path width="168" height="33" clip-path="url(#satori_bc-id-1-1-2)" fill="none" stroke="rgba(51,102,255,0.12)" stroke-width="2" d="M499.929,89.929 A10,10 0 0 1 507,87 h148 a10,10 0 0 1 10,10 v13 a10,10 0 0 1 -10,10 h-148 a10,10 0 0 1 -10,-10 v-13 A10,10 0 0 1 499.929,89.929"/><mask id="satori_ms-id-1-1-2-0-0" maskUnits="userSpaceOnUse"><rect x="0" y="0" width="860" height="220" fill="#fff"/><path x="514" y="101" width="6" height="6" fill="#000"  stroke-width="0" d="M517,101 h0 a3,3 0 0 1 3,3 v0 a3,3 0 0 1 -3,3 h0 a3,3 0 0 1 -3,-3 v0 a3,3 0 0 1 3,-3" clip-path="url(#satori_cp-id)" mask="url(#satori_om-id)"/></mask><defs><filter id="satori_s-id-1-1-2-0-0" x="-266.66666666666663%" y="-266.66666666666663%" width="633.3333333333333%" height="633.3333333333333%"><feGaussianBlur stdDeviation="4" result="b"/><feFlood flood-color="rgba(51,102,255,0.5)" in="SourceGraphic" result="f"/><feComposite in="f" in2="b" operator="in"/></filter></defs><g mask="url(#satori_ms-id-1-1-2-0-0)" filter="url(#satori_s-id-1-1-2-0-0)" opacity="1"><path x="514" y="101" width="6" height="6" fill="#fff" stroke="#fff" stroke-width="0" d="M517,101 h0 a3,3 0 0 1 3,3 v0 a3,3 0 0 1 -3,3 h0 a3,3 0 0 1 -3,-3 v0 a3,3 0 0 1 3,-3" clip-path="url(#satori_cp-id)" mask="url(#satori_om-id)"/></g><mask id="satori_om-id-1-1-2-0"><rect x="514" y="101" width="6" height="6" fill="#fff" mask="url(#satori_om-id)"/></mask><path x="514" y="101" width="6" height="6" fill="rgba(51,102,255,0.9)" d="M517,101 h0 a3,3 0 0 1 3,3 v0 a3,3 0 0 1 -3,3 h0 a3,3 0 0 1 -3,-3 v0 a3,3 0 0 1 3,-3" clip-path="url(#satori_cp-id)" mask="url(#satori_om-id)"/><mask id="satori_om-id-1-1-2-1"><rect x="528" y="96" width="120" height="15" fill="#fff" mask="url(#satori_om-id)"/></mask><g mask="url(#satori_om-id)" clip-path="url(#satori_cp-id)"><path fill="rgba(255,255,255,0.60)" d="M531.8 108L531.8 108L529.1 108L529.1 99.3L531.9 99.3Q533.2 99.3 534.1 99.8Q535.0 100.3 535.5 101.3Q535.9 102.3 535.9 103.6L535.9 103.6Q535.9 105.0 535.5 106.0Q535.0 106.9 534.0 107.5Q533.1 108 531.8 108ZM530.2 100.3L530.2 107.0L531.7 107.0Q532.8 107.0 533.5 106.6Q534.2 106.2 534.5 105.4Q534.9 104.7 534.9 103.6L534.9 103.6Q534.9 102.6 534.5 101.8Q534.2 101.1 533.5 100.7Q532.8 100.3 531.8 100.3L531.8 100.3L530.2 100.3ZM538.9 108L537.9 108L537.9 101.4L538.9 101.4L538.9 108ZM538.4 100.4L538.4 100.4Q538.1 100.4 537.9 100.2Q537.7 100.0 537.7 99.7L537.7 99.7Q537.7 99.4 537.9 99.2Q538.1 99.0 538.4 99.0L538.4 99.0Q538.7 99.0 538.9 99.2Q539.2 99.4 539.2 99.7L539.2 99.7Q539.2 100.0 538.9 100.2Q538.7 100.4 538.4 100.4ZM543.3 108.1L543.3 108.1Q542.6 108.1 542.1 107.9Q541.6 107.7 541.3 107.4Q540.9 107.0 540.8 106.4L540.8 106.4L541.8 106.2Q541.9 106.7 542.3 107.0Q542.7 107.2 543.3 107.2L543.3 107.2Q544.0 107.2 544.4 106.9Q544.8 106.6 544.8 106.2L544.8 106.2Q544.8 105.9 544.6 105.7Q544.3 105.4 543.8 105.3L543.8 105.3L542.8 105.1Q541.9 104.9 541.4 104.4Q541.0 104.0 541.0 103.3L541.0 103.3Q541.0 102.7 541.3 102.3Q541.6 101.9 542.2 101.6Q542.7 101.4 543.4 101.4L543.4 101.4Q544.1 101.4 544.6 101.6Q545.0 101.8 545.3 102.1Q545.6 102.5 545.8 102.9L545.8 102.9L544.8 103.2Q544.7 102.8 544.4 102.6Q544.1 102.3 543.4 102.3L543.4 102.3Q542.8 102.3 542.5 102.5Q542.1 102.8 542.1 103.2L542.1 103.2Q542.1 103.6 542.3 103.8Q542.6 104.0 543.2 104.2L543.2 104.2L544.2 104.4Q545.0 104.6 545.5 105.0Q545.9 105.5 545.9 106.2L545.9 106.2Q545.9 106.7 545.6 107.2Q545.3 107.6 544.7 107.9Q544.1 108.1 543.3 108.1ZM549.0 101.4L550.3 101.4L550.3 102.4L549.0 102.4L549.0 106.3Q549.0 106.7 549.1 106.9Q549.3 107.1 549.7 107.1L549.7 107.1Q549.8 107.1 550.0 107.1Q550.1 107.1 550.3 107.1L550.3 107.1L550.5 108.0Q550.3 108.0 550.1 108.1Q549.9 108.1 549.7 108.1L549.7 108.1Q548.9 108.1 548.4 107.6Q547.9 107.2 547.9 106.4L547.9 106.4L547.9 102.4L546.9 102.4L546.9 101.4L547.9 101.4L547.9 99.9L549.0 99.9L549.0 101.4ZM553.0 108L552.0 108L552.0 101.4L553.0 101.4L553.0 102.5L553.0 102.5Q553.2 102.0 553.7 101.7Q554.2 101.4 554.7 101.4L554.7 101.4Q554.9 101.4 555.0 101.4Q555.2 101.4 555.3 101.4L555.3 101.4L555.3 102.4Q555.2 102.4 555.0 102.4Q554.9 102.4 554.6 102.4L554.6 102.4Q554.2 102.4 553.8 102.6Q553.4 102.8 553.2 103.1Q553.0 103.5 553.0 103.9L553.0 103.9L553.0 108ZM557.8 108L556.8 108L556.8 101.4L557.8 101.4L557.8 108ZM557.3 100.4L557.3 100.4Q557.0 100.4 556.8 100.2Q556.6 100.0 556.6 99.7L556.6 99.7Q556.6 99.4 556.8 99.2Q557.0 99.0 557.3 99.0L557.3 99.0Q557.6 99.0 557.8 99.2Q558.0 99.4 558.0 99.7L558.0 99.7Q558.0 100.0 557.8 100.2Q557.6 100.4 557.3 100.4ZM563.0 108.1L563.0 108.1Q562.4 108.1 562.0 107.9Q561.6 107.7 561.4 107.4Q561.2 107.2 561.1 107.0L561.1 107.0L561.0 107.0L561.0 108L560.0 108L560.0 99.3L561.0 99.3L561.0 102.5L561.1 102.5Q561.2 102.3 561.4 102.1Q561.6 101.8 562.0 101.6Q562.4 101.4 563.0 101.4L563.0 101.4Q563.8 101.4 564.5 101.8Q565.1 102.2 565.4 102.9Q565.8 103.7 565.8 104.7L565.8 104.7Q565.8 105.8 565.4 106.5Q565.1 107.3 564.5 107.7Q563.8 108.1 563.0 108.1ZM562.9 107.2L562.9 107.2Q563.5 107.2 563.9 106.9Q564.3 106.5 564.5 106.0Q564.7 105.4 564.7 104.7L564.7 104.7Q564.7 104.1 564.5 103.5Q564.3 103.0 563.9 102.6Q563.5 102.3 562.9 102.3L562.9 102.3Q562.3 102.3 561.8 102.6Q561.4 102.9 561.2 103.5Q561.0 104.0 561.0 104.7L561.0 104.7Q561.0 105.5 561.2 106.0Q561.4 106.6 561.9 106.9Q562.3 107.2 562.9 107.2ZM569.8 108.1L569.8 108.1Q569.2 108.1 568.7 107.8Q568.2 107.5 567.9 107.0Q567.6 106.4 567.6 105.6L567.6 105.6L567.6 101.4L568.7 101.4L568.7 105.5Q568.7 106.3 569.1 106.7Q569.5 107.1 570.2 107.1L570.2 107.1Q570.6 107.1 571.0 106.9Q571.4 106.7 571.6 106.3Q571.8 105.9 571.8 105.4L571.8 105.4L571.8 101.4L572.9 101.4L572.9 108L571.8 108L571.8 106.8Q571.6 107.4 571.1 107.7L571.1 107.7Q570.6 108.1 569.8 108.1ZM576.2 101.4L577.6 101.4L577.6 102.4L576.2 102.4L576.2 106.3Q576.2 106.7 576.4 106.9Q576.6 107.1 577.0 107.1L577.0 107.1Q577.1 107.1 577.3 107.1Q577.4 107.1 577.6 107.1L577.6 107.1L577.8 108.0Q577.6 108.0 577.4 108.1Q577.2 108.1 577.0 108.1L577.0 108.1Q576.1 108.1 575.7 107.6Q575.2 107.2 575.2 106.4L575.2 106.4L575.2 102.4L574.2 102.4L574.2 101.4L575.2 101.4L575.2 99.9L576.2 99.9L576.2 101.4ZM582.0 108.1L582.0 108.1Q581.0 108.1 580.4 107.7Q579.7 107.3 579.3 106.5Q578.9 105.8 578.9 104.8Q578.9 103.8 579.3 103.0Q579.7 102.2 580.3 101.8Q581.0 101.4 581.9 101.4L581.9 101.4Q582.4 101.4 582.9 101.5Q583.4 101.7 583.8 102.1Q584.2 102.5 584.5 103.1Q584.7 103.7 584.7 104.6L584.7 104.6L584.7 105.1L580.0 105.1Q580.0 105.7 580.2 106.2L580.2 106.2Q580.5 106.7 581.0 106.9Q581.4 107.2 582.0 107.2L582.0 107.2Q582.4 107.2 582.7 107.1Q583.0 107.0 583.3 106.8Q583.5 106.5 583.6 106.2L583.6 106.2L584.6 106.5Q584.5 107.0 584.1 107.3Q583.7 107.7 583.2 107.9Q582.7 108.1 582.0 108.1ZM580.0 104.2L580.0 104.2L583.7 104.2Q583.6 103.7 583.5 103.4L583.5 103.4Q583.3 102.9 582.9 102.6Q582.5 102.3 581.9 102.3Q581.3 102.3 580.9 102.6Q580.4 102.9 580.2 103.3L580.2 103.3Q580.0 103.7 580.0 104.2ZM589.0 108.1L589.0 108.1Q588.2 108.1 587.6 107.7Q586.9 107.3 586.6 106.5Q586.2 105.8 586.2 104.7L586.2 104.7Q586.2 103.7 586.6 102.9Q586.9 102.2 587.6 101.8Q588.2 101.4 589.0 101.4L589.0 101.4Q589.6 101.4 590.0 101.6Q590.4 101.8 590.6 102.1Q590.8 102.3 590.9 102.5L590.9 102.5L591.0 102.5L591.0 99.3L592.0 99.3L592.0 108L591.0 108L591.0 107.0L590.9 107.0Q590.8 107.2 590.6 107.4Q590.4 107.7 590.0 107.9Q589.6 108.1 589.0 108.1ZM589.2 107.2L589.2 107.2Q589.8 107.2 590.2 106.9Q590.6 106.6 590.8 106.0Q591.0 105.5 591.0 104.7L591.0 104.7Q591.0 104.0 590.8 103.5Q590.6 102.9 590.2 102.6Q589.8 102.3 589.2 102.3L589.2 102.3Q588.5 102.3 588.1 102.6Q587.7 103.0 587.5 103.5Q587.3 104.1 587.3 104.7L587.3 104.7Q587.3 105.4 587.5 106.0Q587.7 106.5 588.1 106.9Q588.5 107.2 589.2 107.2Z M600.8 108.2L600.8 108.2Q599.8 108.2 599.1 107.8Q598.5 107.5 598.1 107.0Q597.7 106.4 597.6 105.7L597.6 105.7L598.8 105.7Q598.8 106.2 599.1 106.5Q599.4 106.8 599.8 107.0Q600.3 107.2 600.8 107.2L600.8 107.2Q601.4 107.2 601.9 107.0Q602.3 106.8 602.6 106.4Q602.9 106.1 602.9 105.6L602.9 105.6Q602.9 105.2 602.6 104.9Q602.4 104.7 602.0 104.5Q601.6 104.3 601.1 104.2L601.1 104.2L600.1 103.9Q599.0 103.6 598.4 103.0Q597.9 102.5 597.9 101.6L597.9 101.6Q597.9 100.9 598.3 100.3Q598.7 99.8 599.3 99.5Q600.0 99.2 600.9 99.2L600.9 99.2Q601.7 99.2 602.4 99.5Q603.0 99.8 603.4 100.3Q603.8 100.8 603.8 101.5L603.8 101.5L602.8 101.5Q602.7 100.8 602.1 100.5Q601.6 100.1 600.8 100.1L600.8 100.1Q600.3 100.1 599.8 100.3Q599.4 100.5 599.2 100.8Q598.9 101.1 598.9 101.6L598.9 101.6Q598.9 102.0 599.2 102.3Q599.5 102.6 599.9 102.7Q600.3 102.9 600.6 103.0L600.6 103.0L601.5 103.2Q601.8 103.3 602.3 103.5Q602.7 103.6 603.1 103.9Q603.5 104.2 603.7 104.6Q604.0 105.0 604.0 105.6L604.0 105.6Q604.0 106.3 603.6 106.9Q603.2 107.5 602.5 107.8Q601.8 108.2 600.8 108.2ZM605.8 110.4L605.8 110.4L606.0 109.5L606.1 109.5Q606.5 109.6 606.7 109.5Q607.0 109.5 607.2 109.3Q607.4 109.0 607.6 108.6L607.6 108.6L607.8 108.0L605.3 101.4L606.4 101.4L607.8 105.3Q608.0 105.9 608.2 106.5L608.2 106.5Q608.2 106.8 608.3 107.0L608.3 107.0Q608.4 106.8 608.4 106.5L608.4 106.5Q608.6 105.9 608.8 105.3L608.8 105.3L610.2 101.4L611.4 101.4L608.5 109.0Q608.3 109.5 608.0 109.8Q607.7 110.2 607.4 110.3Q607.0 110.5 606.5 110.5L606.5 110.5Q606.2 110.5 606.0 110.5Q605.8 110.4 605.8 110.4ZM615.1 108.1L615.1 108.1Q614.5 108.1 613.9 107.9Q613.4 107.7 613.1 107.4Q612.7 107.0 612.6 106.4L612.6 106.4L613.6 106.2Q613.8 106.7 614.1 107.0Q614.5 107.2 615.1 107.2L615.1 107.2Q615.8 107.2 616.2 106.9Q616.6 106.6 616.6 106.2L616.6 106.2Q616.6 105.9 616.4 105.7Q616.1 105.4 615.7 105.3L615.7 105.3L614.6 105.1Q613.7 104.9 613.2 104.4Q612.8 104.0 612.8 103.3L612.8 103.3Q612.8 102.7 613.1 102.3Q613.4 101.9 614.0 101.6Q614.5 101.4 615.2 101.4L615.2 101.4Q615.9 101.4 616.4 101.6Q616.9 101.8 617.2 102.1Q617.4 102.5 617.6 102.9L617.6 102.9L616.6 103.2Q616.5 102.8 616.2 102.6Q615.9 102.3 615.2 102.3L615.2 102.3Q614.7 102.3 614.3 102.5Q613.9 102.8 613.9 103.2L613.9 103.2Q613.9 103.6 614.1 103.8Q614.4 104.0 615.0 104.2L615.0 104.2L616.0 104.4Q616.9 104.6 617.3 105.0Q617.7 105.5 617.7 106.2L617.7 106.2Q617.7 106.7 617.4 107.2Q617.1 107.6 616.5 107.9Q615.9 108.1 615.1 108.1ZM620.8 101.4L622.1 101.4L622.1 102.4L620.8 102.4L620.8 106.3Q620.8 106.7 621.0 106.9Q621.1 107.1 621.5 107.1L621.5 107.1Q621.6 107.1 621.8 107.1Q622.0 107.1 622.1 107.1L622.1 107.1L622.3 108.0Q622.1 108.0 621.9 108.1Q621.7 108.1 621.5 108.1L621.5 108.1Q620.7 108.1 620.2 107.6Q619.7 107.2 619.7 106.4L619.7 106.4L619.7 102.4L618.7 102.4L618.7 101.4L619.7 101.4L619.7 99.9L620.8 99.9L620.8 101.4ZM626.5 108.1L626.5 108.1Q625.6 108.1 624.9 107.7Q624.2 107.3 623.8 106.5Q623.5 105.8 623.5 104.8Q623.5 103.8 623.8 103.0Q624.2 102.2 624.8 101.8Q625.5 101.4 626.4 101.4L626.4 101.4Q626.9 101.4 627.4 101.5Q627.9 101.7 628.3 102.1Q628.8 102.5 629.0 103.1Q629.3 103.7 629.3 104.6L629.3 104.6L629.3 105.1L624.5 105.1Q624.5 105.7 624.8 106.2L624.8 106.2Q625.0 106.7 625.5 106.9Q625.9 107.2 626.5 107.2L626.5 107.2Q626.9 107.2 627.2 107.1Q627.5 107.0 627.8 106.8Q628.0 106.5 628.1 106.2L628.1 106.2L629.1 106.5Q629.0 107.0 628.6 107.3Q628.3 107.7 627.7 107.9Q627.2 108.1 626.5 108.1ZM624.5 104.2L624.5 104.2L628.2 104.2Q628.1 103.7 628.0 103.4L628.0 103.4Q627.8 102.9 627.4 102.6Q627.0 102.3 626.4 102.3Q625.8 102.3 625.4 102.6Q625.0 102.9 624.7 103.3L624.7 103.3Q624.6 103.7 624.5 104.2ZM632.1 108L631.1 108L631.1 101.4L632.1 101.4L632.1 102.7Q632.2 102.3 632.4 102.0L632.4 102.0Q632.7 101.7 633.1 101.5Q633.5 101.3 633.9 101.3L633.9 101.3Q634.6 101.3 635.1 101.8L635.1 101.8Q635.4 102.1 635.6 102.7L635.6 102.7Q635.7 102.3 635.9 102.1L635.9 102.1Q636.3 101.7 636.7 101.5Q637.1 101.3 637.7 101.3L637.7 101.3Q638.2 101.3 638.7 101.6Q639.2 101.8 639.4 102.3Q639.7 102.8 639.7 103.6L639.7 103.6L639.7 108L638.7 108L638.7 103.6Q638.7 102.9 638.3 102.6Q637.9 102.3 637.3 102.3L637.3 102.3Q636.9 102.3 636.6 102.5Q636.3 102.7 636.1 103.0Q635.9 103.3 635.9 103.7L635.9 103.7L635.9 108L634.9 108L634.9 103.5Q634.9 103.0 634.5 102.6Q634.1 102.3 633.6 102.3L633.6 102.3Q633.2 102.3 632.9 102.5Q632.5 102.7 632.3 103.0Q632.1 103.4 632.1 103.9L632.1 103.9L632.1 108ZM644.1 108.1L644.1 108.1Q643.4 108.1 642.9 107.9Q642.4 107.7 642.0 107.4Q641.7 107.0 641.6 106.4L641.6 106.4L642.6 106.2Q642.7 106.7 643.1 107.0Q643.5 107.2 644.1 107.2L644.1 107.2Q644.8 107.2 645.2 106.9Q645.6 106.6 645.6 106.2L645.6 106.2Q645.6 105.9 645.4 105.7Q645.1 105.4 644.6 105.3L644.6 105.3L643.5 105.1Q642.6 104.9 642.2 104.4Q641.8 104.0 641.8 103.3L641.8 103.3Q641.8 102.7 642.1 102.3Q642.4 101.9 643.0 101.6Q643.5 101.4 644.2 101.4L644.2 101.4Q644.9 101.4 645.4 101.6Q645.8 101.8 646.1 102.1Q646.4 102.5 646.6 102.9L646.6 102.9L645.6 103.2Q645.5 102.8 645.2 102.6Q644.8 102.3 644.2 102.3L644.2 102.3Q643.6 102.3 643.2 102.5Q642.8 102.8 642.8 103.2L642.8 103.2Q642.8 103.6 643.1 103.8Q643.4 104.0 643.9 104.2L643.9 104.2L644.9 104.4Q645.8 104.6 646.3 105.0Q646.7 105.5 646.7 106.2L646.7 106.2Q646.7 106.7 646.4 107.2Q646.0 107.6 645.5 107.9Q644.9 108.1 644.1 108.1Z "/></g><defs><clipPath id="satori_bc-id-1-1-3" clip-path="url(#satori_cp-id)"><path x="41" y="130" width="199" height="33" d="M51,130 h179 a10,10 0 0 1 10,10 v13 a10,10 0 0 1 -10,10 h-179 a10,10 0 0 1 -10,-10 v-13 a10,10 0 0 1 10,-10"/></clipPath></defs><mask id="satori_om-id-1-1-3"><rect x="42" y="131" width="197" height="31" fill="#fff" mask="url(#satori_om-id)"/><path width="199" height="33" fill="none" stroke="#000" stroke-width="2" d="M43.929,132.929 A10,10 0 0 1 51,130 h179 a10,10 0 0 1 10,10 v13 a10,10 0 0 1 -10,10 h-179 a10,10 0 0 1 -10,-10 v-13 A10,10 0 0 1 43.929,132.929"/></mask><path x="41" y="130" width="199" height="33" fill="rgba(236,72,153,0.04)" d="M51,130 h179 a10,10 0 0 1 10,10 v13 a10,10 0 0 1 -10,10 h-179 a10,10 0 0 1 -10,-10 v-13 a10,10 0 0 1 10,-10" clip-path="url(#satori_cp-id)" mask="url(#satori_om-id)"/><path width="199" height="33" clip-path="url(#satori_bc-id-1-1-3)" fill="none" stroke="rgba(236,72,153,0.12)" stroke-width="2" d="M43.929,132.929 A10,10 0 0 1 51,130 h179 a10,10 0 0 1 10,10 v13 a10,10 0 0 1 -10,10 h-179 a10,10 0 0 1 -10,-10 v-13 A10,10 0 0 1 43.929,132.929"/><mask id="satori_ms-id-1-1-3-0-0" maskUnits="userSpaceOnUse"><rect x="0" y="0" width="860" height="220" fill="#fff"/><path x="58" y="144" width="6" height="6" fill="#000"  stroke-width="0" d="M61,144 h0 a3,3 0 0 1 3,3 v0 a3,3 0 0 1 -3,3 h0 a3,3 0 0 1 -3,-3 v0 a3,3 0 0 1 3,-3" clip-path="url(#satori_cp-id)" mask="url(#satori_om-id)"/></mask><defs><filter id="satori_s-id-1-1-3-0-0" x="-266.66666666666663%" y="-266.66666666666663%" width="633.3333333333333%" height="633.3333333333333%"><feGaussianBlur stdDeviation="4" result="b"/><feFlood flood-color="rgba(236,72,153,0.5)" in="SourceGraphic" result="f"/><feComposite in="f" in2="b" operator="in"/></filter></defs><g mask="url(#satori_ms-id-1-1-3-0-0)" filter="url(#satori_s-id-1-1-3-0-0)" opacity="1"><path x="58" y="144" width="6" height="6" fill="#fff" stroke="#fff" stroke-width="0" d="M61,144 h0 a3,3 0 0 1 3,3 v0 a3,3 0 0 1 -3,3 h0 a3,3 0 0 1 -3,-3 v0 a3,3 0 0 1 3,-3" clip-path="url(#satori_cp-id)" mask="url(#satori_om-id)"/></g><mask id="satori_om-id-1-1-3-0"><rect x="58" y="144" width="6" height="6" fill="#fff" mask="url(#satori_om-id)"/></mask><path x="58" y="144" width="6" height="6" fill="rgba(236,72,153,0.9)" d="M61,144 h0 a3,3 0 0 1 3,3 v0 a3,3 0 0 1 -3,3 h0 a3,3 0 0 1 -3,-3 v0 a3,3 0 0 1 3,-3" clip-path="url(#satori_cp-id)" mask="url(#satori_om-id)"/><mask id="satori_om-id-1-1-3-1"><rect x="72" y="139" width="151" height="15" fill="#fff" mask="url(#satori_om-id)"/></mask><g mask="url(#satori_om-id)" clip-path="url(#satori_cp-id)"><path fill="rgba(255,255,255,0.60)" d="M73.5 151L72.3 151L75.5 142.3L76.8 142.3L80.0 151L78.8 151L77.9 148.6L74.3 148.6L73.5 151ZM74.7 147.6L77.6 147.6L77.0 145.8Q76.8 145.3 76.6 144.6L76.6 144.6Q76.4 144.0 76.1 143.2L76.1 143.2Q75.9 144.0 75.7 144.6L75.7 144.6Q75.4 145.4 75.3 145.8L75.3 145.8L74.7 147.6ZM84.0 151.1L84.0 151.1Q83.1 151.1 82.5 150.7Q81.9 150.3 81.5 149.5Q81.2 148.8 81.2 147.7L81.2 147.7Q81.2 146.7 81.5 145.9Q81.9 145.2 82.5 144.8Q83.2 144.4 84.0 144.4L84.0 144.4Q84.6 144.4 85.0 144.6Q85.4 144.8 85.6 145.1Q85.8 145.3 85.9 145.5L85.9 145.5L85.9 145.5L85.9 142.3L87.0 142.3L87.0 151L86.0 151L86.0 150.0L85.9 150.0Q85.8 150.2 85.6 150.4Q85.3 150.7 85.0 150.9Q84.6 151.1 84.0 151.1ZM84.1 150.2L84.1 150.2Q84.7 150.2 85.1 149.9Q85.5 149.6 85.7 149.0Q86.0 148.5 86.0 147.7L86.0 147.7Q86.0 147.0 85.8 146.5Q85.5 145.9 85.1 145.6Q84.7 145.3 84.1 145.3L84.1 145.3Q83.5 145.3 83.1 145.6Q82.7 146.0 82.5 146.5Q82.3 147.1 82.3 147.7L82.3 147.7Q82.3 148.4 82.5 149.0Q82.7 149.5 83.1 149.9Q83.5 150.2 84.1 150.2ZM92.2 151L91.0 151L88.5 144.4L89.7 144.4L91.1 148.3Q91.3 148.9 91.5 149.5L91.5 149.5Q91.5 149.8 91.6 150.0L91.6 150.0Q91.7 149.8 91.7 149.5L91.7 149.5Q91.9 148.9 92.1 148.3L92.1 148.3L93.5 144.4L94.7 144.4L92.2 151ZM98.0 151.2L98.0 151.2Q97.4 151.2 96.9 150.9Q96.4 150.7 96.1 150.2Q95.8 149.8 95.8 149.1L95.8 149.1Q95.8 148.6 96.0 148.2Q96.2 147.9 96.6 147.7Q97.0 147.5 97.4 147.4Q97.9 147.3 98.3 147.2L98.3 147.2Q98.9 147.1 99.3 147.1Q99.7 147.1 99.9 147.0Q100.0 146.9 100.0 146.6L100.0 146.6L100.0 146.6Q100.0 146.2 99.9 145.9Q99.7 145.6 99.4 145.4Q99.1 145.3 98.7 145.3L98.7 145.3Q98.2 145.3 97.9 145.4Q97.5 145.6 97.3 145.8Q97.1 146.0 97.0 146.3L97.0 146.3L96.0 145.9Q96.2 145.3 96.7 145.0Q97.1 144.6 97.6 144.5Q98.1 144.4 98.6 144.4L98.6 144.4Q99.0 144.4 99.4 144.4Q99.8 144.5 100.2 144.8Q100.6 145.0 100.8 145.5Q101.1 145.9 101.1 146.7L101.1 146.7L101.1 151L100.0 151L100.0 150.1L100.0 150.1Q99.9 150.3 99.6 150.6Q99.4 150.8 99.0 151.0Q98.6 151.2 98.0 151.2ZM98.2 150.2L98.2 150.2Q98.8 150.2 99.2 150.0Q99.6 149.8 99.8 149.4Q100.0 149.0 100.0 148.6L100.0 148.6L100.0 147.7Q100.0 147.8 99.7 147.9Q99.5 147.9 99.3 148.0Q99.0 148.0 98.7 148.0Q98.5 148.1 98.3 148.1L98.3 148.1Q97.9 148.1 97.6 148.3Q97.3 148.4 97.1 148.6Q96.9 148.8 96.9 149.2L96.9 149.2Q96.9 149.5 97.0 149.8Q97.2 150.0 97.5 150.1Q97.8 150.2 98.2 150.2ZM104.3 147.1L104.3 147.1L104.3 151L103.2 151L103.2 144.4L104.2 144.4L104.3 145.7Q104.5 145.0 105.0 144.7L105.0 144.7Q105.5 144.4 106.3 144.4L106.3 144.4Q106.9 144.4 107.4 144.6Q107.9 144.9 108.2 145.5Q108.5 146.0 108.5 146.8L108.5 146.8L108.5 151L107.4 151L107.4 146.9Q107.4 146.2 107.0 145.7Q106.6 145.3 105.9 145.3L105.9 145.3Q105.5 145.3 105.1 145.5Q104.7 145.7 104.5 146.1Q104.3 146.5 104.3 147.1ZM113.3 151.1L113.3 151.1Q112.4 151.1 111.7 150.7Q111.1 150.3 110.7 149.5Q110.3 148.8 110.3 147.8L110.3 147.8Q110.3 146.7 110.7 146.0Q111.1 145.2 111.7 144.8Q112.4 144.4 113.3 144.4L113.3 144.4Q113.8 144.4 114.2 144.5Q114.6 144.6 115.0 144.8Q115.3 145.1 115.6 145.4Q115.8 145.8 115.9 146.2L115.9 146.2L114.9 146.5Q114.9 146.2 114.7 146.0Q114.6 145.8 114.4 145.6Q114.2 145.5 113.9 145.4Q113.6 145.3 113.3 145.3L113.3 145.3Q112.6 145.3 112.2 145.7Q111.8 146.0 111.6 146.6Q111.4 147.1 111.4 147.8L111.4 147.8Q111.4 148.4 111.6 149.0Q111.8 149.5 112.2 149.9Q112.6 150.2 113.3 150.2L113.3 150.2Q113.6 150.2 113.9 150.1Q114.2 150.0 114.4 149.9Q114.6 149.7 114.7 149.5Q114.9 149.3 115.0 149.0L115.0 149.0L116.0 149.3Q115.8 149.7 115.6 150.1Q115.3 150.4 115.0 150.6Q114.6 150.9 114.2 151.0Q113.8 151.1 113.3 151.1ZM120.5 151.1L120.5 151.1Q119.6 151.1 118.9 150.7Q118.2 150.3 117.8 149.5Q117.5 148.8 117.5 147.8Q117.5 146.8 117.8 146.0Q118.2 145.2 118.9 144.8Q119.5 144.4 120.4 144.4L120.4 144.4Q120.9 144.4 121.4 144.5Q121.9 144.7 122.4 145.1Q122.8 145.5 123.0 146.1Q123.3 146.7 123.3 147.6L123.3 147.6L123.3 148.1L118.5 148.1Q118.6 148.7 118.8 149.2L118.8 149.2Q119.0 149.7 119.5 149.9Q119.9 150.2 120.5 150.2L120.5 150.2Q120.9 150.2 121.2 150.1Q121.6 150.0 121.8 149.8Q122.0 149.5 122.1 149.2L122.1 149.2L123.2 149.5Q123.0 150.0 122.6 150.3Q122.3 150.7 121.7 150.9Q121.2 151.1 120.5 151.1ZM118.5 147.2L118.5 147.2L122.2 147.2Q122.2 146.7 122.0 146.4L122.0 146.4Q121.8 145.9 121.4 145.6Q121.0 145.3 120.4 145.3Q119.8 145.3 119.4 145.6Q119.0 145.9 118.8 146.3L118.8 146.3Q118.6 146.7 118.5 147.2ZM127.5 151.1L127.5 151.1Q126.7 151.1 126.1 150.7Q125.5 150.3 125.1 149.5Q124.8 148.8 124.8 147.7L124.8 147.7Q124.8 146.7 125.1 145.9Q125.5 145.2 126.1 144.8Q126.7 144.4 127.5 144.4L127.5 144.4Q128.2 144.4 128.6 144.6Q128.9 144.8 129.1 145.1Q129.3 145.3 129.4 145.5L129.4 145.5L129.5 145.5L129.5 142.3L130.6 142.3L130.6 151L129.6 151L129.6 150.0L129.4 150.0Q129.3 150.2 129.1 150.4Q128.9 150.7 128.5 150.9Q128.2 151.1 127.5 151.1ZM127.7 150.2L127.7 150.2Q128.3 150.2 128.7 149.9Q129.1 149.6 129.3 149.0Q129.5 148.5 129.5 147.7L129.5 147.7Q129.5 147.0 129.3 146.5Q129.1 145.9 128.7 145.6Q128.3 145.3 127.7 145.3L127.7 145.3Q127.1 145.3 126.7 145.6Q126.2 146.0 126.0 146.5Q125.8 147.1 125.8 147.7L125.8 147.7Q125.8 148.4 126.0 149.0Q126.2 149.5 126.7 149.9Q127.1 150.2 127.7 150.2Z M139.9 151.1L139.9 151.1Q138.9 151.1 138.1 150.7Q137.4 150.3 136.9 149.6Q136.5 148.9 136.5 148.0L136.5 148.0L136.5 142.3L137.6 142.3L137.6 147.9Q137.6 148.6 137.9 149.1Q138.2 149.5 138.7 149.8Q139.2 150.1 139.9 150.1L139.9 150.1Q140.7 150.1 141.2 149.8Q141.7 149.5 142.0 149.1Q142.2 148.6 142.2 147.9L142.2 147.9L142.2 142.3L143.3 142.3L143.3 148.0Q143.3 148.9 142.9 149.6Q142.5 150.3 141.7 150.7Q141.0 151.1 139.9 151.1ZM145.8 142.3L146.9 142.3L146.9 151L145.8 151L145.8 142.3Z M158.3 151L153.0 151L153.0 142.3L158.3 142.3L158.3 143.3L154.1 143.3L154.1 146.1L158.0 146.1L158.0 147.1L154.1 147.1L154.1 150.0L158.3 150.0L158.3 151ZM161.4 147.1L161.4 147.1L161.4 151L160.3 151L160.3 144.4L161.4 144.4L161.4 145.7Q161.6 145.0 162.1 144.7L162.1 144.7Q162.6 144.4 163.4 144.4L163.4 144.4Q164.0 144.4 164.5 144.6Q165.0 144.9 165.3 145.5Q165.6 146.0 165.6 146.8L165.6 146.8L165.6 151L164.5 151L164.5 146.9Q164.5 146.2 164.1 145.7Q163.7 145.3 163.0 145.3L163.0 145.3Q162.6 145.3 162.2 145.5Q161.8 145.7 161.6 146.1Q161.4 146.5 161.4 147.1ZM170.4 153.6L170.4 153.6Q169.7 153.6 169.1 153.4Q168.6 153.2 168.2 152.9Q167.9 152.6 167.7 152.3L167.7 152.3L168.5 151.7Q168.7 151.9 168.9 152.1Q169.1 152.3 169.5 152.5Q169.8 152.7 170.4 152.7L170.4 152.7Q171.2 152.7 171.7 152.3Q172.2 151.9 172.2 151.1L172.2 151.1L172.2 149.8L172.1 149.8Q172.0 150.0 171.8 150.2Q171.6 150.5 171.2 150.7Q170.8 150.9 170.2 150.9L170.2 150.9Q169.4 150.9 168.8 150.5Q168.1 150.2 167.8 149.4Q167.4 148.7 167.4 147.7L167.4 147.7Q167.4 146.7 167.8 145.9Q168.1 145.2 168.8 144.8Q169.4 144.4 170.2 144.4L170.2 144.4Q170.8 144.4 171.2 144.6Q171.6 144.8 171.8 145.1Q172.0 145.3 172.1 145.5L172.1 145.5L172.2 145.5L172.2 144.4L173.2 144.4L173.2 151.2Q173.2 152.0 172.9 152.5Q172.5 153.1 171.8 153.3Q171.2 153.6 170.4 153.6ZM170.4 150.0L170.4 150.0Q171.0 150.0 171.4 149.7Q171.8 149.4 172.0 148.9Q172.2 148.4 172.2 147.7L172.2 147.7Q172.2 147.0 172.0 146.4Q171.8 145.9 171.4 145.6Q171.0 145.3 170.4 145.3L170.4 145.3Q169.7 145.3 169.3 145.6Q168.9 145.9 168.7 146.5Q168.5 147.0 168.5 147.7L168.5 147.7Q168.5 148.3 168.7 148.9Q168.9 149.4 169.3 149.7Q169.7 150.0 170.4 150.0ZM176.4 151L175.4 151L175.4 144.4L176.4 144.4L176.4 151ZM175.9 143.4L175.9 143.4Q175.6 143.4 175.4 143.2Q175.2 143.0 175.2 142.7L175.2 142.7Q175.2 142.4 175.4 142.2Q175.6 142.0 175.9 142.0L175.9 142.0Q176.2 142.0 176.4 142.2Q176.7 142.4 176.7 142.7L176.7 142.7Q176.7 143.0 176.4 143.2Q176.2 143.4 175.9 143.4ZM179.6 147.1L179.6 147.1L179.6 151L178.6 151L178.6 144.4L179.6 144.4L179.6 145.7Q179.9 145.0 180.3 144.7L180.3 144.7Q180.9 144.4 181.6 144.4L181.6 144.4Q182.3 144.4 182.8 144.6Q183.3 144.9 183.6 145.5Q183.8 146.0 183.8 146.8L183.8 146.8L183.8 151L182.8 151L182.8 146.9Q182.8 146.2 182.4 145.7Q182.0 145.3 181.3 145.3L181.3 145.3Q180.8 145.3 180.5 145.5Q180.1 145.7 179.9 146.1Q179.6 146.5 179.6 147.1ZM188.7 151.1L188.7 151.1Q187.8 151.1 187.1 150.7Q186.4 150.3 186.0 149.5Q185.7 148.8 185.7 147.8Q185.7 146.8 186.0 146.0Q186.4 145.2 187.1 144.8Q187.7 144.4 188.6 144.4L188.6 144.4Q189.1 144.4 189.6 144.5Q190.2 144.7 190.6 145.1Q191.0 145.5 191.2 146.1Q191.5 146.7 191.5 147.6L191.5 147.6L191.5 148.1L186.7 148.1Q186.8 148.7 187.0 149.2L187.0 149.2Q187.2 149.7 187.7 149.9Q188.1 150.2 188.7 150.2L188.7 150.2Q189.1 150.2 189.4 150.1Q189.8 150.0 190.0 149.8Q190.2 149.5 190.3 149.2L190.3 149.2L191.4 149.5Q191.2 150.0 190.8 150.3Q190.5 150.7 189.9 150.9Q189.4 151.1 188.7 151.1ZM186.7 147.2L186.7 147.2L190.4 147.2Q190.4 146.7 190.2 146.4L190.2 146.4Q190.0 145.9 189.6 145.6Q189.2 145.3 188.6 145.3Q188.0 145.3 187.6 145.6Q187.2 145.9 187.0 146.3L187.0 146.3Q186.8 146.7 186.7 147.2ZM196.0 151.1L196.0 151.1Q195.1 151.1 194.4 150.7Q193.7 150.3 193.3 149.5Q193.0 148.8 193.0 147.8Q193.0 146.8 193.3 146.0Q193.7 145.2 194.4 144.8Q195.0 144.4 195.9 144.4L195.9 144.4Q196.4 144.4 196.9 144.5Q197.4 144.7 197.9 145.1Q198.3 145.5 198.5 146.1Q198.8 146.7 198.8 147.6L198.8 147.6L198.8 148.1L194.0 148.1Q194.1 148.7 194.3 149.2L194.3 149.2Q194.5 149.7 195.0 149.9Q195.4 150.2 196.0 150.2L196.0 150.2Q196.4 150.2 196.7 150.1Q197.1 150.0 197.3 149.8Q197.5 149.5 197.6 149.2L197.6 149.2L198.7 149.5Q198.5 150.0 198.1 150.3Q197.8 150.7 197.2 150.9Q196.7 151.1 196.0 151.1ZM194.0 147.2L194.0 147.2L197.7 147.2Q197.7 146.7 197.5 146.4L197.5 146.4Q197.3 145.9 196.9 145.6Q196.5 145.3 195.9 145.3Q195.3 145.3 194.9 145.6Q194.5 145.9 194.3 146.3L194.3 146.3Q194.1 146.7 194.0 147.2ZM201.6 151L200.6 151L200.6 144.4L201.6 144.4L201.6 145.5L201.7 145.5Q201.8 145.0 202.3 144.7Q202.8 144.4 203.4 144.4L203.4 144.4Q203.5 144.4 203.6 144.4Q203.8 144.4 203.9 144.4L203.9 144.4L203.9 145.4Q203.9 145.4 203.7 145.4Q203.5 145.4 203.3 145.4L203.3 145.4Q202.8 145.4 202.4 145.6Q202.1 145.8 201.8 146.1Q201.6 146.5 201.6 146.9L201.6 146.9L201.6 151ZM206.4 151L205.4 151L205.4 144.4L206.4 144.4L206.4 151ZM205.9 143.4L205.9 143.4Q205.6 143.4 205.4 143.2Q205.2 143.0 205.2 142.7L205.2 142.7Q205.2 142.4 205.4 142.2Q205.6 142.0 205.9 142.0L205.9 142.0Q206.2 142.0 206.4 142.2Q206.7 142.4 206.7 142.7L206.7 142.7Q206.7 143.0 206.4 143.2Q206.2 143.4 205.9 143.4ZM209.7 147.1L209.7 147.1L209.7 151L208.6 151L208.6 144.4L209.6 144.4L209.6 145.7Q209.9 145.0 210.3 144.7L210.3 144.7Q210.9 144.4 211.6 144.4L211.6 144.4Q212.3 144.4 212.8 144.6Q213.3 144.9 213.6 145.5Q213.8 146.0 213.8 146.8L213.8 146.8L213.8 151L212.8 151L212.8 146.9Q212.8 146.2 212.4 145.7Q212.0 145.3 211.3 145.3L211.3 145.3Q210.8 145.3 210.5 145.5Q210.1 145.7 209.9 146.1Q209.7 146.5 209.7 147.1ZM218.6 153.6L218.6 153.6Q217.9 153.6 217.4 153.4Q216.9 153.2 216.5 152.9Q216.2 152.6 215.9 152.3L215.9 152.3L216.8 151.7Q216.9 151.9 217.2 152.1Q217.4 152.3 217.7 152.5Q218.1 152.7 218.6 152.7L218.6 152.7Q219.4 152.7 219.9 152.3Q220.4 151.9 220.4 151.1L220.4 151.1L220.4 149.8L220.3 149.8Q220.2 150.0 220.0 150.2Q219.8 150.5 219.5 150.7Q219.1 150.9 218.4 150.9L218.4 150.9Q217.7 150.9 217.0 150.5Q216.4 150.2 216.0 149.4Q215.7 148.7 215.7 147.7L215.7 147.7Q215.7 146.7 216.0 145.9Q216.4 145.2 217.0 144.8Q217.6 144.4 218.5 144.4L218.5 144.4Q219.1 144.4 219.5 144.6Q219.9 144.8 220.1 145.1Q220.3 145.3 220.4 145.5L220.4 145.5L220.5 145.5L220.5 144.4L221.5 144.4L221.5 151.2Q221.5 152.0 221.1 152.5Q220.7 153.1 220.1 153.3Q219.4 153.6 218.6 153.6ZM218.6 150.0L218.6 150.0Q219.2 150.0 219.6 149.7Q220.0 149.4 220.2 148.9Q220.5 148.4 220.5 147.7L220.5 147.7Q220.5 147.0 220.2 146.4Q220.0 145.9 219.6 145.6Q219.2 145.3 218.6 145.3L218.6 145.3Q218.0 145.3 217.6 145.6Q217.2 145.9 217.0 146.5Q216.7 147.0 216.7 147.7L216.7 147.7Q216.7 148.3 217.0 148.9Q217.2 149.4 217.6 149.7Q218.0 150.0 218.6 150.0Z "/></g><defs><clipPath id="satori_bc-id-1-1-4" clip-path="url(#satori_cp-id)"><path x="250" y="130" width="191" height="33" d="M260,130 h171 a10,10 0 0 1 10,10 v13 a10,10 0 0 1 -10,10 h-171 a10,10 0 0 1 -10,-10 v-13 a10,10 0 0 1 10,-10"/></clipPath></defs><mask id="satori_om-id-1-1-4"><rect x="251" y="131" width="189" height="31" fill="#fff" mask="url(#satori_om-id)"/><path width="191" height="33" fill="none" stroke="#000" stroke-width="2" d="M252.929,132.929 A10,10 0 0 1 260,130 h171 a10,10 0 0 1 10,10 v13 a10,10 0 0 1 -10,10 h-171 a10,10 0 0 1 -10,-10 v-13 A10,10 0 0 1 252.929,132.929"/></mask><path x="250" y="130" width="191" height="33" fill="rgba(168,85,247,0.04)" d="M260,130 h171 a10,10 0 0 1 10,10 v13 a10,10 0 0 1 -10,10 h-171 a10,10 0 0 1 -10,-10 v-13 a10,10 0 0 1 10,-10" clip-path="url(#satori_cp-id)" mask="url(#satori_om-id)"/><path width="191" height="33" clip-path="url(#satori_bc-id-1-1-4)" fill="none" stroke="rgba(168,85,247,0.12)" stroke-width="2" d="M252.929,132.929 A10,10 0 0 1 260,130 h171 a10,10 0 0 1 10,10 v13 a10,10 0 0 1 -10,10 h-171 a10,10 0 0 1 -10,-10 v-13 A10,10 0 0 1 252.929,132.929"/><mask id="satori_ms-id-1-1-4-0-0" maskUnits="userSpaceOnUse"><rect x="0" y="0" width="860" height="220" fill="#fff"/><path x="267" y="144" width="6" height="6" fill="#000"  stroke-width="0" d="M270,144 h0 a3,3 0 0 1 3,3 v0 a3,3 0 0 1 -3,3 h0 a3,3 0 0 1 -3,-3 v0 a3,3 0 0 1 3,-3" clip-path="url(#satori_cp-id)" mask="url(#satori_om-id)"/></mask><defs><filter id="satori_s-id-1-1-4-0-0" x="-266.66666666666663%" y="-266.66666666666663%" width="633.3333333333333%" height="633.3333333333333%"><feGaussianBlur stdDeviation="4" result="b"/><feFlood flood-color="rgba(168,85,247,0.5)" in="SourceGraphic" result="f"/><feComposite in="f" in2="b" operator="in"/></filter></defs><g mask="url(#satori_ms-id-1-1-4-0-0)" filter="url(#satori_s-id-1-1-4-0-0)" opacity="1"><path x="267" y="144" width="6" height="6" fill="#fff" stroke="#fff" stroke-width="0" d="M270,144 h0 a3,3 0 0 1 3,3 v0 a3,3 0 0 1 -3,3 h0 a3,3 0 0 1 -3,-3 v0 a3,3 0 0 1 3,-3" clip-path="url(#satori_cp-id)" mask="url(#satori_om-id)"/></g><mask id="satori_om-id-1-1-4-0"><rect x="267" y="144" width="6" height="6" fill="#fff" mask="url(#satori_om-id)"/></mask><path x="267" y="144" width="6" height="6" fill="rgba(168,85,247,0.9)" d="M270,144 h0 a3,3 0 0 1 3,3 v0 a3,3 0 0 1 -3,3 h0 a3,3 0 0 1 -3,-3 v0 a3,3 0 0 1 3,-3" clip-path="url(#satori_cp-id)" mask="url(#satori_om-id)"/><mask id="satori_om-id-1-1-4-1"><rect x="281" y="139" width="143" height="15" fill="#fff" mask="url(#satori_om-id)"/></mask><g mask="url(#satori_om-id)" clip-path="url(#satori_cp-id)"><path fill="rgba(255,255,255,0.60)" d="M283.2 151L282.1 151L282.1 142.3L285.0 142.3Q286.1 142.3 286.7 142.6Q287.4 143.0 287.7 143.6Q288.0 144.2 288.0 145.0Q288.0 145.7 287.7 146.3Q287.4 146.9 286.7 147.3L286.7 147.3Q286.6 147.4 286.4 147.4L286.4 147.4L288.4 151L287.1 151L285.3 147.6Q285.2 147.6 285.0 147.6L285.0 147.6L283.2 147.6L283.2 151ZM283.2 143.2L283.2 146.6L285.0 146.6Q285.7 146.6 286.1 146.4Q286.5 146.2 286.7 145.8Q286.9 145.5 286.9 145.0L286.9 145.0Q286.9 144.4 286.7 144.1Q286.5 143.7 286.1 143.5Q285.7 143.2 285.0 143.2L285.0 143.2L283.2 143.2ZM292.7 151.1L292.7 151.1Q291.8 151.1 291.1 150.7Q290.4 150.3 290.0 149.5Q289.6 148.8 289.6 147.8Q289.6 146.8 290.0 146.0Q290.4 145.2 291.0 144.8Q291.7 144.4 292.6 144.4L292.6 144.4Q293.1 144.4 293.6 144.5Q294.1 144.7 294.5 145.1Q294.9 145.5 295.2 146.1Q295.4 146.7 295.4 147.6L295.4 147.6L295.4 148.1L290.7 148.1Q290.7 148.7 291.0 149.2L291.0 149.2Q291.2 149.7 291.7 149.9Q292.1 150.2 292.7 150.2L292.7 150.2Q293.1 150.2 293.4 150.1Q293.7 150.0 294.0 149.8Q294.2 149.5 294.3 149.2L294.3 149.2L295.3 149.5Q295.2 150.0 294.8 150.3Q294.4 150.7 293.9 150.9Q293.4 151.1 292.7 151.1ZM290.7 147.2L290.7 147.2L294.4 147.2Q294.3 146.7 294.2 146.4L294.2 146.4Q294.0 145.9 293.6 145.6Q293.2 145.3 292.6 145.3Q292.0 145.3 291.6 145.6Q291.1 145.9 290.9 146.3L290.9 146.3Q290.7 146.7 290.7 147.2ZM299.1 151.2L299.1 151.2Q298.5 151.2 298.0 150.9Q297.4 150.7 297.1 150.2Q296.8 149.8 296.8 149.1L296.8 149.1Q296.8 148.6 297.1 148.2Q297.3 147.9 297.7 147.7Q298.0 147.5 298.5 147.4Q298.9 147.3 299.4 147.2L299.4 147.2Q300.0 147.1 300.4 147.1Q300.7 147.1 300.9 147.0Q301.1 146.9 301.1 146.6L301.1 146.6L301.1 146.6Q301.1 146.2 300.9 145.9Q300.8 145.6 300.5 145.4Q300.2 145.3 299.7 145.3L299.7 145.3Q299.2 145.3 298.9 145.4Q298.6 145.6 298.4 145.8Q298.2 146.0 298.0 146.3L298.0 146.3L297.0 145.9Q297.3 145.3 297.7 145.0Q298.1 144.6 298.7 144.5Q299.2 144.4 299.7 144.4L299.7 144.4Q300.0 144.4 300.4 144.4Q300.8 144.5 301.2 144.8Q301.6 145.0 301.9 145.5Q302.1 145.9 302.1 146.7L302.1 146.7L302.1 151L301.1 151L301.1 150.1L301.0 150.1Q300.9 150.3 300.7 150.6Q300.4 150.8 300.0 151.0Q299.6 151.2 299.1 151.2ZM299.3 150.2L299.3 150.2Q299.8 150.2 300.3 150.0Q300.7 149.8 300.9 149.4Q301.1 149.0 301.1 148.6L301.1 148.6L301.1 147.7Q301.0 147.8 300.8 147.9Q300.6 147.9 300.3 148.0Q300.0 148.0 299.8 148.0Q299.5 148.1 299.3 148.1L299.3 148.1Q299.0 148.1 298.6 148.3Q298.3 148.4 298.1 148.6Q297.9 148.8 297.9 149.2L297.9 149.2Q297.9 149.5 298.1 149.8Q298.3 150.0 298.6 150.1Q298.9 150.2 299.3 150.2ZM304.3 142.3L305.3 142.3L305.3 151L304.3 151L304.3 142.3ZM308.7 144.4L310.1 144.4L310.1 145.4L308.7 145.4L308.7 149.3Q308.7 149.7 308.9 149.9Q309.1 150.1 309.5 150.1L309.5 150.1Q309.6 150.1 309.7 150.1Q309.9 150.1 310.0 150.1L310.0 150.1L310.2 151.0Q310.1 151.0 309.9 151.1Q309.7 151.1 309.5 151.1L309.5 151.1Q308.6 151.1 308.1 150.6Q307.7 150.2 307.7 149.4L307.7 149.4L307.7 145.4L306.7 145.4L306.7 144.4L307.7 144.4L307.7 142.9L308.7 142.9L308.7 144.4ZM312.8 151L311.7 151L311.7 144.4L312.8 144.4L312.8 151ZM312.2 143.4L312.2 143.4Q311.9 143.4 311.7 143.2Q311.5 143.0 311.5 142.7L311.5 142.7Q311.5 142.4 311.7 142.2Q311.9 142.0 312.2 142.0L312.2 142.0Q312.6 142.0 312.8 142.2Q313.0 142.4 313.0 142.7L313.0 142.7Q313.0 143.0 312.8 143.2Q312.6 143.4 312.2 143.4ZM316.0 151L314.9 151L314.9 144.4L315.9 144.4L316.0 145.7Q316.1 145.3 316.3 145.0L316.3 145.0Q316.6 144.7 317.0 144.5Q317.4 144.3 317.8 144.3L317.8 144.3Q318.5 144.3 318.9 144.8L318.9 144.8Q319.3 145.1 319.5 145.7L319.5 145.7Q319.6 145.3 319.8 145.1L319.8 145.1Q320.1 144.7 320.6 144.5Q321.0 144.3 321.5 144.3L321.5 144.3Q322.1 144.3 322.6 144.6Q323.0 144.8 323.3 145.3Q323.6 145.8 323.6 146.6L323.6 146.6L323.6 151L322.5 151L322.5 146.6Q322.5 145.9 322.1 145.6Q321.7 145.3 321.2 145.3L321.2 145.3Q320.8 145.3 320.4 145.5Q320.1 145.7 320.0 146.0Q319.8 146.3 319.8 146.7L319.8 146.7L319.8 151L318.7 151L318.7 146.5Q318.7 146.0 318.4 145.6Q318.0 145.3 317.4 145.3L317.4 145.3Q317.1 145.3 316.7 145.5Q316.4 145.7 316.2 146.0Q316.0 146.4 316.0 146.9L316.0 146.9L316.0 151ZM328.5 151.1L328.5 151.1Q327.5 151.1 326.8 150.7Q326.2 150.3 325.8 149.5Q325.4 148.8 325.4 147.8Q325.4 146.8 325.8 146.0Q326.1 145.2 326.8 144.8Q327.5 144.4 328.4 144.4L328.4 144.4Q328.9 144.4 329.4 144.5Q329.9 144.7 330.3 145.1Q330.7 145.5 331.0 146.1Q331.2 146.7 331.2 147.6L331.2 147.6L331.2 148.1L326.5 148.1Q326.5 148.7 326.7 149.2L326.7 149.2Q327.0 149.7 327.4 149.9Q327.9 150.2 328.5 150.2L328.5 150.2Q328.9 150.2 329.2 150.1Q329.5 150.0 329.7 149.8Q330.0 149.5 330.1 149.2L330.1 149.2L331.1 149.5Q331.0 150.0 330.6 150.3Q330.2 150.7 329.7 150.9Q329.2 151.1 328.5 151.1ZM326.5 147.2L326.5 147.2L330.1 147.2Q330.1 146.7 330.0 146.4L330.0 146.4Q329.8 145.9 329.4 145.6Q329.0 145.3 328.4 145.3Q327.8 145.3 327.4 145.6Q326.9 145.9 326.7 146.3L326.7 146.3Q326.5 146.7 326.5 147.2Z M339.6 151L339.6 151L336.8 151L336.8 142.3L339.7 142.3Q340.9 142.3 341.9 142.8Q342.8 143.3 343.2 144.3Q343.7 145.3 343.7 146.6L343.7 146.6Q343.7 148.0 343.2 149.0Q342.8 149.9 341.8 150.5Q340.9 151 339.6 151ZM337.9 143.3L337.9 150.0L339.5 150.0Q340.6 150.0 341.3 149.6Q342.0 149.2 342.3 148.4Q342.6 147.7 342.6 146.6L342.6 146.6Q342.6 145.6 342.3 144.8Q342.0 144.1 341.3 143.7Q340.6 143.3 339.6 143.3L339.6 143.3L337.9 143.3ZM347.5 151.2L347.5 151.2Q346.9 151.2 346.4 150.9Q345.9 150.7 345.6 150.2Q345.3 149.8 345.3 149.1L345.3 149.1Q345.3 148.6 345.5 148.2Q345.7 147.9 346.1 147.7Q346.5 147.5 346.9 147.4Q347.4 147.3 347.8 147.2L347.8 147.2Q348.4 147.1 348.8 147.1Q349.1 147.1 349.3 147.0Q349.5 146.9 349.5 146.6L349.5 146.6L349.5 146.6Q349.5 146.2 349.3 145.9Q349.2 145.6 348.9 145.4Q348.6 145.3 348.1 145.3L348.1 145.3Q347.7 145.3 347.3 145.4Q347.0 145.6 346.8 145.8Q346.6 146.0 346.5 146.3L346.5 146.3L345.5 145.9Q345.7 145.3 346.1 145.0Q346.6 144.6 347.1 144.5Q347.6 144.4 348.1 144.4L348.1 144.4Q348.4 144.4 348.8 144.4Q349.3 144.5 349.7 144.8Q350.0 145.0 350.3 145.5Q350.6 145.9 350.6 146.7L350.6 146.7L350.6 151L349.5 151L349.5 150.1L349.4 150.1Q349.3 150.3 349.1 150.6Q348.8 150.8 348.4 151.0Q348.1 151.2 347.5 151.2ZM347.7 150.2L347.7 150.2Q348.3 150.2 348.7 150.0Q349.1 149.8 349.3 149.4Q349.5 149.0 349.5 148.6L349.5 148.6L349.5 147.7Q349.4 147.8 349.2 147.9Q349.0 147.9 348.7 148.0Q348.4 148.0 348.2 148.0Q347.9 148.1 347.8 148.1L347.8 148.1Q347.4 148.1 347.1 148.3Q346.7 148.4 346.5 148.6Q346.3 148.8 346.3 149.2L346.3 149.2Q346.3 149.5 346.5 149.8Q346.7 150.0 347.0 150.1Q347.3 150.2 347.7 150.2ZM353.9 144.4L355.3 144.4L355.3 145.4L353.9 145.4L353.9 149.3Q353.9 149.7 354.1 149.9Q354.3 150.1 354.7 150.1L354.7 150.1Q354.8 150.1 355.0 150.1Q355.1 150.1 355.2 150.1L355.2 150.1L355.5 151.0Q355.3 151.0 355.1 151.1Q354.9 151.1 354.7 151.1L354.7 151.1Q353.8 151.1 353.4 150.6Q352.9 150.2 352.9 149.4L352.9 149.4L352.9 145.4L351.9 145.4L351.9 144.4L352.9 144.4L352.9 142.9L353.9 142.9L353.9 144.4ZM358.8 151.2L358.8 151.2Q358.1 151.2 357.6 150.9Q357.1 150.7 356.8 150.2Q356.5 149.8 356.5 149.1L356.5 149.1Q356.5 148.6 356.8 148.2Q357.0 147.9 357.3 147.7Q357.7 147.5 358.2 147.4Q358.6 147.3 359.1 147.2L359.1 147.2Q359.7 147.1 360.0 147.1Q360.4 147.1 360.6 147.0Q360.8 146.9 360.8 146.6L360.8 146.6L360.8 146.6Q360.8 146.2 360.6 145.9Q360.5 145.6 360.2 145.4Q359.8 145.3 359.4 145.3L359.4 145.3Q358.9 145.3 358.6 145.4Q358.3 145.6 358.0 145.8Q357.8 146.0 357.7 146.3L357.7 146.3L356.7 145.9Q357.0 145.3 357.4 145.0Q357.8 144.6 358.3 144.5Q358.9 144.4 359.4 144.4L359.4 144.4Q359.7 144.4 360.1 144.4Q360.5 144.5 360.9 144.8Q361.3 145.0 361.6 145.5Q361.8 145.9 361.8 146.7L361.8 146.7L361.8 151L360.8 151L360.8 150.1L360.7 150.1Q360.6 150.3 360.4 150.6Q360.1 150.8 359.7 151.0Q359.3 151.2 358.8 151.2ZM358.9 150.2L358.9 150.2Q359.5 150.2 359.9 150.0Q360.3 149.8 360.5 149.4Q360.8 149.0 360.8 148.6L360.8 148.6L360.8 147.7Q360.7 147.8 360.5 147.9Q360.3 147.9 360.0 148.0Q359.7 148.0 359.4 148.0Q359.2 148.1 359.0 148.1L359.0 148.1Q358.7 148.1 358.3 148.3Q358.0 148.4 357.8 148.6Q357.6 148.8 357.6 149.2L357.6 149.2Q357.6 149.5 357.8 149.8Q357.9 150.0 358.2 150.1Q358.6 150.2 358.9 150.2Z M368.9 151L367.8 151L367.8 142.3L370.8 142.3Q371.8 142.3 372.4 142.6Q373.1 143.0 373.4 143.6Q373.7 144.3 373.7 145.0Q373.7 145.8 373.4 146.5Q373.1 147.1 372.4 147.5Q371.8 147.8 370.8 147.8L370.8 147.8L368.9 147.8L368.9 151ZM368.9 143.2L368.9 146.9L370.7 146.9Q371.4 146.9 371.8 146.6Q372.2 146.4 372.4 146.0Q372.6 145.6 372.6 145.0Q372.6 144.5 372.4 144.1Q372.2 143.7 371.8 143.5Q371.4 143.2 370.7 143.2L370.7 143.2L368.9 143.2ZM375.6 142.3L376.7 142.3L376.7 151L375.6 151L375.6 142.3ZM380.6 151.2L380.6 151.2Q380.0 151.2 379.5 150.9Q379.0 150.7 378.7 150.2Q378.4 149.8 378.4 149.1L378.4 149.1Q378.4 148.6 378.6 148.2Q378.9 147.9 379.2 147.7Q379.6 147.5 380.1 147.4Q380.5 147.3 381.0 147.2L381.0 147.2Q381.5 147.1 381.9 147.1Q382.3 147.1 382.5 147.0Q382.6 146.9 382.6 146.6L382.6 146.6L382.6 146.6Q382.6 146.2 382.5 145.9Q382.3 145.6 382.0 145.4Q381.7 145.3 381.3 145.3L381.3 145.3Q380.8 145.3 380.5 145.4Q380.1 145.6 379.9 145.8Q379.7 146.0 379.6 146.3L379.6 146.3L378.6 145.9Q378.9 145.3 379.3 145.0Q379.7 144.6 380.2 144.5Q380.7 144.4 381.2 144.4L381.2 144.4Q381.6 144.4 382.0 144.4Q382.4 144.5 382.8 144.8Q383.2 145.0 383.4 145.5Q383.7 145.9 383.7 146.7L383.7 146.7L383.7 151L382.7 151L382.7 150.1L382.6 150.1Q382.5 150.3 382.2 150.6Q382.0 150.8 381.6 151.0Q381.2 151.2 380.6 151.2ZM380.8 150.2L380.8 150.2Q381.4 150.2 381.8 150.0Q382.2 149.8 382.4 149.4Q382.6 149.0 382.6 148.6L382.6 148.6L382.6 147.7Q382.6 147.8 382.4 147.9Q382.1 147.9 381.9 148.0Q381.6 148.0 381.3 148.0Q381.1 148.1 380.9 148.1L380.9 148.1Q380.5 148.1 380.2 148.3Q379.9 148.4 379.7 148.6Q379.5 148.8 379.5 149.2L379.5 149.2Q379.5 149.5 379.6 149.8Q379.8 150.0 380.1 150.1Q380.4 150.2 380.8 150.2ZM387.1 144.4L388.4 144.4L388.4 145.4L387.1 145.4L387.1 149.3Q387.1 149.7 387.3 149.9Q387.4 150.1 387.9 150.1L387.9 150.1Q388.0 150.1 388.1 150.1Q388.3 150.1 388.4 150.1L388.4 150.1L388.6 151.0Q388.4 151.0 388.2 151.1Q388.0 151.1 387.8 151.1L387.8 151.1Q387.0 151.1 386.5 150.6Q386.0 150.2 386.0 149.4L386.0 149.4L386.0 145.4L385.0 145.4L385.0 144.4L386.0 144.4L386.0 142.9L387.1 142.9L387.1 144.4ZM391.6 144.4L393.1 144.4L393.1 145.4L391.6 145.4L391.6 151L390.6 151L390.6 145.4L389.3 145.4L389.3 144.4L390.6 144.4L390.6 143.6Q390.6 143.0 390.8 142.6Q391.1 142.2 391.5 142.1Q391.9 141.9 392.4 141.9L392.4 141.9Q392.8 141.9 393.0 141.9Q393.3 142.0 393.4 142.0L393.4 142.0L393.1 142.9Q393.0 142.9 392.9 142.9Q392.8 142.8 392.5 142.8L392.5 142.8Q392.1 142.8 391.8 143.1Q391.6 143.3 391.6 143.8L391.6 143.8L391.6 144.4ZM397.5 151.1L397.5 151.1Q396.6 151.1 395.9 150.7Q395.3 150.3 394.9 149.5Q394.5 148.8 394.5 147.8L394.5 147.8Q394.5 146.7 394.9 146.0Q395.3 145.2 395.9 144.8Q396.6 144.4 397.5 144.4L397.5 144.4Q398.4 144.4 399.1 144.8Q399.7 145.2 400.1 146.0Q400.5 146.7 400.5 147.8L400.5 147.8Q400.5 148.8 400.1 149.5Q399.7 150.3 399.1 150.7Q398.4 151.1 397.5 151.1ZM397.5 150.2L397.5 150.2Q398.1 150.2 398.6 149.9Q399.0 149.5 399.2 149.0Q399.4 148.4 399.4 147.8L399.4 147.8Q399.4 147.1 399.2 146.6Q399.0 146.0 398.6 145.7Q398.1 145.3 397.5 145.3L397.5 145.3Q396.8 145.3 396.4 145.7Q396.0 146.0 395.8 146.6Q395.6 147.1 395.6 147.8L395.6 147.8Q395.6 148.4 395.8 149.0Q396.0 149.5 396.4 149.9Q396.8 150.2 397.5 150.2ZM403.4 151L402.3 151L402.3 144.4L403.3 144.4L403.3 145.5L403.4 145.5Q403.6 145.0 404.0 144.7Q404.5 144.4 405.1 144.4L405.1 144.4Q405.2 144.4 405.4 144.4Q405.5 144.4 405.6 144.4L405.6 144.4L405.6 145.4Q405.6 145.4 405.4 145.4Q405.2 145.4 405.0 145.4L405.0 145.4Q404.5 145.4 404.2 145.6Q403.8 145.8 403.6 146.1Q403.4 146.5 403.4 146.9L403.4 146.9L403.4 151ZM408.2 151L407.1 151L407.1 144.4L408.2 144.4L408.2 145.7Q408.3 145.3 408.5 145.0L408.5 145.0Q408.8 144.7 409.2 144.5Q409.6 144.3 410.0 144.3L410.0 144.3Q410.7 144.3 411.2 144.8L411.2 144.8Q411.5 145.1 411.7 145.7L411.7 145.7Q411.8 145.3 412.0 145.1L412.0 145.1Q412.3 144.7 412.8 144.5Q413.2 144.3 413.7 144.3L413.7 144.3Q414.3 144.3 414.8 144.6Q415.2 144.8 415.5 145.3Q415.8 145.8 415.8 146.6L415.8 146.6L415.8 151L414.7 151L414.7 146.6Q414.7 145.9 414.3 145.6Q413.9 145.3 413.4 145.3L413.4 145.3Q413.0 145.3 412.7 145.5Q412.3 145.7 412.2 146.0Q412.0 146.3 412.0 146.7L412.0 146.7L412.0 151L410.9 151L410.9 146.5Q410.9 146.0 410.6 145.6Q410.2 145.3 409.6 145.3L409.6 145.3Q409.3 145.3 408.9 145.5Q408.6 145.7 408.4 146.0Q408.2 146.4 408.2 146.9L408.2 146.9L408.2 151ZM420.2 151.1L420.2 151.1Q419.5 151.1 419.0 150.9Q418.4 150.7 418.1 150.4Q417.8 150.0 417.6 149.4L417.6 149.4L418.7 149.2Q418.8 149.7 419.2 150.0Q419.6 150.2 420.2 150.2L420.2 150.2Q420.8 150.2 421.2 149.9Q421.7 149.6 421.7 149.2L421.7 149.2Q421.7 148.9 421.4 148.7Q421.2 148.4 420.7 148.3L420.7 148.3L419.6 148.1Q418.7 147.9 418.3 147.4Q417.8 147.0 417.8 146.3L417.8 146.3Q417.8 145.7 418.2 145.3Q418.5 144.9 419.0 144.6Q419.6 144.4 420.3 144.4L420.3 144.4Q420.9 144.4 421.4 144.6Q421.9 144.8 422.2 145.1Q422.5 145.5 422.6 145.9L422.6 145.9L421.7 146.2Q421.5 145.8 421.2 145.6Q420.9 145.3 420.3 145.3L420.3 145.3Q419.7 145.3 419.3 145.5Q418.9 145.8 418.9 146.2L418.9 146.2Q418.9 146.6 419.2 146.8Q419.4 147.0 420.0 147.2L420.0 147.2L421.0 147.4Q421.9 147.6 422.3 148.0Q422.8 148.5 422.8 149.2L422.8 149.2Q422.8 149.7 422.4 150.2Q422.1 150.6 421.5 150.9Q420.9 151.1 420.2 151.1Z "/></g><defs><clipPath id="satori_bc-id-1-1-5" clip-path="url(#satori_cp-id)"><path x="451" y="130" width="159" height="33" d="M461,130 h139 a10,10 0 0 1 10,10 v13 a10,10 0 0 1 -10,10 h-139 a10,10 0 0 1 -10,-10 v-13 a10,10 0 0 1 10,-10"/></clipPath></defs><mask id="satori_om-id-1-1-5"><rect x="452" y="131" width="157" height="31" fill="#fff" mask="url(#satori_om-id)"/><path width="159" height="33" fill="none" stroke="#000" stroke-width="2" d="M453.929,132.929 A10,10 0 0 1 461,130 h139 a10,10 0 0 1 10,10 v13 a10,10 0 0 1 -10,10 h-139 a10,10 0 0 1 -10,-10 v-13 A10,10 0 0 1 453.929,132.929"/></mask><path x="451" y="130" width="159" height="33" fill="rgba(0,180,255,0.04)" d="M461,130 h139 a10,10 0 0 1 10,10 v13 a10,10 0 0 1 -10,10 h-139 a10,10 0 0 1 -10,-10 v-13 a10,10 0 0 1 10,-10" clip-path="url(#satori_cp-id)" mask="url(#satori_om-id)"/><path width="159" height="33" clip-path="url(#satori_bc-id-1-1-5)" fill="none" stroke="rgba(0,180,255,0.12)" stroke-width="2" d="M453.929,132.929 A10,10 0 0 1 461,130 h139 a10,10 0 0 1 10,10 v13 a10,10 0 0 1 -10,10 h-139 a10,10 0 0 1 -10,-10 v-13 A10,10 0 0 1 453.929,132.929"/><mask id="satori_ms-id-1-1-5-0-0" maskUnits="userSpaceOnUse"><rect x="0" y="0" width="860" height="220" fill="#fff"/><path x="468" y="144" width="6" height="6" fill="#000"  stroke-width="0" d="M471,144 h0 a3,3 0 0 1 3,3 v0 a3,3 0 0 1 -3,3 h0 a3,3 0 0 1 -3,-3 v0 a3,3 0 0 1 3,-3" clip-path="url(#satori_cp-id)" mask="url(#satori_om-id)"/></mask><defs><filter id="satori_s-id-1-1-5-0-0" x="-266.66666666666663%" y="-266.66666666666663%" width="633.3333333333333%" height="633.3333333333333%"><feGaussianBlur stdDeviation="4" result="b"/><feFlood flood-color="rgba(0,180,255,0.5)" in="SourceGraphic" result="f"/><feComposite in="f" in2="b" operator="in"/></filter></defs><g mask="url(#satori_ms-id-1-1-5-0-0)" filter="url(#satori_s-id-1-1-5-0-0)" opacity="1"><path x="468" y="144" width="6" height="6" fill="#fff" stroke="#fff" stroke-width="0" d="M471,144 h0 a3,3 0 0 1 3,3 v0 a3,3 0 0 1 -3,3 h0 a3,3 0 0 1 -3,-3 v0 a3,3 0 0 1 3,-3" clip-path="url(#satori_cp-id)" mask="url(#satori_om-id)"/></g><mask id="satori_om-id-1-1-5-0"><rect x="468" y="144" width="6" height="6" fill="#fff" mask="url(#satori_om-id)"/></mask><path x="468" y="144" width="6" height="6" fill="rgba(0,180,255,0.9)" d="M471,144 h0 a3,3 0 0 1 3,3 v0 a3,3 0 0 1 -3,3 h0 a3,3 0 0 1 -3,-3 v0 a3,3 0 0 1 3,-3" clip-path="url(#satori_cp-id)" mask="url(#satori_om-id)"/><mask id="satori_om-id-1-1-5-1"><rect x="482" y="139" width="111" height="15" fill="#fff" mask="url(#satori_om-id)"/></mask><g mask="url(#satori_om-id)" clip-path="url(#satori_cp-id)"><path fill="rgba(255,255,255,0.60)" d="M488.2 151L483.1 151L483.1 142.3L484.2 142.3L484.2 150.0L488.2 150.0L488.2 151ZM495.3 151L490.1 151L490.1 142.3L491.3 142.3L491.3 150.0L495.3 150.0L495.3 151ZM498.3 151L497.2 151L497.2 142.3L498.8 142.3L501.0 147.8Q501.0 148.0 501.1 148.3Q501.2 148.6 501.3 148.9Q501.4 149.2 501.5 149.6L501.5 149.6Q501.6 149.7 501.6 149.8L501.6 149.8Q501.6 149.7 501.7 149.6L501.7 149.6Q501.8 149.3 501.9 148.9Q502.0 148.6 502.1 148.3Q502.2 148.0 502.2 147.8L502.2 147.8L504.4 142.3L506.0 142.3L506.0 151L504.9 151L504.9 146.0Q504.9 145.7 504.9 145.4Q504.9 145.1 504.9 144.7Q504.9 144.3 504.9 143.9L504.9 143.9Q504.9 143.7 504.9 143.5L504.9 143.5Q504.8 143.7 504.7 144.0L504.7 144.0Q504.6 144.4 504.5 144.8Q504.3 145.2 504.2 145.5Q504.1 145.8 504.0 146.0L504.0 146.0L502.1 151L501.1 151L499.1 146.0Q499.0 145.8 498.9 145.5Q498.8 145.2 498.7 144.8Q498.6 144.4 498.4 144.0L498.4 144.0Q498.3 143.7 498.2 143.5L498.2 143.5Q498.3 143.7 498.3 143.8L498.3 143.8Q498.3 144.2 498.3 144.6Q498.3 145.0 498.3 145.4Q498.3 145.7 498.3 146.0L498.3 146.0L498.3 151Z M515.6 151.1L515.6 151.1Q514.5 151.1 513.6 150.6Q512.7 150.0 512.2 149.0Q511.7 148.0 511.7 146.6L511.7 146.6Q511.7 145.3 512.2 144.2Q512.7 143.2 513.6 142.7Q514.5 142.2 515.6 142.2L515.6 142.2Q516.7 142.2 517.6 142.7Q518.4 143.2 518.9 144.2Q519.4 145.3 519.4 146.6L519.4 146.6Q519.4 148.0 518.9 149.0Q518.4 150.0 517.6 150.6Q516.7 151.1 515.6 151.1ZM515.6 150.1L515.6 150.1Q516.4 150.1 517.0 149.7Q517.6 149.3 518.0 148.5Q518.4 147.8 518.4 146.6L518.4 146.6Q518.4 145.5 518.0 144.7Q517.6 144.0 517.0 143.6Q516.4 143.2 515.6 143.2L515.6 143.2Q514.8 143.2 514.2 143.6Q513.5 144.0 513.2 144.8Q512.8 145.5 512.8 146.6L512.8 146.6Q512.8 147.8 513.2 148.5Q513.5 149.3 514.2 149.7Q514.8 150.1 515.6 150.1ZM522.4 151L521.4 151L521.4 144.4L522.4 144.4L522.4 145.5L522.5 145.5Q522.7 145.0 523.1 144.7Q523.6 144.4 524.2 144.4L524.2 144.4Q524.3 144.4 524.5 144.4Q524.6 144.4 524.7 144.4L524.7 144.4L524.7 145.4Q524.7 145.4 524.5 145.4Q524.3 145.4 524.1 145.4L524.1 145.4Q523.6 145.4 523.2 145.6Q522.9 145.8 522.7 146.1Q522.4 146.5 522.4 146.9L522.4 146.9L522.4 151ZM528.9 151.1L528.9 151.1Q528.0 151.1 527.3 150.7Q526.6 150.3 526.3 149.5Q525.9 148.8 525.9 147.8L525.9 147.8Q525.9 146.7 526.3 146.0Q526.6 145.2 527.3 144.8Q528.0 144.4 528.9 144.4L528.9 144.4Q529.3 144.4 529.8 144.5Q530.2 144.6 530.5 144.8Q530.9 145.1 531.1 145.4Q531.4 145.8 531.5 146.2L531.5 146.2L530.5 146.5Q530.4 146.2 530.3 146.0Q530.1 145.8 529.9 145.6Q529.7 145.5 529.5 145.4Q529.2 145.3 528.9 145.3L528.9 145.3Q528.2 145.3 527.8 145.7Q527.4 146.0 527.2 146.6Q527.0 147.1 527.0 147.8L527.0 147.8Q527.0 148.4 527.2 149.0Q527.4 149.5 527.8 149.9Q528.2 150.2 528.9 150.2L528.9 150.2Q529.2 150.2 529.5 150.1Q529.7 150.0 530.0 149.9Q530.2 149.7 530.3 149.5Q530.5 149.3 530.5 149.0L530.5 149.0L531.5 149.3Q531.4 149.7 531.2 150.1Q530.9 150.4 530.6 150.6Q530.2 150.9 529.8 151.0Q529.4 151.1 528.9 151.1ZM534.4 147.1L534.4 147.1L534.4 151L533.4 151L533.4 142.3L534.4 142.3L534.4 145.6Q534.7 145.0 535.1 144.7L535.1 144.7Q535.6 144.4 536.4 144.4L536.4 144.4Q537.0 144.4 537.5 144.6Q538.0 144.9 538.3 145.5Q538.6 146.0 538.6 146.8L538.6 146.8L538.6 151L537.5 151L537.5 146.9Q537.5 146.2 537.1 145.7Q536.8 145.3 536.1 145.3L536.1 145.3Q535.6 145.3 535.2 145.5Q534.8 145.7 534.6 146.1Q534.4 146.5 534.4 147.1ZM543.5 151.1L543.5 151.1Q542.6 151.1 541.9 150.7Q541.2 150.3 540.8 149.5Q540.4 148.8 540.4 147.8Q540.4 146.8 540.8 146.0Q541.2 145.2 541.8 144.8Q542.5 144.4 543.4 144.4L543.4 144.4Q543.9 144.4 544.4 144.5Q544.9 144.7 545.3 145.1Q545.7 145.5 546.0 146.1Q546.2 146.7 546.2 147.6L546.2 147.6L546.2 148.1L541.5 148.1Q541.5 148.7 541.8 149.2L541.8 149.2Q542.0 149.7 542.5 149.9Q542.9 150.2 543.5 150.2L543.5 150.2Q543.9 150.2 544.2 150.1Q544.5 150.0 544.8 149.8Q545.0 149.5 545.1 149.2L545.1 149.2L546.1 149.5Q546.0 150.0 545.6 150.3Q545.3 150.7 544.7 150.9Q544.2 151.1 543.5 151.1ZM541.5 147.2L541.5 147.2L545.2 147.2Q545.1 146.7 545.0 146.4L545.0 146.4Q544.8 145.9 544.4 145.6Q544.0 145.3 543.4 145.3Q542.8 145.3 542.4 145.6Q542.0 145.9 541.7 146.3L541.7 146.3Q541.5 146.7 541.5 147.2ZM550.3 151.1L550.3 151.1Q549.6 151.1 549.1 150.9Q548.6 150.7 548.2 150.4Q547.9 150.0 547.8 149.4L547.8 149.4L548.8 149.2Q548.9 149.7 549.3 150.0Q549.7 150.2 550.3 150.2L550.3 150.2Q551.0 150.2 551.4 149.9Q551.8 149.6 551.8 149.2L551.8 149.2Q551.8 148.9 551.5 148.7Q551.3 148.4 550.8 148.3L550.8 148.3L549.7 148.1Q548.8 147.9 548.4 147.4Q548.0 147.0 548.0 146.3L548.0 146.3Q548.0 145.7 548.3 145.3Q548.6 144.9 549.1 144.6Q549.7 144.4 550.4 144.4L550.4 144.4Q551.1 144.4 551.5 144.6Q552.0 144.8 552.3 145.1Q552.6 145.5 552.7 145.9L552.7 145.9L551.8 146.2Q551.6 145.8 551.3 145.6Q551.0 145.3 550.4 145.3L550.4 145.3Q549.8 145.3 549.4 145.5Q549.0 145.8 549.0 146.2L549.0 146.2Q549.0 146.6 549.3 146.8Q549.6 147.0 550.1 147.2L550.1 147.2L551.1 147.4Q552.0 147.6 552.4 148.0Q552.9 148.5 552.9 149.2L552.9 149.2Q552.9 149.7 552.5 150.2Q552.2 150.6 551.6 150.9Q551.0 151.1 550.3 151.1ZM555.9 144.4L557.3 144.4L557.3 145.4L555.9 145.4L555.9 149.3Q555.9 149.7 556.1 149.9Q556.3 150.1 556.7 150.1L556.7 150.1Q556.8 150.1 556.9 150.1Q557.1 150.1 557.2 150.1L557.2 150.1L557.4 151.0Q557.3 151.0 557.1 151.1Q556.9 151.1 556.7 151.1L556.7 151.1Q555.8 151.1 555.3 150.6Q554.9 150.2 554.9 149.4L554.9 149.4L554.9 145.4L553.9 145.4L553.9 144.4L554.9 144.4L554.9 142.9L555.9 142.9L555.9 144.4ZM560.0 151L558.9 151L558.9 144.4L559.9 144.4L559.9 145.5L560.0 145.5Q560.2 145.0 560.6 144.7Q561.1 144.4 561.7 144.4L561.7 144.4Q561.8 144.4 562.0 144.4Q562.1 144.4 562.2 144.4L562.2 144.4L562.2 145.4Q562.2 145.4 562.0 145.4Q561.8 145.4 561.6 145.4L561.6 145.4Q561.1 145.4 560.8 145.6Q560.4 145.8 560.2 146.1Q560.0 146.5 560.0 146.9L560.0 146.9L560.0 151ZM565.6 151.2L565.6 151.2Q564.9 151.2 564.4 150.9Q563.9 150.7 563.6 150.2Q563.3 149.8 563.3 149.1L563.3 149.1Q563.3 148.6 563.6 148.2Q563.8 147.9 564.1 147.7Q564.5 147.5 565.0 147.4Q565.4 147.3 565.9 147.2L565.9 147.2Q566.5 147.1 566.8 147.1Q567.2 147.1 567.4 147.0Q567.6 146.9 567.6 146.6L567.6 146.6L567.6 146.6Q567.6 146.2 567.4 145.9Q567.3 145.6 567.0 145.4Q566.6 145.3 566.2 145.3L566.2 145.3Q565.7 145.3 565.4 145.4Q565.1 145.6 564.8 145.8Q564.6 146.0 564.5 146.3L564.5 146.3L563.5 145.9Q563.8 145.3 564.2 145.0Q564.6 144.6 565.1 144.5Q565.7 144.4 566.2 144.4L566.2 144.4Q566.5 144.4 566.9 144.4Q567.3 144.5 567.7 144.8Q568.1 145.0 568.4 145.5Q568.6 145.9 568.6 146.7L568.6 146.7L568.6 151L567.6 151L567.6 150.1L567.5 150.1Q567.4 150.3 567.2 150.6Q566.9 150.8 566.5 151.0Q566.1 151.2 565.6 151.2ZM565.7 150.2L565.7 150.2Q566.3 150.2 566.7 150.0Q567.1 149.8 567.3 149.4Q567.6 149.0 567.6 148.6L567.6 148.6L567.6 147.7Q567.5 147.8 567.3 147.9Q567.1 147.9 566.8 148.0Q566.5 148.0 566.2 148.0Q566.0 148.1 565.8 148.1L565.8 148.1Q565.5 148.1 565.1 148.3Q564.8 148.4 564.6 148.6Q564.4 148.8 564.4 149.2L564.4 149.2Q564.4 149.5 564.6 149.8Q564.7 150.0 565.0 150.1Q565.4 150.2 565.7 150.2ZM572.0 144.4L573.3 144.4L573.3 145.4L572.0 145.4L572.0 149.3Q572.0 149.7 572.2 149.9Q572.4 150.1 572.8 150.1L572.8 150.1Q572.9 150.1 573.0 150.1Q573.2 150.1 573.3 150.1L573.3 150.1L573.5 151.0Q573.4 151.0 573.2 151.1Q572.9 151.1 572.7 151.1L572.7 151.1Q571.9 151.1 571.4 150.6Q570.9 150.2 570.9 149.4L570.9 149.4L570.9 145.4L570.0 145.4L570.0 144.4L570.9 144.4L570.9 142.9L572.0 142.9L572.0 144.4ZM576.0 151L575.0 151L575.0 144.4L576.0 144.4L576.0 151ZM575.5 143.4L575.5 143.4Q575.2 143.4 575.0 143.2Q574.8 143.0 574.8 142.7L574.8 142.7Q574.8 142.4 575.0 142.2Q575.2 142.0 575.5 142.0L575.5 142.0Q575.8 142.0 576.0 142.2Q576.3 142.4 576.3 142.7L576.3 142.7Q576.3 143.0 576.0 143.2Q575.8 143.4 575.5 143.4ZM580.9 151.1L580.9 151.1Q580.0 151.1 579.3 150.7Q578.6 150.3 578.3 149.5Q577.9 148.8 577.9 147.8L577.9 147.8Q577.9 146.7 578.3 146.0Q578.6 145.2 579.3 144.8Q580.0 144.4 580.9 144.4L580.9 144.4Q581.8 144.4 582.4 144.8Q583.1 145.2 583.5 146.0Q583.9 146.7 583.9 147.8L583.9 147.8Q583.9 148.8 583.5 149.5Q583.1 150.3 582.4 150.7Q581.8 151.1 580.9 151.1ZM580.9 150.2L580.9 150.2Q581.5 150.2 582.0 149.9Q582.4 149.5 582.6 149.0Q582.8 148.4 582.8 147.8L582.8 147.8Q582.8 147.1 582.6 146.6Q582.4 146.0 582.0 145.7Q581.5 145.3 580.9 145.3L580.9 145.3Q580.2 145.3 579.8 145.7Q579.4 146.0 579.2 146.6Q579.0 147.1 579.0 147.8L579.0 147.8Q579.0 148.4 579.2 149.0Q579.4 149.5 579.8 149.9Q580.2 150.2 580.9 150.2ZM586.7 147.1L586.7 147.1L586.7 151L585.7 151L585.7 144.4L586.7 144.4L586.7 145.7Q587.0 145.0 587.4 144.7L587.4 144.7Q588.0 144.4 588.7 144.4L588.7 144.4Q589.4 144.4 589.9 144.6Q590.4 144.9 590.7 145.5Q590.9 146.0 590.9 146.8L590.9 146.8L590.9 151L589.9 151L589.9 146.9Q589.9 146.2 589.5 145.7Q589.1 145.3 588.4 145.3L588.4 145.3Q587.9 145.3 587.6 145.5Q587.2 145.7 587.0 146.1Q586.7 146.5 586.7 147.1Z "/></g></svg>