<svg xmlns="http://www.w3.org/2000/svg" viewBox="0 0 24 24" aria-hidden="true">
  <path fill="#e8eef8" d="M12 .5C5.86.5.5 5.86.5 12c0 5.25 3.4 9.7 8.12 11.28.6.11.82-.26.82-.58 0-.28-.02-1.23-.02-2.23-3.02.56-3.83-.74-4.08-1.4-.14-.35-.73-1.41-1.25-1.69-.43-.23-1.04-.8-.01-.81.96-.02 1.65.88 1.88 1.26 1.1 1.85 2.85 1.33 3.54 1.01.11-.79.42-1.34.76-1.64-2.66-.31-5.45-1.33-5.45-5.92 0-1.31.47-2.38 1.24-3.22-.12-.31-.54-1.54.12-3.2 0 0 1.01-.32 3.3 1.23.96-.27 1.99-.4 3.01-.4s2.05.14 3.02.4c2.28-1.55 3.29-1.23 3.29-1.23.66 1.66.24 2.89.12 3.2.77.84 1.23 1.91 1.23 3.22 0 4.61-2.8 5.62-5.48 5.92.43.37.81 1.1.81 2.22 0 1.6-.02 2.89-.02 3.29 0 .32.22.69.83.57A11.5 11.5 0 0 0 23.5 12C23.5 5.86 18.14.5 12 .5Z"/>
</svg>
